<?xml version="1.0" encoding="utf-8"?>
<!-- Generator: Adobe Illustrator 13.0.1, SVG Export Plug-In . SVG Version: 6.00 Build 14948)  -->
<!DOCTYPE svg PUBLIC "-//W3C//DTD SVG 1.1//EN" "http://www.w3.org/Graphics/SVG/1.1/DTD/svg11.dtd">
<svg version="1.1" id="Слой_1" xmlns="http://www.w3.org/2000/svg" xmlns:xlink="http://www.w3.org/1999/xlink" x="0px" y="0px"
	 width="160.32px" height="123.449px" viewBox="0 0 160.32 123.449" enable-background="new 0 0 160.32 123.449"
	 xml:space="preserve">
<rect x="1" y="35.246" fill="#FFFFFF" width="118.406" height="88.203"/>
<rect x="1.138" y="35.384" fill="#F7F8F9" width="118.129" height="87.929"/>
<rect x="1.277" y="35.523" fill="#F3F2F3" width="117.852" height="87.649"/>
<rect x="1.416" y="35.662" fill="#EDEDEE" width="117.574" height="87.372"/>
<rect x="1.554" y="35.8" fill="#E9E8E8" width="117.297" height="87.097"/>
<rect x="1.693" y="35.939" fill="#E3E4E5" width="117.02" height="86.817"/>
<rect x="1.831" y="36.077" fill="#DEE0E0" width="116.743" height="86.542"/>
<rect x="1.97" y="36.215" fill="#D9DBDC" width="116.467" height="86.268"/>
<rect x="2.108" y="36.354" fill="#D4D6D7" width="116.189" height="85.987"/>
<rect x="2.246" y="36.492" fill="#D0D1D3" width="115.914" height="85.711"/>
<rect x="2.385" y="36.631" fill="#CACBCD" width="115.637" height="85.436"/>
<rect x="2.523" y="36.769" fill="#C5C7C8" width="115.358" height="85.158"/>
<rect x="2.662" y="36.908" fill="#C0C2C4" width="115.082" height="84.88"/>
<rect x="2.8" y="37.046" fill="#BCBDC0" width="114.806" height="84.604"/>
<rect x="2.939" y="37.185" fill="#B7B9BC" width="114.526" height="84.326"/>
<rect x="3.078" y="37.323" fill="#B2B4B7" width="114.25" height="84.05"/>
<rect x="3.216" y="37.462" fill="#AEB1B2" width="113.974" height="83.771"/>
<rect x="3.354" y="37.6" fill="#A9ABAD" width="113.698" height="83.497"/>
<rect x="3.493" y="37.738" fill="#A4A6A9" width="113.42" height="83.219"/>
<rect x="3.631" y="37.877" fill="#9EA0A3" width="113.145" height="82.94"/>
<rect x="3.769" y="38.015" fill="#999C9E" width="112.867" height="82.666"/>
<rect x="3.908" y="38.154" fill="#96989B" width="112.59" height="82.388"/>
<rect x="4.046" y="38.293" fill="#929496" width="112.313" height="82.11"/>
<rect x="4.185" y="38.431" fill="#8E9092" width="112.035" height="81.833"/>
<rect x="4.324" y="38.57" fill="#898B8E" width="111.758" height="81.557"/>
<rect x="4.462" y="38.708" fill="#858789" width="111.481" height="81.279"/>
<rect x="4.601" y="38.846" fill="#818285" width="111.205" height="81.004"/>
<rect x="0" y="34.246" fill="#D2D3D4" width="114.807" height="84.604"/>
<rect x="14.926" y="76.291" fill="#FFFFFF" width="31.627" height="13.371"/>
<rect x="14.926" y="76.291" fill="none" stroke="#231F20" stroke-width="0.5" stroke-miterlimit="3.864" width="31.627" height="13.371"/>
<polyline fill="none" stroke="#231F20" stroke-width="0.5" stroke-miterlimit="3.864" points="21.398,71.287 21.398,4.07 
	91.671,4.07 "/>
<polyline fill="#231F20" points="21.398,70.995 23.148,70.995 21.398,75.37 19.648,70.995 21.398,70.995 "/>
<rect x="14.926" y="97.292" fill="#FFFFFF" width="31.627" height="13.37"/>
<rect x="14.926" y="97.292" fill="none" stroke="#231F20" stroke-width="0.5" stroke-miterlimit="3.864" width="31.627" height="13.37"/>
<rect x="50.928" y="41.29" fill="#FFFFFF" width="57.628" height="29.371"/>
<rect x="50.928" y="41.29" fill="none" stroke="#231F20" stroke-width="0.5" stroke-miterlimit="3.864" width="57.628" height="29.371"/>
<rect x="94.658" y="1.25" fill="#FFFFFF" width="65.662" height="17.201"/>
<rect x="94.826" y="1.389" fill="#F7F8F9" width="65.328" height="16.924"/>
<rect x="94.992" y="1.527" fill="#F3F2F3" width="64.994" height="16.646"/>
<rect x="95.16" y="1.665" fill="#EDEDEE" width="64.658" height="16.37"/>
<rect x="95.328" y="1.804" fill="#E9E8E8" width="64.324" height="16.093"/>
<rect x="95.494" y="1.943" fill="#E3E4E5" width="63.99" height="15.816"/>
<rect x="95.658" y="2.081" fill="#DEE0E0" width="63.66" height="15.539"/>
<rect x="95.826" y="2.22" fill="#D9DBDC" width="63.326" height="15.262"/>
<rect x="95.994" y="2.358" fill="#D4D6D7" width="62.99" height="14.986"/>
<rect x="96.16" y="2.497" fill="#D0D1D3" width="62.656" height="14.708"/>
<rect x="96.328" y="2.635" fill="#CACBCD" width="62.32" height="14.431"/>
<rect x="96.498" y="2.774" fill="#C5C7C8" width="61.984" height="14.154"/>
<rect x="96.662" y="2.911" fill="#C0C2C4" width="61.652" height="13.878"/>
<rect x="96.83" y="3.051" fill="#BCBDC0" width="61.316" height="13.601"/>
<rect x="97" y="3.188" fill="#B7B9BC" width="60.98" height="13.324"/>
<rect x="97.162" y="3.328" fill="#B2B4B7" width="60.65" height="13.046"/>
<rect x="97.33" y="3.466" fill="#AEB1B2" width="60.316" height="12.771"/>
<rect x="97.498" y="3.604" fill="#A9ABAD" width="59.982" height="12.493"/>
<rect x="97.666" y="3.743" fill="#A4A6A9" width="59.646" height="12.216"/>
<rect x="97.832" y="3.881" fill="#9EA0A3" width="59.313" height="11.939"/>
<rect x="98" y="4.019" fill="#999C9E" width="58.979" height="11.662"/>
<rect x="98.167" y="4.158" fill="#96989B" width="58.644" height="11.385"/>
<rect x="98.333" y="4.296" fill="#929496" width="58.31" height="11.108"/>
<rect x="98.501" y="4.435" fill="#8E9092" width="57.976" height="10.831"/>
<rect x="98.667" y="4.574" fill="#898B8E" width="57.642" height="10.554"/>
<rect x="98.833" y="4.712" fill="#858789" width="57.312" height="10.277"/>
<rect x="99.001" y="4.851" fill="#818285" width="56.976" height="10"/>
<rect x="93.451" y="0.25" fill="#FFFFFF" width="61.318" height="13.602"/>
<rect x="92.003" y="0.25" fill="none" stroke="#231F20" stroke-width="0.5" stroke-miterlimit="3.864" width="63.328" height="13.602"/>
<path fill="#818285" d="M14.555,20.46c0-3.727,3.021-6.748,6.749-6.748c3.727,0,6.749,3.021,6.749,6.748
	c0,3.729-3.022,6.749-6.749,6.749C17.576,27.209,14.555,24.188,14.555,20.46"/>
<circle fill="none" stroke="#818285" stroke-width="1.35" stroke-miterlimit="3.864" cx="21.304" cy="20.46" r="6.749"/>
<path fill="#818285" d="M14.739,20.46c0-3.625,2.939-6.564,6.565-6.564s6.564,2.939,6.564,6.564c0,3.626-2.938,6.566-6.564,6.566
	S14.739,24.086,14.739,20.46"/>
<circle fill="#ED1C24" stroke="#FFFFFF" stroke-width="0.348" stroke-miterlimit="3.864" cx="21.304" cy="20.46" r="6.565"/>
<rect x="16.645" y="18.905" fill="#FFFFFF" width="9.465" height="2.851"/>
<polyline fill="none" stroke="#231F20" stroke-width="0.5" stroke-miterlimit="3.864" points="51.216,104.726 80.521,104.726 
	80.521,74.815 "/>
<polyline fill="#231F20" points="51.508,104.726 51.508,106.476 47.133,104.726 51.508,102.976 51.508,104.726 "/>
<polyline fill="#231F20" points="80.498,71.459 82.253,74.097 80.498,76.733 78.742,74.097 80.498,71.459 "/>
<polygon fill="none" stroke="#231F20" stroke-width="0.5" stroke-linecap="square" stroke-linejoin="round" stroke-miterlimit="1" points="
	80.498,71.459 82.253,74.097 80.498,76.733 78.742,74.097 "/>
<line fill="none" stroke="#231F20" stroke-width="0.5" stroke-miterlimit="1" x1="50.988" y1="82.903" x2="80.73" y2="82.903"/>
<polyline fill="#231F20" points="51.279,82.903 51.279,84.653 46.904,82.903 51.279,81.153 51.279,82.903 "/>
<polyline fill="#231F20" points="54.076,90.019 54.684,90.019 54.684,84.819 54.172,84.819 53.076,85.459 53.196,85.938 
	54.061,85.442 54.076,85.442 54.076,90.019 "/>
<path fill="#231F20" d="M55.821,111.624v-1.438h0.568v-0.506h-0.568v-3.257h-0.6l-1.688,3.347v0.416h1.729v1.438H55.821
	 M54.117,109.679v-0.017l0.72-1.496c0.151-0.319,0.265-0.565,0.439-0.981h0.033c-0.024,0.342-0.048,0.662-0.048,1.021v1.464h-1.145
	V109.679z"/>
<polyline fill="none" stroke="#231F20" stroke-width="0.5" stroke-miterlimit="1" points="91.722,9.93 80.318,9.93 80.318,41.179 
	"/>
<polyline fill="none" stroke="#231F20" stroke-width="0.5" stroke-miterlimit="1" points="50.774,65.181 35.84,65.181 35.84,71.688 
	"/>
<polyline fill="#231F20" points="35.84,71.397 37.59,71.397 35.84,75.772 34.09,71.397 35.84,71.397 "/>
<polyline fill="none" stroke="#BCBDC0" stroke-width="0.5" stroke-miterlimit="1" stroke-dasharray="1,1" points="80.318,41.179 
	80.318,65.181 51.201,65.181 "/>
<rect x="73.439" y="14.104" fill="#62BB46" width="13.756" height="13.757"/>
<rect x="73.439" y="14.104" fill="none" stroke="#231F20" stroke-width="0.5" stroke-miterlimit="1" width="13.756" height="13.757"/>
<polyline fill="#FFFFFF" points="79.414,15.903 78.797,16.189 78.534,16.594 78.486,17.306 78.986,18.377 79.318,19.352 
	79.39,19.732 78.082,19.875 77.012,20.304 76.798,21.017 77.131,21.73 77.82,22.087 77.131,21.969 77.036,22.396 77.274,22.872 
	77.63,23.039 77.63,23.514 78.106,23.871 78.32,23.871 78.415,24.275 78.582,24.608 79.152,24.774 79.699,24.798 80.103,24.774 
	80.627,24.894 81.507,24.632 82.744,23.538 83.742,23.443 84.099,22.277 83.884,20.85 83.791,20.47 83.101,20.351 82.458,20.256 
	80.627,18.139 79.771,17.164 79.533,15.856 79.414,15.903 "/>
<path fill="#231F20" d="M83.888,23.676h-1.093c-0.504,0.576-1.049,0.998-1.635,1.268c-0.186,0.015-0.322,0.021-0.41,0.021
	c-0.25,0-0.534-0.044-0.852-0.132l-0.265,0.132h-0.313c-0.719,0-1.079-0.257-1.079-0.77c0-0.029,0.005-0.073,0.015-0.132
	c-0.527-0.044-0.792-0.295-0.792-0.755c0-0.049,0.006-0.117,0.016-0.205c-0.196-0.055-0.346-0.143-0.447-0.265
	c-0.098-0.121-0.146-0.276-0.146-0.462c0-0.15,0.054-0.313,0.16-0.483c-0.264-0.284-0.396-0.6-0.396-0.946
	c0-0.401,0.218-0.723,0.653-0.968c0.435-0.244,1.012-0.366,1.729-0.366h0.183c-0.058-0.44-0.192-0.866-0.401-1.276l-0.118-0.205
	c-0.255-0.483-0.381-0.857-0.381-1.121c0-0.729,0.383-1.184,1.15-1.364l0.214-0.052l0.365,1.628l1.357,1.444
	c0.092,0.107,0.254,0.315,0.484,0.623l0.204,0.271c0.22,0.299,0.373,0.481,0.462,0.55c0.094,0.064,0.239,0.095,0.438,0.095h0.859
	c0.264,0.563,0.395,1.141,0.395,1.731C84.248,22.514,84.128,23.094,83.888,23.676 M83.646,23.293
	c0.151-0.443,0.229-0.87,0.229-1.274c0-0.479-0.084-0.951-0.25-1.416c-0.615,0-1.002-0.036-1.158-0.109
	c-0.155-0.074-0.391-0.331-0.702-0.77c-0.127-0.171-0.316-0.414-0.564-0.728l-1.475-1.567l-0.293-1.357
	c-0.488,0.167-0.733,0.479-0.733,0.939c0,0.238,0.083,0.498,0.249,0.776l0.096,0.161c0.381,0.636,0.572,1.242,0.572,1.818
	l0.008,0.206h-0.266c-0.776,0-1.361,0.078-1.751,0.233c-0.393,0.152-0.587,0.384-0.587,0.697c0,0.283,0.1,0.523,0.3,0.719
	c0.206,0.195,0.455,0.293,0.749,0.293l0.447,0.007l1.326-0.601c-0.199-0.303-0.469-0.454-0.807-0.455
	c-0.088,0-0.199,0.021-0.337,0.06c-0.137,0.038-0.298,0.098-0.484,0.176l-0.344,0.015l-0.345-0.367l0.594-0.007
	c0.171-0.074,0.327-0.127,0.469-0.161c0.143-0.035,0.271-0.052,0.389-0.052c0.625,0,1.084,0.318,1.371,0.953L80.099,21.6
	c0.307,0.15,0.545,0.415,0.711,0.792l-0.287,0.124c0.225,0.142,0.434,0.384,0.623,0.726l-0.453,0.213
	c0.248,0.182,0.449,0.438,0.6,0.77l-0.899,0.403c0.146,0.029,0.271,0.044,0.373,0.044l0.287-0.008
	c0.648-0.376,1.178-0.833,1.583-1.371H83.646z M80.304,22.23c-0.172-0.23-0.377-0.376-0.617-0.44l-1.092,0.491h-0.389
	c-0.367,0-0.645-0.051-0.836-0.154c-0.063,0.088-0.095,0.172-0.095,0.25c0,0.151,0.073,0.267,0.22,0.345
	c0.151,0.073,0.376,0.11,0.674,0.11h0.777L80.304,22.23z M80.611,23.088c-0.023-0.028-0.043-0.054-0.059-0.072
	c-0.117-0.138-0.256-0.245-0.418-0.323l-1.121,0.499l-1.188-0.008l-0.021,0.095c0,0.289,0.285,0.433,0.857,0.433h0.55L80.611,23.088
	z M80.765,24.078c-0.033-0.044-0.061-0.078-0.08-0.103c-0.094-0.132-0.211-0.251-0.352-0.359l-1.049,0.469H78.61v0.044
	c0,0.328,0.237,0.491,0.712,0.491h0.242L80.765,24.078z"/>
<g enable-background="new    ">
	<path d="M94.787,7.909l-0.384,1.383h-1.264l1.647-5.389h1.6l1.67,5.389h-1.311L96.33,7.909H94.787z M96.154,6.997l-0.336-1.144
		c-0.096-0.319-0.191-0.719-0.271-1.039H95.53c-0.079,0.32-0.159,0.728-0.247,1.039l-0.32,1.144H96.154z"/>
	<path d="M98.731,5.422c0.296-0.04,0.968-0.096,1.575-0.096c0.664,0,1.936,0.072,1.936,0.999c0,0.504-0.408,0.768-0.8,0.848v0.017
		c0.583,0.096,0.968,0.424,0.968,0.951c0,1.111-1.512,1.207-2.311,1.207c-0.545,0-1.12-0.04-1.368-0.071V5.422z M99.923,8.596
		c0.128,0.016,0.224,0.016,0.408,0.016c0.415,0,0.831-0.12,0.831-0.504c0-0.336-0.319-0.495-0.887-0.495h-0.353V8.596z
		 M99.931,6.909h0.311c0.488,0,0.801-0.128,0.801-0.424c0-0.256-0.209-0.416-0.696-0.416c-0.168,0-0.28,0.017-0.415,0.032V6.909z"/>
	<path d="M106.13,5.382v0.928h-1.136v2.982h-1.223V6.309h-1.136V5.382H106.13z"/>
	<path d="M110.465,7.293c0,1.432-1.016,2.087-2.063,2.087c-1.143,0-2.023-0.752-2.023-2.015c0-1.264,0.832-2.071,2.088-2.071
		C109.666,5.294,110.465,6.118,110.465,7.293z M107.635,7.333c0,0.672,0.279,1.176,0.8,1.176c0.472,0,0.775-0.472,0.775-1.176
		c0-0.584-0.224-1.175-0.775-1.175C107.85,6.158,107.635,6.758,107.635,7.333z"/>
	<path d="M111.332,5.382h1.551l0.424,1.479c0.064,0.231,0.176,0.632,0.256,0.983h0.023c0.072-0.271,0.2-0.695,0.313-1.071
		l0.432-1.392h1.535l0.24,3.91h-1.128l-0.063-1.567c-0.008-0.336-0.032-0.903-0.041-1.367h-0.023
		c-0.152,0.52-0.176,0.647-0.375,1.279l-0.521,1.592h-0.888l-0.463-1.552c-0.104-0.376-0.232-0.928-0.32-1.295h-0.032
		c-0.016,0.487-0.024,1.039-0.04,1.367l-0.063,1.543h-1.088L111.332,5.382z"/>
	<path d="M120.201,8.341c0,0.376,0.017,0.735,0.057,0.951h-1.096L119.09,8.9h-0.023c-0.256,0.312-0.656,0.479-1.119,0.479
		c-0.792,0-1.264-0.575-1.264-1.199c0-1.016,0.912-1.503,2.295-1.495V6.63c0-0.208-0.112-0.504-0.712-0.504
		c-0.399,0-0.823,0.136-1.079,0.296l-0.225-0.784c0.272-0.151,0.809-0.344,1.52-0.344c1.303,0,1.719,0.768,1.719,1.688V8.341z
		 M119.017,7.445c-0.639-0.008-1.135,0.144-1.135,0.615c0,0.312,0.208,0.464,0.48,0.464c0.303,0,0.551-0.2,0.631-0.448
		c0.016-0.063,0.023-0.136,0.023-0.207V7.445z"/>
	<path d="M124.097,9.196c-0.216,0.096-0.623,0.184-1.087,0.184c-1.264,0-2.071-0.775-2.071-2.007c0-1.144,0.783-2.079,2.238-2.079
		c0.32,0,0.672,0.057,0.928,0.152l-0.191,0.903c-0.145-0.064-0.359-0.12-0.68-0.12c-0.64,0-1.056,0.456-1.047,1.096
		c0,0.72,0.479,1.096,1.07,1.096c0.289,0,0.512-0.049,0.696-0.128L124.097,9.196z"/>
	<path d="M127.985,5.382v0.928h-1.136v2.982h-1.223V6.309h-1.136V5.382H127.985z"/>
	<path d="M129.394,7.724c0.041,0.504,0.536,0.744,1.104,0.744c0.416,0,0.752-0.057,1.08-0.16l0.16,0.823
		c-0.4,0.16-0.889,0.248-1.416,0.248c-1.327,0-2.087-0.775-2.087-1.999c0-0.991,0.616-2.087,1.976-2.087
		c1.263,0,1.742,0.983,1.742,1.951c0,0.208-0.023,0.392-0.039,0.479H129.394z M130.826,6.893c0-0.296-0.128-0.792-0.688-0.792
		c-0.512,0-0.72,0.464-0.752,0.792H130.826z"/>
	<path d="M132.683,6.693c0-0.512-0.016-0.951-0.032-1.312h1.056l0.056,0.544h0.017c0.287-0.416,0.735-0.632,1.303-0.632
		c0.855,0,1.623,0.744,1.623,1.991c0,1.423-0.903,2.095-1.775,2.095c-0.471,0-0.839-0.191-1.015-0.447h-0.017v1.942h-1.215V6.693z
		 M133.898,7.613c0,0.096,0.008,0.184,0.024,0.256c0.08,0.327,0.36,0.575,0.712,0.575c0.527,0,0.84-0.439,0.84-1.104
		c0-0.623-0.28-1.095-0.824-1.095c-0.344,0-0.647,0.256-0.728,0.615c-0.017,0.064-0.024,0.144-0.024,0.216V7.613z"/>
	<path d="M140.401,9.196c-0.216,0.096-0.624,0.184-1.087,0.184c-1.264,0-2.071-0.775-2.071-2.007c0-1.144,0.784-2.079,2.239-2.079
		c0.319,0,0.672,0.057,0.928,0.152l-0.192,0.903c-0.144-0.064-0.36-0.12-0.68-0.12c-0.64,0-1.056,0.456-1.048,1.096
		c0,0.72,0.48,1.096,1.072,1.096c0.287,0,0.512-0.049,0.695-0.128L140.401,9.196z"/>
	<path d="M142.282,5.382v1.56h0.136l0.984-1.56h1.423l-1.439,1.68c0.464,0.088,0.752,0.512,0.983,1.079
		c0.128,0.32,0.28,0.783,0.472,1.151h-1.271c-0.104-0.168-0.2-0.448-0.353-0.863c-0.176-0.448-0.415-0.688-0.815-0.688h-0.12v1.551
		h-1.207v-3.91H142.282z"/>
	<path d="M148.657,8.341c0,0.376,0.017,0.735,0.056,0.951h-1.096L147.546,8.9h-0.024c-0.256,0.312-0.655,0.479-1.119,0.479
		c-0.791,0-1.264-0.575-1.264-1.199c0-1.016,0.912-1.503,2.295-1.495V6.63c0-0.208-0.111-0.504-0.711-0.504
		c-0.4,0-0.824,0.136-1.08,0.296l-0.224-0.784c0.272-0.151,0.808-0.344,1.519-0.344c1.304,0,1.72,0.768,1.72,1.688V8.341z
		 M147.473,7.445c-0.64-0.008-1.136,0.144-1.136,0.615c0,0.312,0.209,0.464,0.48,0.464c0.304,0,0.552-0.2,0.631-0.448
		c0.017-0.063,0.024-0.136,0.024-0.207V7.445z"/>
	<path d="M153.121,9.292h-1.199V7.82h-0.248c-0.256,0-0.439,0.12-0.559,0.28c-0.209,0.2-0.305,0.567-0.424,0.872
		c-0.049,0.111-0.088,0.191-0.152,0.319h-1.295c0.096-0.12,0.168-0.271,0.239-0.432c0.128-0.312,0.304-0.815,0.552-1.079
		c0.128-0.137,0.288-0.24,0.496-0.288V7.469c-0.439-0.048-1.008-0.344-1.008-0.967c0-0.488,0.271-0.768,0.664-0.952
		c0.359-0.176,0.903-0.231,1.439-0.231c0.607,0,1.15,0.04,1.494,0.088V9.292z M151.922,6.101c-0.104-0.016-0.224-0.032-0.416-0.032
		c-0.391,0-0.727,0.152-0.727,0.504c0,0.344,0.383,0.512,0.743,0.512c0.192,0,0.296-0.008,0.399-0.008V6.101z"/>
</g>
<g enable-background="new    ">
	<path d="M20.155,79.847v4.43l0.389,0.031l-0.041,2.295H19.83l-0.046-1.367h-2.285l-0.046,1.367h-0.672l-0.035-2.295l0.325-0.031
		c0.157-0.385,0.284-0.775,0.371-1.199c0.11-0.545,0.157-1.136,0.157-1.791v-1.439H20.155z M18.415,81.558
		c0,0.623-0.058,1.23-0.174,1.767c-0.069,0.336-0.168,0.664-0.272,0.92h1.299v-3.406h-0.853V81.558z"/>
	<path d="M21.004,81.366c0.215-0.04,0.702-0.096,1.143-0.096c0.481,0,1.403,0.071,1.403,0.999c0,0.504-0.296,0.768-0.58,0.848v0.016
		c0.423,0.097,0.702,0.424,0.702,0.952c0,1.111-1.096,1.208-1.676,1.208c-0.394,0-0.812-0.041-0.992-0.072V81.366z M21.868,84.541
		c0.093,0.016,0.162,0.016,0.296,0.016c0.301,0,0.603-0.12,0.603-0.504c0-0.336-0.231-0.496-0.644-0.496h-0.255V84.541z
		 M21.874,82.853H22.1c0.354,0,0.58-0.128,0.58-0.424c0-0.256-0.15-0.416-0.504-0.416c-0.122,0-0.203,0.017-0.301,0.032V82.853z"/>
	<path d="M25.037,81.326v1.199c0,0.624-0.023,1.064-0.046,1.592l0.023,0.008c0.133-0.447,0.208-0.752,0.325-1.119l0.551-1.68h1.079
		v3.91h-0.835v-1.191c0-0.607,0.023-0.863,0.052-1.695h-0.023c-0.11,0.432-0.18,0.688-0.295,1.056
		c-0.18,0.552-0.395,1.224-0.592,1.831h-1.073v-3.91H25.037z"/>
	<path d="M29.644,81.326v0.943h-1.102v2.967h-0.881v-3.91H29.644z"/>
	<path d="M32.367,84.285c0,0.375,0.012,0.735,0.041,0.951h-0.794l-0.052-0.392h-0.018c-0.186,0.312-0.476,0.479-0.812,0.479
		c-0.574,0-0.917-0.576-0.917-1.199c0-1.016,0.661-1.504,1.665-1.495v-0.056c0-0.209-0.082-0.504-0.516-0.504
		c-0.29,0-0.597,0.136-0.783,0.295l-0.163-0.783c0.197-0.151,0.585-0.344,1.102-0.344c0.945,0,1.247,0.768,1.247,1.688V84.285z
		 M31.509,83.388c-0.464-0.008-0.823,0.145-0.823,0.616c0,0.312,0.15,0.464,0.348,0.464c0.22,0,0.4-0.199,0.458-0.447
		c0.012-0.064,0.018-0.137,0.018-0.209V83.388z"/>
	<path d="M35.229,81.326v0.928h-0.823v2.982h-0.887v-2.982h-0.823v-0.928H35.229z"/>
	<path d="M36.247,83.669c0.029,0.504,0.388,0.743,0.8,0.743c0.301,0,0.545-0.055,0.783-0.159l0.116,0.823
		c-0.29,0.16-0.644,0.248-1.026,0.248c-0.962,0-1.513-0.775-1.513-1.999c0-0.991,0.446-2.087,1.432-2.087
		c0.916,0,1.264,0.984,1.264,1.951c0,0.208-0.018,0.392-0.029,0.479H36.247z M37.285,82.838c0-0.296-0.093-0.792-0.499-0.792
		c-0.371,0-0.522,0.464-0.545,0.792H37.285z"/>
	<path d="M41.127,81.326v3.91h-0.881v-2.982h-0.615v0.72c0,0.943-0.081,1.615-0.4,1.967c-0.18,0.264-0.429,0.376-0.823,0.376
		l-0.093-0.936c0.127-0.04,0.25-0.111,0.313-0.216c0.163-0.224,0.186-0.592,0.186-1.255v-1.584H41.127z"/>
	<path d="M42.702,81.326v1.16c0.122-0.024,0.29-0.049,0.446-0.049c0.661,0,1.357,0.32,1.357,1.359c0,0.496-0.157,0.832-0.389,1.048
		c-0.365,0.352-0.916,0.439-1.351,0.439c-0.319,0-0.649-0.024-0.945-0.071v-3.887H42.702z M42.696,84.436
		c0.081,0.009,0.162,0.024,0.295,0.024c0.29,0,0.638-0.137,0.638-0.607c0-0.48-0.377-0.592-0.649-0.592
		c-0.116,0-0.197,0.023-0.284,0.039V84.436z"/>
</g>
<g enable-background="new    ">
	<path d="M55.006,77.366v3.391l0.35,0.008l-0.042,1.503h-0.495l-0.043-1.031h-2.132l-0.042,1.031h-0.503l-0.034-1.503l0.273-0.008
		c0.171-0.256,0.299-0.536,0.384-0.823c0.128-0.44,0.188-0.912,0.188-1.432v-1.136H55.006z M53.488,78.429
		c0,0.536-0.034,1.063-0.171,1.535c-0.077,0.28-0.188,0.544-0.333,0.783h1.373v-2.886h-0.87V78.429z"/>
	<path d="M56.022,77.383c0.265-0.049,0.597-0.08,0.93-0.08c0.683,0,1.536,0.184,1.536,0.959c0,0.464-0.35,0.808-0.819,0.92v0.016
		c0.597,0.096,0.989,0.439,0.989,0.968c0,0.903-0.998,1.128-1.791,1.128c-0.384,0-0.683-0.017-0.845-0.041V77.383z M56.654,80.828
		c0.077,0.008,0.205,0.024,0.341,0.024c0.503,0,1.006-0.168,1.006-0.688c0-0.521-0.546-0.72-1.066-0.72h-0.281V80.828z
		 M56.662,79.006h0.299c0.392,0,0.896-0.248,0.896-0.656c0-0.447-0.392-0.6-0.853-0.6c-0.119,0-0.23,0.016-0.341,0.032V79.006z"/>
	<path d="M59.981,77.366v1.327c0,0.672-0.008,1.248-0.051,1.855h0.017c0.188-0.512,0.427-1.063,0.606-1.504l0.691-1.679h0.69v3.87
		h-0.605v-1.271c0-0.832,0.017-1.295,0.06-1.887h-0.017c-0.154,0.479-0.316,0.912-0.495,1.335c-0.136,0.32-0.512,1.2-0.819,1.823
		h-0.674v-3.87H59.981z"/>
	<path d="M64.768,77.366v0.528h-1.271v3.342h-0.648v-3.87H64.768z"/>
	<path d="M67.395,80.357c0,0.295,0,0.631,0.043,0.879h-0.597l-0.042-0.408h-0.026c-0.179,0.297-0.469,0.473-0.819,0.473
		c-0.554,0-0.981-0.44-0.981-1.104c0-0.968,0.828-1.399,1.757-1.408V78.67c0-0.52-0.137-0.88-0.657-0.88
		c-0.256,0-0.486,0.08-0.683,0.2l-0.145-0.432c0.171-0.12,0.555-0.256,0.964-0.256c0.828,0,1.186,0.512,1.186,1.383V80.357z
		 M66.747,79.237c-0.341,0-1.135,0.056-1.135,0.896c0,0.504,0.273,0.688,0.503,0.688c0.29,0,0.538-0.199,0.614-0.584
		c0.017-0.071,0.017-0.151,0.017-0.215V79.237z"/>
	<path d="M70.399,77.366v0.521h-0.938v3.35h-0.657v-3.35h-0.938v-0.521H70.399z"/>
	<path d="M71.253,79.357c0.008,1.184,0.503,1.439,0.981,1.439c0.281,0,0.52-0.064,0.682-0.152l0.103,0.456
		c-0.23,0.12-0.58,0.184-0.904,0.184c-0.989,0-1.501-0.759-1.501-1.942c0-1.256,0.563-2.039,1.391-2.039
		c0.844,0,1.177,0.831,1.177,1.711c0,0.144,0,0.248-0.009,0.344H71.253z M72.55,78.901c0.017-0.775-0.299-1.119-0.614-1.119
		c-0.426,0-0.648,0.592-0.674,1.119H72.55z"/>
	<path d="M76.278,77.366v3.87h-0.657v-3.358h-0.904v1.224c0,1.096-0.085,1.822-0.7,2.103c-0.128,0.056-0.281,0.089-0.435,0.089
		l-0.12-0.488c0.162-0.023,0.265-0.096,0.35-0.176c0.239-0.232,0.273-0.775,0.273-1.487v-1.775H76.278z"/>
	<path d="M77.84,77.366v1.368c0.162-0.009,0.281-0.024,0.392-0.024c0.845,0,1.578,0.384,1.578,1.247
		c0,0.416-0.179,0.735-0.452,0.943c-0.35,0.264-0.827,0.376-1.322,0.376c-0.282,0-0.58-0.024-0.845-0.063v-3.847H77.84z
		 M77.84,80.781c0.103,0.008,0.188,0.016,0.29,0.016c0.546,0,1.006-0.256,1.006-0.816c0-0.567-0.478-0.791-1.023-0.791
		c-0.111,0-0.188,0.008-0.273,0.016V80.781z"/>
</g>
<g enable-background="new    ">
	<path d="M55.225,98.699v1.68h0.104l1.203-1.68h0.815l-1.431,1.743c0.625,0.088,0.938,0.56,1.109,1.096
		c0.104,0.327,0.227,0.735,0.379,1.031h-0.739c-0.123-0.239-0.228-0.56-0.332-0.903c-0.18-0.527-0.436-0.84-1.033-0.84h-0.076v1.743
		h-0.71v-3.87H55.225z"/>
	<path d="M60.777,100.635c0,1.494-0.825,1.998-1.526,1.998c-0.824,0-1.488-0.631-1.488-1.99c0-1.416,0.749-2.007,1.535-2.007
		C60.114,98.635,60.777,99.283,60.777,100.635z M58.493,100.635c0,0.639,0.132,1.511,0.796,1.511c0.625,0,0.749-0.911,0.749-1.511
		c0-0.592-0.123-1.504-0.768-1.504C58.616,99.131,58.493,100.043,58.493,100.635z"/>
	<path d="M64.235,98.699v3.87h-0.729v-3.358h-1.004v1.224c0,1.095-0.095,1.823-0.777,2.103c-0.142,0.057-0.313,0.088-0.483,0.088
		l-0.133-0.487c0.18-0.024,0.294-0.097,0.389-0.176c0.265-0.231,0.303-0.776,0.303-1.487v-1.775H64.235z"/>
	<path d="M65.76,100.69c0.009,1.183,0.559,1.438,1.09,1.438c0.313,0,0.578-0.063,0.758-0.151l0.114,0.456
		c-0.256,0.119-0.645,0.184-1.004,0.184c-1.099,0-1.668-0.76-1.668-1.943c0-1.255,0.625-2.038,1.545-2.038
		c0.938,0,1.308,0.831,1.308,1.711c0,0.144,0,0.247-0.01,0.344H65.76z M67.2,100.234c0.019-0.775-0.332-1.119-0.683-1.119
		c-0.474,0-0.72,0.592-0.749,1.119H67.2z"/>
	<path d="M70.923,102.473c-0.161,0.079-0.436,0.144-0.758,0.144c-1.004,0-1.677-0.68-1.677-1.959c0-1.111,0.664-2.015,1.81-2.015
		c0.247,0,0.512,0.056,0.645,0.12L70.8,99.267c-0.095-0.041-0.285-0.104-0.521-0.104c-0.729,0-1.061,0.735-1.061,1.495
		c0,0.904,0.407,1.447,1.08,1.447c0.199,0,0.36-0.04,0.531-0.104L70.923,102.473z"/>
	<path d="M74.296,100.635c0,1.494-0.825,1.998-1.526,1.998c-0.824,0-1.488-0.631-1.488-1.99c0-1.416,0.749-2.007,1.535-2.007
		C73.632,98.635,74.296,99.283,74.296,100.635z M72.012,100.635c0,0.639,0.132,1.511,0.796,1.511c0.625,0,0.749-0.911,0.749-1.511
		c0-0.592-0.123-1.504-0.768-1.504C72.135,99.131,72.012,100.043,72.012,100.635z"/>
</g>
<g enable-background="new    ">
	<path d="M54.382,49.917l2.669-1.935v0.536l-2.232,1.583v0.016l2.232,1.591v0.528l-2.669-1.935V49.917z"/>
	<path d="M57.815,49.917l2.669-1.935v0.536l-2.232,1.583v0.016l2.232,1.591v0.528l-2.669-1.935V49.917z"/>
	<path d="M61.609,48.366v1.679h0.063l0.731-1.679h0.495l-0.869,1.743c0.379,0.088,0.569,0.56,0.673,1.096
		c0.063,0.328,0.138,0.735,0.23,1.031h-0.448c-0.075-0.24-0.138-0.56-0.202-0.903c-0.109-0.528-0.265-0.84-0.627-0.84h-0.046v1.743
		h-0.432v-3.87H61.609z"/>
	<path d="M64.983,50.301c0,1.495-0.5,1.999-0.926,1.999c-0.5,0-0.903-0.632-0.903-1.991c0-1.416,0.455-2.007,0.932-2.007
		C64.58,48.302,64.983,48.95,64.983,50.301z M63.596,50.301c0,0.64,0.081,1.511,0.483,1.511c0.379,0,0.454-0.912,0.454-1.511
		c0-0.591-0.075-1.503-0.466-1.503C63.671,48.798,63.596,49.71,63.596,50.301z"/>
	<path d="M65.474,49.573c0-0.592-0.017-0.936-0.023-1.208h0.397l0.023,0.496h0.012c0.149-0.416,0.368-0.56,0.587-0.56
		c0.483,0,0.805,0.719,0.805,1.991c0,1.431-0.426,2.007-0.863,2.007c-0.259,0-0.409-0.232-0.483-0.448h-0.011v1.919h-0.443V49.573z
		 M65.917,50.813c0,0.12,0,0.232,0.017,0.32c0.086,0.552,0.288,0.656,0.408,0.656c0.368,0,0.483-0.704,0.483-1.487
		c0-0.799-0.138-1.471-0.489-1.471c-0.202,0-0.38,0.352-0.409,0.704c-0.011,0.096-0.011,0.192-0.011,0.296V50.813z"/>
	<path d="M68.088,50.357c0.006,1.183,0.339,1.439,0.662,1.439c0.19,0,0.351-0.064,0.46-0.152l0.069,0.456
		c-0.155,0.12-0.391,0.184-0.61,0.184c-0.667,0-1.012-0.759-1.012-1.943c0-1.255,0.379-2.039,0.938-2.039
		c0.569,0,0.794,0.831,0.794,1.711c0,0.144,0,0.248-0.006,0.344H68.088z M68.963,49.901c0.012-0.775-0.201-1.119-0.414-1.119
		c-0.288,0-0.438,0.592-0.455,1.119H68.963z"/>
	<path d="M70.311,48.366v1.639h0.823v-1.639h0.443v3.87h-0.443v-1.703h-0.823v1.703h-0.443v-3.87H70.311z"/>
	<path d="M72.638,48.366v1.368c0.109-0.008,0.189-0.024,0.264-0.024c0.57,0,1.064,0.384,1.064,1.247
		c0,0.416-0.121,0.735-0.305,0.943c-0.236,0.264-0.558,0.376-0.892,0.376c-0.19,0-0.392-0.024-0.57-0.064v-3.846H72.638z
		 M72.638,51.781c0.069,0.008,0.126,0.016,0.195,0.016c0.368,0,0.679-0.256,0.679-0.815c0-0.568-0.322-0.792-0.69-0.792
		c-0.075,0-0.127,0.008-0.184,0.016V51.781z"/>
	<path d="M76.697,52.14c-0.098,0.08-0.265,0.144-0.46,0.144c-0.61,0-1.018-0.68-1.018-1.959c0-1.111,0.402-2.015,1.099-2.015
		c0.149,0,0.311,0.056,0.391,0.12l-0.086,0.503c-0.057-0.04-0.172-0.104-0.316-0.104c-0.443,0-0.644,0.736-0.644,1.495
		c0,0.904,0.248,1.447,0.656,1.447c0.121,0,0.219-0.04,0.322-0.104L76.697,52.14z"/>
	<path d="M78.747,50.301c0,1.495-0.5,1.999-0.926,1.999c-0.5,0-0.903-0.632-0.903-1.991c0-1.416,0.454-2.007,0.932-2.007
		C78.344,48.302,78.747,48.95,78.747,50.301z M77.361,50.301c0,0.64,0.081,1.511,0.483,1.511c0.379,0,0.454-0.912,0.454-1.511
		c0-0.591-0.075-1.503-0.466-1.503C77.435,48.798,77.361,49.71,77.361,50.301z"/>
	<path d="M79.244,48.382c0.178-0.048,0.403-0.08,0.627-0.08c0.46,0,1.036,0.184,1.036,0.959c0,0.464-0.236,0.808-0.553,0.92v0.016
		c0.403,0.096,0.668,0.44,0.668,0.968c0,0.903-0.674,1.127-1.208,1.127c-0.259,0-0.46-0.016-0.57-0.04V48.382z M79.67,51.828
		c0.052,0.008,0.138,0.024,0.23,0.024c0.339,0,0.679-0.168,0.679-0.688c0-0.52-0.368-0.72-0.719-0.72h-0.19V51.828z M79.676,50.005
		h0.201c0.265,0,0.604-0.248,0.604-0.655c0-0.448-0.265-0.6-0.575-0.6c-0.081,0-0.155,0.016-0.23,0.032V50.005z"/>
	<path d="M83.205,50.301c0,1.495-0.501,1.999-0.927,1.999c-0.5,0-0.902-0.632-0.902-1.991c0-1.416,0.454-2.007,0.932-2.007
		C82.802,48.302,83.205,48.95,83.205,50.301z M81.818,50.301c0,0.64,0.081,1.511,0.483,1.511c0.38,0,0.454-0.912,0.454-1.511
		c0-0.591-0.074-1.503-0.466-1.503C81.893,48.798,81.818,49.71,81.818,50.301z"/>
	<path d="M84.134,48.366v1.679h0.063l0.731-1.679h0.494l-0.868,1.743c0.379,0.088,0.569,0.56,0.673,1.096
		c0.063,0.328,0.138,0.735,0.229,1.031h-0.448c-0.075-0.24-0.138-0.56-0.201-0.903c-0.109-0.528-0.265-0.84-0.627-0.84h-0.046v1.743
		h-0.432v-3.87H84.134z"/>
	<path d="M86.068,48.366l0.368,2.223c0.052,0.304,0.081,0.56,0.115,0.799h0.012c0.029-0.216,0.075-0.512,0.121-0.792l0.328-2.231
		h0.437l-0.454,2.487c-0.173,0.976-0.362,1.911-0.69,2.495c-0.195,0.344-0.402,0.528-0.501,0.592l-0.16-0.528
		c0.126-0.096,0.265-0.264,0.391-0.488c0.115-0.2,0.207-0.464,0.253-0.647c0.023-0.096,0.029-0.136,0.029-0.192
		c0-0.048,0-0.096-0.012-0.144l-0.702-3.574H86.068z"/>
	<path d="M89.51,48.366v3.87h-0.437v-3.35h-0.8v3.35h-0.443v-3.87H89.51z"/>
	<path d="M90.578,48.366v1.639H91.4v-1.639h0.443v3.87H91.4v-1.703h-0.822v1.703h-0.443v-3.87H90.578z"/>
	<path d="M94.176,50.301c0,1.495-0.501,1.999-0.927,1.999c-0.5,0-0.902-0.632-0.902-1.991c0-1.416,0.454-2.007,0.932-2.007
		C93.773,48.302,94.176,48.95,94.176,50.301z M92.789,50.301c0,0.64,0.081,1.511,0.483,1.511c0.38,0,0.454-0.912,0.454-1.511
		c0-0.591-0.074-1.503-0.466-1.503C92.864,48.798,92.789,49.71,92.789,50.301z"/>
	<path d="M96.031,52.14c-0.099,0.08-0.265,0.144-0.461,0.144c-0.609,0-1.018-0.68-1.018-1.959c0-1.111,0.402-2.015,1.099-2.015
		c0.149,0,0.311,0.056,0.391,0.12l-0.086,0.503c-0.058-0.04-0.173-0.104-0.316-0.104c-0.443,0-0.645,0.736-0.645,1.495
		c0,0.904,0.248,1.447,0.656,1.447c0.12,0,0.219-0.04,0.322-0.104L96.031,52.14z"/>
	<path d="M98.006,48.366v0.52h-0.633v3.35h-0.443v-3.35h-0.633v-0.52H98.006z"/>
	<path d="M98.738,48.366v1.328c0,0.671-0.006,1.247-0.034,1.855h0.012c0.126-0.512,0.287-1.063,0.408-1.503l0.466-1.679h0.466v3.87
		h-0.408v-1.271c0-0.832,0.012-1.295,0.04-1.887h-0.012c-0.104,0.479-0.213,0.912-0.333,1.335c-0.093,0.32-0.346,1.2-0.553,1.823
		h-0.454v-3.87H98.738z"/>
	<path d="M103.412,50.341l-2.669,1.895v-0.528l2.301-1.591v-0.016l-2.301-1.591v-0.528l2.669,1.895V50.341z"/>
	<path d="M106.844,50.341l-2.669,1.895v-0.528l2.301-1.591v-0.016l-2.301-1.591v-0.528l2.669,1.895V50.341z"/>
</g>
<g enable-background="new    ">
	<path d="M19.406,100.903v2.238h0.104l1.487-2.238h1.479l-1.879,2.391c0.696,0.176,1.007,0.655,1.231,1.303
		c0.192,0.576,0.368,1.159,0.624,1.695h-1.311c-0.184-0.368-0.288-0.783-0.416-1.184c-0.184-0.607-0.432-1.071-1.087-1.071h-0.232
		v2.255h-1.207v-5.389H19.406z"/>
	<path d="M26.788,104.293c0,1.432-1.016,2.087-2.063,2.087c-1.143,0-2.023-0.752-2.023-2.015c0-1.264,0.832-2.071,2.087-2.071
		C25.989,102.294,26.788,103.118,26.788,104.293z M23.958,104.333c0,0.672,0.28,1.176,0.8,1.176c0.472,0,0.775-0.472,0.775-1.176
		c0-0.584-0.224-1.175-0.775-1.175C24.174,103.158,23.958,103.758,23.958,104.333z"/>
	<path d="M30.94,102.382v3.91h-1.215v-2.982h-0.847v0.72c0,0.943-0.112,1.615-0.552,1.967c-0.248,0.264-0.592,0.376-1.136,0.376
		l-0.128-0.936c0.176-0.04,0.344-0.112,0.432-0.216c0.224-0.224,0.256-0.592,0.256-1.256v-1.583H30.94z"/>
	<path d="M32.846,104.724c0.04,0.504,0.536,0.744,1.103,0.744c0.416,0,0.752-0.057,1.08-0.16l0.16,0.823
		c-0.4,0.16-0.888,0.248-1.416,0.248c-1.327,0-2.087-0.775-2.087-1.999c0-0.991,0.616-2.087,1.975-2.087
		c1.263,0,1.743,0.983,1.743,1.951c0,0.208-0.024,0.392-0.04,0.479H32.846z M34.277,103.893c0-0.296-0.128-0.792-0.688-0.792
		c-0.512,0-0.72,0.464-0.752,0.792H34.277z"/>
	<path d="M39.069,106.196c-0.216,0.096-0.624,0.184-1.088,0.184c-1.263,0-2.071-0.775-2.071-2.007c0-1.144,0.784-2.079,2.239-2.079
		c0.32,0,0.672,0.057,0.928,0.152l-0.192,0.903c-0.144-0.064-0.36-0.12-0.68-0.12c-0.64,0-1.055,0.456-1.047,1.096
		c0,0.72,0.479,1.096,1.071,1.096c0.288,0,0.512-0.049,0.696-0.128L39.069,106.196z"/>
	<path d="M43.548,104.293c0,1.432-1.016,2.087-2.063,2.087c-1.143,0-2.023-0.752-2.023-2.015c0-1.264,0.832-2.071,2.087-2.071
		C42.749,102.294,43.548,103.118,43.548,104.293z M40.718,104.333c0,0.672,0.28,1.176,0.8,1.176c0.472,0,0.775-0.472,0.775-1.176
		c0-0.584-0.224-1.175-0.775-1.175C40.933,103.158,40.718,103.758,40.718,104.333z"/>
</g>
<g enable-background="new    ">
	<path d="M59.788,61.909l-0.384,1.383H58.14l1.647-5.389h1.599l1.671,5.389h-1.311l-0.416-1.383H59.788z M61.155,60.997
		l-0.336-1.144c-0.096-0.319-0.192-0.719-0.272-1.039h-0.016c-0.08,0.32-0.16,0.728-0.248,1.039l-0.32,1.144H61.155z"/>
	<path d="M63.732,59.422c0.296-0.04,0.968-0.096,1.575-0.096c0.664,0,1.935,0.072,1.935,0.999c0,0.504-0.408,0.768-0.799,0.848
		v0.017c0.583,0.096,0.967,0.424,0.967,0.951c0,1.111-1.511,1.207-2.311,1.207c-0.544,0-1.12-0.04-1.368-0.071V59.422z
		 M64.924,62.596c0.128,0.016,0.224,0.016,0.408,0.016c0.416,0,0.831-0.12,0.831-0.504c0-0.336-0.319-0.495-0.887-0.495h-0.352
		V62.596z M64.932,60.909h0.312c0.488,0,0.8-0.128,0.8-0.424c0-0.256-0.208-0.416-0.696-0.416c-0.168,0-0.28,0.017-0.416,0.032
		V60.909z"/>
	<path d="M71.131,59.382v0.928h-1.135v2.982h-1.223v-2.982h-1.136v-0.928H71.131z"/>
	<path d="M75.466,61.293c0,1.432-1.016,2.087-2.063,2.087c-1.143,0-2.023-0.752-2.023-2.015c0-1.264,0.832-2.071,2.087-2.071
		C74.667,59.294,75.466,60.118,75.466,61.293z M72.635,61.333c0,0.672,0.28,1.176,0.8,1.176c0.472,0,0.775-0.472,0.775-1.176
		c0-0.584-0.224-1.175-0.775-1.175C72.851,60.158,72.635,60.758,72.635,61.333z"/>
	<path d="M76.332,59.382h1.551l0.424,1.479c0.064,0.231,0.176,0.632,0.256,0.983h0.024c0.072-0.271,0.2-0.695,0.312-1.071
		l0.432-1.392h1.535l0.239,3.91h-1.127l-0.064-1.567c-0.008-0.336-0.032-0.903-0.04-1.367H79.85
		c-0.152,0.52-0.176,0.647-0.375,1.279l-0.52,1.592h-0.887l-0.464-1.552c-0.104-0.376-0.232-0.928-0.32-1.295h-0.032
		c-0.016,0.487-0.024,1.039-0.04,1.367l-0.063,1.543H76.06L76.332,59.382z"/>
	<path d="M85.77,61.293c0,1.432-1.016,2.087-2.063,2.087c-1.143,0-2.022-0.752-2.022-2.015c0-1.264,0.831-2.071,2.087-2.071
		C84.97,59.294,85.77,60.118,85.77,61.293z M82.939,61.333c0,0.672,0.28,1.176,0.801,1.176c0.471,0,0.775-0.472,0.775-1.176
		c0-0.584-0.225-1.175-0.775-1.175C83.156,60.158,82.939,60.758,82.939,61.333z"/>
	<path d="M89.906,58.494c-0.231,0.064-0.64,0.112-0.928,0.137c-0.559,0.063-0.967,0.216-1.23,0.52
		c-0.232,0.248-0.393,0.655-0.424,0.968h0.039c0.24-0.433,0.713-0.736,1.288-0.736c1.056,0,1.735,0.776,1.735,1.943
		c0,1.271-0.848,2.063-2.008,2.063c-1.367,0-2.047-1.095-2.047-2.591c0-1.015,0.264-1.83,0.84-2.374
		c0.384-0.408,0.92-0.64,1.631-0.72c0.368-0.04,0.896-0.096,1.168-0.168L89.906,58.494z M89.138,61.365
		c0-0.52-0.191-1.144-0.791-1.144c-0.256,0-0.448,0.136-0.568,0.319c-0.136,0.2-0.207,0.44-0.207,0.776
		c0,0.512,0.215,1.199,0.791,1.199s0.775-0.592,0.775-1.144V61.365z"/>
	<path d="M92.284,59.382v1.199c0,0.624-0.032,1.063-0.064,1.592l0.032,0.008c0.184-0.448,0.288-0.752,0.447-1.119l0.76-1.68h1.487
		v3.91h-1.151V62.1c0-0.607,0.032-0.863,0.072-1.695h-0.032c-0.151,0.432-0.247,0.688-0.407,1.056
		c-0.248,0.552-0.544,1.224-0.816,1.831h-1.479v-3.91H92.284z"/>
	<path d="M99.338,59.382v3.91h-1.215v-2.982h-0.848v0.72c0,0.943-0.111,1.615-0.551,1.967c-0.248,0.264-0.592,0.376-1.137,0.376
		l-0.127-0.936c0.176-0.04,0.344-0.112,0.432-0.216c0.224-0.224,0.256-0.592,0.256-1.256v-1.583H99.338z"/>
	<path d="M101.515,59.382v1.159c0.168-0.023,0.399-0.048,0.615-0.048c0.912,0,1.871,0.32,1.871,1.359
		c0,0.496-0.216,0.832-0.535,1.048c-0.504,0.352-1.264,0.439-1.863,0.439c-0.439,0-0.896-0.023-1.304-0.072v-3.886H101.515z
		 M101.508,62.492c0.111,0.008,0.224,0.024,0.407,0.024c0.399,0,0.88-0.136,0.88-0.607c0-0.48-0.52-0.592-0.896-0.592
		c-0.16,0-0.272,0.023-0.392,0.04V62.492z"/>
</g>
</svg>
