<?xml version="1.0" encoding="utf-8"?>
<!-- Generator: Adobe Illustrator 13.0.1, SVG Export Plug-In . SVG Version: 6.00 Build 14948)  -->
<!DOCTYPE svg PUBLIC "-//W3C//DTD SVG 1.1//EN" "http://www.w3.org/Graphics/SVG/1.1/DTD/svg11.dtd">
<svg version="1.1" id="Слой_1" xmlns="http://www.w3.org/2000/svg" xmlns:xlink="http://www.w3.org/1999/xlink" x="0px" y="0px"
	 width="104.688px" height="116.316px" viewBox="0 0 104.688 116.316" enable-background="new 0 0 104.688 116.316"
	 xml:space="preserve">
<rect x="1.422" y="89.393" fill="#F7F7F8" width="103.127" height="26.924"/>
<rect x="1.561" y="89.531" fill="#F2F2F3" width="102.85" height="26.646"/>
<rect x="1.7" y="89.669" fill="#EDEDEE" width="102.573" height="26.37"/>
<rect x="1.838" y="89.808" fill="#E8E8E9" width="102.298" height="26.093"/>
<rect x="1.977" y="89.946" fill="#E3E4E5" width="102.02" height="25.816"/>
<rect x="2.115" y="90.085" fill="#DEE0E1" width="101.745" height="25.539"/>
<rect x="2.253" y="90.224" fill="#D9DBDC" width="101.466" height="25.262"/>
<rect x="2.392" y="90.361" fill="#D4D6D7" width="101.189" height="24.986"/>
<rect x="2.53" y="90.5" fill="#CFD1D3" width="100.913" height="24.709"/>
<rect x="2.669" y="90.639" fill="#CACCCE" width="100.635" height="24.432"/>
<rect x="2.807" y="90.777" fill="#C5C7C9" width="100.357" height="24.154"/>
<rect x="2.946" y="90.916" fill="#C0C2C4" width="100.081" height="23.877"/>
<rect x="3.084" y="91.054" fill="#BBBDC0" width="99.803" height="23.602"/>
<rect x="3.223" y="91.193" fill="#B7B9BC" width="99.528" height="23.323"/>
<rect x="3.361" y="91.331" fill="#B2B4B7" width="99.25" height="23.047"/>
<rect x="3.5" y="91.47" fill="#ADB0B2" width="98.974" height="22.77"/>
<rect x="3.638" y="91.607" fill="#A9ABAD" width="98.696" height="22.494"/>
<rect x="3.777" y="91.746" fill="#A4A6A9" width="98.419" height="22.217"/>
<rect x="3.915" y="91.885" fill="#9FA1A4" width="98.142" height="21.939"/>
<rect x="4.054" y="92.023" fill="#9A9D9F" width="97.865" height="21.662"/>
<rect x="4.192" y="92.162" fill="#96989B" width="97.587" height="21.385"/>
<rect x="4.331" y="92.3" fill="#929497" width="97.311" height="21.109"/>
<rect x="4.469" y="92.438" fill="#8E9092" width="97.034" height="20.832"/>
<rect x="4.608" y="92.577" fill="#898B8E" width="96.758" height="20.555"/>
<rect x="4.746" y="92.716" fill="#858789" width="96.481" height="20.277"/>
<rect x="4.884" y="92.854" fill="#808285" width="96.204" height="20"/>
<rect x="0.284" y="88.254" fill="#D1D3D4" width="99.804" height="23.602"/>
<path fill="#231F20" d="M35.905,93.891h-1.232v-1.24h1.296v-0.911h-2.344v5.392h2.44v-0.912h-1.392v-1.456h1.232V93.891
	 M36.681,97.131h1.04v-2.464c0-0.112,0.016-0.223,0.04-0.296c0.072-0.232,0.232-0.353,0.392-0.353c0.328,0,0.36,0.376,0.36,0.656
	v2.456h1.04v-2.479c0-0.105,0.016-0.218,0.032-0.273c0.072-0.232,0.208-0.36,0.392-0.36c0.32,0,0.368,0.36,0.368,0.809v2.304h1.04
	v-2.479c0-0.945-0.312-1.497-1.008-1.497c-0.2,0-0.392,0.048-0.552,0.136c-0.152,0.096-0.296,0.24-0.392,0.392h-0.016
	c-0.136-0.328-0.416-0.527-0.856-0.527c-0.408,0-0.736,0.224-0.936,0.52h-0.016l-0.048-0.456h-0.912
	c0.008,0.368,0.032,0.744,0.032,1.176V97.131z M44.753,94.779c0-0.792-0.192-1.624-1.384-1.624c-0.544,0-1,0.168-1.216,0.296
	l0.192,0.704c0.232-0.145,0.488-0.225,0.8-0.225c0.368,0,0.552,0.225,0.552,0.528v0.088c-0.888,0.008-1.792,0.432-1.792,1.456
	c0,0.696,0.44,1.193,1.032,1.193c0.344,0,0.648-0.146,0.864-0.449h0.016l0.056,0.384h0.944c-0.048-0.264-0.064-0.584-0.064-0.895
	V94.779z M43.729,95.907c0,0.063-0.008,0.128-0.024,0.184c-0.072,0.232-0.264,0.336-0.432,0.336c-0.16,0-0.376-0.144-0.376-0.536
	c0-0.544,0.48-0.655,0.832-0.664V95.907z M45.497,97.131h1.048v-3.912h-1.048V97.131z M46.009,91.611
	c-0.288,0-0.544,0.216-0.536,0.567c-0.008,0.336,0.232,0.568,0.52,0.568c0.32,0,0.56-0.232,0.552-0.568
	C46.545,91.827,46.313,91.611,46.009,91.611z M47.281,97.131h1.048v-5.536h-1.048V97.131z M48.905,96.963
	c0.176,0.104,0.6,0.216,1.032,0.216c1.056,0,1.784-0.647,1.784-1.632c0-0.568-0.264-1.112-0.976-1.544
	c-0.584-0.351-0.744-0.519-0.744-0.84c0-0.288,0.216-0.561,0.664-0.561c0.304,0,0.536,0.087,0.688,0.185l0.168-0.904
	c-0.16-0.096-0.496-0.193-0.848-0.193c-1.128,0-1.704,0.722-1.704,1.585c0,0.488,0.28,1.057,1.016,1.505
	c0.456,0.296,0.696,0.487,0.696,0.88c0,0.352-0.24,0.607-0.736,0.607c-0.304,0-0.672-0.088-0.888-0.208L48.905,96.963z
	 M54.962,95.547c0.023-0.112,0.031-0.264,0.031-0.544c0-1.184-0.488-1.848-1.328-1.848c-0.888,0-1.568,0.783-1.568,2.096
	c0,1.224,0.584,1.928,1.648,1.928c0.4,0,0.808-0.072,1.08-0.176l-0.146-0.752c-0.183,0.063-0.447,0.128-0.742,0.128
	c-0.465,0-0.817-0.223-0.833-0.832H54.962z M53.113,94.811c0.008-0.392,0.144-0.896,0.489-0.896c0.311,0,0.44,0.392,0.44,0.896
	H53.113z M55.577,97.131h1.057v-1.984c0-0.168,0.015-0.304,0.039-0.392c0.121-0.408,0.416-0.56,0.64-0.56
	c0.089,0,0.16,0,0.226,0.016v-1.04c-0.065-0.016-0.121-0.016-0.226-0.016c-0.286,0-0.599,0.216-0.774,0.632h-0.025l-0.055-0.568
	h-0.912c0.015,0.36,0.031,0.784,0.031,1.176V97.131z M57.61,93.219l1.063,3.912h0.969l1.048-3.912h-1.032l-0.306,1.744
	c-0.054,0.368-0.103,0.696-0.149,1.096h-0.019c-0.054-0.399-0.11-0.744-0.167-1.096l-0.295-1.744H57.61z M61.097,97.131h1.049
	v-3.912h-1.049V97.131z M61.61,91.611c-0.289,0-0.546,0.216-0.537,0.567c-0.009,0.336,0.232,0.568,0.52,0.568
	c0.32,0,0.561-0.232,0.553-0.568C62.146,91.827,61.913,91.611,61.61,91.611z M64.962,96.243c-0.113,0.056-0.24,0.08-0.393,0.08
	c-0.488,0-0.783-0.433-0.783-1.145c0-0.68,0.295-1.16,0.799-1.16c0.176,0,0.305,0.04,0.393,0.072l0.137-0.824
	c-0.105-0.048-0.328-0.104-0.576-0.104c-1.08,0-1.793,0.84-1.793,2.048c0,1.28,0.648,1.968,1.641,1.968
	c0.295,0,0.561-0.063,0.664-0.112L64.962,96.243z M68.193,95.547c0.024-0.112,0.032-0.264,0.032-0.544
	c0-1.184-0.487-1.848-1.327-1.848c-0.89,0-1.569,0.783-1.569,2.096c0,1.224,0.584,1.928,1.648,1.928c0.4,0,0.809-0.072,1.08-0.176
	l-0.145-0.752c-0.184,0.063-0.447,0.128-0.744,0.128c-0.463,0-0.816-0.223-0.832-0.832H68.193z M66.345,94.811
	c0.008-0.392,0.145-0.896,0.488-0.896c0.313,0,0.44,0.392,0.44,0.896H66.345z"/>
<path fill="#231F20" d="M5.717,107.956c0.167,0.136,0.48,0.224,0.768,0.224c0.631,0,1.159-0.376,1.159-1.151
	c0-0.536-0.352-0.889-0.8-1.177c-0.383-0.264-0.48-0.407-0.48-0.673c0-0.247,0.168-0.487,0.504-0.487
	c0.201,0,0.369,0.071,0.513,0.168l0.168-0.465c-0.161-0.096-0.392-0.199-0.697-0.199c-0.599,0-1.064,0.447-1.064,1.072
	c0,0.448,0.272,0.776,0.777,1.104c0.391,0.264,0.495,0.464,0.495,0.76c0,0.344-0.216,0.56-0.568,0.56
	c-0.248,0-0.487-0.111-0.624-0.199L5.717,107.956 M10.516,106.252c0.008-0.096,0.008-0.2,0.008-0.344
	c0-0.88-0.312-1.713-1.104-1.713c-0.776,0-1.303,0.783-1.303,2.041c0,1.184,0.48,1.943,1.407,1.943c0.305,0,0.633-0.063,0.848-0.184
	l-0.095-0.456c-0.153,0.088-0.377,0.151-0.64,0.151c-0.449,0-0.913-0.256-0.92-1.439H10.516z M8.724,105.796
	c0.024-0.528,0.232-1.121,0.632-1.121c0.297,0,0.593,0.344,0.577,1.121H8.724z M11.188,108.132h0.617v-2.44
	c0-0.128,0.007-0.247,0.024-0.344c0.08-0.416,0.328-0.633,0.584-0.633c0.447,0,0.536,0.464,0.536,0.921v2.496h0.616v-2.6
	c0-0.938-0.4-1.337-0.937-1.337c-0.407,0-0.719,0.216-0.887,0.527h-0.016l-0.033-0.464h-0.535c0.008,0.313,0.031,0.544,0.031,1.001
	V108.132z M16.149,102.595v2.064h-0.017c-0.151-0.328-0.423-0.464-0.703-0.464c-0.6,0-1.168,0.64-1.168,2.017
	c0,1.272,0.471,1.984,1.128,1.984c0.407,0,0.679-0.272,0.808-0.553h0.024l0.039,0.488h0.529c-0.008-0.224-0.032-0.664-0.032-0.928
	v-4.609H16.149z M16.149,106.764c0,0.097-0.008,0.185-0.024,0.256c-0.136,0.561-0.4,0.664-0.592,0.664
	c-0.448,0-0.656-0.655-0.656-1.472c0-0.776,0.176-1.489,0.688-1.489c0.295,0,0.536,0.353,0.576,0.753
	c0.008,0.088,0.008,0.177,0.008,0.256V106.764z M18.533,102.595c-0.417,0.601-0.864,1.681-0.88,3.249
	c0,1.568,0.463,2.641,0.88,3.248h0.479c-0.455-0.728-0.832-1.808-0.832-3.24c0-1.457,0.377-2.536,0.832-3.257H18.533z
	 M20.949,108.804v-0.848c0.536-0.12,0.952-0.568,0.952-1.328c0-0.6-0.281-1.056-0.912-1.424c-0.528-0.313-0.752-0.489-0.752-0.961
	c0-0.343,0.24-0.696,0.68-0.696c0.312,0,0.544,0.112,0.688,0.2l0.16-0.472c-0.152-0.104-0.44-0.217-0.768-0.217v-0.728h-0.448v0.776
	c-0.496,0.128-0.904,0.592-0.904,1.231c0,0.672,0.495,1.033,0.984,1.321c0.464,0.279,0.688,0.584,0.688,1.04
	s-0.264,0.808-0.736,0.808c-0.304,0-0.6-0.12-0.817-0.256l-0.143,0.479c0.192,0.128,0.519,0.265,0.888,0.272v0.8H20.949z
	 M22.717,108.132h0.616v-2.144c0-0.128,0.008-0.248,0.024-0.353c0.064-0.449,0.352-0.808,0.744-0.808c0.048,0,0.088,0,0.128,0.007
	v-0.632c-0.04,0-0.08-0.008-0.128-0.008c-0.36,0-0.689,0.304-0.816,0.672h-0.016l-0.032-0.608h-0.553
	c0.009,0.288,0.033,0.673,0.033,1.001V108.132z"/>
<path fill="#231F20" d="M26.833,106.252c0.008-0.096,0.008-0.2,0.008-0.344c0-0.88-0.312-1.713-1.104-1.713
	c-0.776,0-1.304,0.783-1.304,2.041c0,1.184,0.48,1.943,1.408,1.943c0.305,0,0.632-0.063,0.849-0.184l-0.097-0.456
	c-0.152,0.088-0.376,0.151-0.64,0.151c-0.448,0-0.912-0.256-0.92-1.439H26.833 M25.041,105.796c0.024-0.528,0.232-1.121,0.632-1.121
	c0.296,0,0.592,0.344,0.576,1.121H25.041z M29.313,107.563c-0.144,0.064-0.28,0.104-0.448,0.104c-0.567,0-0.912-0.544-0.912-1.448
	c0-0.76,0.281-1.497,0.896-1.497c0.201,0,0.36,0.064,0.44,0.105l0.12-0.505c-0.111-0.064-0.336-0.12-0.544-0.12
	c-0.967,0-1.528,0.904-1.528,2.017c0,1.28,0.568,1.96,1.417,1.96c0.272,0,0.504-0.063,0.639-0.144L29.313,107.563z M29.921,108.132
	h0.616v-3.872h-0.616V108.132z M30.217,102.859c-0.2,0-0.36,0.159-0.36,0.399s0.152,0.4,0.352,0.4c0.232,0,0.384-0.16,0.376-0.4
	C30.585,103.019,30.441,102.859,30.217,102.859z M31.386,109.668h0.615v-1.92h0.016c0.104,0.216,0.312,0.448,0.672,0.448
	c0.608,0,1.201-0.576,1.201-2.009c0-1.272-0.449-1.992-1.121-1.992c-0.304,0-0.608,0.144-0.816,0.56h-0.016l-0.031-0.496h-0.553
	c0.008,0.272,0.033,0.616,0.033,1.209V109.668z M32.001,105.724c0-0.104,0-0.2,0.016-0.296c0.04-0.353,0.288-0.705,0.568-0.705
	c0.489,0,0.68,0.672,0.68,1.474c0,0.783-0.16,1.487-0.672,1.487c-0.168,0-0.448-0.104-0.568-0.655
	c-0.024-0.089-0.024-0.2-0.024-0.32V105.724z M34.585,108.132h0.616v-3.872h-0.616V108.132z M34.881,102.859
	c-0.199,0-0.36,0.159-0.36,0.399s0.152,0.4,0.352,0.4c0.232,0,0.384-0.16,0.376-0.4C35.249,103.019,35.105,102.859,34.881,102.859z
	 M38.29,106.252c0.007-0.096,0.007-0.2,0.007-0.344c0-0.88-0.312-1.713-1.104-1.713c-0.776,0-1.304,0.783-1.304,2.041
	c0,1.184,0.48,1.943,1.408,1.943c0.304,0,0.632-0.063,0.849-0.184l-0.097-0.456c-0.152,0.088-0.376,0.151-0.64,0.151
	c-0.448,0-0.911-0.256-0.92-1.439H38.29z M36.498,105.796c0.023-0.528,0.231-1.121,0.631-1.121c0.296,0,0.592,0.344,0.577,1.121
	H36.498z M38.962,108.132h0.615v-2.44c0-0.128,0.009-0.247,0.024-0.344c0.08-0.416,0.328-0.633,0.584-0.633
	c0.448,0,0.536,0.464,0.536,0.921v2.496h0.617v-2.6c0-0.938-0.401-1.337-0.937-1.337c-0.408,0-0.72,0.216-0.888,0.527h-0.016
	l-0.032-0.464h-0.536c0.009,0.313,0.033,0.544,0.033,1.001V108.132z M42.338,103.603v0.656h-0.473v0.473h0.473v2.24
	c0,0.536,0.08,0.8,0.232,0.977c0.151,0.168,0.367,0.231,0.608,0.231c0.2,0,0.343-0.023,0.456-0.063l-0.024-0.473
	c-0.073,0.017-0.152,0.024-0.248,0.024c-0.225,0-0.409-0.136-0.409-0.64v-2.297h0.745v-0.473h-0.745v-0.904L42.338,103.603z"/>
<path fill="#231F20" d="M44.222,109.084c0.216-0.36,0.561-1.24,0.736-1.888l-0.695,0.08c-0.081,0.552-0.296,1.399-0.464,1.863
	L44.222,109.084 M48.206,108.804v-0.848c0.536-0.12,0.952-0.568,0.952-1.328c0-0.6-0.28-1.056-0.911-1.424
	c-0.529-0.313-0.752-0.489-0.752-0.961c0-0.343,0.239-0.696,0.679-0.696c0.312,0,0.544,0.112,0.688,0.2l0.16-0.472
	c-0.151-0.104-0.439-0.217-0.768-0.217v-0.728h-0.447v0.776c-0.497,0.128-0.905,0.592-0.905,1.231c0,0.672,0.496,1.033,0.985,1.321
	c0.464,0.279,0.687,0.584,0.687,1.04s-0.263,0.808-0.736,0.808c-0.303,0-0.6-0.12-0.816-0.256l-0.144,0.479
	c0.192,0.128,0.52,0.265,0.889,0.272v0.8H48.206z M49.727,107.956c0.168,0.136,0.48,0.224,0.768,0.224
	c0.632,0,1.159-0.376,1.159-1.151c0-0.536-0.352-0.889-0.799-1.177c-0.385-0.264-0.48-0.407-0.48-0.673
	c0-0.247,0.167-0.487,0.503-0.487c0.201,0,0.369,0.071,0.513,0.168l0.168-0.465c-0.16-0.096-0.392-0.199-0.697-0.199
	c-0.599,0-1.064,0.447-1.064,1.072c0,0.448,0.272,0.776,0.776,1.104c0.392,0.264,0.496,0.464,0.496,0.76
	c0,0.344-0.215,0.56-0.568,0.56c-0.248,0-0.487-0.111-0.624-0.199L49.727,107.956z M54.614,104.259h-0.616v2.553
	c0,0.128-0.008,0.248-0.031,0.353c-0.032,0.176-0.192,0.512-0.553,0.512c-0.424,0-0.519-0.448-0.519-1.056v-2.361h-0.617v2.449
	c0,0.96,0.265,1.488,0.944,1.488c0.417,0,0.713-0.28,0.833-0.473h0.016l0.039,0.408h0.537c-0.008-0.288-0.033-0.624-0.033-1.056
	V104.259z M55.471,107.204c0,0.264-0.025,0.704-0.033,0.928h0.528l0.041-0.504h0.023c0.151,0.328,0.36,0.568,0.768,0.568
	c0.602,0,1.177-0.641,1.177-2.04c0-1.266-0.457-1.961-1.056-1.961c-0.328,0-0.615,0.136-0.817,0.52h-0.015v-2.12h-0.616V107.204z
	 M56.087,105.684c0-0.088,0-0.184,0.015-0.271c0.05-0.329,0.289-0.689,0.577-0.689c0.496,0,0.68,0.689,0.68,1.465
	c0,0.824-0.177,1.496-0.673,1.496c-0.168,0-0.431-0.104-0.575-0.68c-0.023-0.064-0.023-0.152-0.023-0.24V105.684z M58.095,109.731
	c0.24-0.008,0.615-0.128,0.848-0.367c0.271-0.288,0.393-0.664,0.393-1.48v-3.625h-0.617v3.449c0,0.735-0.047,1.023-0.184,1.231
	c-0.127,0.192-0.345,0.257-0.521,0.305L58.095,109.731z M59.03,102.859c-0.216,0-0.375,0.159-0.367,0.399
	c-0.008,0.24,0.151,0.4,0.352,0.4c0.232,0,0.377-0.16,0.377-0.4S59.247,102.859,59.03,102.859z M62.407,106.252
	c0.008-0.096,0.008-0.2,0.008-0.344c0-0.88-0.313-1.713-1.104-1.713c-0.777,0-1.305,0.783-1.305,2.041
	c0,1.184,0.48,1.943,1.408,1.943c0.303,0,0.631-0.063,0.848-0.184l-0.096-0.456c-0.152,0.088-0.377,0.151-0.641,0.151
	c-0.447,0-0.912-0.256-0.921-1.439H62.407z M60.614,105.796c0.023-0.528,0.232-1.121,0.633-1.121c0.295,0,0.592,0.344,0.576,1.121
	H60.614z M64.886,107.563c-0.143,0.064-0.278,0.104-0.446,0.104c-0.569,0-0.913-0.544-0.913-1.448c0-0.76,0.279-1.497,0.896-1.497
	c0.199,0,0.359,0.064,0.439,0.105l0.122-0.505c-0.114-0.064-0.336-0.12-0.545-0.12c-0.97,0-1.528,0.904-1.528,2.017
	c0,1.28,0.568,1.96,1.416,1.96c0.271,0,0.504-0.063,0.639-0.144L64.886,107.563z"/>
<path fill="#231F20" d="M65.755,103.603v0.656h-0.471v0.473h0.471v2.24c0,0.536,0.08,0.8,0.233,0.977
	c0.151,0.168,0.369,0.231,0.606,0.231c0.201,0,0.347-0.023,0.457-0.063l-0.022-0.473c-0.073,0.017-0.153,0.024-0.249,0.024
	c-0.225,0-0.408-0.136-0.408-0.64v-2.297h0.744v-0.473h-0.744v-0.904L65.755,103.603"/>
<path fill="#231F20" d="M67.685,109.084c0.216-0.36,0.561-1.24,0.736-1.888l-0.697,0.079c-0.08,0.553-0.295,1.4-0.463,1.864
	L67.685,109.084 M71.636,108.804v-0.848c0.537-0.12,0.953-0.568,0.953-1.328c0-0.6-0.281-1.056-0.912-1.424
	c-0.528-0.313-0.752-0.489-0.752-0.961c0-0.343,0.24-0.696,0.68-0.696c0.313,0,0.544,0.112,0.688,0.2l0.161-0.472
	c-0.153-0.104-0.44-0.217-0.769-0.217v-0.728h-0.448v0.776c-0.496,0.128-0.903,0.592-0.903,1.231c0,0.672,0.495,1.033,0.983,1.321
	c0.465,0.279,0.688,0.584,0.688,1.04s-0.265,0.808-0.736,0.808c-0.305,0-0.6-0.12-0.816-0.256l-0.145,0.479
	c0.193,0.128,0.521,0.265,0.89,0.272v0.8H71.636z M75.205,107.563c-0.146,0.064-0.28,0.104-0.448,0.104
	c-0.567,0-0.912-0.544-0.912-1.448c0-0.76,0.28-1.497,0.896-1.497c0.201,0,0.36,0.064,0.44,0.105l0.119-0.505
	c-0.11-0.064-0.336-0.12-0.543-0.12c-0.968,0-1.529,0.904-1.529,2.017c0,1.28,0.568,1.96,1.416,1.96
	c0.274,0,0.505-0.063,0.642-0.144L75.205,107.563z M76.925,104.195c-0.664,0-1.297,0.592-1.297,2.009
	c0,1.359,0.562,1.992,1.256,1.992c0.592,0,1.29-0.505,1.29-2C78.174,104.843,77.613,104.195,76.925,104.195z M76.9,104.691
	c0.545,0,0.647,0.912,0.647,1.505c0,0.6-0.103,1.512-0.632,1.512c-0.559,0-0.672-0.872-0.672-1.512
	C76.244,105.604,76.349,104.691,76.9,104.691z M78.845,108.132h0.616v-2.44c0-0.128,0.007-0.247,0.023-0.344
	c0.08-0.416,0.327-0.633,0.584-0.633c0.448,0,0.536,0.464,0.536,0.921v2.496h0.616v-2.6c0-0.938-0.4-1.337-0.936-1.337
	c-0.408,0-0.721,0.216-0.89,0.527h-0.015l-0.032-0.464h-0.537c0.009,0.313,0.033,0.544,0.033,1.001V108.132z M82.205,103.603v0.656
	h-0.473v0.473h0.473v2.24c0,0.536,0.08,0.8,0.231,0.977c0.153,0.168,0.368,0.231,0.608,0.231c0.199,0,0.344-0.023,0.455-0.063
	l-0.023-0.473c-0.072,0.017-0.152,0.024-0.249,0.024c-0.224,0-0.407-0.136-0.407-0.64v-2.297h0.744v-0.473H82.82v-0.904
	L82.205,103.603z M86.324,106.252c0.008-0.096,0.008-0.2,0.008-0.344c0-0.88-0.311-1.713-1.104-1.713
	c-0.774,0-1.304,0.783-1.304,2.041c0,1.184,0.48,1.943,1.408,1.943c0.305,0,0.633-0.063,0.85-0.184l-0.098-0.456
	c-0.15,0.088-0.375,0.151-0.639,0.151c-0.449,0-0.912-0.256-0.92-1.439H86.324z M84.533,105.796
	c0.023-0.528,0.232-1.121,0.631-1.121c0.297,0,0.592,0.344,0.576,1.121H84.533z M86.98,108.132h0.617v-2.44
	c0-0.128,0.008-0.247,0.023-0.344c0.08-0.416,0.328-0.633,0.584-0.633c0.447,0,0.535,0.464,0.535,0.921v2.496h0.618v-2.6
	c0-0.938-0.401-1.337-0.938-1.337c-0.406,0-0.719,0.216-0.887,0.527h-0.016l-0.033-0.464h-0.535
	c0.008,0.313,0.031,0.544,0.031,1.001V108.132z M90.34,103.603v0.656h-0.471v0.473h0.471v2.24c0,0.536,0.08,0.8,0.232,0.977
	c0.152,0.168,0.37,0.231,0.609,0.231c0.199,0,0.345-0.023,0.455-0.063l-0.022-0.473c-0.073,0.017-0.153,0.024-0.249,0.024
	c-0.225,0-0.408-0.136-0.408-0.64v-2.297h0.744v-0.473h-0.744v-0.904L90.34,103.603z M91.973,107.956
	c0.168,0.136,0.48,0.224,0.768,0.224c0.633,0,1.161-0.376,1.161-1.151c0-0.536-0.353-0.889-0.8-1.177
	c-0.385-0.264-0.48-0.407-0.48-0.673c0-0.247,0.168-0.487,0.504-0.487c0.2,0,0.368,0.071,0.512,0.168l0.168-0.465
	c-0.16-0.096-0.393-0.199-0.694-0.199c-0.603,0-1.065,0.447-1.065,1.072c0,0.448,0.272,0.776,0.776,1.104
	c0.392,0.264,0.496,0.464,0.496,0.76c0,0.344-0.216,0.56-0.569,0.56c-0.248,0-0.488-0.111-0.623-0.199L91.973,107.956z
	 M94.774,109.092c0.415-0.616,0.862-1.672,0.879-3.256c0-1.585-0.464-2.649-0.879-3.241h-0.481c0.455,0.721,0.832,1.8,0.832,3.241
	c0,1.439-0.377,2.536-0.832,3.256H94.774z"/>
<rect x="1.284" y="1.251" fill="#FFFFFF" width="103.403" height="27.201"/>
<rect x="1.422" y="1.389" fill="#F7F7F8" width="103.127" height="26.924"/>
<rect x="1.561" y="1.527" fill="#F2F2F3" width="102.85" height="26.648"/>
<rect x="1.7" y="1.666" fill="#EDEDEE" width="102.573" height="26.37"/>
<rect x="1.838" y="1.804" fill="#E8E8E9" width="102.298" height="26.094"/>
<rect x="1.977" y="1.943" fill="#E3E4E5" width="102.02" height="25.816"/>
<rect x="2.115" y="2.081" fill="#DEE0E1" width="101.745" height="25.539"/>
<rect x="2.253" y="2.219" fill="#D9DBDC" width="101.466" height="25.263"/>
<rect x="2.392" y="2.359" fill="#D4D6D7" width="101.189" height="24.985"/>
<rect x="2.53" y="2.496" fill="#CFD1D3" width="100.913" height="24.709"/>
<rect x="2.669" y="2.635" fill="#CACCCE" width="100.635" height="24.432"/>
<rect x="2.807" y="2.774" fill="#C5C7C9" width="100.357" height="24.154"/>
<rect x="2.946" y="2.912" fill="#C0C2C4" width="100.081" height="23.878"/>
<rect x="3.084" y="3.05" fill="#BBBDC0" width="99.803" height="23.601"/>
<rect x="3.223" y="3.189" fill="#B7B9BC" width="99.528" height="23.324"/>
<rect x="3.361" y="3.327" fill="#B2B4B7" width="99.25" height="23.047"/>
<rect x="3.5" y="3.465" fill="#ADB0B2" width="98.974" height="22.771"/>
<rect x="3.638" y="3.604" fill="#A9ABAD" width="98.696" height="22.493"/>
<rect x="3.777" y="3.743" fill="#A4A6A9" width="98.419" height="22.216"/>
<rect x="3.915" y="3.882" fill="#9FA1A4" width="98.142" height="21.939"/>
<rect x="4.054" y="4.02" fill="#9A9D9F" width="97.865" height="21.662"/>
<rect x="4.192" y="4.158" fill="#96989B" width="97.587" height="21.386"/>
<rect x="4.331" y="4.297" fill="#929497" width="97.311" height="21.108"/>
<rect x="4.469" y="4.435" fill="#8E9092" width="97.034" height="20.832"/>
<rect x="4.608" y="4.573" fill="#898B8E" width="96.758" height="20.555"/>
<rect x="4.746" y="4.712" fill="#858789" width="96.481" height="20.278"/>
<rect x="4.884" y="4.85" fill="#808285" width="96.204" height="20.001"/>
<rect x="0.284" y="0.25" fill="#D1D3D4" width="99.804" height="23.601"/>
<rect x="0.284" y="0.25" fill="none" stroke="#231F20" stroke-width="0.5" stroke-miterlimit="3.864" width="99.804" height="23.601"/>
<path fill="#231F20" d="M36.241,5.888h-1.232V4.647h1.296V3.735h-2.344v5.392h2.44V8.215h-1.392V6.759h1.232V5.888 M37.017,9.127
	h1.04V6.664c0-0.113,0.016-0.225,0.04-0.296c0.072-0.233,0.232-0.352,0.392-0.352c0.328,0,0.36,0.376,0.36,0.655v2.456h1.04v-2.48
	c0-0.104,0.016-0.215,0.032-0.272c0.072-0.231,0.208-0.359,0.392-0.359c0.32,0,0.368,0.359,0.368,0.808v2.303h1.04v-2.48
	c0-0.943-0.312-1.496-1.008-1.496c-0.2,0-0.392,0.049-0.552,0.137c-0.152,0.095-0.296,0.239-0.392,0.392h-0.016
	c-0.136-0.329-0.416-0.529-0.856-0.529c-0.408,0-0.736,0.224-0.936,0.52h-0.016l-0.048-0.456h-0.912
	c0.008,0.368,0.032,0.744,0.032,1.177V9.127z M45.089,6.775c0-0.792-0.192-1.624-1.384-1.624c-0.544,0-1,0.168-1.216,0.297
	l0.192,0.703c0.232-0.144,0.488-0.223,0.8-0.223c0.368,0,0.552,0.223,0.552,0.528v0.087C43.145,6.551,42.241,6.976,42.241,8
	c0,0.695,0.44,1.191,1.032,1.191c0.344,0,0.648-0.144,0.864-0.447h0.016l0.056,0.383h0.944c-0.048-0.264-0.064-0.583-0.064-0.896
	V6.775z M44.065,7.903c0,0.064-0.008,0.129-0.024,0.184c-0.072,0.232-0.264,0.336-0.432,0.336c-0.16,0-0.376-0.144-0.376-0.535
	c0-0.545,0.48-0.657,0.832-0.664V7.903z M45.833,9.127h1.048V5.215h-1.048V9.127z M46.345,3.607c-0.288,0-0.544,0.217-0.536,0.568
	c-0.008,0.337,0.232,0.569,0.52,0.569c0.32,0,0.56-0.232,0.552-0.569C46.881,3.824,46.649,3.607,46.345,3.607z M47.617,9.127h1.048
	V3.591h-1.048V9.127z M49.513,9.127h2.432V8.24h-1.384V3.735h-1.048V9.127z M53.833,5.151c-0.776,0-1.512,0.624-1.512,2.033
	c0,1.272,0.56,2.007,1.497,2.007c0.591,0,1.495-0.399,1.495-2.031C55.313,5.928,54.753,5.151,53.833,5.151z M53.825,5.943
	c0.351,0,0.439,0.68,0.439,1.217c0,0.575-0.088,1.232-0.423,1.232c-0.376,0-0.48-0.56-0.48-1.232
	C53.361,6.623,53.441,5.943,53.825,5.943z M58.753,6.456c0-0.473,0.025-0.889,0.041-1.241h-0.912l-0.057,0.392h-0.017
	c-0.151-0.296-0.407-0.456-0.72-0.456c-0.727,0-1.321,0.752-1.321,2.057c0,0.936,0.347,1.896,1.226,1.896
	c0.297,0,0.567-0.144,0.705-0.393h0.016v0.241c0,0.599-0.209,0.951-0.737,0.951c-0.304,0-0.552-0.079-0.752-0.168l-0.19,0.809
	c0.278,0.12,0.615,0.184,0.975,0.184c0.576,0,0.984-0.16,1.273-0.432c0.318-0.304,0.471-0.769,0.471-1.608V6.456z M57.714,7.688
	c0,0.104-0.016,0.224-0.049,0.312c-0.08,0.208-0.215,0.279-0.353,0.279c-0.297,0-0.504-0.367-0.504-1.095
	c0-0.641,0.153-1.152,0.528-1.152c0.176,0,0.289,0.152,0.336,0.32c0.025,0.08,0.041,0.184,0.041,0.288V7.688z M62.329,6.456
	c0-0.473,0.023-0.889,0.041-1.241h-0.912l-0.057,0.392h-0.016c-0.152-0.296-0.409-0.456-0.721-0.456c-0.729,0-1.32,0.752-1.32,2.057
	c0,0.936,0.343,1.896,1.225,1.896c0.297,0,0.568-0.144,0.702-0.393h0.019v0.241c0,0.599-0.209,0.951-0.736,0.951
	c-0.305,0-0.553-0.079-0.752-0.168l-0.191,0.809c0.279,0.12,0.615,0.184,0.975,0.184c0.576,0,0.984-0.16,1.271-0.432
	c0.321-0.304,0.474-0.769,0.474-1.608V6.456z M61.29,7.688c0,0.104-0.019,0.224-0.049,0.312c-0.08,0.208-0.215,0.279-0.352,0.279
	c-0.297,0-0.504-0.367-0.504-1.095c0-0.641,0.152-1.152,0.527-1.152c0.176,0,0.289,0.152,0.336,0.32
	c0.022,0.08,0.041,0.184,0.041,0.288V7.688z M65.786,7.543c0.023-0.111,0.032-0.264,0.032-0.544c0-1.184-0.489-1.848-1.329-1.848
	c-0.889,0-1.568,0.784-1.568,2.097c0,1.224,0.584,1.927,1.648,1.927c0.4,0,0.809-0.071,1.081-0.175l-0.146-0.752
	c-0.184,0.064-0.447,0.128-0.744,0.128c-0.463,0-0.814-0.225-0.832-0.833H65.786z M63.937,6.808c0.01-0.393,0.145-0.896,0.488-0.896
	c0.313,0,0.441,0.392,0.441,0.896H63.937z M66.402,9.127h1.056V7.144c0-0.168,0.016-0.305,0.039-0.393
	c0.121-0.408,0.416-0.56,0.641-0.56c0.088,0,0.16,0,0.224,0.016v-1.04c-0.063-0.016-0.119-0.016-0.224-0.016
	c-0.289,0-0.6,0.217-0.776,0.633h-0.024l-0.055-0.569H66.37c0.016,0.361,0.032,0.784,0.032,1.177V9.127z"/>
<path fill="#231F20" d="M33.173,20.128h0.616v-5.536h-0.616V20.128z M35.829,16.192c-0.664,0-1.296,0.592-1.296,2.008
	c0,1.36,0.56,1.992,1.256,1.992c0.592,0,1.288-0.504,1.288-2C37.077,16.84,36.517,16.192,35.829,16.192z M35.805,16.688
	c0.544,0,0.648,0.912,0.648,1.504c0,0.6-0.104,1.512-0.632,1.512c-0.56,0-0.672-0.872-0.672-1.512
	C35.149,17.6,35.253,16.688,35.805,16.688z M40.101,17.464c0-0.592,0.024-0.936,0.032-1.208h-0.552l-0.032,0.44h-0.016
	c-0.112-0.232-0.304-0.504-0.72-0.504c-0.568,0-1.216,0.592-1.216,2.016c0,1.136,0.448,1.912,1.136,1.912
	c0.328,0,0.608-0.168,0.744-0.472h0.016v0.392c0,0.872-0.304,1.176-0.792,1.176c-0.312,0-0.568-0.088-0.72-0.168l-0.144,0.48
	c0.2,0.112,0.52,0.192,0.848,0.192c0.432,0,0.8-0.152,1.032-0.416c0.256-0.28,0.384-0.664,0.384-1.68v-2.176V17.464z M39.493,18.696
	c0,0.112-0.008,0.232-0.04,0.352c-0.128,0.464-0.368,0.552-0.552,0.552c-0.376,0-0.688-0.448-0.688-1.44
	c0-0.856,0.24-1.456,0.688-1.456c0.352,0,0.488,0.328,0.56,0.592c0.024,0.08,0.032,0.184,0.032,0.28V18.696z M41.869,14.592
	c-0.416,0.6-0.864,1.68-0.88,3.248c0,1.568,0.464,2.64,0.88,3.248h0.48c-0.456-0.728-0.832-1.808-0.832-3.24
	c0-1.456,0.376-2.536,0.832-3.256H41.869z M44.285,20.8v-0.848c0.536-0.12,0.952-0.568,0.952-1.328c0-0.6-0.28-1.056-0.912-1.424
	c-0.528-0.312-0.752-0.488-0.752-0.96c0-0.344,0.24-0.696,0.68-0.696c0.312,0,0.544,0.112,0.688,0.2l0.16-0.472
	c-0.152-0.104-0.44-0.216-0.768-0.216v-0.728h-0.448v0.776c-0.496,0.128-0.904,0.592-0.904,1.232c0,0.672,0.496,1.032,0.984,1.32
	c0.464,0.28,0.688,0.584,0.688,1.04s-0.264,0.808-0.736,0.808c-0.304,0-0.6-0.12-0.816-0.256l-0.144,0.48
	c0.192,0.128,0.52,0.264,0.888,0.272v0.8H44.285z M46.061,20.128h0.608v-2.456c0-0.12,0.008-0.232,0.024-0.336
	c0.072-0.408,0.328-0.624,0.576-0.624c0.456,0,0.536,0.448,0.536,0.88v2.536h0.608V17.64c0-0.128,0.008-0.248,0.024-0.352
	c0.088-0.36,0.312-0.576,0.568-0.576c0.472,0,0.544,0.488,0.544,0.992v2.424h0.608V17.56c0-0.984-0.408-1.368-0.928-1.368
	c-0.2,0-0.384,0.048-0.536,0.152c-0.144,0.096-0.28,0.248-0.384,0.44h-0.016c-0.144-0.416-0.448-0.592-0.808-0.592
	c-0.408,0-0.704,0.232-0.872,0.544h-0.016l-0.032-0.48h-0.536c0.008,0.312,0.032,0.544,0.032,1V20.128z M53.253,18.248
	c0.008-0.096,0.008-0.2,0.008-0.344c0-0.88-0.312-1.712-1.104-1.712c-0.776,0-1.304,0.784-1.304,2.04
	c0,1.184,0.48,1.944,1.408,1.944c0.304,0,0.632-0.064,0.848-0.184l-0.096-0.456c-0.152,0.088-0.376,0.152-0.64,0.152
	c-0.448,0-0.912-0.256-0.92-1.44H53.253z M51.461,17.792c0.024-0.528,0.232-1.12,0.632-1.12c0.296,0,0.592,0.344,0.576,1.12H51.461z
	 M53.669,19.952c0.168,0.136,0.48,0.224,0.769,0.224c0.631,0,1.158-0.376,1.158-1.152c0-0.536-0.351-0.888-0.798-1.176
	c-0.385-0.264-0.481-0.408-0.481-0.672c0-0.248,0.168-0.488,0.504-0.488c0.201,0,0.369,0.072,0.512,0.168l0.168-0.464
	c-0.16-0.096-0.391-0.2-0.696-0.2c-0.599,0-1.064,0.448-1.064,1.072c0,0.448,0.271,0.776,0.775,1.104
	c0.393,0.264,0.496,0.464,0.496,0.76c0,0.344-0.214,0.56-0.566,0.56c-0.248,0-0.489-0.112-0.625-0.2L53.669,19.952z M55.98,19.952
	c0.168,0.136,0.481,0.224,0.769,0.224c0.633,0,1.16-0.376,1.16-1.152c0-0.536-0.353-0.888-0.799-1.176
	c-0.386-0.264-0.48-0.408-0.48-0.672c0-0.248,0.168-0.488,0.504-0.488c0.199,0,0.367,0.072,0.511,0.168l0.168-0.464
	c-0.159-0.096-0.392-0.2-0.694-0.2c-0.603,0-1.064,0.448-1.064,1.072c0,0.448,0.271,0.776,0.775,1.104
	c0.393,0.264,0.496,0.464,0.496,0.76c0,0.344-0.215,0.56-0.568,0.56c-0.248,0-0.489-0.112-0.623-0.2L55.98,19.952z M60.597,17.576
	c0-0.872-0.336-1.384-1.111-1.384c-0.385,0-0.744,0.136-0.904,0.256l0.137,0.432c0.184-0.12,0.4-0.2,0.638-0.2
	c0.489,0,0.618,0.36,0.618,0.88v0.12c-0.873,0.008-1.648,0.44-1.648,1.408c0,0.664,0.4,1.104,0.92,1.104
	c0.328,0,0.6-0.176,0.768-0.472h0.025l0.039,0.408h0.561c-0.041-0.248-0.041-0.584-0.041-0.88V17.576z M59.989,18.912
	c0,0.064,0,0.144-0.016,0.216c-0.072,0.384-0.305,0.584-0.577,0.584c-0.216,0-0.472-0.184-0.472-0.688
	c0-0.84,0.744-0.896,1.064-0.896V18.912z M63.798,17.464c0-0.592,0.023-0.936,0.031-1.208h-0.553l-0.031,0.44h-0.016
	c-0.111-0.232-0.305-0.504-0.721-0.504c-0.569,0-1.215,0.592-1.215,2.016c0,1.136,0.447,1.912,1.135,1.912
	c0.328,0,0.609-0.168,0.744-0.472h0.015v0.392c0,0.872-0.302,1.176-0.791,1.176c-0.312,0-0.567-0.088-0.72-0.168l-0.143,0.48
	c0.199,0.112,0.52,0.192,0.848,0.192c0.431,0,0.799-0.152,1.031-0.416c0.256-0.28,0.385-0.664,0.385-1.68v-2.176V17.464z
	 M63.188,18.696c0,0.112-0.007,0.232-0.039,0.352c-0.128,0.464-0.366,0.552-0.552,0.552c-0.375,0-0.688-0.448-0.688-1.44
	c0-0.856,0.239-1.456,0.688-1.456c0.354,0,0.488,0.328,0.561,0.592c0.023,0.08,0.03,0.184,0.03,0.28V18.696z M66.886,18.248
	c0.008-0.096,0.008-0.2,0.008-0.344c0-0.88-0.313-1.712-1.104-1.712c-0.777,0-1.305,0.784-1.305,2.04
	c0,1.184,0.48,1.944,1.408,1.944c0.304,0,0.632-0.064,0.848-0.184l-0.096-0.456c-0.152,0.088-0.377,0.152-0.641,0.152
	c-0.447,0-0.912-0.256-0.92-1.44H66.886z M65.093,17.792c0.023-0.528,0.232-1.12,0.633-1.12c0.295,0,0.593,0.344,0.576,1.12H65.093z
	 M67.806,21.088c0.416-0.616,0.863-1.672,0.879-3.256c0-1.584-0.463-2.648-0.879-3.24h-0.48c0.455,0.72,0.832,1.8,0.832,3.24
	s-0.377,2.536-0.832,3.256H67.806z"/>
<path fill="#231F20" d="M43.964,83.191h0.608v-5.198H44.06l-1.096,0.639l0.12,0.48l0.864-0.495h0.016V83.191 M58.253,81.312
	c0.008-0.096,0.008-0.199,0.008-0.344c0-0.88-0.313-1.712-1.104-1.712c-0.777,0-1.306,0.785-1.306,2.041
	c0,1.183,0.481,1.943,1.409,1.943c0.304,0,0.632-0.063,0.848-0.185L58.013,82.6c-0.152,0.088-0.375,0.153-0.641,0.153
	c-0.447,0-0.912-0.256-0.92-1.441H58.253z M56.46,80.855c0.025-0.526,0.232-1.119,0.633-1.119c0.296,0,0.591,0.345,0.576,1.119
	H56.46z M58.925,83.191h0.607v-2.455c0-0.119,0.008-0.231,0.025-0.336c0.07-0.407,0.326-0.624,0.574-0.624
	c0.457,0,0.537,0.447,0.537,0.881v2.534h0.607v-2.486c0-0.128,0.008-0.248,0.023-0.354c0.09-0.358,0.313-0.575,0.568-0.575
	c0.473,0,0.545,0.487,0.545,0.991v2.424h0.607v-2.566c0-0.985-0.408-1.369-0.928-1.369c-0.199,0-0.385,0.048-0.535,0.153
	c-0.145,0.095-0.281,0.248-0.385,0.438h-0.016c-0.145-0.416-0.449-0.592-0.809-0.592c-0.409,0-0.704,0.232-0.872,0.544H59.46
	l-0.031-0.479h-0.536c0.009,0.312,0.032,0.544,0.032,1V83.191z M65.933,80.64c0-0.872-0.336-1.384-1.111-1.384
	c-0.385,0-0.744,0.136-0.904,0.256l0.135,0.433c0.186-0.119,0.4-0.199,0.642-0.199c0.487,0,0.616,0.358,0.616,0.88v0.12
	c-0.873,0.007-1.648,0.438-1.648,1.407c0,0.663,0.4,1.104,0.92,1.104c0.328,0,0.6-0.175,0.768-0.471h0.023l0.041,0.406h0.561
	c-0.041-0.247-0.041-0.584-0.041-0.88V80.64z M65.325,81.976c0,0.065,0,0.146-0.016,0.216c-0.072,0.386-0.305,0.585-0.575,0.585
	c-0.218,0-0.474-0.185-0.474-0.688c0-0.84,0.744-0.897,1.064-0.897V81.976z M66.796,83.191h0.617V79.32h-0.617V83.191z
	 M67.093,77.92c-0.199,0-0.358,0.16-0.358,0.4c0,0.239,0.149,0.399,0.351,0.399c0.233,0,0.383-0.16,0.375-0.399
	C67.46,78.08,67.318,77.92,67.093,77.92z M68.269,83.191h0.615v-5.534h-0.615V83.191z M69.589,83.009
	c0.153,0.112,0.543,0.231,0.912,0.231c0.856,0,1.512-0.584,1.512-1.513c0-0.599-0.289-1.096-0.935-1.552
	c-0.512-0.368-0.793-0.576-0.793-1.112c0-0.367,0.248-0.768,0.776-0.768c0.279,0,0.505,0.088,0.64,0.184l0.151-0.526
	c-0.129-0.098-0.424-0.201-0.76-0.201c-0.854,0-1.424,0.6-1.424,1.416c0,0.696,0.592,1.201,1.016,1.497
	c0.425,0.319,0.714,0.624,0.714,1.12c0,0.544-0.337,0.911-0.897,0.911c-0.271,0-0.591-0.097-0.777-0.217L69.589,83.009z
	 M74.918,81.312c0.007-0.096,0.007-0.199,0.007-0.344c0-0.88-0.312-1.712-1.103-1.712c-0.778,0-1.306,0.785-1.306,2.041
	c0,1.183,0.48,1.943,1.408,1.943c0.303,0,0.631-0.063,0.849-0.185L74.677,82.6c-0.151,0.088-0.377,0.153-0.64,0.153
	c-0.448,0-0.913-0.256-0.92-1.441H74.918z M73.124,80.855c0.026-0.526,0.233-1.119,0.633-1.119c0.295,0,0.592,0.345,0.577,1.119
	H73.124z M75.582,83.191h0.615v-2.144c0-0.127,0.008-0.248,0.022-0.352c0.065-0.447,0.354-0.809,0.744-0.809
	c0.049,0,0.088,0,0.129,0.008v-0.632c-0.041,0-0.08-0.008-0.129-0.008c-0.359,0-0.687,0.304-0.815,0.672h-0.017l-0.031-0.607h-0.553
	c0.008,0.287,0.034,0.673,0.034,1V83.191z"/>
<path fill="#231F20" d="M77.517,79.32l1.009,3.871h0.553l1.008-3.871h-0.61l-0.478,2.177c-0.057,0.296-0.121,0.624-0.16,0.942
	h-0.026c-0.047-0.336-0.11-0.68-0.168-0.942l-0.487-2.177H77.517 M80.597,83.191h0.615V79.32h-0.615V83.191z M80.892,77.92
	c-0.198,0-0.358,0.16-0.358,0.4c0,0.239,0.151,0.399,0.352,0.399c0.232,0,0.384-0.16,0.377-0.399
	C81.262,78.08,81.117,77.92,80.892,77.92z M83.853,82.625c-0.144,0.063-0.28,0.103-0.448,0.103c-0.566,0-0.912-0.544-0.912-1.447
	c0-0.761,0.281-1.495,0.896-1.495c0.201,0,0.359,0.063,0.439,0.103l0.121-0.504c-0.111-0.063-0.336-0.12-0.545-0.12
	c-0.968,0-1.527,0.904-1.527,2.017c0,1.279,0.568,1.96,1.416,1.96c0.271,0,0.504-0.063,0.641-0.145L83.853,82.625z M86.668,81.312
	c0.01-0.096,0.01-0.199,0.01-0.344c0-0.88-0.313-1.712-1.105-1.712c-0.775,0-1.304,0.785-1.304,2.041
	c0,1.183,0.479,1.943,1.409,1.943c0.303,0,0.631-0.063,0.848-0.185L86.43,82.6c-0.152,0.088-0.377,0.153-0.641,0.153
	c-0.447,0-0.912-0.256-0.92-1.441H86.668z M84.877,80.855c0.023-0.526,0.232-1.119,0.633-1.119c0.295,0,0.592,0.345,0.574,1.119
	H84.877z"/>
<path fill="none" stroke="#231F20" stroke-width="0.5" stroke-miterlimit="3.864" d="M0,99.645h99.977 M0,11.641h99.977
	 M50.791,24.035v59.793"/>
<polyline fill-rule="evenodd" clip-rule="evenodd" fill="#231F20" points="50.791,83.537 52.541,83.537 50.791,87.912 
	49.041,83.537 50.791,83.537 "/>
</svg>
