<?xml version="1.0" encoding="utf-8"?>
<!-- Generator: Adobe Illustrator 13.0.1, SVG Export Plug-In . SVG Version: 6.00 Build 14948)  -->
<!DOCTYPE svg PUBLIC "-//W3C//DTD SVG 1.1//EN" "http://www.w3.org/Graphics/SVG/1.1/DTD/svg11.dtd">
<svg version="1.1" id="Слой_1" xmlns="http://www.w3.org/2000/svg" xmlns:xlink="http://www.w3.org/1999/xlink" x="0px" y="0px"
	 width="121.793px" height="110.901px" viewBox="0 0 121.793 110.901" enable-background="new 0 0 121.793 110.901"
	 xml:space="preserve">
<rect x="71.116" y="42.89" fill="#FFFFFF" width="41.4" height="27.2"/>
<rect x="71.252" y="43.027" fill="#F7F7F8" width="41.125" height="26.924"/>
<rect x="71.391" y="43.165" fill="#F2F2F3" width="40.848" height="26.647"/>
<rect x="71.532" y="43.305" fill="#EDEDEE" width="40.568" height="26.371"/>
<rect x="71.668" y="43.442" fill="#E8E8E9" width="40.295" height="26.094"/>
<rect x="71.807" y="43.581" fill="#E3E4E5" width="40.018" height="25.816"/>
<rect x="71.948" y="43.721" fill="#DEE0E1" width="39.738" height="25.539"/>
<rect x="72.084" y="43.858" fill="#D9DBDC" width="39.465" height="25.262"/>
<rect x="72.221" y="43.996" fill="#D4D6D7" width="39.188" height="24.986"/>
<rect x="72.362" y="44.136" fill="#CFD1D3" width="38.91" height="24.709"/>
<rect x="72.5" y="44.273" fill="#CACCCE" width="38.633" height="24.432"/>
<rect x="72.637" y="44.412" fill="#C5C7C9" width="38.355" height="24.154"/>
<rect x="72.778" y="44.549" fill="#C0C2C4" width="38.078" height="23.879"/>
<rect x="72.917" y="44.689" fill="#BBBDC0" width="37.801" height="23.601"/>
<rect x="73.053" y="44.827" fill="#B7B9BC" width="37.525" height="23.324"/>
<rect x="73.194" y="44.965" fill="#B2B4B7" width="37.248" height="23.048"/>
<rect x="73.333" y="45.104" fill="#ADB0B2" width="36.969" height="22.77"/>
<rect x="73.467" y="45.242" fill="#A9ABAD" width="36.695" height="22.494"/>
<rect x="73.608" y="45.381" fill="#A4A6A9" width="36.418" height="22.217"/>
<rect x="73.747" y="45.521" fill="#9FA1A4" width="36.139" height="21.938"/>
<rect x="73.883" y="45.658" fill="#9A9D9F" width="35.863" height="21.662"/>
<rect x="74.024" y="45.796" fill="#96989B" width="35.586" height="21.386"/>
<rect x="74.163" y="45.936" fill="#929497" width="35.307" height="21.108"/>
<rect x="74.299" y="46.073" fill="#8E9092" width="35.031" height="20.832"/>
<rect x="74.44" y="46.211" fill="#898B8E" width="34.754" height="20.556"/>
<rect x="74.579" y="46.352" fill="#858789" width="34.477" height="20.276"/>
<rect x="74.713" y="46.489" fill="#808285" width="34.203" height="20.001"/>
<rect x="70.116" y="41.889" fill="#D1D3D4" width="37.801" height="23.602"/>
<rect x="70.116" y="41.889" fill="none" stroke="#231F20" stroke-width="0.5" stroke-miterlimit="3.864" width="37.801" height="23.602"/>
<line fill="none" stroke="#231F20" stroke-width="0.5" stroke-miterlimit="3.864" x1="89.631" y1="6.409" x2="89.631" y2="36.752"/>
<polyline fill-rule="evenodd" clip-rule="evenodd" fill="#231F20" points="89.631,36.46 91.381,36.46 89.631,40.836 87.881,36.46 
	89.631,36.46 "/>
<line fill="none" stroke="#231F20" stroke-width="0.5" stroke-miterlimit="3.864" x1="89.631" y1="65.51" x2="89.631" y2="95.853"/>
<polyline fill-rule="evenodd" clip-rule="evenodd" fill="#231F20" points="89.631,95.561 91.381,95.561 89.631,99.937 
	87.881,95.561 89.631,95.561 "/>
<polyline fill="none" stroke="#231F20" stroke-width="0.5" stroke-miterlimit="3.864" points="69.803,44.227 30.513,44.227 
	30.513,62.597 65.831,62.597 "/>
<polyline fill-rule="evenodd" clip-rule="evenodd" fill="#231F20" points="65.54,62.597 65.54,60.847 69.915,62.597 65.54,64.347 
	65.54,62.597 "/>
<rect x="60.62" y="17.909" fill="#FFFFFF" width="60.923" height="7.053"/>
<g>
	<defs>
		<rect id="SVGID_1_" width="121.792" height="110.901"/>
	</defs>
	<clipPath id="SVGID_2_">
		<use xlink:href="#SVGID_1_"  overflow="visible"/>
	</clipPath>
	
		<rect x="60.62" y="17.909" clip-path="url(#SVGID_2_)" fill="none" stroke="#FFFFFF" stroke-width="0.5" stroke-miterlimit="3.864" width="60.923" height="7.053"/>
</g>
<rect x="59.786" y="76.261" fill="#FFFFFF" width="60.625" height="7.783"/>
<rect x="59.786" y="76.261" fill="none" stroke="#FFFFFF" stroke-width="0.5" stroke-miterlimit="3.864" width="60.625" height="7.783"/>
<rect x="0.25" y="48.587" fill="#FFFFFF" width="60.626" height="7.784"/>
<g>
	<defs>
		<rect id="SVGID_3_" width="121.792" height="110.901"/>
	</defs>
	<clipPath id="SVGID_4_">
		<use xlink:href="#SVGID_3_"  overflow="visible"/>
	</clipPath>
	
		<rect x="0.25" y="48.587" clip-path="url(#SVGID_4_)" fill="none" stroke="#FFFFFF" stroke-width="0.5" stroke-miterlimit="3.864" width="60.626" height="7.784"/>
</g>
<path fill="#FFFFFF" d="M84.657,105.676c0-2.747,2.229-4.976,4.975-4.976c2.748,0,4.975,2.229,4.975,4.976s-2.227,4.976-4.975,4.976
	C86.885,110.651,84.657,108.423,84.657,105.676"/>
<g>
	<defs>
		<rect id="SVGID_5_" width="121.792" height="110.901"/>
	</defs>
	<clipPath id="SVGID_6_">
		<use xlink:href="#SVGID_5_"  overflow="visible"/>
	</clipPath>
	
		<circle clip-path="url(#SVGID_6_)" fill="none" stroke="#231F20" stroke-width="0.5" stroke-miterlimit="3.864" cx="89.631" cy="105.676" r="4.975"/>
</g>
<path fill="#231F20" d="M86.516,3.421c0-1.752,1.42-3.171,3.172-3.171c1.75,0,3.17,1.419,3.17,3.171c0,1.751-1.42,3.171-3.17,3.171
	C87.936,6.592,86.516,5.172,86.516,3.421"/>
<g>
	<defs>
		<rect id="SVGID_7_" width="121.792" height="110.901"/>
	</defs>
	<clipPath id="SVGID_8_">
		<use xlink:href="#SVGID_7_"  overflow="visible"/>
	</clipPath>
	
		<circle clip-path="url(#SVGID_8_)" fill="none" stroke="#231F20" stroke-width="0.5" stroke-miterlimit="3.864" cx="89.687" cy="3.421" r="3.171"/>
</g>
<path fill="#231F20" d="M86.461,105.676c0-1.752,1.42-3.172,3.17-3.172c1.752,0,3.172,1.42,3.172,3.172s-1.42,3.171-3.172,3.171
	C87.881,108.847,86.461,107.428,86.461,105.676"/>
<circle fill="none" stroke="#231F20" stroke-width="0.5" stroke-miterlimit="3.864" cx="89.632" cy="105.676" r="3.171"/>
<g>
	<path d="M75.794,51.629v3.047l0.432,0.023l-0.056,2.104h-0.912l-0.04-1.264h-2.471L72.7,56.803h-0.919l-0.032-2.096l0.359-0.031
		c0.168-0.24,0.304-0.52,0.393-0.808c0.111-0.408,0.176-0.848,0.176-1.279v-0.96H75.794z M73.731,52.973
		c0,0.328-0.056,0.68-0.144,1.016c-0.056,0.224-0.152,0.463-0.271,0.663h1.295v-2.135h-0.88V52.973z"/>
	<path d="M77.788,53.972c0.04,0.504,0.536,0.744,1.104,0.744c0.416,0,0.752-0.057,1.08-0.16l0.159,0.823
		c-0.399,0.16-0.888,0.248-1.415,0.248c-1.327,0-2.087-0.775-2.087-1.999c0-0.991,0.616-2.087,1.976-2.087
		c1.263,0,1.742,0.983,1.742,1.951c0,0.208-0.023,0.392-0.04,0.479H77.788z M79.219,53.141c0-0.296-0.128-0.792-0.688-0.792
		c-0.512,0-0.72,0.464-0.752,0.792H79.219z"/>
	<path d="M82.219,51.629v1.199c0,0.624-0.031,1.063-0.063,1.592l0.032,0.008c0.184-0.448,0.287-0.752,0.447-1.119l0.76-1.68h1.487
		v3.91h-1.151v-1.191c0-0.607,0.031-0.863,0.071-1.695h-0.031c-0.152,0.432-0.248,0.688-0.408,1.056
		c-0.248,0.552-0.544,1.224-0.815,1.831h-1.479v-3.91H82.219z M82.595,50.014c0.008,0.353,0.144,0.568,0.368,0.568
		c0.239,0,0.367-0.225,0.392-0.568h0.768c-0.048,0.744-0.488,1.128-1.176,1.128c-0.743,0-1.087-0.439-1.127-1.128H82.595z"/>
	<path d="M88.787,55.443c-0.216,0.096-0.623,0.184-1.087,0.184c-1.264,0-2.071-0.775-2.071-2.007c0-1.144,0.784-2.079,2.239-2.079
		c0.319,0,0.671,0.057,0.927,0.152l-0.191,0.903c-0.144-0.063-0.36-0.12-0.68-0.12c-0.64,0-1.056,0.456-1.048,1.096
		c0,0.72,0.48,1.096,1.072,1.096c0.287,0,0.512-0.049,0.695-0.128L88.787,55.443z"/>
	<path d="M92.674,51.629v0.928H91.54v2.982h-1.224v-2.982H89.18v-0.928H92.674z"/>
	<path d="M93.211,51.669c0.296-0.04,0.968-0.096,1.575-0.096c0.664,0,1.936,0.072,1.936,0.999c0,0.504-0.408,0.768-0.8,0.848v0.017
		c0.584,0.096,0.967,0.424,0.967,0.951c0,1.111-1.511,1.207-2.311,1.207c-0.543,0-1.119-0.04-1.367-0.071V51.669z M94.403,54.844
		c0.128,0.016,0.224,0.016,0.408,0.016c0.416,0,0.831-0.12,0.831-0.504c0-0.336-0.319-0.495-0.888-0.495h-0.352V54.844z
		 M94.411,53.156h0.313c0.487,0,0.799-0.128,0.799-0.424c0-0.256-0.207-0.416-0.695-0.416c-0.168,0-0.279,0.017-0.416,0.032V53.156z
		"/>
	<path d="M98.779,51.629v1.199c0,0.624-0.032,1.063-0.063,1.592l0.031,0.008c0.185-0.448,0.288-0.752,0.448-1.119l0.76-1.68h1.487
		v3.91h-1.151v-1.191c0-0.607,0.031-0.863,0.071-1.695h-0.031c-0.152,0.432-0.248,0.688-0.408,1.056
		c-0.248,0.552-0.544,1.224-0.815,1.831h-1.479v-3.91H98.779z"/>
	<path d="M103.347,53.972c0.04,0.504,0.536,0.744,1.104,0.744c0.416,0,0.752-0.057,1.08-0.16l0.159,0.823
		c-0.399,0.16-0.887,0.248-1.415,0.248c-1.327,0-2.087-0.775-2.087-1.999c0-0.991,0.616-2.087,1.975-2.087
		c1.264,0,1.743,0.983,1.743,1.951c0,0.208-0.023,0.392-0.04,0.479H103.347z M104.779,53.141c0-0.296-0.128-0.792-0.688-0.792
		c-0.512,0-0.72,0.464-0.752,0.792H104.779z"/>
</g>
<g>
	<path d="M80.737,22.693c-0.136,0.08-0.367,0.144-0.64,0.144c-0.847,0-1.415-0.68-1.415-1.959c0-1.111,0.56-2.015,1.527-2.015
		c0.208,0,0.432,0.056,0.544,0.12l-0.12,0.504c-0.08-0.04-0.24-0.104-0.439-0.104c-0.616,0-0.896,0.735-0.896,1.495
		c0,0.903,0.344,1.447,0.911,1.447c0.168,0,0.304-0.04,0.447-0.104L80.737,22.693z"/>
	<path d="M83.585,20.854c0,1.495-0.696,1.999-1.287,1.999c-0.696,0-1.256-0.632-1.256-1.991c0-1.415,0.632-2.007,1.296-2.007
		C83.026,18.855,83.585,19.503,83.585,20.854z M81.659,20.854c0,0.64,0.111,1.511,0.671,1.511c0.528,0,0.632-0.911,0.632-1.511
		c0-0.592-0.104-1.504-0.647-1.504C81.762,19.351,81.659,20.263,81.659,20.854z"/>
	<path d="M84.514,20.559h0.216c0.376,0,0.791-0.24,0.791-0.664c0-0.384-0.264-0.575-0.623-0.575c-0.24,0-0.488,0.088-0.68,0.199
		l-0.128-0.392c0.256-0.176,0.615-0.271,0.959-0.271c0.632,0,1.088,0.359,1.088,0.967c0,0.473-0.344,0.792-0.792,0.912v0.008
		c0.536,0.08,0.936,0.424,0.936,0.976c0,0.775-0.712,1.136-1.423,1.136c-0.32,0-0.656-0.08-0.912-0.217l0.145-0.439
		c0.184,0.096,0.455,0.192,0.72,0.192c0.52,0,0.848-0.313,0.848-0.672c0-0.528-0.472-0.712-0.912-0.712h-0.231V20.559z"/>
	<path d="M89.289,18.919v3.391l0.328,0.008l-0.04,1.503h-0.464l-0.04-1.031h-1.999l-0.04,1.031h-0.472l-0.032-1.503l0.256-0.008
		c0.16-0.256,0.28-0.536,0.36-0.824c0.12-0.439,0.176-0.911,0.176-1.431v-1.136H89.289z M87.866,19.982
		c0,0.536-0.032,1.063-0.16,1.535c-0.072,0.28-0.176,0.544-0.312,0.784h1.287v-2.887h-0.815V19.982z"/>
	<path d="M92.321,21.909c0,0.296,0,0.632,0.04,0.88h-0.56l-0.04-0.408h-0.024c-0.168,0.296-0.439,0.473-0.768,0.473
		c-0.52,0-0.919-0.44-0.919-1.104c0-0.968,0.775-1.399,1.647-1.407v-0.12c0-0.52-0.129-0.88-0.616-0.88c-0.24,0-0.456,0.08-0.64,0.2
		l-0.136-0.432c0.16-0.12,0.52-0.256,0.903-0.256c0.775,0,1.111,0.512,1.111,1.383V21.909z M91.713,20.79
		c-0.32,0-1.063,0.056-1.063,0.896c0,0.504,0.256,0.688,0.472,0.688c0.271,0,0.504-0.199,0.576-0.583
		c0.016-0.072,0.016-0.152,0.016-0.216V20.79z"/>
	<path d="M93.802,18.919v1.64h1.143v-1.64h0.616v3.87h-0.616v-1.703h-1.143v1.703h-0.616v-3.87H93.802z"/>
	<path d="M96.986,18.919v1.327c0,0.672-0.008,1.248-0.048,1.855h0.016c0.177-0.512,0.4-1.063,0.568-1.503l0.647-1.68h0.647v3.87
		H98.25v-1.271c0-0.831,0.016-1.295,0.056-1.887H98.29c-0.145,0.479-0.296,0.911-0.464,1.335c-0.128,0.32-0.479,1.199-0.768,1.823
		h-0.632v-3.87H96.986z"/>
	<path d="M100.106,20.91c0.008,1.184,0.472,1.439,0.92,1.439c0.264,0,0.487-0.064,0.64-0.152l0.096,0.456
		c-0.216,0.12-0.544,0.184-0.848,0.184c-0.928,0-1.407-0.76-1.407-1.942c0-1.256,0.528-2.039,1.304-2.039
		c0.791,0,1.104,0.831,1.104,1.711c0,0.144,0,0.248-0.009,0.344H100.106z M101.322,20.454c0.016-0.775-0.28-1.119-0.576-1.119
		c-0.399,0-0.607,0.592-0.632,1.119H101.322z"/>
</g>
<g>
	<path d="M17.16,50.919v1.327c0,0.672-0.008,1.248-0.048,1.855h0.016c0.177-0.512,0.4-1.063,0.568-1.503l0.647-1.68h0.647v3.87
		h-0.567v-1.271c0-0.831,0.016-1.295,0.056-1.887h-0.016c-0.145,0.479-0.296,0.911-0.464,1.335c-0.128,0.32-0.479,1.199-0.768,1.823
		H16.6v-3.87H17.16z"/>
	<path d="M20.128,52.559h0.216c0.376,0,0.791-0.24,0.791-0.664c0-0.384-0.264-0.575-0.623-0.575c-0.24,0-0.488,0.088-0.68,0.199
		l-0.128-0.392c0.256-0.176,0.615-0.271,0.959-0.271c0.632,0,1.088,0.359,1.088,0.967c0,0.473-0.344,0.792-0.792,0.912v0.008
		c0.536,0.08,0.936,0.424,0.936,0.976c0,0.775-0.711,1.136-1.423,1.136c-0.32,0-0.656-0.08-0.912-0.217l0.145-0.439
		c0.184,0.096,0.456,0.192,0.72,0.192c0.52,0,0.848-0.313,0.848-0.672c0-0.528-0.473-0.712-0.912-0.712h-0.231V52.559z"/>
	<path d="M22.727,50.919h0.729l0.503,1.703c0.137,0.448,0.232,0.76,0.353,1.231h0.016c0.12-0.496,0.191-0.775,0.328-1.231
		l0.487-1.703h0.744l0.264,3.87h-0.584l-0.072-1.663c-0.023-0.512-0.04-0.888-0.056-1.623h-0.023
		c-0.089,0.399-0.225,0.919-0.385,1.487l-0.52,1.774h-0.447l-0.504-1.719c-0.16-0.535-0.296-1.079-0.399-1.551h-0.017
		c-0.008,0.623-0.023,1.119-0.056,1.663l-0.064,1.631h-0.567L22.727,50.919z"/>
	<path d="M27.288,52.91c0.008,1.184,0.472,1.439,0.92,1.439c0.264,0,0.487-0.064,0.64-0.152l0.096,0.456
		c-0.216,0.12-0.544,0.184-0.848,0.184c-0.928,0-1.407-0.76-1.407-1.942c0-1.256,0.528-2.039,1.304-2.039
		c0.791,0,1.104,0.831,1.104,1.711c0,0.144,0,0.248-0.009,0.344H27.288z M28.503,52.454c0.016-0.775-0.28-1.119-0.576-1.119
		c-0.399,0-0.607,0.592-0.632,1.119H28.503z"/>
	<path d="M30.376,50.919v1.64h1.143v-1.64h0.616v3.87h-0.616v-1.703h-1.143v1.703H29.76v-3.87H30.376z"/>
	<path d="M33.431,52.91c0.008,1.184,0.472,1.439,0.92,1.439c0.264,0,0.487-0.064,0.64-0.152l0.096,0.456
		c-0.216,0.12-0.544,0.184-0.848,0.184c-0.928,0-1.407-0.76-1.407-1.942c0-1.256,0.528-2.039,1.304-2.039
		c0.791,0,1.104,0.831,1.104,1.711c0,0.144,0,0.248-0.009,0.344H33.431z M34.647,52.454c0.016-0.775-0.28-1.119-0.576-1.119
		c-0.399,0-0.607,0.592-0.632,1.119H34.647z"/>
	<path d="M36.52,50.919v1.64h1.143v-1.64h0.616v3.87h-0.616v-1.703H36.52v1.703h-0.616v-3.87H36.52z"/>
	<path d="M39.704,50.919v1.327c0,0.672-0.008,1.248-0.048,1.855h0.017c0.176-0.512,0.399-1.063,0.567-1.503l0.647-1.68h0.647v3.87
		h-0.567v-1.271c0-0.831,0.016-1.295,0.056-1.887h-0.016c-0.145,0.479-0.296,0.911-0.464,1.335c-0.128,0.32-0.479,1.199-0.768,1.823
		h-0.632v-3.87H39.704z"/>
	<path d="M44.558,54.789h-0.592v-1.655h-0.184c-0.28,0-0.456,0.072-0.56,0.185c-0.265,0.231-0.305,0.711-0.44,1.183
		c-0.023,0.112-0.063,0.208-0.104,0.288h-0.647c0.071-0.12,0.128-0.231,0.176-0.399c0.104-0.376,0.176-0.904,0.447-1.2
		c0.104-0.111,0.272-0.224,0.472-0.256v-0.016c-0.447-0.096-0.855-0.392-0.855-0.951c0-0.368,0.145-0.616,0.4-0.808
		c0.224-0.184,0.647-0.288,1.063-0.288c0.312,0,0.607,0.024,0.823,0.072V54.789z M43.966,51.327
		c-0.088-0.024-0.176-0.032-0.264-0.032c-0.432,0-0.815,0.2-0.815,0.688c0,0.472,0.424,0.735,0.839,0.735c0.08,0,0.2,0,0.24,0
		V51.327z"/>
</g>
<g>
	<path d="M78.05,78.169l0.512,2.223c0.071,0.304,0.111,0.56,0.159,0.8h0.017c0.04-0.216,0.104-0.512,0.168-0.791l0.455-2.231h0.608
		l-0.632,2.487c-0.24,0.975-0.504,1.91-0.96,2.494c-0.271,0.344-0.56,0.527-0.695,0.592l-0.224-0.527
		c0.176-0.097,0.367-0.265,0.544-0.488c0.159-0.2,0.287-0.464,0.352-0.647c0.031-0.096,0.04-0.136,0.04-0.192
		c0-0.048,0-0.096-0.017-0.144l-0.976-3.574H78.05z"/>
	<path d="M82.712,78.169v3.391l0.328,0.008L83,83.07h-0.464l-0.04-1.031h-1.999l-0.04,1.031h-0.472l-0.032-1.503l0.256-0.008
		c0.16-0.256,0.28-0.536,0.36-0.824c0.12-0.439,0.176-0.911,0.176-1.431v-1.136H82.712z M81.29,79.232
		c0,0.536-0.032,1.063-0.16,1.535c-0.072,0.28-0.176,0.544-0.312,0.784h1.287v-2.887H81.29V79.232z"/>
	<path d="M85.745,81.159c0,0.296,0,0.632,0.04,0.88h-0.56l-0.04-0.408h-0.024c-0.168,0.296-0.439,0.473-0.768,0.473
		c-0.52,0-0.919-0.44-0.919-1.104c0-0.968,0.775-1.399,1.647-1.407v-0.12c0-0.52-0.129-0.88-0.616-0.88c-0.24,0-0.456,0.08-0.64,0.2
		l-0.136-0.432c0.16-0.12,0.52-0.256,0.903-0.256c0.775,0,1.111,0.512,1.111,1.383V81.159z M85.137,80.04
		c-0.32,0-1.063,0.056-1.063,0.896c0,0.504,0.256,0.688,0.472,0.688c0.271,0,0.504-0.199,0.576-0.583
		c0.016-0.072,0.016-0.152,0.016-0.216V80.04z"/>
	<path d="M88.817,78.169v3.87h-0.616v-3.358h-0.847v1.224c0,1.096-0.08,1.823-0.656,2.103c-0.12,0.057-0.264,0.088-0.407,0.088
		l-0.112-0.487c0.152-0.024,0.248-0.096,0.328-0.176c0.224-0.232,0.256-0.775,0.256-1.487v-1.775H88.817z"/>
	<path d="M90.106,80.16c0.008,1.184,0.472,1.439,0.92,1.439c0.264,0,0.487-0.064,0.64-0.152l0.096,0.456
		c-0.216,0.12-0.544,0.184-0.848,0.184c-0.928,0-1.407-0.76-1.407-1.942c0-1.256,0.528-2.039,1.304-2.039
		c0.791,0,1.104,0.831,1.104,1.711c0,0.144,0,0.248-0.009,0.344H90.106z M91.322,79.704c0.016-0.775-0.28-1.119-0.576-1.119
		c-0.399,0-0.607,0.592-0.632,1.119H91.322z"/>
	<path d="M93.194,78.169v1.64h1.143v-1.64h0.616v3.87h-0.616v-1.703h-1.143v1.703h-0.616v-3.87H93.194z"/>
	<path d="M96.377,78.169v1.327c0,0.672-0.008,1.248-0.048,1.855h0.017c0.176-0.512,0.399-1.063,0.567-1.503l0.647-1.68h0.647v3.87
		h-0.567v-1.271c0-0.831,0.016-1.295,0.056-1.887h-0.016c-0.145,0.479-0.296,0.911-0.464,1.335c-0.128,0.32-0.479,1.199-0.768,1.823
		h-0.632v-3.87H96.377z"/>
	<path d="M99.498,80.16c0.008,1.184,0.472,1.439,0.92,1.439c0.264,0,0.487-0.064,0.64-0.152l0.096,0.456
		c-0.216,0.12-0.544,0.184-0.848,0.184c-0.928,0-1.407-0.76-1.407-1.942c0-1.256,0.528-2.039,1.304-2.039
		c0.791,0,1.104,0.831,1.104,1.711c0,0.144,0,0.248-0.009,0.344H99.498z M100.713,79.704c0.016-0.775-0.28-1.119-0.576-1.119
		c-0.399,0-0.607,0.592-0.632,1.119H100.713z"/>
</g>
</svg>
