<?xml version="1.0" encoding="utf-8"?>
<!-- Generator: Adobe Illustrator 13.0.1, SVG Export Plug-In . SVG Version: 6.00 Build 14948)  -->
<!DOCTYPE svg PUBLIC "-//W3C//DTD SVG 1.1//EN" "http://www.w3.org/Graphics/SVG/1.1/DTD/svg11.dtd">
<svg version="1.1" id="Слой_1" xmlns="http://www.w3.org/2000/svg" xmlns:xlink="http://www.w3.org/1999/xlink" x="0px" y="0px"
	 width="213.084px" height="171.456px" viewBox="0 0 213.084 171.456" enable-background="new 0 0 213.084 171.456"
	 xml:space="preserve">
<rect x="44.391" y="43.556" fill="#FFFFFF" width="134.234" height="127.9"/>
<rect x="44.533" y="43.697" fill="#F7F7F8" width="133.951" height="127.617"/>
<rect x="44.674" y="43.838" fill="#F2F2F3" width="133.667" height="127.335"/>
<rect x="44.816" y="43.98" fill="#EDEDEE" width="133.385" height="127.051"/>
<rect x="44.957" y="44.121" fill="#E8E8E9" width="133.104" height="126.769"/>
<rect x="45.099" y="44.263" fill="#E3E4E5" width="132.82" height="126.486"/>
<rect x="45.24" y="44.405" fill="#DEE0E1" width="132.538" height="126.202"/>
<rect x="45.382" y="44.546" fill="#D9DBDC" width="132.254" height="125.919"/>
<rect x="45.523" y="44.687" fill="#D4D6D7" width="131.971" height="125.637"/>
<rect x="45.664" y="44.829" fill="#CFD1D3" width="131.688" height="125.354"/>
<rect x="45.806" y="44.97" fill="#CACCCE" width="131.405" height="125.071"/>
<rect x="45.947" y="45.112" fill="#C5C7C9" width="131.122" height="124.787"/>
<rect x="46.089" y="45.253" fill="#C0C2C4" width="130.839" height="124.505"/>
<rect x="46.23" y="45.395" fill="#BBBDC0" width="130.556" height="124.222"/>
<rect x="46.372" y="45.536" fill="#B7B9BC" width="130.274" height="123.939"/>
<rect x="46.513" y="45.678" fill="#B2B4B7" width="129.991" height="123.656"/>
<rect x="46.654" y="45.819" fill="#ADB0B2" width="129.708" height="123.373"/>
<rect x="46.796" y="45.96" fill="#A9ABAD" width="129.425" height="123.091"/>
<rect x="46.937" y="46.102" fill="#A4A6A9" width="129.142" height="122.808"/>
<rect x="47.079" y="46.243" fill="#9FA1A4" width="128.858" height="122.525"/>
<rect x="47.22" y="46.385" fill="#9A9D9F" width="128.576" height="122.241"/>
<rect x="47.362" y="46.526" fill="#96989B" width="128.293" height="121.959"/>
<rect x="47.503" y="46.667" fill="#929497" width="128.009" height="121.677"/>
<rect x="47.645" y="46.809" fill="#8E9092" width="127.726" height="121.393"/>
<rect x="47.786" y="46.95" fill="#898B8E" width="127.445" height="121.111"/>
<rect x="47.927" y="47.092" fill="#858789" width="127.162" height="120.827"/>
<rect x="48.069" y="47.233" fill="#808285" width="126.879" height="120.545"/>
<rect x="43.37" y="42.534" fill="#D1D3D4" width="130.557" height="124.223"/>
<rect x="43.37" y="42.534" fill="none" stroke="#231F20" stroke-width="0.511" stroke-miterlimit="3.864" width="130.557" height="124.223"/>
<line fill="none" stroke="#231F20" stroke-width="0.511" stroke-miterlimit="3.864" x1="109.276" y1="6.291" x2="109.276" y2="58.74"/>
<polyline fill-rule="evenodd" clip-rule="evenodd" fill="#231F20" points="109.276,58.442 111.064,58.442 109.276,62.912 
	107.489,58.442 109.276,58.442 "/>
<line fill="none" stroke="#231F20" stroke-width="0.511" stroke-miterlimit="3.864" x1="133.938" y1="72.033" x2="196.602" y2="72.033"/>
<polyline fill-rule="evenodd" clip-rule="evenodd" fill="#231F20" points="196.305,72.033 196.305,70.245 200.774,72.033 
	196.305,73.821 196.305,72.033 "/>
<polyline fill="none" stroke="#231F20" stroke-width="0.511" stroke-miterlimit="3.864" points="43.053,72.505 19.261,72.505 
	19.261,103.529 38.994,103.529 "/>
<polyline fill-rule="evenodd" clip-rule="evenodd" fill="#231F20" points="38.696,103.529 38.696,101.741 43.165,103.529 
	38.696,105.317 38.696,103.529 "/>
<rect x="85.413" y="63.266" fill="#FFFFFF" width="48.831" height="17.98"/>
<rect x="85.413" y="63.266" fill="none" stroke="#231F20" stroke-width="0.511" stroke-miterlimit="3.864" width="48.831" height="17.98"/>
<rect x="85.413" y="112.301" fill="#FFFFFF" width="48.831" height="39.432"/>
<rect x="85.413" y="112.301" fill="none" stroke="#231F20" stroke-width="0.511" stroke-miterlimit="3.864" width="48.831" height="39.432"/>
<polyline fill="none" stroke="#231F20" stroke-width="0.511" stroke-miterlimit="3.864" points="84.739,76.709 73.206,76.709 
	73.206,124.078 80.681,124.078 "/>
<polyline fill-rule="evenodd" clip-rule="evenodd" fill="#231F20" points="80.382,124.078 80.382,122.29 84.852,124.078 
	80.382,125.866 80.382,124.078 "/>
<polyline fill="none" stroke="#231F20" stroke-width="0.511" stroke-miterlimit="3.864" points="138.352,76.361 145.799,76.361 
	145.799,123.73 134.238,123.73 "/>
<polyline fill-rule="evenodd" clip-rule="evenodd" fill="#231F20" points="138.65,76.361 138.65,78.149 134.18,76.361 
	138.65,74.573 138.65,76.361 "/>
<rect x="79.641" y="18.039" fill="#FFFFFF" width="62.234" height="7.204"/>
<rect x="79.641" y="18.039" fill="none" stroke="#FFFFFF" stroke-width="0.511" stroke-miterlimit="3.864" width="62.234" height="7.204"/>
<rect y="83.089" fill="#FFFFFF" width="33.932" height="7.952"/>
<rect x="51.366" y="90.391" fill="#D1D3D4" width="44.008" height="15.297"/>
<rect x="127.983" y="90.391" fill="#D1D3D4" width="44.008" height="15.297"/>
<path fill="#FFFFFF" d="M202.664,72.033c0-2.807,2.276-5.082,5.082-5.082c2.808,0,5.082,2.275,5.082,5.082
	c0,2.807-2.274,5.082-5.082,5.082C204.94,77.115,202.664,74.84,202.664,72.033"/>
<circle fill="none" stroke="#231F20" stroke-width="0.511" stroke-miterlimit="3.864" cx="207.746" cy="72.033" r="5.082"/>
<path fill="#231F20" d="M106.094,3.239c0-1.789,1.45-3.239,3.24-3.239c1.788,0,3.239,1.45,3.239,3.239s-1.451,3.239-3.239,3.239
	C107.544,6.478,106.094,5.028,106.094,3.239"/>
<path fill="#231F20" d="M204.508,72.033c0-1.789,1.451-3.239,3.24-3.239c1.788,0,3.238,1.45,3.238,3.239s-1.45,3.239-3.238,3.239
	C205.959,75.272,204.508,73.822,204.508,72.033"/>
<circle fill="none" stroke="#231F20" stroke-width="0.511" stroke-miterlimit="3.864" cx="207.747" cy="72.033" r="3.239"/>
<line fill="none" stroke="#231F20" stroke-width="0.511" stroke-miterlimit="3.864" stroke-dasharray="1.022,1.022" x1="85.348" y1="136.603" x2="134.167" y2="136.603"/>
<g>
	<path d="M55.083,51.045c0,0.376,0.016,0.736,0.056,0.952h-1.095l-0.072-0.392h-0.024c-0.256,0.312-0.656,0.479-1.12,0.479
		c-0.792,0-1.263-0.576-1.263-1.199c0-1.016,0.912-1.503,2.294-1.495v-0.056c0-0.208-0.112-0.503-0.711-0.503
		c-0.4,0-0.824,0.136-1.08,0.295l-0.224-0.783c0.272-0.152,0.808-0.344,1.519-0.344c1.303,0,1.719,0.768,1.719,1.688V51.045z
		 M53.9,50.15c-0.64-0.008-1.135,0.144-1.135,0.616c0,0.312,0.208,0.464,0.48,0.464c0.304,0,0.552-0.2,0.631-0.448
		c0.016-0.064,0.024-0.136,0.024-0.208V50.15z"/>
	<path d="M57.252,48.087v1.559h0.136l0.983-1.559h1.423l-1.439,1.679c0.464,0.088,0.752,0.512,0.983,1.08
		c0.128,0.32,0.28,0.784,0.472,1.151H58.54c-0.104-0.168-0.2-0.448-0.352-0.863c-0.176-0.448-0.416-0.688-0.815-0.688h-0.12v1.551
		h-1.207v-3.91H57.252z"/>
	<path d="M63.475,48.087v0.927H62.34v2.982h-1.223v-2.982h-1.136v-0.927H63.475z"/>
	<path d="M65.165,48.087v1.199c0,0.624-0.032,1.063-0.063,1.591l0.032,0.008c0.184-0.448,0.288-0.751,0.448-1.12l0.76-1.679h1.487
		v3.91h-1.151v-1.191c0-0.607,0.032-0.863,0.072-1.695h-0.032c-0.152,0.432-0.248,0.688-0.408,1.055
		c-0.248,0.552-0.543,1.224-0.815,1.831h-1.479v-3.91H65.165z"/>
	<path d="M68.789,48.127c0.296-0.04,0.968-0.096,1.575-0.096c0.664,0,1.935,0.072,1.935,1c0,0.503-0.408,0.768-0.799,0.848v0.016
		c0.583,0.096,0.967,0.424,0.967,0.952c0,1.111-1.511,1.208-2.311,1.208c-0.544,0-1.12-0.04-1.368-0.072V48.127z M69.98,51.301
		c0.128,0.016,0.224,0.016,0.408,0.016c0.416,0,0.831-0.12,0.831-0.504c0-0.335-0.319-0.496-0.887-0.496H69.98V51.301z
		 M69.988,49.614H70.3c0.488,0,0.8-0.128,0.8-0.424c0-0.256-0.208-0.416-0.696-0.416c-0.168,0-0.28,0.016-0.416,0.032V49.614z"/>
	<path d="M74.42,48.087v1.415h1.231v-1.415h1.224v3.91h-1.224v-1.551H74.42v1.551h-1.216v-3.91H74.42z"/>
	<path d="M79.052,48.087v1.159c0.16-0.024,0.368-0.048,0.631-0.048c0.864,0,1.759,0.368,1.759,1.367c0,0.496-0.216,0.824-0.536,1.04
		c-0.503,0.352-1.183,0.439-1.767,0.439c-0.44,0-0.896-0.024-1.304-0.072v-3.886H79.052z M79.044,51.206
		c0.112,0.008,0.224,0.016,0.368,0.016c0.408,0,0.824-0.16,0.824-0.616c0-0.44-0.408-0.584-0.768-0.584
		c-0.192,0-0.312,0.024-0.424,0.04V51.206z M83.09,48.087v3.91h-1.215v-3.91H83.09z"/>
	<path d="M85.205,48.087v1.199c0,0.624-0.032,1.063-0.064,1.591l0.032,0.008c0.184-0.448,0.288-0.751,0.448-1.12l0.76-1.679h1.487
		v3.91h-1.151v-1.191c0-0.607,0.032-0.863,0.072-1.695h-0.032c-0.152,0.432-0.248,0.688-0.408,1.055
		c-0.248,0.552-0.543,1.224-0.815,1.831h-1.479v-3.91H85.205z M85.58,46.472c0.008,0.352,0.144,0.568,0.368,0.568
		c0.24,0,0.368-0.224,0.392-0.568h0.768c-0.048,0.744-0.488,1.127-1.175,1.127c-0.744,0-1.087-0.44-1.127-1.127H85.58z"/>
	<path d="M53.572,56.072c-0.456,0.735-0.808,1.807-0.808,3.238c0,1.407,0.36,2.471,0.808,3.214h-0.848
		c-0.432-0.615-0.912-1.679-0.912-3.222c0.008-1.551,0.48-2.606,0.912-3.23H53.572z"/>
	<path d="M57.971,57.688v3.046l0.432,0.024l-0.056,2.103h-0.912l-0.04-1.263h-2.47l-0.048,1.263h-0.919l-0.032-2.095l0.36-0.032
		c0.167-0.24,0.304-0.52,0.392-0.807c0.112-0.408,0.176-0.848,0.176-1.279v-0.959H57.971z M55.908,59.031
		c0,0.328-0.056,0.679-0.144,1.015c-0.056,0.224-0.152,0.464-0.272,0.664h1.295v-2.135h-0.879V59.031z"/>
	<path d="M59.965,60.03c0.04,0.503,0.536,0.743,1.103,0.743c0.416,0,0.752-0.056,1.08-0.16l0.16,0.824
		c-0.4,0.16-0.888,0.248-1.416,0.248c-1.327,0-2.087-0.775-2.087-1.999c0-0.991,0.616-2.086,1.975-2.086
		c1.263,0,1.743,0.983,1.743,1.951c0,0.208-0.024,0.392-0.04,0.48H59.965z M61.396,59.198c0-0.295-0.128-0.792-0.688-0.792
		c-0.512,0-0.72,0.464-0.752,0.792H61.396z"/>
	<path d="M64.397,57.688v1.199c0,0.624-0.032,1.063-0.064,1.591l0.032,0.008c0.184-0.448,0.288-0.751,0.448-1.12l0.76-1.679h1.487
		v3.91h-1.151v-1.191c0-0.607,0.032-0.863,0.072-1.695h-0.032c-0.152,0.432-0.248,0.688-0.408,1.055
		c-0.248,0.552-0.543,1.223-0.815,1.831h-1.479v-3.91H64.397z M64.772,56.072c0.008,0.352,0.144,0.567,0.368,0.567
		c0.24,0,0.368-0.224,0.392-0.567H66.3c-0.048,0.744-0.488,1.127-1.175,1.127c-0.744,0-1.087-0.44-1.127-1.127H64.772z"/>
	<path d="M70.963,61.501c-0.216,0.096-0.624,0.184-1.087,0.184c-1.264,0-2.071-0.775-2.071-2.007c0-1.144,0.784-2.079,2.239-2.079
		c0.32,0,0.672,0.056,0.928,0.152l-0.192,0.903c-0.144-0.064-0.36-0.12-0.68-0.12c-0.64,0-1.056,0.456-1.047,1.096
		c0,0.719,0.479,1.095,1.071,1.095c0.288,0,0.512-0.048,0.696-0.128L70.963,61.501z"/>
	<path d="M74.851,57.688v0.927h-1.135v2.982h-1.223v-2.982h-1.136v-0.927H74.851z"/>
	<path d="M75.389,57.728c0.295-0.04,0.967-0.096,1.575-0.096c0.664,0,1.935,0.072,1.935,1c0,0.504-0.408,0.768-0.799,0.848v0.016
		c0.583,0.096,0.967,0.424,0.967,0.952c0,1.111-1.511,1.208-2.311,1.208c-0.544,0-1.12-0.04-1.367-0.072V57.728z M76.58,60.901
		c0.128,0.016,0.224,0.016,0.408,0.016c0.416,0,0.832-0.12,0.832-0.503c0-0.336-0.32-0.496-0.888-0.496H76.58V60.901z
		 M76.588,59.214H76.9c0.488,0,0.8-0.128,0.8-0.424c0-0.256-0.208-0.416-0.696-0.416c-0.168,0-0.28,0.016-0.416,0.032V59.214z"/>
	<path d="M80.957,57.688v1.199c0,0.624-0.032,1.063-0.064,1.591l0.032,0.008c0.184-0.448,0.288-0.751,0.448-1.12l0.76-1.679h1.487
		v3.91h-1.151v-1.191c0-0.607,0.032-0.863,0.072-1.695h-0.032c-0.152,0.432-0.248,0.688-0.408,1.055
		c-0.248,0.552-0.543,1.223-0.815,1.831h-1.479v-3.91H80.957z"/>
	<path d="M88.043,61.597h-1.199v-1.471h-0.248c-0.256,0-0.44,0.12-0.56,0.28c-0.208,0.2-0.304,0.568-0.424,0.872
		c-0.048,0.112-0.088,0.192-0.152,0.32h-1.295c0.096-0.12,0.168-0.272,0.24-0.432c0.128-0.312,0.304-0.816,0.552-1.08
		c0.128-0.136,0.288-0.24,0.496-0.288v-0.024c-0.439-0.048-1.007-0.344-1.007-0.968c0-0.488,0.272-0.768,0.664-0.951
		c0.36-0.176,0.904-0.232,1.439-0.232c0.607,0,1.151,0.04,1.495,0.088V61.597z M86.844,58.407c-0.104-0.016-0.224-0.032-0.416-0.032
		c-0.392,0-0.728,0.152-0.728,0.504c0,0.344,0.384,0.512,0.744,0.512c0.192,0,0.296-0.008,0.4-0.008V58.407z"/>
	<path d="M88.805,62.524c0.44-0.735,0.808-1.815,0.808-3.23s-0.36-2.479-0.808-3.222h0.848c0.424,0.616,0.912,1.663,0.912,3.222
		c-0.008,1.559-0.488,2.606-0.912,3.23H88.805z"/>
</g>
<g>
	<path d="M99.122,23.568c-0.136,0.08-0.368,0.144-0.64,0.144c-0.848,0-1.416-0.68-1.416-1.959c0-1.111,0.56-2.015,1.527-2.015
		c0.208,0,0.432,0.056,0.543,0.12l-0.12,0.503c-0.08-0.04-0.24-0.104-0.44-0.104c-0.616,0-0.896,0.736-0.896,1.495
		c0,0.904,0.344,1.447,0.912,1.447c0.168,0,0.304-0.04,0.448-0.104L99.122,23.568z"/>
	<path d="M101.97,21.729c0,1.495-0.696,1.999-1.288,1.999c-0.695,0-1.255-0.632-1.255-1.991c0-1.416,0.632-2.007,1.295-2.007
		C101.41,19.73,101.97,20.378,101.97,21.729z M100.042,21.729c0,0.64,0.112,1.511,0.672,1.511c0.528,0,0.631-0.912,0.631-1.511
		c0-0.591-0.104-1.503-0.647-1.503C100.146,20.226,100.042,21.138,100.042,21.729z"/>
	<path d="M102.898,21.433h0.216c0.375,0,0.792-0.24,0.792-0.664c0-0.384-0.264-0.576-0.624-0.576c-0.24,0-0.487,0.088-0.679,0.2
		l-0.128-0.392c0.256-0.176,0.616-0.271,0.959-0.271c0.631,0,1.087,0.359,1.087,0.967c0,0.472-0.344,0.792-0.792,0.912v0.008
		c0.536,0.08,0.935,0.424,0.935,0.976c0,0.775-0.711,1.135-1.423,1.135c-0.32,0-0.656-0.08-0.912-0.216l0.144-0.44
		c0.184,0.096,0.456,0.192,0.719,0.192c0.52,0,0.848-0.312,0.848-0.671c0-0.528-0.472-0.712-0.912-0.712h-0.232V21.433z"/>
	<path d="M107.674,19.794v3.391l0.328,0.008l-0.04,1.503h-0.464l-0.04-1.031h-1.999l-0.04,1.031h-0.472l-0.032-1.503l0.256-0.008
		c0.16-0.256,0.28-0.536,0.36-0.824c0.12-0.44,0.176-0.912,0.176-1.431v-1.136H107.674z M106.25,20.857
		c0,0.536-0.032,1.063-0.16,1.535c-0.072,0.28-0.176,0.544-0.312,0.784h1.288V20.29h-0.816V20.857z"/>
	<path d="M110.706,22.785c0,0.296,0,0.631,0.04,0.879h-0.56l-0.04-0.408h-0.024c-0.168,0.296-0.44,0.472-0.768,0.472
		c-0.52,0-0.919-0.44-0.919-1.104c0-0.967,0.775-1.399,1.647-1.407v-0.12c0-0.52-0.128-0.88-0.616-0.88c-0.24,0-0.456,0.08-0.64,0.2
		l-0.136-0.432c0.16-0.12,0.52-0.256,0.903-0.256c0.776,0,1.111,0.512,1.111,1.383V22.785z M110.098,21.665
		c-0.32,0-1.063,0.056-1.063,0.896c0,0.504,0.256,0.688,0.472,0.688c0.272,0,0.504-0.2,0.576-0.583
		c0.016-0.072,0.016-0.152,0.016-0.216V21.665z"/>
	<path d="M112.187,19.794v1.639h1.144v-1.639h0.616v3.87h-0.616v-1.703h-1.144v1.703h-0.616v-3.87H112.187z"/>
	<path d="M115.37,19.794v1.328c0,0.671-0.008,1.247-0.048,1.855h0.016c0.176-0.512,0.4-1.063,0.568-1.503l0.647-1.679h0.647v3.87
		h-0.567v-1.271c0-0.832,0.016-1.295,0.056-1.887h-0.016c-0.144,0.479-0.296,0.912-0.464,1.335c-0.128,0.32-0.48,1.2-0.768,1.823
		h-0.632v-3.87H115.37z"/>
	<path d="M118.49,21.785c0.008,1.183,0.472,1.439,0.92,1.439c0.264,0,0.487-0.064,0.64-0.152l0.096,0.456
		c-0.216,0.12-0.543,0.184-0.848,0.184c-0.927,0-1.407-0.759-1.407-1.943c0-1.255,0.528-2.039,1.304-2.039
		c0.792,0,1.103,0.831,1.103,1.711c0,0.144,0,0.248-0.008,0.344H118.49z M119.706,21.329c0.016-0.775-0.28-1.119-0.576-1.119
		c-0.399,0-0.607,0.592-0.631,1.119H119.706z"/>
</g>
<g>
	<path d="M5.247,84.794v1.328c0,0.671-0.008,1.247-0.048,1.855h0.016c0.176-0.512,0.4-1.063,0.568-1.503l0.647-1.679h0.647v3.87
		H6.51v-1.271c0-0.832,0.016-1.295,0.056-1.887H6.55c-0.144,0.479-0.296,0.912-0.464,1.335c-0.128,0.32-0.48,1.2-0.768,1.823H4.687
		v-3.87H5.247z"/>
	<path d="M8.215,86.433h0.216c0.375,0,0.792-0.24,0.792-0.664c0-0.384-0.264-0.576-0.624-0.576c-0.24,0-0.488,0.088-0.68,0.2
		l-0.128-0.392c0.256-0.176,0.615-0.271,0.959-0.271c0.631,0,1.087,0.359,1.087,0.967c0,0.472-0.344,0.792-0.792,0.912v0.008
		c0.536,0.08,0.936,0.424,0.936,0.976c0,0.775-0.711,1.135-1.423,1.135c-0.32,0-0.656-0.08-0.912-0.216l0.144-0.44
		c0.184,0.096,0.456,0.192,0.719,0.192c0.52,0,0.848-0.312,0.848-0.671c0-0.528-0.472-0.712-0.912-0.712H8.215V86.433z"/>
	<path d="M10.815,84.794h0.728l0.504,1.703c0.136,0.448,0.232,0.76,0.352,1.231h0.016c0.12-0.496,0.192-0.775,0.328-1.231
		l0.488-1.703h0.744l0.264,3.87h-0.584l-0.072-1.663c-0.024-0.512-0.04-0.888-0.056-1.623h-0.024
		c-0.088,0.4-0.224,0.919-0.384,1.487l-0.52,1.775H12.15l-0.504-1.719c-0.16-0.536-0.296-1.079-0.4-1.551H11.23
		c-0.008,0.624-0.024,1.119-0.056,1.663l-0.064,1.631h-0.568L10.815,84.794z"/>
	<path d="M15.375,86.785c0.008,1.183,0.472,1.439,0.919,1.439c0.264,0,0.488-0.064,0.64-0.152l0.096,0.456
		c-0.216,0.12-0.543,0.184-0.848,0.184c-0.927,0-1.407-0.759-1.407-1.943c0-1.255,0.528-2.039,1.303-2.039
		c0.792,0,1.104,0.831,1.104,1.711c0,0.144,0,0.248-0.008,0.344H15.375z M16.59,86.329c0.016-0.775-0.28-1.119-0.575-1.119
		c-0.4,0-0.608,0.592-0.632,1.119H16.59z"/>
	<path d="M18.462,84.794v1.639h1.144v-1.639h0.616v3.87h-0.616v-1.703h-1.144v1.703h-0.616v-3.87H18.462z"/>
	<path d="M21.519,86.785c0.008,1.183,0.472,1.439,0.92,1.439c0.264,0,0.487-0.064,0.64-0.152l0.096,0.456
		c-0.216,0.12-0.543,0.184-0.848,0.184c-0.927,0-1.407-0.759-1.407-1.943c0-1.255,0.528-2.039,1.304-2.039
		c0.792,0,1.103,0.831,1.103,1.711c0,0.144,0,0.248-0.008,0.344H21.519z M22.734,86.329c0.016-0.775-0.28-1.119-0.576-1.119
		c-0.399,0-0.607,0.592-0.631,1.119H22.734z"/>
	<path d="M24.606,84.794v1.639h1.144v-1.639h0.616v3.87H25.75v-1.703h-1.144v1.703h-0.616v-3.87H24.606z"/>
	<path d="M27.79,84.794v1.328c0,0.671-0.008,1.247-0.048,1.855h0.016c0.176-0.512,0.4-1.063,0.568-1.503l0.647-1.679h0.647v3.87
		h-0.567v-1.271c0-0.832,0.016-1.295,0.056-1.887h-0.016c-0.144,0.479-0.296,0.912-0.464,1.335c-0.128,0.32-0.48,1.2-0.768,1.823
		H27.23v-3.87H27.79z"/>
	<path d="M32.646,88.664h-0.592v-1.655H31.87c-0.28,0-0.456,0.072-0.56,0.184c-0.264,0.232-0.304,0.711-0.439,1.183
		c-0.024,0.112-0.064,0.208-0.104,0.288h-0.648c0.072-0.12,0.128-0.232,0.176-0.4c0.104-0.375,0.176-0.903,0.448-1.199
		c0.104-0.112,0.271-0.224,0.472-0.256v-0.016c-0.448-0.096-0.855-0.392-0.855-0.951c0-0.368,0.144-0.616,0.399-0.808
		c0.224-0.184,0.648-0.288,1.063-0.288c0.312,0,0.608,0.024,0.824,0.072V88.664z M32.054,85.202
		c-0.088-0.024-0.176-0.032-0.264-0.032c-0.432,0-0.815,0.2-0.815,0.688c0,0.472,0.423,0.736,0.839,0.736c0.08,0,0.2,0,0.24,0
		V85.202z"/>
</g>
<g>
	<path d="M146.299,65.794l0.512,2.223c0.072,0.304,0.113,0.56,0.16,0.799h0.016c0.041-0.216,0.104-0.512,0.168-0.792l0.457-2.231
		h0.607l-0.632,2.487c-0.24,0.976-0.504,1.911-0.96,2.495c-0.271,0.344-0.56,0.528-0.695,0.592l-0.225-0.528
		c0.177-0.096,0.369-0.264,0.545-0.488c0.16-0.2,0.287-0.464,0.352-0.647c0.031-0.096,0.039-0.136,0.039-0.192
		c0-0.048,0-0.096-0.016-0.144l-0.975-3.574H146.299z"/>
	<path d="M150.963,65.794v3.391l0.327,0.008l-0.04,1.503h-0.463l-0.041-1.031h-1.998l-0.041,1.031h-0.471l-0.032-1.503l0.256-0.008
		c0.159-0.256,0.28-0.536,0.36-0.824c0.119-0.44,0.176-0.912,0.176-1.431v-1.136H150.963z M149.539,66.857
		c0,0.536-0.031,1.063-0.16,1.535c-0.072,0.28-0.176,0.544-0.312,0.784h1.288V66.29h-0.816V66.857z"/>
	<path d="M153.994,68.785c0,0.296,0,0.631,0.04,0.879h-0.56l-0.04-0.408h-0.024c-0.168,0.296-0.439,0.472-0.768,0.472
		c-0.52,0-0.919-0.44-0.919-1.104c0-0.967,0.775-1.399,1.647-1.407v-0.12c0-0.52-0.129-0.88-0.616-0.88
		c-0.239,0-0.456,0.08-0.64,0.2l-0.136-0.432c0.159-0.12,0.52-0.256,0.903-0.256c0.775,0,1.111,0.512,1.111,1.383V68.785z
		 M153.387,67.665c-0.32,0-1.063,0.056-1.063,0.896c0,0.504,0.256,0.688,0.472,0.688c0.271,0,0.504-0.2,0.576-0.583
		c0.016-0.072,0.016-0.152,0.016-0.216V67.665z"/>
	<path d="M157.066,65.794v3.87h-0.615v-3.358h-0.848v1.224c0,1.095-0.08,1.823-0.656,2.103c-0.119,0.056-0.264,0.088-0.408,0.088
		l-0.111-0.488c0.152-0.024,0.248-0.096,0.328-0.176c0.224-0.232,0.256-0.776,0.256-1.487v-1.775H157.066z"/>
	<path d="M158.355,67.785c0.008,1.183,0.472,1.439,0.92,1.439c0.264,0,0.486-0.064,0.639-0.152l0.096,0.456
		c-0.215,0.12-0.543,0.184-0.848,0.184c-0.927,0-1.406-0.759-1.406-1.943c0-1.255,0.527-2.039,1.303-2.039
		c0.792,0,1.104,0.831,1.104,1.711c0,0.144,0,0.248-0.008,0.344H158.355z M159.57,67.329c0.016-0.775-0.279-1.119-0.576-1.119
		c-0.398,0-0.607,0.592-0.631,1.119H159.57z"/>
	<path d="M161.443,65.794v1.639h1.143v-1.639h0.616v3.87h-0.616v-1.703h-1.143v1.703h-0.616v-3.87H161.443z"/>
	<path d="M164.627,65.794v1.328c0,0.671-0.008,1.247-0.048,1.855h0.017c0.176-0.512,0.399-1.063,0.567-1.503l0.647-1.679h0.647v3.87
		h-0.567v-1.271c0-0.832,0.016-1.295,0.056-1.887h-0.016c-0.144,0.479-0.296,0.912-0.464,1.335c-0.128,0.32-0.48,1.2-0.768,1.823
		h-0.632v-3.87H164.627z"/>
	<path d="M167.746,67.785c0.009,1.183,0.473,1.439,0.92,1.439c0.264,0,0.488-0.064,0.641-0.152l0.096,0.456
		c-0.217,0.12-0.544,0.184-0.848,0.184c-0.928,0-1.408-0.759-1.408-1.943c0-1.255,0.528-2.039,1.305-2.039
		c0.791,0,1.103,0.831,1.103,1.711c0,0.144,0,0.248-0.008,0.344H167.746z M168.963,67.329c0.016-0.775-0.281-1.119-0.576-1.119
		c-0.4,0-0.607,0.592-0.632,1.119H168.963z"/>
</g>
<g>
	<path d="M59.319,91.46v3.87h-0.608v-3.35H57.6v3.35h-0.616v-3.87H59.319z"/>
	<path d="M62.559,93.396c0,1.495-0.696,1.999-1.288,1.999c-0.695,0-1.255-0.632-1.255-1.991c0-1.416,0.632-2.007,1.295-2.007
		C61.999,91.397,62.559,92.044,62.559,93.396z M60.632,93.396c0,0.64,0.112,1.511,0.672,1.511c0.528,0,0.631-0.912,0.631-1.511
		c0-0.591-0.104-1.503-0.647-1.503C60.736,91.893,60.632,92.804,60.632,93.396z"/>
	<path d="M63.368,91.46h0.728l0.504,1.703c0.136,0.448,0.232,0.76,0.352,1.231h0.016c0.12-0.496,0.192-0.775,0.328-1.231
		l0.488-1.703h0.744l0.264,3.87h-0.584l-0.072-1.663c-0.024-0.512-0.04-0.888-0.056-1.623h-0.024
		c-0.088,0.4-0.224,0.919-0.384,1.487l-0.52,1.775h-0.448L64.2,93.587c-0.16-0.536-0.296-1.079-0.4-1.551h-0.016
		c-0.008,0.624-0.024,1.119-0.056,1.663l-0.064,1.631h-0.568L63.368,91.46z"/>
	<path d="M67.928,93.452c0.008,1.183,0.472,1.439,0.92,1.439c0.264,0,0.487-0.064,0.64-0.152l0.096,0.456
		c-0.216,0.12-0.543,0.184-0.848,0.184c-0.927,0-1.407-0.759-1.407-1.943c0-1.255,0.528-2.039,1.304-2.039
		c0.792,0,1.103,0.831,1.103,1.711c0,0.144,0,0.248-0.008,0.344H67.928z M69.144,92.996c0.016-0.775-0.28-1.119-0.576-1.119
		c-0.399,0-0.607,0.592-0.631,1.119H69.144z"/>
	<path d="M71.008,91.46v3.358h1.015V91.46h0.608v3.358h1.023V91.46h0.607v3.391l0.32,0.008l-0.032,1.503h-0.472l-0.04-1.031H70.4
		v-3.87H71.008z"/>
	<path d="M75.608,93.452c0.008,1.183,0.472,1.439,0.92,1.439c0.264,0,0.487-0.064,0.64-0.152l0.096,0.456
		c-0.216,0.12-0.543,0.184-0.848,0.184c-0.927,0-1.407-0.759-1.407-1.943c0-1.255,0.528-2.039,1.304-2.039
		c0.792,0,1.103,0.831,1.103,1.711c0,0.144,0,0.248-0.008,0.344H75.608z M76.824,92.996c0.016-0.775-0.28-1.119-0.576-1.119
		c-0.399,0-0.607,0.592-0.631,1.119H76.824z"/>
	<path d="M78.696,91.46V93.1h1.144V91.46h0.616v3.87h-0.616v-1.703h-1.144v1.703H78.08v-3.87H78.696z"/>
	<path d="M81.88,91.46v1.328c0,0.671-0.008,1.247-0.048,1.855h0.016c0.176-0.512,0.4-1.063,0.568-1.503l0.647-1.679h0.647v3.87
		h-0.567v-1.271c0-0.832,0.016-1.295,0.056-1.887h-0.016c-0.144,0.479-0.296,0.912-0.464,1.335c-0.128,0.32-0.48,1.2-0.768,1.823
		H81.32v-3.87H81.88z"/>
	<path d="M85,93.452c0.008,1.183,0.472,1.439,0.92,1.439c0.264,0,0.487-0.064,0.64-0.152l0.096,0.456
		c-0.216,0.12-0.543,0.184-0.848,0.184c-0.927,0-1.407-0.759-1.407-1.943c0-1.255,0.528-2.039,1.304-2.039
		c0.792,0,1.103,0.831,1.103,1.711c0,0.144,0,0.248-0.008,0.344H85z M86.215,92.996c0.016-0.775-0.28-1.119-0.576-1.119
		c-0.399,0-0.607,0.592-0.631,1.119H86.215z"/>
	<path d="M88.728,91.477c0.248-0.048,0.56-0.08,0.872-0.08c0.64,0,1.439,0.184,1.439,0.959c0,0.464-0.328,0.808-0.768,0.92v0.016
		c0.56,0.096,0.927,0.44,0.927,0.968c0,0.903-0.936,1.127-1.679,1.127c-0.36,0-0.64-0.016-0.792-0.04V91.477z M89.32,94.923
		c0.072,0.008,0.192,0.024,0.32,0.024c0.472,0,0.943-0.168,0.943-0.688c0-0.52-0.512-0.72-1-0.72H89.32V94.923z M89.328,93.1h0.28
		c0.368,0,0.839-0.248,0.839-0.655c0-0.448-0.368-0.6-0.8-0.6c-0.112,0-0.216,0.016-0.32,0.032V93.1z"/>
	<path d="M60.124,101.061l0.36,0.831c0.096,0.224,0.168,0.448,0.256,0.68h0.016c0.088-0.248,0.176-0.472,0.256-0.68l0.352-0.831
		h0.631l-0.919,1.911l0.912,1.959h-0.672l-0.368-0.872c-0.088-0.208-0.16-0.408-0.256-0.664h-0.016
		c-0.08,0.232-0.168,0.44-0.256,0.664l-0.36,0.872h-0.624l0.919-1.943l-0.896-1.927H60.124z"/>
	<path d="M62.493,102.268c0-0.592-0.024-0.936-0.032-1.207h0.552l0.032,0.496h0.016c0.208-0.416,0.512-0.56,0.816-0.56
		c0.671,0,1.119,0.72,1.119,1.991c0,1.431-0.591,2.007-1.199,2.007c-0.36,0-0.568-0.232-0.671-0.448h-0.016v1.919h-0.616V102.268z
		 M63.108,103.507c0,0.12,0,0.232,0.024,0.32c0.12,0.552,0.4,0.656,0.567,0.656c0.512,0,0.672-0.704,0.672-1.487
		c0-0.799-0.192-1.471-0.68-1.471c-0.28,0-0.528,0.352-0.567,0.704c-0.016,0.096-0.016,0.192-0.016,0.296V103.507z"/>
	<path d="M67.739,104.051c0,0.296,0,0.631,0.04,0.879h-0.56l-0.04-0.408h-0.024c-0.168,0.296-0.44,0.472-0.768,0.472
		c-0.52,0-0.919-0.44-0.919-1.104c0-0.967,0.775-1.399,1.647-1.407v-0.12c0-0.52-0.128-0.88-0.616-0.88c-0.24,0-0.456,0.08-0.64,0.2
		l-0.136-0.432c0.16-0.12,0.52-0.256,0.903-0.256c0.775,0,1.111,0.512,1.111,1.383V104.051z M67.131,102.932
		c-0.32,0-1.063,0.056-1.063,0.896c0,0.504,0.256,0.688,0.472,0.688c0.272,0,0.504-0.2,0.576-0.584
		c0.016-0.072,0.016-0.152,0.016-0.216V102.932z"/>
	<path d="M69.22,101.061v1.639h1.144v-1.639h0.616v3.87h-0.616v-1.703H69.22v1.703h-0.616v-3.87H69.22z"/>
	<path d="M72.404,101.061v1.327c0,0.671-0.008,1.247-0.048,1.855h0.016c0.176-0.512,0.4-1.063,0.568-1.503l0.647-1.679h0.647v3.87
		h-0.567v-1.271c0-0.832,0.016-1.295,0.056-1.887h-0.016c-0.144,0.479-0.296,0.912-0.464,1.335c-0.128,0.319-0.48,1.199-0.768,1.823
		h-0.632v-3.87H72.404z"/>
	<path d="M77.299,101.061v3.87h-0.616v-3.358h-0.848v1.223c0,1.095-0.08,1.823-0.656,2.103c-0.12,0.056-0.264,0.088-0.408,0.088
		l-0.112-0.488c0.152-0.024,0.248-0.096,0.328-0.176c0.224-0.231,0.256-0.775,0.256-1.487v-1.775H77.299z"/>
	<path d="M78.715,101.061v1.327c0,0.671-0.008,1.247-0.048,1.855h0.016c0.176-0.512,0.4-1.063,0.568-1.503l0.647-1.679h0.647v3.87
		h-0.567v-1.271c0-0.832,0.016-1.295,0.056-1.887h-0.016c-0.144,0.479-0.296,0.912-0.464,1.335c-0.128,0.319-0.48,1.199-0.768,1.823
		h-0.632v-3.87H78.715z"/>
	<path d="M82.012,101.061v3.358h1.015v-3.358h0.608v3.358h1.023v-3.358h0.607v3.39l0.32,0.008l-0.032,1.503h-0.472l-0.04-1.031
		h-3.638v-3.87H82.012z"/>
	<path d="M86.612,103.052c0.008,1.183,0.472,1.439,0.92,1.439c0.264,0,0.487-0.064,0.64-0.152l0.096,0.456
		c-0.216,0.12-0.543,0.184-0.848,0.184c-0.927,0-1.407-0.759-1.407-1.943c0-1.255,0.528-2.039,1.304-2.039
		c0.792,0,1.103,0.832,1.103,1.711c0,0.144,0,0.248-0.008,0.344H86.612z M87.828,102.596c0.016-0.776-0.28-1.12-0.576-1.12
		c-0.399,0-0.607,0.592-0.631,1.12H87.828z"/>
</g>
<g>
	<path d="M128.1,91.46v1.328c0,0.671-0.008,1.247-0.048,1.855h0.016c0.176-0.512,0.4-1.063,0.568-1.503l0.647-1.679h0.647v3.87
		h-0.567v-1.271c0-0.832,0.016-1.295,0.056-1.887h-0.016c-0.144,0.479-0.296,0.912-0.464,1.335c-0.128,0.32-0.48,1.2-0.768,1.823
		h-0.632v-3.87H128.1z"/>
	<path d="M131.069,93.1h0.216c0.375,0,0.792-0.24,0.792-0.664c0-0.384-0.264-0.576-0.624-0.576c-0.24,0-0.488,0.088-0.68,0.2
		l-0.128-0.392c0.256-0.176,0.615-0.271,0.959-0.271c0.631,0,1.087,0.359,1.087,0.967c0,0.472-0.344,0.792-0.792,0.912v0.008
		c0.536,0.08,0.936,0.424,0.936,0.976c0,0.775-0.711,1.135-1.423,1.135c-0.32,0-0.656-0.08-0.912-0.216l0.144-0.44
		c0.184,0.096,0.456,0.192,0.719,0.192c0.52,0,0.848-0.312,0.848-0.671c0-0.528-0.472-0.712-0.912-0.712h-0.231V93.1z"/>
	<path d="M133.524,91.477c0.248-0.048,0.56-0.08,0.872-0.08c0.64,0,1.439,0.184,1.439,0.959c0,0.464-0.328,0.808-0.768,0.92v0.016
		c0.56,0.096,0.927,0.44,0.927,0.968c0,0.903-0.936,1.127-1.679,1.127c-0.359,0-0.64-0.016-0.792-0.04V91.477z M134.116,94.923
		c0.072,0.008,0.192,0.024,0.32,0.024c0.472,0,0.943-0.168,0.943-0.688c0-0.52-0.512-0.72-1-0.72h-0.264V94.923z M134.124,93.1h0.28
		c0.368,0,0.84-0.248,0.84-0.655c0-0.448-0.368-0.6-0.8-0.6c-0.112,0-0.216,0.016-0.32,0.032V93.1z"/>
	<path d="M138.883,91.46v3.87h-0.616v-3.358h-0.848v1.224c0,1.095-0.08,1.823-0.656,2.103c-0.12,0.056-0.264,0.088-0.408,0.088
		l-0.112-0.488c0.152-0.024,0.248-0.096,0.328-0.176c0.224-0.232,0.256-0.776,0.256-1.487V91.46H138.883z"/>
	<path d="M140.172,93.452c0.008,1.183,0.472,1.439,0.919,1.439c0.264,0,0.488-0.064,0.64-0.152l0.096,0.456
		c-0.216,0.12-0.544,0.184-0.848,0.184c-0.927,0-1.407-0.759-1.407-1.943c0-1.255,0.528-2.039,1.303-2.039
		c0.792,0,1.103,0.831,1.103,1.711c0,0.144,0,0.248-0.008,0.344H140.172z M141.387,92.996c0.017-0.775-0.279-1.119-0.575-1.119
		c-0.4,0-0.608,0.592-0.632,1.119H141.387z"/>
	<path d="M143.203,91.46v1.479c0,0.392,0.104,0.688,0.537,0.688c0.223,0,0.415-0.08,0.566-0.176V91.46h0.616v3.886h-0.607v-1.447
		h-0.024c-0.184,0.128-0.472,0.2-0.735,0.2c-0.592,0-0.968-0.352-0.968-1.063V91.46H143.203z"/>
	<path d="M146.221,93.452c0.008,1.183,0.471,1.439,0.919,1.439c0.264,0,0.487-0.064,0.64-0.152l0.096,0.456
		c-0.216,0.12-0.543,0.184-0.848,0.184c-0.928,0-1.407-0.759-1.407-1.943c0-1.255,0.528-2.039,1.304-2.039
		c0.791,0,1.104,0.831,1.104,1.711c0,0.144,0,0.248-0.008,0.344H146.221z M147.436,92.996c0.016-0.775-0.28-1.119-0.576-1.119
		c-0.399,0-0.607,0.592-0.631,1.119H147.436z"/>
	<path d="M149.308,91.46V93.1h1.144V91.46h0.615v3.87h-0.615v-1.703h-1.144v1.703h-0.616v-3.87H149.308z"/>
	<path d="M152.492,91.46v1.328c0,0.671-0.008,1.247-0.049,1.855h0.017c0.176-0.512,0.399-1.063,0.567-1.503l0.648-1.679h0.646v3.87
		h-0.566v-1.271c0-0.832,0.016-1.295,0.055-1.887h-0.016c-0.144,0.479-0.295,0.912-0.463,1.335c-0.129,0.32-0.48,1.2-0.768,1.823
		h-0.633v-3.87H152.492z"/>
	<path d="M155.611,93.452c0.009,1.183,0.473,1.439,0.92,1.439c0.264,0,0.488-0.064,0.641-0.152l0.096,0.456
		c-0.217,0.12-0.544,0.184-0.848,0.184c-0.928,0-1.408-0.759-1.408-1.943c0-1.255,0.528-2.039,1.305-2.039
		c0.791,0,1.103,0.831,1.103,1.711c0,0.144,0,0.248-0.008,0.344H155.611z M156.828,92.996c0.016-0.775-0.281-1.119-0.576-1.119
		c-0.4,0-0.607,0.592-0.632,1.119H156.828z"/>
	<path d="M159.9,91.46v1.328c0,0.671-0.009,1.247-0.049,1.855h0.016c0.176-0.512,0.4-1.063,0.568-1.503l0.647-1.679h0.647v3.87
		h-0.567v-1.271c0-0.832,0.017-1.295,0.056-1.887h-0.016c-0.145,0.479-0.296,0.912-0.464,1.335c-0.128,0.32-0.479,1.2-0.768,1.823
		h-0.632v-3.87H159.9z"/>
	<path d="M162.867,93.1h0.217c0.375,0,0.791-0.24,0.791-0.664c0-0.384-0.264-0.576-0.623-0.576c-0.24,0-0.488,0.088-0.68,0.2
		l-0.129-0.392c0.256-0.176,0.615-0.271,0.96-0.271c0.632,0,1.087,0.359,1.087,0.967c0,0.472-0.344,0.792-0.791,0.912v0.008
		c0.535,0.08,0.936,0.424,0.936,0.976c0,0.775-0.712,1.135-1.424,1.135c-0.319,0-0.655-0.08-0.911-0.216l0.144-0.44
		c0.184,0.096,0.456,0.192,0.72,0.192c0.521,0,0.848-0.312,0.848-0.671c0-0.528-0.472-0.712-0.911-0.712h-0.232V93.1z"/>
	<path d="M132.084,101.061l0.36,0.831c0.096,0.224,0.168,0.448,0.256,0.68h0.016c0.088-0.248,0.176-0.472,0.256-0.68l0.352-0.831
		h0.631l-0.919,1.911l0.912,1.959h-0.672l-0.368-0.872c-0.088-0.208-0.16-0.408-0.256-0.664h-0.016
		c-0.08,0.232-0.168,0.44-0.256,0.664l-0.36,0.872h-0.624l0.919-1.943l-0.896-1.927H132.084z"/>
	<path d="M134.453,102.268c0-0.592-0.024-0.936-0.032-1.207h0.552l0.032,0.496h0.016c0.208-0.416,0.512-0.56,0.816-0.56
		c0.671,0,1.119,0.72,1.119,1.991c0,1.431-0.591,2.007-1.199,2.007c-0.36,0-0.568-0.232-0.671-0.448h-0.016v1.919h-0.616V102.268z
		 M135.068,103.507c0,0.12,0,0.232,0.024,0.32c0.12,0.552,0.4,0.656,0.567,0.656c0.512,0,0.672-0.704,0.672-1.487
		c0-0.799-0.192-1.471-0.68-1.471c-0.28,0-0.528,0.352-0.567,0.704c-0.016,0.096-0.016,0.192-0.016,0.296V103.507z"/>
	<path d="M139.699,104.051c0,0.296,0,0.631,0.04,0.879h-0.56l-0.04-0.408h-0.024c-0.168,0.296-0.44,0.472-0.768,0.472
		c-0.52,0-0.919-0.44-0.919-1.104c0-0.967,0.775-1.399,1.647-1.407v-0.12c0-0.52-0.128-0.88-0.616-0.88c-0.24,0-0.456,0.08-0.64,0.2
		l-0.136-0.432c0.16-0.12,0.52-0.256,0.903-0.256c0.775,0,1.111,0.512,1.111,1.383V104.051z M139.091,102.932
		c-0.32,0-1.063,0.056-1.063,0.896c0,0.504,0.256,0.688,0.472,0.688c0.272,0,0.504-0.2,0.576-0.584
		c0.016-0.072,0.016-0.152,0.016-0.216V102.932z"/>
	<path d="M141.18,101.061v1.639h1.144v-1.639h0.616v3.87h-0.616v-1.703h-1.144v1.703h-0.616v-3.87H141.18z"/>
	<path d="M144.363,101.061v1.327c0,0.671-0.008,1.247-0.047,1.855h0.016c0.176-0.512,0.4-1.063,0.568-1.503l0.646-1.679h0.648v3.87
		h-0.568v-1.271c0-0.832,0.016-1.295,0.057-1.887h-0.016c-0.145,0.479-0.297,0.912-0.465,1.335
		c-0.127,0.319-0.479,1.199-0.768,1.823h-0.631v-3.87H144.363z"/>
	<path d="M149.26,101.061v3.87h-0.616v-3.358h-0.848v1.223c0,1.095-0.08,1.823-0.655,2.103c-0.12,0.056-0.264,0.088-0.408,0.088
		l-0.111-0.488c0.151-0.024,0.248-0.096,0.327-0.176c0.224-0.231,0.256-0.775,0.256-1.487v-1.775H149.26z"/>
	<path d="M150.676,101.061v1.327c0,0.671-0.008,1.247-0.049,1.855h0.017c0.176-0.512,0.399-1.063,0.567-1.503l0.648-1.679h0.646
		v3.87h-0.566v-1.271c0-0.832,0.016-1.295,0.055-1.887h-0.016c-0.144,0.479-0.295,0.912-0.463,1.335
		c-0.129,0.319-0.48,1.199-0.768,1.823h-0.633v-3.87H150.676z"/>
	<path d="M153.972,101.061v3.358h1.015v-3.358h0.608v3.358h1.023v-3.358h0.607v3.39l0.319,0.008l-0.031,1.503h-0.472l-0.04-1.031
		h-3.639v-3.87H153.972z"/>
	<path d="M160.259,104.051c0,0.296,0,0.631,0.04,0.879h-0.56l-0.04-0.408h-0.023c-0.168,0.296-0.44,0.472-0.768,0.472
		c-0.52,0-0.92-0.44-0.92-1.104c0-0.967,0.775-1.399,1.646-1.407v-0.12c0-0.52-0.127-0.88-0.615-0.88c-0.24,0-0.455,0.08-0.64,0.2
		l-0.136-0.432c0.16-0.12,0.52-0.256,0.903-0.256c0.776,0,1.111,0.512,1.111,1.383V104.051z M159.651,102.932
		c-0.319,0-1.063,0.056-1.063,0.896c0,0.504,0.256,0.688,0.472,0.688c0.272,0,0.504-0.2,0.575-0.584
		c0.017-0.072,0.017-0.152,0.017-0.216V102.932z"/>
</g>
<g>
	<path d="M92.153,142.81c0.248-0.048,0.56-0.08,0.872-0.08c0.64,0,1.439,0.184,1.439,0.959c0,0.464-0.328,0.808-0.768,0.92v0.016
		c0.56,0.096,0.927,0.44,0.927,0.968c0,0.903-0.936,1.127-1.679,1.127c-0.359,0-0.64-0.016-0.792-0.04V142.81z M92.745,146.256
		c0.072,0.008,0.192,0.024,0.32,0.024c0.472,0,0.943-0.168,0.943-0.688c0-0.52-0.512-0.72-1-0.72h-0.264V146.256z M92.753,144.433
		h0.28c0.368,0,0.84-0.248,0.84-0.655c0-0.448-0.368-0.6-0.8-0.6c-0.112,0-0.216,0.016-0.32,0.032V144.433z"/>
	<path d="M98.896,141.275v0.536h-1.671v1.615c0.136-0.024,0.272-0.032,0.408-0.032c0.472,0,0.872,0.152,1.151,0.423
		c0.288,0.272,0.456,0.672,0.456,1.176c0,0.487-0.136,0.879-0.384,1.159c-0.312,0.36-0.8,0.544-1.439,0.544
		c-0.399,0-0.64-0.024-0.808-0.056v-5.365H98.896z M97.225,146.168c0.104,0.024,0.2,0.024,0.312,0.024
		c0.368,0,0.647-0.136,0.824-0.368c0.16-0.208,0.248-0.48,0.248-0.8s-0.104-0.592-0.288-0.792c-0.184-0.2-0.456-0.328-0.792-0.328
		c-0.096,0-0.2,0.008-0.304,0.024V146.168z"/>
	<path d="M101.976,145.785c0,0.296,0,0.631,0.04,0.879h-0.56l-0.04-0.408h-0.024c-0.168,0.296-0.44,0.472-0.768,0.472
		c-0.52,0-0.919-0.44-0.919-1.104c0-0.967,0.775-1.399,1.647-1.407v-0.12c0-0.52-0.128-0.88-0.616-0.88c-0.24,0-0.456,0.08-0.64,0.2
		l-0.136-0.432c0.16-0.12,0.52-0.256,0.903-0.256c0.775,0,1.111,0.512,1.111,1.383V145.785z M101.369,144.665
		c-0.32,0-1.063,0.056-1.063,0.896c0,0.504,0.256,0.688,0.472,0.688c0.272,0,0.504-0.2,0.576-0.583
		c0.016-0.072,0.016-0.152,0.016-0.216V144.665z"/>
	<path d="M103.082,144.433h0.216c0.375,0,0.792-0.24,0.792-0.664c0-0.384-0.264-0.576-0.624-0.576c-0.24,0-0.488,0.088-0.68,0.2
		l-0.128-0.392c0.256-0.176,0.615-0.271,0.959-0.271c0.631,0,1.087,0.359,1.087,0.967c0,0.472-0.344,0.792-0.792,0.912v0.008
		c0.536,0.08,0.936,0.424,0.936,0.976c0,0.775-0.711,1.135-1.423,1.135c-0.32,0-0.656-0.08-0.912-0.216l0.144-0.44
		c0.184,0.096,0.456,0.192,0.719,0.192c0.52,0,0.848-0.312,0.848-0.671c0-0.528-0.472-0.712-0.912-0.712h-0.231V144.433z"/>
	<path d="M105.945,144.785c0.008,1.183,0.472,1.439,0.92,1.439c0.264,0,0.487-0.064,0.64-0.152l0.096,0.456
		c-0.216,0.12-0.543,0.184-0.848,0.184c-0.927,0-1.407-0.759-1.407-1.943c0-1.255,0.528-2.039,1.304-2.039
		c0.792,0,1.103,0.831,1.103,1.711c0,0.144,0,0.248-0.008,0.344H105.945z M107.161,144.329c0.016-0.775-0.28-1.119-0.576-1.119
		c-0.399,0-0.607,0.592-0.631,1.119H107.161z"/>
	<path d="M112.056,142.794v3.391l0.328,0.008l-0.04,1.503h-0.464l-0.04-1.031h-1.999l-0.04,1.031h-0.472l-0.032-1.503l0.256-0.008
		c0.16-0.256,0.28-0.536,0.36-0.824c0.12-0.44,0.176-0.912,0.176-1.431v-1.136H112.056z M110.633,143.857
		c0,0.536-0.032,1.063-0.16,1.535c-0.072,0.28-0.176,0.544-0.312,0.784h1.288v-2.886h-0.816V143.857z"/>
	<path d="M115.088,145.785c0,0.296,0,0.631,0.04,0.879h-0.56l-0.04-0.408h-0.024c-0.168,0.296-0.44,0.472-0.768,0.472
		c-0.52,0-0.919-0.44-0.919-1.104c0-0.967,0.775-1.399,1.647-1.407v-0.12c0-0.52-0.128-0.88-0.616-0.88c-0.24,0-0.456,0.08-0.64,0.2
		l-0.136-0.432c0.16-0.12,0.52-0.256,0.903-0.256c0.776,0,1.111,0.512,1.111,1.383V145.785z M114.48,144.665
		c-0.32,0-1.063,0.056-1.063,0.896c0,0.504,0.256,0.688,0.472,0.688c0.272,0,0.504-0.2,0.576-0.583
		c0.016-0.072,0.016-0.152,0.016-0.216V144.665z"/>
	<path d="M116.569,142.794v1.639h1.144v-1.639h0.616v3.87h-0.616v-1.703h-1.144v1.703h-0.616v-3.87H116.569z"/>
	<path d="M119.809,142.794v1.639h1.144v-1.639h0.616v3.87h-0.616v-1.703h-1.144v1.703h-0.616v-3.87H119.809z"/>
	<path d="M123.041,142.794v1.368c0.064-0.008,0.208-0.024,0.368-0.024c0.744,0,1.391,0.416,1.391,1.231
		c0,0.432-0.168,0.751-0.432,0.959c-0.32,0.264-0.775,0.376-1.144,0.376c-0.264,0-0.543-0.024-0.792-0.064v-3.846H123.041z
		 M123.041,146.2c0.096,0.016,0.176,0.024,0.272,0.024c0.456,0,0.855-0.304,0.855-0.815c0-0.528-0.408-0.792-0.872-0.792
		c-0.104,0-0.176,0-0.256,0.016V146.2z M125.792,142.794v3.87H125.2v-3.87H125.792z"/>
	<path d="M127,142.794l0.36,0.832c0.096,0.224,0.168,0.447,0.256,0.679h0.016c0.088-0.248,0.176-0.472,0.256-0.679l0.352-0.832
		h0.632l-0.919,1.911l0.912,1.959h-0.672l-0.368-0.872c-0.088-0.208-0.16-0.408-0.256-0.664h-0.016
		c-0.08,0.232-0.168,0.44-0.256,0.664l-0.36,0.872h-0.624l0.919-1.943l-0.896-1.927H127z"/>
</g>
<g>
	<path d="M98.323,127.81c0.248-0.048,0.56-0.08,0.872-0.08c0.64,0,1.439,0.184,1.439,0.959c0,0.464-0.328,0.808-0.768,0.92v0.016
		c0.56,0.096,0.927,0.44,0.927,0.968c0,0.903-0.936,1.127-1.679,1.127c-0.359,0-0.64-0.016-0.792-0.04V127.81z M98.915,131.256
		c0.072,0.008,0.192,0.024,0.32,0.024c0.472,0,0.943-0.168,0.943-0.688c0-0.52-0.512-0.72-1-0.72h-0.264V131.256z M98.922,129.433
		h0.28c0.368,0,0.84-0.248,0.84-0.655c0-0.448-0.368-0.6-0.8-0.6c-0.112,0-0.216,0.016-0.32,0.032V129.433z"/>
	<path d="M105.065,127.794v3.87h-0.608v-3.35h-1.111v3.35h-0.616v-3.87H105.065z"/>
	<path d="M107.978,130.785c0,0.296,0,0.631,0.04,0.879h-0.56l-0.04-0.408h-0.024c-0.168,0.296-0.44,0.472-0.768,0.472
		c-0.52,0-0.919-0.44-0.919-1.104c0-0.967,0.775-1.399,1.647-1.407v-0.12c0-0.52-0.128-0.88-0.616-0.88c-0.24,0-0.456,0.08-0.64,0.2
		l-0.136-0.432c0.16-0.12,0.52-0.256,0.903-0.256c0.775,0,1.111,0.512,1.111,1.383V130.785z M107.37,129.665
		c-0.32,0-1.063,0.056-1.063,0.896c0,0.504,0.256,0.688,0.472,0.688c0.272,0,0.504-0.2,0.576-0.583
		c0.016-0.072,0.016-0.152,0.016-0.216V129.665z"/>
	<path d="M108.987,127.794h0.728l0.504,1.703c0.136,0.448,0.232,0.76,0.352,1.231h0.016c0.12-0.496,0.192-0.775,0.328-1.231
		l0.488-1.703h0.744l0.264,3.87h-0.584l-0.072-1.663c-0.024-0.512-0.04-0.888-0.056-1.623h-0.024
		c-0.088,0.4-0.224,0.919-0.384,1.487l-0.52,1.775h-0.448l-0.504-1.719c-0.16-0.536-0.296-1.079-0.4-1.551h-0.016
		c-0.008,0.624-0.024,1.119-0.056,1.663l-0.064,1.631h-0.568L108.987,127.794z"/>
	<path d="M115.313,131.664h-0.592v-1.655h-0.184c-0.28,0-0.456,0.072-0.56,0.184c-0.264,0.232-0.304,0.711-0.439,1.183
		c-0.024,0.112-0.064,0.208-0.104,0.288h-0.648c0.072-0.12,0.128-0.232,0.176-0.4c0.104-0.375,0.176-0.903,0.448-1.199
		c0.104-0.112,0.271-0.224,0.472-0.256v-0.016c-0.448-0.096-0.855-0.392-0.855-0.951c0-0.368,0.144-0.616,0.399-0.808
		c0.224-0.184,0.648-0.288,1.063-0.288c0.312,0,0.608,0.024,0.824,0.072V131.664z M114.722,128.202
		c-0.088-0.024-0.176-0.032-0.264-0.032c-0.432,0-0.815,0.2-0.815,0.688c0,0.472,0.423,0.736,0.839,0.736c0.08,0,0.2,0,0.24,0
		V128.202z"/>
	<path d="M118.169,127.794v0.52h-0.879v3.35h-0.616v-3.35h-0.879v-0.52H118.169z"/>
	<path d="M119.187,127.794v1.328c0,0.671-0.008,1.247-0.048,1.855h0.016c0.176-0.512,0.4-1.063,0.568-1.503l0.647-1.679h0.647v3.87
		h-0.567v-1.271c0-0.832,0.016-1.295,0.056-1.887h-0.016c-0.144,0.479-0.296,0.912-0.464,1.335c-0.128,0.32-0.48,1.2-0.768,1.823
		h-0.632v-3.87H119.187z"/>
</g>
<g>
	<path d="M88.005,70.794c0.296-0.04,0.968-0.096,1.575-0.096c0.664,0,1.935,0.072,1.935,1c0,0.503-0.408,0.768-0.799,0.848v0.016
		c0.583,0.096,0.967,0.424,0.967,0.952c0,1.111-1.511,1.208-2.311,1.208c-0.544,0-1.12-0.04-1.368-0.072V70.794z M89.196,73.969
		c0.128,0.016,0.224,0.016,0.408,0.016c0.416,0,0.831-0.12,0.831-0.504c0-0.335-0.319-0.496-0.887-0.496h-0.352V73.969z
		 M89.205,72.282h0.312c0.488,0,0.8-0.128,0.8-0.424c0-0.256-0.208-0.416-0.696-0.416c-0.168,0-0.28,0.016-0.416,0.032V72.282z"/>
	<path d="M92.429,72.066c0-0.512-0.016-0.951-0.032-1.311h1.056l0.056,0.543h0.016c0.288-0.416,0.736-0.632,1.303-0.632
		c0.856,0,1.624,0.744,1.624,1.991c0,1.423-0.904,2.095-1.775,2.095c-0.472,0-0.839-0.192-1.015-0.448h-0.016v1.943h-1.215V72.066z
		 M93.645,72.985c0,0.096,0.008,0.184,0.024,0.256c0.08,0.328,0.36,0.576,0.711,0.576c0.528,0,0.84-0.439,0.84-1.104
		c0-0.624-0.28-1.095-0.824-1.095c-0.344,0-0.647,0.256-0.728,0.616c-0.016,0.064-0.024,0.144-0.024,0.216V72.985z"/>
	<path d="M98.148,73.097c0.04,0.504,0.536,0.744,1.104,0.744c0.416,0,0.751-0.056,1.079-0.16l0.16,0.823
		c-0.4,0.16-0.888,0.248-1.416,0.248c-1.327,0-2.087-0.775-2.087-1.999c0-0.991,0.616-2.087,1.975-2.087
		c1.263,0,1.743,0.984,1.743,1.951c0,0.208-0.024,0.392-0.04,0.479H98.148z M99.58,72.266c0-0.296-0.128-0.792-0.688-0.792
		c-0.512,0-0.72,0.464-0.752,0.792H99.58z"/>
	<path d="M101.573,70.755h1.551l0.424,1.479c0.064,0.232,0.176,0.632,0.256,0.983h0.024c0.072-0.272,0.2-0.695,0.312-1.071
		l0.432-1.391h1.535l0.24,3.91h-1.127l-0.064-1.567c-0.008-0.335-0.032-0.903-0.04-1.367h-0.024
		c-0.152,0.52-0.176,0.648-0.375,1.279l-0.52,1.591h-0.887l-0.464-1.551c-0.104-0.375-0.232-0.927-0.32-1.295h-0.032
		c-0.016,0.487-0.024,1.039-0.04,1.367l-0.063,1.543h-1.088L101.573,70.755z"/>
	<path d="M108.084,73.097c0.04,0.504,0.536,0.744,1.103,0.744c0.416,0,0.752-0.056,1.08-0.16l0.16,0.823
		c-0.4,0.16-0.888,0.248-1.416,0.248c-1.327,0-2.087-0.775-2.087-1.999c0-0.991,0.616-2.087,1.975-2.087
		c1.263,0,1.743,0.984,1.743,1.951c0,0.208-0.024,0.392-0.04,0.479H108.084z M109.516,72.266c0-0.296-0.128-0.792-0.688-0.792
		c-0.512,0-0.72,0.464-0.752,0.792H109.516z"/>
	<path d="M112.58,70.755v1.415h1.231v-1.415h1.224v3.91h-1.224v-1.551h-1.231v1.551h-1.215v-3.91H112.58z"/>
	<path d="M117.212,70.755v1.415h1.231v-1.415h1.224v3.91h-1.224v-1.551h-1.231v1.551h-1.215v-3.91H117.212z"/>
	<path d="M121.844,70.755v1.159c0.16-0.024,0.368-0.048,0.632-0.048c0.864,0,1.759,0.368,1.759,1.367
		c0,0.496-0.216,0.824-0.536,1.04c-0.504,0.352-1.184,0.439-1.767,0.439c-0.44,0-0.896-0.024-1.303-0.072v-3.886H121.844z
		 M121.836,73.873c0.112,0.008,0.224,0.016,0.368,0.016c0.408,0,0.824-0.16,0.824-0.616c0-0.44-0.408-0.584-0.768-0.584
		c-0.192,0-0.312,0.024-0.424,0.04V73.873z M125.882,70.755v3.91h-1.215v-3.91H125.882z"/>
	<path d="M127.996,70.755v1.199c0,0.624-0.032,1.063-0.063,1.591l0.032,0.008c0.184-0.448,0.288-0.751,0.448-1.12l0.76-1.679h1.487
		v3.91h-1.151v-1.191c0-0.607,0.032-0.863,0.072-1.695h-0.032c-0.152,0.432-0.248,0.688-0.408,1.055
		c-0.248,0.552-0.543,1.224-0.815,1.831h-1.479v-3.91H127.996z M128.372,69.14c0.008,0.352,0.144,0.568,0.368,0.568
		c0.24,0,0.368-0.224,0.392-0.568h0.768c-0.048,0.744-0.488,1.127-1.175,1.127c-0.744,0-1.087-0.44-1.127-1.127H128.372z"/>
</g>
<g>
	<path d="M90.579,117.421v3.91h-1.223v-2.982h-1.2v2.982h-1.215v-3.91H90.579z"/>
	<path d="M95.419,119.332c0,1.431-1.016,2.087-2.063,2.087c-1.143,0-2.023-0.751-2.023-2.015c0-1.264,0.832-2.071,2.087-2.071
		C94.619,117.333,95.419,118.156,95.419,119.332z M92.588,119.372c0,0.672,0.28,1.175,0.8,1.175c0.472,0,0.775-0.472,0.775-1.175
		c0-0.583-0.224-1.175-0.775-1.175C92.804,118.196,92.588,118.796,92.588,119.372z"/>
	<path d="M99.107,121.235c-0.216,0.096-0.624,0.184-1.087,0.184c-1.264,0-2.071-0.775-2.071-2.007c0-1.144,0.784-2.079,2.239-2.079
		c0.32,0,0.672,0.056,0.928,0.152l-0.192,0.903c-0.144-0.064-0.36-0.12-0.68-0.12c-0.64,0-1.056,0.456-1.047,1.096
		c0,0.72,0.479,1.095,1.071,1.095c0.288,0,0.512-0.048,0.696-0.128L99.107,121.235z"/>
	<path d="M102.995,117.421v0.927h-1.135v2.982h-1.223v-2.982h-1.136v-0.927H102.995z"/>
	<path d="M107.331,119.332c0,1.431-1.016,2.087-2.063,2.087c-1.143,0-2.023-0.751-2.023-2.015c0-1.264,0.832-2.071,2.087-2.071
		C106.531,117.333,107.331,118.156,107.331,119.332z M104.5,119.372c0,0.672,0.28,1.175,0.8,1.175c0.472,0,0.775-0.472,0.775-1.175
		c0-0.583-0.224-1.175-0.775-1.175C104.716,118.196,104.5,118.796,104.5,119.372z"/>
	<path d="M111.467,121.331h-1.199v-1.471h-0.248c-0.256,0-0.44,0.12-0.56,0.28c-0.208,0.2-0.304,0.568-0.424,0.872
		c-0.048,0.112-0.088,0.192-0.152,0.32h-1.295c0.096-0.12,0.168-0.272,0.24-0.432c0.128-0.312,0.304-0.815,0.552-1.08
		c0.128-0.136,0.288-0.24,0.496-0.288v-0.024c-0.439-0.048-1.007-0.344-1.007-0.967c0-0.488,0.272-0.768,0.664-0.952
		c0.36-0.176,0.904-0.231,1.439-0.231c0.607,0,1.151,0.04,1.495,0.088V121.331z M110.268,118.14
		c-0.104-0.016-0.224-0.032-0.416-0.032c-0.392,0-0.728,0.152-0.728,0.503c0,0.344,0.384,0.512,0.744,0.512
		c0.192,0,0.296-0.008,0.4-0.008V118.14z"/>
	<path d="M113.645,117.421v1.415h1.231v-1.415h1.224v3.91h-1.224v-1.551h-1.231v1.551h-1.216v-3.91H113.645z"/>
	<path d="M118.276,117.421v1.415h1.231v-1.415h1.224v3.91h-1.224v-1.551h-1.231v1.551h-1.216v-3.91H118.276z"/>
	<path d="M122.908,117.421v1.159c0.16-0.024,0.368-0.048,0.631-0.048c0.864,0,1.759,0.368,1.759,1.367
		c0,0.496-0.216,0.824-0.536,1.04c-0.503,0.352-1.183,0.439-1.767,0.439c-0.44,0-0.896-0.024-1.304-0.072v-3.886H122.908z
		 M122.9,120.539c0.112,0.008,0.224,0.016,0.368,0.016c0.408,0,0.824-0.16,0.824-0.616c0-0.44-0.408-0.584-0.768-0.584
		c-0.192,0-0.312,0.024-0.424,0.04V120.539z M126.946,117.421v3.91h-1.215v-3.91H126.946z"/>
	<path d="M129.061,117.421v1.199c0,0.624-0.032,1.063-0.064,1.591l0.032,0.008c0.184-0.448,0.288-0.751,0.448-1.12l0.76-1.679h1.487
		v3.91h-1.151v-1.191c0-0.607,0.032-0.863,0.072-1.695h-0.032c-0.152,0.432-0.248,0.688-0.408,1.055
		c-0.248,0.552-0.543,1.224-0.815,1.831h-1.479v-3.91H129.061z M129.436,115.806c0.008,0.352,0.144,0.568,0.368,0.568
		c0.24,0,0.368-0.224,0.392-0.568h0.768c-0.048,0.744-0.488,1.127-1.175,1.127c-0.744,0-1.087-0.44-1.127-1.127H129.436z"/>
</g>
</svg>
