<?xml version="1.0" encoding="utf-8"?>
<!-- Generator: Adobe Illustrator 13.0.1, SVG Export Plug-In . SVG Version: 6.00 Build 14948)  -->
<!DOCTYPE svg PUBLIC "-//W3C//DTD SVG 1.1//EN" "http://www.w3.org/Graphics/SVG/1.1/DTD/svg11.dtd">
<svg version="1.1" id="Слой_1" xmlns="http://www.w3.org/2000/svg" xmlns:xlink="http://www.w3.org/1999/xlink" x="0px" y="0px"
	 width="97.443px" height="144.104px" viewBox="0 0 97.443 144.104" enable-background="new 0 0 97.443 144.104"
	 xml:space="preserve">
<rect x="0.934" y="55.249" fill="#FFFFFF" width="96.509" height="25.387"/>
<rect x="1.063" y="55.377" fill="#F7F7F8" width="96.25" height="25.129"/>
<rect x="1.192" y="55.507" fill="#F2F2F3" width="95.992" height="24.87"/>
<rect x="1.322" y="55.636" fill="#EDEDEE" width="95.733" height="24.611"/>
<rect x="1.451" y="55.766" fill="#E8E8E9" width="95.475" height="24.354"/>
<rect x="1.58" y="55.895" fill="#E3E4E5" width="95.216" height="24.095"/>
<rect x="1.709" y="56.024" fill="#DEE0E1" width="94.957" height="23.837"/>
<rect x="1.838" y="56.153" fill="#D9DBDC" width="94.701" height="23.578"/>
<rect x="1.968" y="56.281" fill="#D4D6D7" width="94.442" height="23.32"/>
<rect x="2.097" y="56.412" fill="#CFD1D3" width="94.183" height="23.061"/>
<rect x="2.226" y="56.541" fill="#CACCCE" width="93.925" height="22.802"/>
<rect x="2.355" y="56.67" fill="#C5C7C9" width="93.666" height="22.544"/>
<rect x="2.485" y="56.799" fill="#C0C2C4" width="93.407" height="22.285"/>
<rect x="2.614" y="56.929" fill="#BBBDC0" width="93.148" height="22.028"/>
<rect x="2.743" y="57.058" fill="#B7B9BC" width="92.89" height="21.77"/>
<rect x="2.873" y="57.188" fill="#B2B4B7" width="92.631" height="21.51"/>
<rect x="3.002" y="57.316" fill="#ADB0B2" width="92.375" height="21.252"/>
<rect x="3.131" y="57.446" fill="#A9ABAD" width="92.116" height="20.993"/>
<rect x="3.26" y="57.575" fill="#A4A6A9" width="91.856" height="20.734"/>
<rect x="3.389" y="57.704" fill="#9FA1A4" width="91.599" height="20.476"/>
<rect x="3.519" y="57.834" fill="#9A9D9F" width="91.339" height="20.217"/>
<rect x="3.648" y="57.962" fill="#96989B" width="91.081" height="19.959"/>
<rect x="3.777" y="58.092" fill="#929497" width="90.822" height="19.702"/>
<rect x="3.906" y="58.221" fill="#8E9092" width="90.564" height="19.443"/>
<rect x="4.036" y="58.351" fill="#898B8E" width="90.305" height="19.185"/>
<rect x="4.165" y="58.479" fill="#858789" width="90.047" height="18.926"/>
<rect x="4.294" y="58.609" fill="#808285" width="89.79" height="18.667"/>
<rect x="0" y="54.315" fill="#D1D3D4" width="93.15" height="22.027"/>
<rect x="0.934" y="86.983" fill="#FFFFFF" width="96.509" height="25.388"/>
<rect x="1.063" y="87.112" fill="#F7F7F8" width="96.25" height="25.128"/>
<rect x="1.192" y="87.242" fill="#F2F2F3" width="95.992" height="24.868"/>
<rect x="1.322" y="87.37" fill="#EDEDEE" width="95.733" height="24.611"/>
<rect x="1.451" y="87.499" fill="#E8E8E9" width="95.475" height="24.354"/>
<rect x="1.58" y="87.628" fill="#E3E4E5" width="95.216" height="24.096"/>
<rect x="1.709" y="87.757" fill="#DEE0E1" width="94.957" height="23.838"/>
<rect x="1.838" y="87.888" fill="#D9DBDC" width="94.701" height="23.578"/>
<rect x="1.968" y="88.017" fill="#D4D6D7" width="94.442" height="23.319"/>
<rect x="2.097" y="88.146" fill="#CFD1D3" width="94.183" height="23.061"/>
<rect x="2.226" y="88.275" fill="#CACCCE" width="93.925" height="22.803"/>
<rect x="2.355" y="88.405" fill="#C5C7C9" width="93.666" height="22.543"/>
<rect x="2.485" y="88.533" fill="#C0C2C4" width="93.407" height="22.284"/>
<rect x="2.614" y="88.662" fill="#BBBDC0" width="93.148" height="22.028"/>
<rect x="2.743" y="88.791" fill="#B7B9BC" width="92.89" height="21.77"/>
<rect x="2.873" y="88.921" fill="#B2B4B7" width="92.631" height="21.511"/>
<rect x="3.002" y="89.051" fill="#ADB0B2" width="92.375" height="21.252"/>
<rect x="3.131" y="89.18" fill="#A9ABAD" width="92.116" height="20.993"/>
<rect x="3.26" y="89.309" fill="#A4A6A9" width="91.856" height="20.734"/>
<rect x="3.389" y="89.438" fill="#9FA1A4" width="91.599" height="20.477"/>
<rect x="3.519" y="89.568" fill="#9A9D9F" width="91.339" height="20.218"/>
<rect x="3.648" y="89.698" fill="#96989B" width="91.081" height="19.957"/>
<rect x="3.777" y="89.825" fill="#929497" width="90.822" height="19.702"/>
<rect x="3.906" y="89.954" fill="#8E9092" width="90.564" height="19.443"/>
<rect x="4.036" y="90.084" fill="#898B8E" width="90.305" height="19.185"/>
<rect x="4.165" y="90.214" fill="#858789" width="90.047" height="18.926"/>
<rect x="4.294" y="90.343" fill="#808285" width="89.79" height="18.667"/>
<rect x="0" y="86.05" fill="#D1D3D4" width="93.15" height="22.027"/>
<rect x="0.934" y="118.717" fill="#FFFFFF" width="96.509" height="25.387"/>
<rect x="1.063" y="118.846" fill="#F7F7F8" width="96.25" height="25.128"/>
<rect x="1.192" y="118.977" fill="#F2F2F3" width="95.992" height="24.868"/>
<rect x="1.322" y="119.103" fill="#EDEDEE" width="95.733" height="24.613"/>
<rect x="1.451" y="119.233" fill="#E8E8E9" width="95.475" height="24.354"/>
<rect x="1.58" y="119.362" fill="#E3E4E5" width="95.216" height="24.097"/>
<rect x="1.709" y="119.492" fill="#DEE0E1" width="94.957" height="23.838"/>
<rect x="1.838" y="119.622" fill="#D9DBDC" width="94.701" height="23.578"/>
<rect x="1.968" y="119.751" fill="#D4D6D7" width="94.442" height="23.318"/>
<rect x="2.097" y="119.88" fill="#CFD1D3" width="94.183" height="23.06"/>
<rect x="2.226" y="120.01" fill="#CACCCE" width="93.925" height="22.802"/>
<rect x="2.355" y="120.14" fill="#C5C7C9" width="93.666" height="22.542"/>
<rect x="2.485" y="120.267" fill="#C0C2C4" width="93.407" height="22.285"/>
<rect x="2.614" y="120.396" fill="#BBBDC0" width="93.148" height="22.029"/>
<rect x="2.743" y="120.525" fill="#B7B9BC" width="92.89" height="21.771"/>
<rect x="2.873" y="120.656" fill="#B2B4B7" width="92.631" height="21.511"/>
<rect x="3.002" y="120.784" fill="#ADB0B2" width="92.375" height="21.253"/>
<rect x="3.131" y="120.914" fill="#A9ABAD" width="92.116" height="20.992"/>
<rect x="3.26" y="121.043" fill="#A4A6A9" width="91.856" height="20.733"/>
<rect x="3.389" y="121.173" fill="#9FA1A4" width="91.599" height="20.476"/>
<rect x="3.519" y="121.303" fill="#9A9D9F" width="91.339" height="20.216"/>
<rect x="3.648" y="121.432" fill="#96989B" width="91.081" height="19.957"/>
<rect x="3.777" y="121.559" fill="#929497" width="90.822" height="19.703"/>
<rect x="3.906" y="121.688" fill="#8E9092" width="90.564" height="19.444"/>
<rect x="4.036" y="121.819" fill="#898B8E" width="90.305" height="19.185"/>
<rect x="4.165" y="121.947" fill="#858789" width="90.047" height="18.928"/>
<rect x="4.294" y="122.077" fill="#808285" width="89.79" height="18.667"/>
<rect x="0" y="117.784" fill="#D1D3D4" width="93.15" height="22.026"/>
<polyline fill="#B3B5B8" points="51.983,19.959 52.935,22.296 51.993,19.955 51.983,19.959 "/>
<polyline fill="#BCBEC0" points="51.993,19.955 52.935,22.296 51.997,19.954 51.993,19.955 "/>
<polyline fill="#C6C8CA" points="51.997,19.954 52.935,22.296 52,19.954 51.997,19.954 "/>
<polyline fill="#D0D2D3" points="52,19.954 52.935,22.296 52.004,19.956 52.002,19.954 52,19.954 "/>
<polyline fill="#B3B5B8" points="51.979,19.967 52.935,22.296 51.983,19.959 51.979,19.967 "/>
<path fill="#C6C8CA" d="M53.233,22.259c0.65-0.468,0.846-1.415,0.479-2.358c0.086,0.214-0.104,0.532-0.547,0.844
	c-0.653,0.457-1.61,0.722-2.139,0.593c-0.17-0.042-0.273-0.12-0.313-0.223C51.358,22.577,52.591,22.719,53.233,22.259"/>
<path fill="#C6C8CA" d="M50.892,21.476c0.114,0.175,0.117,0.182,0.192,0.276c0.131,0.151,0.138,0.158,0.226,0.238
	c0.143,0.123,0.148,0.132,0.248,0.199c0.146,0.091,0.159,0.102,0.272,0.154c0.133,0.056,0.16,0.068,0.299,0.104
	c0.122,0.026,0.136,0.029,0.229,0.039c0.103,0.007,0.104,0.007,0.164,0.006c0.042-0.004,0.084-0.006,0.126-0.011
	c0.032-0.005,0.066-0.009,0.102-0.017c0.03-0.006,0.06-0.012,0.088-0.021c0.025-0.007,0.054-0.015,0.078-0.023
	s0.056-0.021,0.077-0.029c0.024-0.012,0.051-0.021,0.075-0.035c0.026-0.014,0.052-0.026,0.078-0.043
	c0.027-0.018,0.058-0.035,0.086-0.055c0.125-0.093,0.189-0.154,0.291-0.275c0.059-0.08,0.108-0.148,0.174-0.273
	c0.06-0.131,0.071-0.159,0.113-0.292c0.042-0.166,0.049-0.184,0.065-0.31c0.017-0.184,0.019-0.198,0.019-0.322
	c-0.012-0.193-0.012-0.208-0.028-0.33c-0.04-0.206-0.042-0.215-0.076-0.334c-0.023-0.067-0.053-0.155-0.079-0.222
	c0.086,0.214-0.104,0.533-0.547,0.844c-0.598,0.418-1.449,0.675-1.992,0.617c-0.069,0.066-0.259,0.243-0.46-0.246v-0.001
	C50.784,21.276,50.819,21.357,50.892,21.476"/>
<path fill="#BCBEC0" d="M51.085,21.752c0.049,0.059,0.109,0.133,0.226,0.238c0.143,0.123,0.148,0.132,0.248,0.199
	c0.146,0.091,0.159,0.102,0.272,0.154c0.133,0.056,0.16,0.068,0.299,0.104c0.122,0.026,0.136,0.029,0.229,0.039
	c0.103,0.007,0.104,0.007,0.164,0.006c0.042-0.004,0.084-0.006,0.126-0.011c0.032-0.005,0.066-0.009,0.102-0.017
	c0.03-0.006,0.06-0.012,0.088-0.021c0.025-0.007,0.054-0.015,0.078-0.023s0.056-0.021,0.077-0.029
	c0.024-0.012,0.051-0.021,0.075-0.035c0.026-0.014,0.052-0.026,0.078-0.043c0.027-0.018,0.058-0.035,0.086-0.055
	c0.125-0.093,0.189-0.154,0.291-0.275c0.059-0.08,0.108-0.148,0.174-0.273c0.06-0.131,0.071-0.159,0.113-0.292
	c0.043-0.166,0.049-0.184,0.065-0.31c0.017-0.184,0.019-0.198,0.019-0.322c-0.012-0.193-0.012-0.208-0.028-0.33
	c-0.04-0.206-0.042-0.215-0.076-0.334c-0.023-0.067-0.053-0.155-0.079-0.222c0.086,0.214-0.104,0.533-0.547,0.844
	c-0.44,0.308-1.02,0.528-1.509,0.6c-0.15,0.38-0.29,0.739-0.607,0.362C51.06,21.72,51.074,21.738,51.085,21.752"/>
<path fill="#B3B5B8" d="M51.558,22.19c0.051,0.033,0.125,0.084,0.272,0.154c0.133,0.056,0.16,0.068,0.299,0.104
	c0.122,0.026,0.136,0.029,0.229,0.039c0.103,0.007,0.104,0.007,0.164,0.006c0.042-0.004,0.084-0.006,0.126-0.011
	c0.032-0.005,0.066-0.009,0.102-0.017c0.03-0.006,0.06-0.012,0.088-0.021c0.025-0.007,0.054-0.015,0.078-0.023
	s0.056-0.021,0.077-0.029c0.024-0.012,0.051-0.021,0.075-0.035c0.026-0.014,0.052-0.026,0.078-0.043
	c0.027-0.018,0.058-0.035,0.086-0.055c0.125-0.093,0.189-0.154,0.291-0.275c0.059-0.08,0.108-0.148,0.174-0.273
	c0.06-0.131,0.071-0.159,0.113-0.292c0.042-0.166,0.049-0.184,0.065-0.31c0.017-0.184,0.019-0.198,0.019-0.322
	c-0.012-0.193-0.012-0.208-0.028-0.33c-0.04-0.206-0.042-0.215-0.076-0.334c-0.023-0.067-0.053-0.155-0.079-0.222
	c0.086,0.214-0.104,0.533-0.547,0.844c-0.32,0.223-0.711,0.4-1.09,0.509c-0.075,0.539-0.241,1.129-0.6,0.877
	C51.499,22.148,51.532,22.173,51.558,22.19"/>
<path fill="#B3B5B8" d="M53.712,19.901l-0.221-0.546c0.086,0.214-0.104,0.532-0.546,0.842c-0.321,0.224-0.712,0.401-1.091,0.51
	l0.221,0.547c0.379-0.109,0.77-0.286,1.09-0.509C53.608,20.433,53.798,20.115,53.712,19.901"/>
<path fill="#BCBEC0" d="M52.075,21.253l-0.221-0.547c-0.146,0.041-0.285,0.071-0.422,0.092l0.223,0.546
	C51.791,21.324,51.931,21.294,52.075,21.253"/>
<path fill="#C6C8CA" d="M51.655,21.344l-0.223-0.546c-0.176,0.025-0.34,0.032-0.48,0.017l0.221,0.547
	C51.315,21.377,51.479,21.37,51.655,21.344"/>
<path fill="#D0D2D3" d="M51.173,21.361l-0.221-0.546c-0.051-0.006-0.1-0.014-0.146-0.024c-0.166-0.042-0.271-0.119-0.313-0.222
	l0.22,0.547c0.042,0.102,0.146,0.18,0.313,0.222C51.073,21.347,51.122,21.356,51.173,21.361"/>
<polyline fill="#C6C8CA" points="50.713,21.115 50.493,20.569 50.493,20.568 50.713,21.115 50.713,21.115 "/>
<path fill="#B9BBBD" d="M51.04,19.726c-0.655,0.457-0.76,0.935-0.233,1.064s1.483-0.136,2.14-0.594
	c0.651-0.457,0.756-0.934,0.229-1.063S51.694,19.269,51.04,19.726 M51.983,19.959c0.006-0.003,0.014-0.006,0.019-0.005
	c0.004,0.002,0.004,0.006-0.002,0.009c-0.005,0.005-0.015,0.007-0.019,0.006S51.979,19.963,51.983,19.959z"/>
<path fill="#5E5F61" d="M53.327,18.962l-0.141-0.349c0.087,0.215-0.104,0.532-0.547,0.843c-0.244,0.17-0.527,0.313-0.816,0.42
	l0.141,0.348c0.288-0.107,0.572-0.25,0.817-0.42C53.224,19.494,53.413,19.175,53.327,18.962"/>
<path fill="#646668" d="M51.964,20.224l-0.141-0.348c-0.092,0.034-0.186,0.064-0.278,0.091l0.141,0.348
	C51.778,20.288,51.871,20.258,51.964,20.224"/>
<path fill="#6A6B6E" d="M51.685,20.315l-0.141-0.348c-0.079,0.021-0.156,0.042-0.234,0.058l0.141,0.349
	C51.528,20.357,51.606,20.337,51.685,20.315"/>
<path fill="#707274" d="M51.45,20.373l-0.141-0.349c-0.074,0.016-0.146,0.028-0.219,0.037l0.143,0.349
	C51.304,20.401,51.377,20.388,51.45,20.373"/>
<path fill="#76777A" d="M51.233,20.41l-0.143-0.349c-0.072,0.01-0.146,0.017-0.215,0.02l0.143,0.348
	C51.087,20.426,51.158,20.42,51.233,20.41"/>
<path fill="#7C7D80" d="M51.019,20.429l-0.143-0.348c-0.085,0.003-0.167,0-0.242-0.009l0.141,0.348
	C50.851,20.429,50.933,20.432,51.019,20.429"/>
<path fill="#818385" d="M50.774,20.42l-0.141-0.348c-0.047-0.006-0.091-0.013-0.133-0.023c-0.168-0.042-0.271-0.119-0.313-0.221
	l0.14,0.348c0.042,0.101,0.146,0.179,0.313,0.221C50.685,20.406,50.729,20.415,50.774,20.42"/>
<polyline fill="#7C7D80" points="50.328,20.176 50.188,19.828 50.188,19.827 50.328,20.175 50.328,20.176 "/>
<polyline fill="#5E5F61" points="47.131,7.945 51.813,19.573 51.819,19.566 47.131,7.945 "/>
<polyline fill="#5E5F61" points="47.131,7.945 51.819,19.566 51.827,19.563 47.131,7.945 "/>
<polyline fill="#646668" points="47.131,7.945 51.827,19.563 51.829,19.562 47.131,7.945 "/>
<polyline fill="#6A6B6E" points="47.131,7.945 51.829,19.562 51.831,19.561 47.131,7.945 "/>
<polyline fill="#707274" points="47.131,7.945 51.831,19.561 51.833,19.561 47.131,7.945 "/>
<polyline fill="#76777A" points="47.131,7.945 51.833,19.561 51.834,19.561 47.131,7.945 "/>
<polyline fill="#7C7D80" points="47.131,7.945 51.834,19.561 51.836,19.561 47.131,7.945 "/>
<polyline fill="#818385" points="47.131,7.945 51.836,19.561 51.838,19.561 51.84,19.563 47.131,7.945 "/>
<polyline fill="#7C7D80" points="47.131,7.945 51.84,19.563 47.131,7.945 "/>
<path fill="#5E5F61" d="M53.187,18.614l-3.834-9.487c0.088,0.214-0.104,0.531-0.546,0.842c-0.243,0.17-0.527,0.313-0.816,0.42
	l3.833,9.488c0.289-0.107,0.572-0.25,0.816-0.42C53.083,19.146,53.273,18.828,53.187,18.614"/>
<path fill="#646668" d="M51.823,19.876l-3.833-9.488c-0.093,0.034-0.186,0.065-0.279,0.091l3.834,9.488
	C51.638,19.941,51.731,19.91,51.823,19.876"/>
<path fill="#6A6B6E" d="M51.545,19.967l-3.834-9.488c-0.079,0.023-0.156,0.042-0.233,0.059l3.833,9.487
	C51.388,20.009,51.466,19.989,51.545,19.967"/>
<path fill="#707274" d="M51.31,20.025l-3.833-9.487c-0.075,0.016-0.147,0.027-0.219,0.037l3.833,9.487
	C51.164,20.053,51.235,20.04,51.31,20.025"/>
<path fill="#76777A" d="M51.092,20.062l-3.833-9.487c-0.073,0.01-0.146,0.017-0.216,0.019l3.834,9.488
	C50.946,20.078,51.019,20.072,51.092,20.062"/>
<path fill="#7C7D80" d="M50.877,20.081l-3.834-9.488c-0.085,0.003-0.167,0.001-0.242-0.008l3.834,9.487
	C50.71,20.081,50.792,20.084,50.877,20.081"/>
<path fill="#818385" d="M50.635,20.073l-3.834-9.487c-0.046-0.006-0.09-0.014-0.132-0.024c-0.169-0.041-0.272-0.119-0.313-0.221
	l3.833,9.488c0.041,0.102,0.146,0.179,0.313,0.221C50.544,20.06,50.588,20.067,50.635,20.073"/>
<polyline fill="#7C7D80" points="50.188,19.828 46.355,10.34 46.354,10.339 50.188,19.827 50.188,19.828 "/>
<path fill="#7C7D80" d="M47.937,7.792c-0.41-0.096-0.771-0.033-1.104,0.188c0.074-0.052,0.174-0.066,0.297-0.036
	c-0.123-0.03-0.223-0.016-0.298,0.037c-0.646,0.476-0.843,1.444-0.479,2.357c0.041,0.102,0.146,0.181,0.314,0.222
	c0.526,0.13,1.483-0.135,2.138-0.593c0.442-0.311,0.634-0.628,0.546-0.842C48.922,8.151,48.281,7.871,47.937,7.792"/>
<polyline fill="#7C7D80" points="46.354,10.339 46.355,10.343 46.351,10.33 46.354,10.339 "/>
<path fill="#7C7D80" d="M46.833,7.982c-0.074,0.055-0.129,0.098-0.214,0.186c-0.072,0.082-0.084,0.097-0.143,0.18
	c0.416-0.552,0.564,0.082,0.58,0.156c0.103,0.483,0.012,1.694-0.262,2.081c0.543,0.065,1.406-0.193,2.012-0.616
	c0.442-0.311,0.634-0.628,0.546-0.842c-0.086-0.198-0.091-0.206-0.151-0.315c-0.111-0.178-0.115-0.185-0.188-0.281
	c-0.129-0.155-0.134-0.161-0.219-0.244c-0.14-0.129-0.148-0.137-0.245-0.206c-0.144-0.096-0.158-0.105-0.269-0.161
	c-0.095-0.043-0.202-0.091-0.343-0.126c-0.121-0.027-0.137-0.03-0.231-0.039c-0.1-0.006-0.104-0.007-0.164-0.005
	c-0.042,0.002-0.083,0.005-0.125,0.01c-0.034,0.004-0.067,0.009-0.102,0.016c-0.029,0.007-0.059,0.014-0.087,0.021
	c-0.027,0.008-0.054,0.017-0.08,0.024c-0.023,0.01-0.053,0.021-0.076,0.029c-0.025,0.011-0.05,0.025-0.075,0.035
	c-0.026,0.014-0.053,0.027-0.079,0.043C46.89,7.945,46.861,7.962,46.833,7.982c0.075-0.053,0.175-0.067,0.298-0.037
	C47.008,7.914,46.908,7.929,46.833,7.982"/>
<path fill="#76777A" d="M46.833,7.982c-0.074,0.055-0.128,0.097-0.212,0.185c0.457-0.421,0.641,0.261,0.618,1.125
	c-0.013,0.521-0.112,1.082-0.196,1.302c0.534-0.02,1.244-0.261,1.764-0.625c0.442-0.311,0.634-0.628,0.546-0.842
	c-0.086-0.198-0.091-0.206-0.151-0.315c-0.111-0.178-0.115-0.185-0.188-0.281c-0.129-0.155-0.134-0.161-0.219-0.244
	c-0.14-0.129-0.148-0.137-0.245-0.206c-0.144-0.096-0.158-0.105-0.269-0.161c-0.095-0.043-0.202-0.091-0.343-0.126
	c-0.121-0.027-0.137-0.03-0.231-0.039c-0.1-0.006-0.104-0.007-0.164-0.005c-0.042,0.002-0.083,0.005-0.125,0.01
	c-0.034,0.004-0.067,0.009-0.102,0.016c-0.029,0.007-0.059,0.014-0.087,0.021c-0.027,0.008-0.054,0.017-0.08,0.024
	c-0.023,0.01-0.053,0.021-0.076,0.029c-0.025,0.011-0.05,0.025-0.075,0.035c-0.026,0.014-0.053,0.027-0.079,0.043
	C46.89,7.945,46.861,7.962,46.833,7.982c0.075-0.053,0.175-0.067,0.298-0.037C47.008,7.914,46.908,7.929,46.833,7.982"/>
<path fill="#707274" d="M46.833,7.982c-0.028,0.021-0.064,0.049-0.092,0.071c0.753-0.553,0.7,1.494,0.58,2.192
	c-0.018,0.109-0.044,0.219-0.063,0.329c0.499-0.065,1.096-0.29,1.548-0.606c0.442-0.311,0.634-0.628,0.546-0.842
	c-0.086-0.198-0.091-0.206-0.151-0.315c-0.111-0.178-0.115-0.185-0.188-0.281c-0.129-0.155-0.134-0.161-0.219-0.244
	c-0.14-0.129-0.148-0.137-0.245-0.206c-0.144-0.096-0.158-0.105-0.269-0.161c-0.095-0.043-0.202-0.091-0.343-0.126
	c-0.121-0.027-0.137-0.03-0.231-0.039c-0.1-0.006-0.104-0.007-0.164-0.005c-0.042,0.002-0.083,0.005-0.125,0.01
	c-0.034,0.004-0.067,0.009-0.102,0.016c-0.029,0.007-0.059,0.014-0.087,0.021c-0.027,0.008-0.054,0.017-0.08,0.024
	c-0.023,0.01-0.053,0.021-0.076,0.029c-0.025,0.011-0.05,0.025-0.075,0.035c-0.026,0.014-0.053,0.027-0.079,0.043
	C46.89,7.945,46.861,7.962,46.833,7.982c0.075-0.053,0.175-0.067,0.298-0.037C47.008,7.914,46.908,7.929,46.833,7.982"/>
<path fill="#6A6B6E" d="M48.806,9.968c0.442-0.311,0.634-0.628,0.546-0.842c-0.086-0.198-0.091-0.206-0.151-0.315
	c-0.111-0.178-0.115-0.185-0.188-0.281c-0.129-0.155-0.134-0.161-0.219-0.244c-0.14-0.129-0.148-0.137-0.245-0.206
	c-0.144-0.096-0.158-0.105-0.269-0.161c-0.095-0.043-0.202-0.091-0.343-0.126c-0.121-0.027-0.137-0.03-0.231-0.039
	c-0.1-0.006-0.104-0.007-0.164-0.005c-0.042,0.002-0.083,0.005-0.125,0.01c-0.034,0.004-0.067,0.009-0.102,0.016
	c-0.029,0.007-0.059,0.014-0.087,0.021c-0.027,0.008-0.054,0.017-0.08,0.024c-0.023,0.01-0.053,0.021-0.076,0.029
	c-0.025,0.011-0.05,0.025-0.075,0.035c-0.026,0.014-0.053,0.027-0.079,0.043l-0.023,0.014c0.401-0.228,0.849,0.428,0.583,2.597
	C47.925,10.443,48.418,10.239,48.806,9.968"/>
<path fill="#646668" d="M48.806,9.968c0.442-0.311,0.634-0.628,0.546-0.842c-0.086-0.198-0.091-0.206-0.151-0.315
	c-0.111-0.178-0.115-0.185-0.188-0.281c-0.129-0.155-0.134-0.161-0.219-0.244c-0.14-0.129-0.148-0.137-0.245-0.206
	c-0.144-0.096-0.158-0.105-0.269-0.161c-0.095-0.043-0.202-0.091-0.343-0.126c-0.121-0.027-0.137-0.03-0.231-0.039
	c-0.1-0.006-0.104-0.007-0.164-0.005c-0.042,0.002-0.083,0.005-0.125,0.01c-0.034,0.004-0.067,0.009-0.102,0.016
	c-0.029,0.007-0.059,0.014-0.087,0.021c-0.027,0.008-0.054,0.017-0.08,0.024c-0.023,0.01-0.053,0.021-0.076,0.029l-0.021,0.009
	c0.451-0.168,0.823,0.679,0.662,2.621C48.092,10.371,48.486,10.192,48.806,9.968"/>
<path fill="#5E5F61" d="M48.806,9.968c0.442-0.311,0.634-0.628,0.546-0.842c-0.086-0.198-0.091-0.206-0.151-0.315
	c-0.111-0.178-0.115-0.185-0.188-0.281c-0.129-0.155-0.134-0.161-0.219-0.244c-0.14-0.129-0.148-0.137-0.245-0.206
	c-0.144-0.096-0.158-0.105-0.269-0.161c-0.095-0.043-0.202-0.091-0.343-0.126c-0.121-0.027-0.137-0.03-0.231-0.039
	c-0.1-0.006-0.104-0.007-0.164-0.005c-0.042,0.002-0.083,0.005-0.125,0.01c-0.034,0.004-0.067,0.009-0.102,0.016
	c-0.018,0.004-0.041,0.009-0.059,0.015c0.288-0.058,0.813,0.413,0.738,2.598C48.282,10.28,48.564,10.137,48.806,9.968"/>
<path fill="#818385" d="M46.335,8.602C46.32,8.638,46.3,8.686,46.287,8.723c-0.05,0.156-0.057,0.176-0.082,0.303
	c-0.025,0.181-0.029,0.195-0.034,0.319c0.001,0.194,0.001,0.206,0.015,0.328c0.009,0.063,0.021,0.147,0.031,0.211
	c0.116,0.516,0.281,0.543,0.313,0.544c0.264,0.004,0.374-0.805,0.411-1.071c0.062-0.458-0.014-0.971-0.119-1.07
	C46.574,8.053,46.337,8.596,46.335,8.602"/>
<path fill="#87898B" d="M46.202,9.05c-0.099,0.62,0.077,1.104,0.244,1.092c0.222-0.016,0.339-0.764,0.34-0.771
	c0.034-0.243,0.092-0.825-0.097-0.979C46.51,8.249,46.268,8.64,46.202,9.05"/>
<path fill="#8C8E91" d="M46.211,9.139c-0.008,0.046-0.013,0.329,0.009,0.406c0.016,0.058,0.035,0.139,0.069,0.188
	c0.021,0.028,0.067,0.06,0.101,0.054c0.001,0,0.108-0.083,0.126-0.13c0.087-0.227,0.087-0.227,0.145-0.58
	c0.02-0.122,0.01-0.399-0.076-0.492c-0.012-0.014-0.035-0.027-0.053-0.03C46.522,8.553,46.311,8.527,46.211,9.139"/>
<path fill="#606264" d="M44.149,37.857V20.981c0,0.288,0.37,0.567,1.029,0.719c0.36,0.083,0.758,0.116,1.142,0.105v16.876
	c-0.384,0.012-0.781-0.021-1.142-0.104C44.519,38.425,44.149,38.145,44.149,37.857"/>
<path fill="#696A6C" d="M46.32,38.681V21.805c0.124-0.005,0.247-0.013,0.366-0.025v16.876C46.567,38.669,46.444,38.677,46.32,38.681
	"/>
<path fill="#707274" d="M46.686,38.656V21.78c0.102-0.012,0.202-0.025,0.299-0.043v16.876C46.888,38.63,46.788,38.645,46.686,38.656
	"/>
<path fill="#787A7C" d="M46.985,38.613V21.737c0.093-0.017,0.183-0.035,0.27-0.059v16.877
	C47.168,38.577,47.078,38.597,46.985,38.613"/>
<path fill="#7F8184" d="M47.255,38.555V21.678c0.091-0.023,0.178-0.05,0.26-0.079v16.876C47.432,38.505,47.345,38.531,47.255,38.555
	"/>
<path fill="#87898B" d="M47.514,38.475V21.599c0.1-0.037,0.192-0.078,0.275-0.123v16.876C47.707,38.398,47.614,38.439,47.514,38.475
	"/>
<path fill="#8E9093" d="M47.79,38.352V21.476c0.051-0.028,0.1-0.058,0.143-0.089c0.177-0.128,0.261-0.267,0.262-0.404V37.86
	c-0.001,0.138-0.085,0.276-0.262,0.403C47.889,38.295,47.841,38.323,47.79,38.352"/>
<polyline fill="#87898B" points="48.194,37.86 48.194,20.982 48.194,37.858 48.194,37.86 "/>
<path fill="#737477" d="M47.165,20.262c0.973,0.225,1.316,0.728,0.768,1.125s-1.782,0.537-2.754,0.313
	c-0.974-0.224-1.316-0.728-0.769-1.123C44.959,20.179,46.192,20.039,47.165,20.262"/>
<path fill="#606264" d="M41.753,39.638V22.762c0,0.288,0.37,0.567,1.028,0.719c0.362,0.083,0.758,0.116,1.143,0.105v16.876
	c-0.385,0.012-0.78-0.021-1.143-0.104C42.123,40.206,41.753,39.926,41.753,39.638"/>
<path fill="#696A6C" d="M43.924,40.462V23.586c0.124-0.005,0.246-0.014,0.366-0.025v16.876C44.17,40.45,44.048,40.458,43.924,40.462
	"/>
<path fill="#707274" d="M44.29,40.437V23.561c0.103-0.012,0.202-0.025,0.299-0.043v16.876C44.492,40.412,44.392,40.426,44.29,40.437
	"/>
<path fill="#787A7C" d="M44.589,40.394V23.518c0.094-0.017,0.184-0.036,0.27-0.059v16.877
	C44.772,40.358,44.682,40.378,44.589,40.394"/>
<path fill="#7F8184" d="M44.858,40.336V23.459c0.091-0.023,0.178-0.05,0.259-0.079v16.876
	C45.036,40.286,44.949,40.312,44.858,40.336"/>
<path fill="#87898B" d="M45.117,40.256V23.38c0.101-0.037,0.194-0.078,0.276-0.123v16.876C45.311,40.179,45.218,40.22,45.117,40.256
	"/>
<path fill="#8E9093" d="M45.393,40.133V23.257c0.052-0.028,0.099-0.059,0.143-0.089c0.176-0.128,0.26-0.268,0.261-0.404v16.877
	c-0.001,0.137-0.085,0.276-0.261,0.403C45.492,40.076,45.445,40.105,45.393,40.133"/>
<polyline fill="#87898B" points="45.797,39.641 45.797,22.763 45.797,39.639 45.797,39.641 "/>
<path fill="#737477" d="M44.768,22.043c0.973,0.224,1.315,0.728,0.768,1.125c-0.549,0.396-1.782,0.537-2.755,0.313
	c-0.972-0.224-1.316-0.728-0.767-1.125C42.562,21.96,43.796,21.82,44.768,22.043"/>
<polyline fill="#606264" points="45.034,8.222 45.041,21.719 45.037,21.718 45.034,8.222 "/>
<polyline fill="#696A6C" points="45.034,8.222 45.037,21.718 45.036,21.719 45.034,8.222 "/>
<polyline fill="#707274" points="45.034,8.222 45.036,21.719 45.034,21.719 45.034,8.222 "/>
<polyline fill="#787A7C" points="45.034,8.222 45.034,21.719 45.033,21.719 45.034,8.222 "/>
<polyline fill="#7F8184" points="45.034,8.222 45.033,21.719 45.03,21.719 45.034,8.222 "/>
<polyline fill="#87898B" points="45.034,8.222 45.03,21.719 45.028,21.721 45.034,8.222 "/>
<polyline fill="#8E9093" points="45.034,8.222 45.028,21.721 45.026,21.722 45.024,21.725 45.034,8.222 "/>
<polyline fill="#87898B" points="45.034,8.222 45.024,21.725 45.034,8.222 "/>
<polyline fill="#606264" points="45.034,8.222 45.045,21.722 45.041,21.719 45.034,8.222 "/>
<path fill="#606264" d="M40.966,22.376v-3.269c0,0.557,0.5,1.027,1.469,1.254c0.461,0.108,0.981,0.15,1.523,0.135v3.268
	c-0.542,0.017-1.063-0.025-1.523-0.134C41.466,23.403,40.966,22.932,40.966,22.376"/>
<path fill="#696A6C" d="M43.958,23.764v-3.268c0.205-0.008,0.413-0.021,0.622-0.044v3.269
	C44.371,23.743,44.163,23.758,43.958,23.764"/>
<path fill="#707274" d="M44.58,23.721v-3.269c0.204-0.021,0.408-0.052,0.612-0.089v3.27C44.988,23.669,44.784,23.698,44.58,23.721"
	/>
<path fill="#787A7C" d="M45.192,23.633v-3.27c0.224-0.04,0.447-0.088,0.666-0.145v3.268C45.639,23.544,45.416,23.592,45.192,23.633"
	/>
<path fill="#7F8184" d="M45.858,23.487v-3.268c0.261-0.068,0.518-0.147,0.765-0.236v3.269C46.376,23.34,46.119,23.42,45.858,23.487"
	/>
<path fill="#87898B" d="M46.623,23.251v-3.269c0.343-0.124,0.669-0.269,0.967-0.432v3.268
	C47.292,22.982,46.966,23.127,46.623,23.251"/>
<path fill="#8E9093" d="M47.59,22.819v-3.268c0.205-0.112,0.398-0.232,0.573-0.361c0.63-0.462,0.938-0.949,0.94-1.385v3.269
	c-0.002,0.436-0.311,0.923-0.94,1.385C47.988,22.587,47.795,22.707,47.59,22.819"/>
<polyline fill="#87898B" points="49.103,21.073 49.103,17.805 49.103,17.803 49.103,21.071 49.103,21.073 "/>
<path fill="#737477" d="M46.63,7.053c1.061,0.249,1.205,0.974,0.324,1.62c-0.881,0.646-2.455,0.968-3.515,0.719
	c-1.061-0.249-1.205-0.974-0.324-1.621C43.996,7.126,45.57,6.804,46.63,7.053"/>
<path fill="#606264" d="M40.966,19.108v-8.304c0,0.555,0.5,1.026,1.469,1.254c0.461,0.108,0.981,0.15,1.523,0.134v8.305
	c-0.542,0.016-1.063-0.026-1.523-0.135C41.466,20.135,40.966,19.664,40.966,19.108"/>
<path fill="#696A6C" d="M43.958,20.496v-8.305c0.205-0.007,0.413-0.021,0.622-0.044v8.305
	C44.371,20.475,44.163,20.489,43.958,20.496"/>
<path fill="#707274" d="M44.58,20.452v-8.305c0.204-0.021,0.408-0.051,0.612-0.088v8.304C44.988,20.401,44.784,20.431,44.58,20.452"
	/>
<path fill="#787A7C" d="M45.192,20.364V12.06c0.224-0.04,0.447-0.088,0.666-0.146v8.305C45.639,20.276,45.416,20.323,45.192,20.364"
	/>
<path fill="#7F8184" d="M45.858,20.219v-8.305c0.261-0.067,0.518-0.146,0.765-0.236v8.305
	C46.376,20.072,46.119,20.151,45.858,20.219"/>
<path fill="#87898B" d="M46.623,19.983v-8.305c0.343-0.124,0.669-0.268,0.967-0.431v8.304
	C47.292,19.714,46.966,19.859,46.623,19.983"/>
<path fill="#8E9093" d="M47.59,19.551v-8.304c0.205-0.112,0.398-0.233,0.573-0.361c0.63-0.462,0.938-0.949,0.94-1.385v8.304
	c-0.002,0.436-0.311,0.923-0.94,1.385C47.988,19.319,47.795,19.439,47.59,19.551"/>
<polyline fill="#87898B" points="49.103,17.805 49.103,9.501 49.103,9.498 49.103,17.803 49.103,17.805 "/>
<path fill="#87898B" d="M42.55,7.92c0.92-0.67,2.637-1.324,4.449-0.962c-0.108-0.025-0.245,0.004-0.369,0.095
	c-1.06-0.249-2.634,0.073-3.515,0.718c-0.881,0.647-0.736,1.372,0.324,1.621c1.06,0.249,2.634-0.073,3.515-0.719
	c0.881-0.646,0.736-1.371-0.324-1.62c0.124-0.091,0.261-0.12,0.391-0.09c1.797,0.478,2.076,1.794,2.083,2.535
	c0,0.436-0.309,0.924-0.94,1.388c-1.436,1.053-4.001,1.578-5.729,1.172c-0.969-0.228-1.469-0.699-1.469-1.254
	C41.023,9.258,41.983,8.334,42.55,7.92"/>
<polyline fill="#87898B" points="49.103,9.498 49.103,9.5 49.103,9.497 49.103,9.498 "/>
<path fill="#87898B" d="M47.02,6.963c0.299,0.08,0.503,0.14,0.813,0.311l0.15,0.092C47.848,7.281,47.8,7.287,47.8,7.287
	C47.735,7.304,47.759,7.4,47.77,7.446c0.106,0.426-0.097,0.846-0.604,1.247c-0.388,0.309-0.894,0.544-1.06,0.622
	c-0.917,0.429-0.917,0.429-1.029,0.608c-0.248,0.396,0.11,0.927,0.38,1.114c0.782,0.539,1.728,0.309,2.131,0.211
	c-1.477,0.805-3.638,1.166-5.154,0.81c-0.969-0.228-1.469-0.699-1.469-1.254c0.011-0.268,0.012-0.29,0.038-0.47
	c0.054-0.269,0.057-0.284,0.109-0.458c0.088-0.253,0.095-0.274,0.172-0.441c0.122-0.242,0.132-0.262,0.234-0.424
	c0.149-0.221,0.169-0.25,0.304-0.414c0.176-0.197,0.212-0.238,0.412-0.422c0.093-0.079,0.219-0.181,0.314-0.255
	c0.249-0.172,0.265-0.184,0.442-0.286c0.271-0.147,0.275-0.15,0.437-0.224c0.283-0.123,0.283-0.123,0.438-0.18
	c0.288-0.098,0.293-0.099,0.445-0.142c0.288-0.075,0.305-0.08,0.451-0.109c0.136-0.024,0.316-0.056,0.453-0.076
	c0.287-0.032,0.287-0.032,0.454-0.043c0.297-0.011,0.304-0.012,0.452-0.008c0.287,0.014,0.298,0.014,0.448,0.032
	C46.854,6.926,46.865,6.927,47.02,6.963c-0.13-0.03-0.267-0.001-0.391,0.09c-1.06-0.249-2.634,0.073-3.515,0.718
	c-0.881,0.647-0.736,1.372,0.324,1.621c1.06,0.249,2.634-0.073,3.515-0.719c0.881-0.646,0.735-1.371-0.324-1.62
	C46.754,6.962,46.89,6.933,47.02,6.963"/>
<path fill="#7F8184" d="M47.02,6.963c0.219,0.059,0.377,0.101,0.633,0.218c-0.079-0.033-0.17-0.07-0.188-0.026
	c-0.01,0.023,0.028,0.051,0.04,0.071c0.143,0.25,0.355,0.628-0.088,1.145c-0.539,0.629-1.569,0.956-1.908,1.063
	c-0.757,0.24-1.304,0.414-0.822,1.381c0.187,0.376,0.856,0.916,1.938,0.863c-1.356,0.491-2.979,0.664-4.19,0.38
	c-0.969-0.228-1.469-0.699-1.469-1.254c0.011-0.268,0.012-0.29,0.038-0.47c0.054-0.269,0.057-0.284,0.109-0.458
	c0.088-0.253,0.095-0.274,0.172-0.441c0.122-0.242,0.132-0.262,0.234-0.424c0.149-0.221,0.169-0.25,0.304-0.414
	c0.176-0.197,0.212-0.238,0.412-0.422c0.093-0.079,0.219-0.181,0.314-0.255c0.249-0.172,0.265-0.184,0.442-0.286
	c0.271-0.147,0.275-0.15,0.437-0.224c0.283-0.123,0.283-0.123,0.438-0.18c0.288-0.098,0.293-0.099,0.445-0.142
	c0.288-0.075,0.305-0.08,0.451-0.109c0.136-0.024,0.316-0.056,0.453-0.076c0.287-0.032,0.287-0.032,0.454-0.043
	c0.297-0.011,0.304-0.012,0.452-0.008c0.287,0.014,0.298,0.014,0.448,0.032C46.854,6.926,46.865,6.927,47.02,6.963
	c-0.13-0.03-0.267-0.001-0.391,0.09c-1.06-0.249-2.634,0.073-3.515,0.718c-0.881,0.647-0.736,1.372,0.324,1.621
	c1.06,0.249,2.634-0.073,3.515-0.719c0.881-0.646,0.735-1.371-0.324-1.62C46.754,6.962,46.89,6.933,47.02,6.963"/>
<path fill="#787A7C" d="M47.02,6.963c0.077,0.021,0.18,0.047,0.257,0.071c-0.129-0.04-0.188-0.031-0.188-0.031
	c-0.017,0.011-0.026,0.042-0.021,0.061c0.02,0.062,0.119,0.091,0.17,0.132c0.168,0.136,0.277,0.251,0.333,0.445
	c0.038,0.131,0.042,0.346-0.154,0.63c-0.112,0.164-0.586,0.728-1.93,1.09c-0.415,0.112-0.867,0.078-1.248,0.321
	c-0.199,0.128-0.206,0.39-0.177,0.588c0.196,1.326,1.405,1.565,1.803,1.644c-1.171,0.304-2.438,0.378-3.43,0.145
	c-0.969-0.228-1.469-0.699-1.469-1.254c0.011-0.268,0.012-0.29,0.038-0.47c0.054-0.269,0.057-0.284,0.109-0.458
	c0.088-0.253,0.095-0.274,0.172-0.441c0.122-0.242,0.132-0.262,0.234-0.424c0.149-0.221,0.169-0.25,0.304-0.414
	c0.176-0.197,0.212-0.238,0.412-0.422c0.093-0.079,0.219-0.181,0.314-0.255c0.249-0.172,0.265-0.184,0.442-0.286
	c0.271-0.147,0.275-0.15,0.437-0.224c0.283-0.123,0.283-0.123,0.438-0.18c0.288-0.098,0.293-0.099,0.445-0.142
	c0.288-0.075,0.305-0.08,0.451-0.109c0.136-0.024,0.316-0.056,0.453-0.076c0.287-0.032,0.287-0.032,0.454-0.043
	c0.297-0.011,0.304-0.012,0.452-0.008c0.287,0.014,0.298,0.014,0.448,0.032C46.854,6.926,46.865,6.927,47.02,6.963
	c-0.13-0.03-0.267-0.001-0.391,0.09c-1.06-0.249-2.634,0.073-3.515,0.718c-0.881,0.647-0.736,1.372,0.324,1.621
	c1.06,0.249,2.634-0.073,3.515-0.719c0.881-0.646,0.735-1.371-0.324-1.62C46.754,6.962,46.89,6.933,47.02,6.963"/>
<path fill="#707274" d="M42.434,12.058c-0.969-0.228-1.469-0.699-1.469-1.254c0.011-0.268,0.012-0.29,0.038-0.47
	c0.054-0.269,0.057-0.284,0.109-0.458c0.088-0.253,0.095-0.274,0.172-0.441c0.122-0.242,0.132-0.262,0.234-0.424
	c0.149-0.221,0.169-0.25,0.304-0.414c0.176-0.197,0.212-0.238,0.412-0.422c0.093-0.079,0.219-0.181,0.314-0.255
	c0.249-0.172,0.265-0.184,0.442-0.286c0.271-0.147,0.275-0.15,0.437-0.224c0.283-0.123,0.283-0.123,0.438-0.18
	c0.288-0.098,0.293-0.099,0.445-0.142c0.288-0.075,0.305-0.08,0.451-0.109c0.136-0.024,0.316-0.056,0.453-0.076
	c0.287-0.032,0.287-0.032,0.454-0.043c0.297-0.011,0.304-0.012,0.452-0.008c0.287,0.014,0.298,0.014,0.448,0.032
	c0.065,0.01,0.152,0.021,0.217,0.031c-2.06-0.265-5.043,1.04-4.131,2.115c0.214,0.254,0.594,0.266,0.795,0.54
	c0.013,0.019,0.013,0.019,0.206,0.831c0.202,0.85,0.662,1.345,1.539,1.656C44.227,12.234,43.24,12.247,42.434,12.058"/>
<path fill="#696A6C" d="M42.434,12.058c-0.969-0.228-1.469-0.699-1.469-1.254c0.011-0.268,0.012-0.29,0.038-0.47
	c0.054-0.269,0.057-0.284,0.109-0.458c0.088-0.253,0.095-0.274,0.172-0.441c0.122-0.242,0.132-0.262,0.234-0.424
	c0.149-0.221,0.169-0.25,0.304-0.414c0.176-0.197,0.212-0.238,0.412-0.422c0.093-0.079,0.219-0.181,0.314-0.255
	c0.249-0.172,0.265-0.184,0.442-0.286c0.271-0.147,0.275-0.15,0.437-0.224c0.283-0.123,0.283-0.123,0.438-0.18
	c0.288-0.098,0.293-0.099,0.445-0.142c0.288-0.075,0.305-0.08,0.451-0.109c0.136-0.024,0.316-0.056,0.453-0.076
	c0.287-0.032,0.287-0.032,0.454-0.043c0.297-0.011,0.304-0.012,0.452-0.008l0.035,0.001c-1.438-0.006-3.264,0.606-3.69,1.527
	c-0.137,0.297-0.035,0.525,0.014,0.636c0.172,0.389,0.543,0.651,0.672,1.066c0.336,1.077,0.37,1.189,0.772,1.596
	c0.166,0.168,0.249,0.252,0.654,0.469C43.817,12.23,43.069,12.207,42.434,12.058"/>
<path fill="#606264" d="M42.434,12.058c-0.969-0.228-1.469-0.699-1.469-1.254c0.011-0.268,0.012-0.29,0.038-0.47
	c0.054-0.269,0.057-0.284,0.109-0.458c0.088-0.253,0.095-0.274,0.172-0.441c0.122-0.242,0.132-0.262,0.234-0.424
	c0.149-0.221,0.169-0.25,0.304-0.414c0.176-0.197,0.212-0.238,0.412-0.422c0.093-0.079,0.219-0.181,0.314-0.255
	c0.249-0.172,0.265-0.184,0.442-0.286c0.271-0.147,0.275-0.15,0.437-0.224c0.283-0.123,0.283-0.123,0.438-0.18
	c0.288-0.098,0.293-0.099,0.445-0.142c0.288-0.075,0.305-0.08,0.451-0.109c0.124-0.022,0.29-0.052,0.414-0.07
	c-1.705,0.261-2.752,1.057-2.903,1.707c-0.057,0.241-0.002,0.414,0.025,0.508l0.755,2.033c0.116,0.253,0.367,0.637,0.895,1.034
	C43.409,12.208,42.892,12.165,42.434,12.058"/>
<path fill="#8E9093" d="M48.33,7.642c0.068,0.069,0.156,0.164,0.219,0.238c0.138,0.184,0.151,0.204,0.234,0.35
	c0.106,0.209,0.117,0.231,0.173,0.387c0.072,0.233,0.072,0.233,0.101,0.375c0.318,1.903-2.284,2.397-3.063,1.84
	c-0.626-0.449-0.451-0.779-0.323-1.021c0.072-0.135,0.594-0.433,0.845-0.577c0.16-0.091,0.3-0.171,0.484-0.299
	c0.587-0.405,0.902-0.823,0.937-1.24c0.002-0.018,0.063-0.209,0.068-0.213C48.005,7.481,48.101,7.419,48.33,7.642"/>
<path fill="#96989B" d="M48.625,7.988c1.229,1.684-0.578,2.964-1.827,2.626c-0.75-0.202-0.629-0.7-0.627-0.704
	c0.046-0.096,0.146-0.269,0.208-0.336c0.016-0.016,0.083-0.077,0.399-0.309c0.095-0.068,0.585-0.432,0.91-0.791
	c0.095-0.105,0.097-0.108,0.168-0.205c0.022-0.031,0.057-0.07,0.076-0.103c0.017-0.028,0.039-0.065,0.055-0.093
	c0.017-0.027,0.042-0.064,0.057-0.093c0.044-0.08,0.033-0.188,0.129-0.242C48.225,7.71,48.365,7.632,48.625,7.988"/>
<path fill="#9EA0A2" d="M48.738,8.307c0.099,0.17,0.382,0.771-0.121,1.36c-0.341,0.399-1.067,0.568-1.399,0.422l-0.261-0.197
	c-0.04-0.079-0.046-0.214-0.008-0.294c0.044-0.092,0.044-0.092,0.404-0.529c0.119-0.145,0.277-0.248,0.405-0.383
	c0.154-0.162,0.271-0.354,0.438-0.504c0.173-0.158,0.173-0.158,0.271-0.126C48.516,8.072,48.62,8.106,48.738,8.307"/>
<path fill="#BCBEC0" d="M45.057,0.223L45.034,0.24l-0.039-0.01C45.007,0.222,45.035,0.218,45.057,0.223"/>
<path fill="#BCBEC0" d="M45.074,0.249l-0.04-0.01l0.023-0.017C45.078,0.228,45.086,0.24,45.074,0.249"/>
<path fill="#BCBEC0" d="M44.995,0.23l0.039,0.01l-0.021,0.016C44.991,0.25,44.983,0.239,44.995,0.23"/>
<g>
	<g>
		<defs>
			<rect id="SVGID_1_" x="0" y="0" width="97.442" height="144.104"/>
		</defs>
		<clipPath id="SVGID_2_">
			<use xlink:href="#SVGID_1_"  overflow="visible"/>
		</clipPath>
		<path clip-path="url(#SVGID_2_)" fill="#BCBEC0" d="M45.013,0.255l0.021-0.016l0.04,0.01C45.061,0.257,45.034,0.26,45.013,0.255"
			/>
	</g>
	<g>
		<defs>
			<rect id="SVGID_3_" x="0" y="0" width="97.442" height="144.104"/>
		</defs>
		<clipPath id="SVGID_4_">
			<use xlink:href="#SVGID_3_"  overflow="visible"/>
		</clipPath>
		<path clip-path="url(#SVGID_4_)" fill="#B3B5B8" d="M44.431,8.125c-3.076-0.749-3.668-5.921-0.879-7.688
			c0.635-0.4,1.336-0.525,2.084-0.37c-0.179-0.041-0.374,0.007-0.579,0.155c-0.022-0.005-0.051-0.001-0.063,0.007
			c-0.012,0.009-0.004,0.021,0.019,0.025c0.021,0.005,0.048,0.002,0.061-0.006c0.012-0.01,0.004-0.021-0.017-0.026
			c0.205-0.148,0.4-0.196,0.581-0.154c1.827,0.467,2.513,2.313,2.629,3.33c0.256,2.236-0.736,3.717-1.751,4.357
			C45.611,8.327,44.757,8.204,44.431,8.125"/>
	</g>
	<g>
		<defs>
			<rect id="SVGID_5_" x="0" y="0" width="97.442" height="144.104"/>
		</defs>
		<clipPath id="SVGID_6_">
			<use xlink:href="#SVGID_5_"  overflow="visible"/>
		</clipPath>
		<path clip-path="url(#SVGID_6_)" fill="#B3B5B8" d="M47.552,6.73c-0.068,0.101-0.172,0.252-0.393,0.492
			c-0.206,0.205-0.25,0.248-0.478,0.422c-0.21,0.143-0.232,0.157-0.403,0.247c-0.185,0.088-0.192,0.091-0.305,0.134
			c-0.159,0.055-0.159,0.055-0.245,0.077c-0.138,0.034-0.138,0.034-0.207,0.047c-0.062,0.011-0.123,0.021-0.186,0.028
			c-0.057,0.005-0.114,0.01-0.173,0.014c-0.051,0.001-0.118,0.002-0.169,0.002c-0.058-0.001-0.116-0.002-0.173-0.008
			c-0.061-0.006-0.123-0.012-0.184-0.021c-0.135-0.023-0.138-0.023-0.207-0.039c-0.275-0.071-0.45-0.13-0.76-0.298
			c-0.171-0.104-0.318-0.195-0.531-0.382c-0.217-0.204-0.256-0.24-0.434-0.457c-0.204-0.275-0.226-0.305-0.353-0.525
			c-0.172-0.329-0.187-0.355-0.276-0.586c-0.13-0.373-0.138-0.396-0.195-0.637c-0.078-0.402-0.084-0.427-0.107-0.678
			c-0.008-0.14-0.02-0.327-0.021-0.467c0.015-0.434,0.016-0.451,0.047-0.7c0.071-0.414,0.074-0.429,0.139-0.664
			c0.123-0.385,0.127-0.399,0.222-0.619c0.166-0.343,0.175-0.363,0.302-0.565c0.196-0.286,0.218-0.316,0.379-0.502
			c0.145-0.151,0.308-0.322,0.546-0.495c0.21-0.143,0.231-0.157,0.402-0.247c0.185-0.088,0.192-0.091,0.306-0.134
			c0.158-0.056,0.158-0.056,0.243-0.077c0.139-0.034,0.139-0.034,0.208-0.047c0.062-0.01,0.123-0.021,0.186-0.028
			c0.058-0.005,0.115-0.011,0.173-0.014c0.051-0.002,0.118-0.002,0.169-0.002h0.049c-1.795,0.033,0.298,5.36,1.573,6.534
			c0.414,0.381,0.721,0.387,0.967,0.02C47.629,6.608,47.587,6.679,47.552,6.73"/>
	</g>
	<g>
		<defs>
			<rect id="SVGID_7_" x="0" y="0" width="97.442" height="144.104"/>
		</defs>
		<clipPath id="SVGID_8_">
			<use xlink:href="#SVGID_7_"  overflow="visible"/>
		</clipPath>
		<path clip-path="url(#SVGID_8_)" fill="#BCBEC0" d="M45.858,0.13l0.004,0.001c0.152,0.052,0.183,0.063,0.323,0.126
			c0.234,0.119,0.33,0.169,0.578,0.353c0.21,0.176,0.261,0.218,0.463,0.434c0.21,0.253,0.236,0.285,0.38,0.504
			c0.184,0.313,0.199,0.339,0.301,0.565c0.146,0.362,0.154,0.385,0.223,0.621c0.098,0.395,0.103,0.418,0.138,0.665
			c0.044,0.419,0.047,0.444,0.048,0.699c-0.013,0.418-0.016,0.471-0.064,0.806c-0.03,0.163-0.076,0.379-0.115,0.539
			c-0.525,1.664-2.44-1.513-2.458-1.547C44.637,1.973,44.742-0.21,45.858,0.13"/>
	</g>
</g>
<path fill="#C6C8CA" d="M46.577,0.477c0.056,0.04,0.132,0.092,0.187,0.133c0.21,0.176,0.261,0.218,0.463,0.434
	c0.21,0.253,0.236,0.285,0.38,0.504c0.184,0.313,0.199,0.339,0.301,0.565c0.146,0.362,0.154,0.385,0.223,0.621
	c0.098,0.395,0.103,0.418,0.138,0.665c0.045,0.424,0.046,0.441,0.048,0.686c-0.013,0.847-0.322,0.887-0.325,0.887
	C47.692,5,46.694,4.545,46.382,4.273c-0.011-0.008-1.004-0.888-1.15-2.434c-0.049-0.51,0.356-1.558,0.77-1.569
	C46.216,0.264,46.433,0.379,46.577,0.477"/>
<path fill="#D0D2D3" d="M47.394,1.252c0.751,0.957,0.838,1.993,0.795,2.186c-0.073,0.319-0.073,0.319-0.256,0.404
	c-0.067,0.031-0.172,0.02-0.244,0.036c-0.317,0.069-0.584,0.343-0.945,0.228c-0.557-0.178-1.202-1.15-1.302-1.963
	c-0.072-0.593,0.019-0.752,0.185-1.038c0.062-0.105,0.663-0.465,0.691-0.477C46.743,0.444,47.329,1.169,47.394,1.252"/>
<path fill="#DADCDD" d="M47.464,1.958c0.035,0.093,0.048,0.231,0.036,0.331c-0.009,0.084,0.029,0.196,0.015,0.28
	c-0.104,0.588-0.104,0.588-0.214,0.854c-0.064,0.157-0.273,0.435-0.6,0.37c-0.798-0.158-1.637-2.145-0.832-2.591
	C46.204,1.015,47.22,1.293,47.464,1.958"/>
<path fill="#E8E8E9" d="M47.153,2.393c0.092,0.399,0.011,0.675-0.045,0.804c-0.031,0.071-0.066,0.18-0.129,0.226
	c-0.082,0.062-0.221,0.122-0.321,0.11c-0.019-0.002-0.351-0.197-0.401-0.235c-0.06-0.046-0.112-0.136-0.16-0.195
	c-0.009-0.009-0.196-0.241-0.33-0.655c-0.159-0.491-0.079-0.946,0.19-1.081C46.317,1.185,46.988,1.669,47.153,2.393"/>
<path fill="#E8E8E9" d="M46.967,2.402c0.098,0.347-0.004,0.598-0.057,0.732c-0.038,0.095-0.198,0.163-0.3,0.159
	c-0.002,0-0.364-0.214-0.399-0.256c-0.194-0.231-0.297-0.505-0.332-0.61c-0.094-0.29-0.075-0.453-0.042-0.653
	c0.023-0.127,0.198-0.246,0.199-0.247C46.216,1.448,46.738,1.587,46.967,2.402"/>
<path fill="#E8E9EA" d="M46.852,2.534c0.007,0.092,0.019,0.227-0.025,0.308c-0.051,0.091-0.163,0.22-0.267,0.223
	c-0.021,0-0.364-0.264-0.408-0.313c-0.02-0.022-0.159-0.34-0.16-0.344c-0.019-0.059-0.08-0.269-0.049-0.462
	c0.004-0.022,0.152-0.251,0.167-0.257c0.002-0.001,0.234-0.064,0.477,0.212C46.819,2.165,46.849,2.497,46.852,2.534"/>
<path fill="#E8E9EA" d="M46.671,2.385c0.004,0.066,0.011,0.159-0.016,0.219c-0.031,0.07-0.087,0.188-0.162,0.193
	c-0.054,0.005-0.105-0.068-0.141-0.109c-0.073-0.086-0.179-0.201-0.213-0.308c-0.026-0.079-0.048-0.438,0.058-0.483
	C46.271,1.866,46.646,2.041,46.671,2.385"/>
<polyline fill="#B3B5B8" points="42.211,22.005 42.204,24.528 42.201,22.004 42.211,22.005 "/>
<polyline fill="#BCBEC0" points="42.201,22.004 42.204,24.528 42.197,22.005 42.201,22.004 "/>
<polyline fill="#C6C8CA" points="42.197,22.005 42.204,24.528 42.193,22.006 42.197,22.005 "/>
<polyline fill="#D0D2D3" points="42.193,22.006 42.204,24.528 42.19,22.01 42.192,22.007 42.193,22.006 "/>
<polyline fill="#B3B5B8" points="42.218,22.01 42.204,24.528 42.211,22.005 42.218,22.01 "/>
<path fill="#C6C8CA" d="M41.913,24.605c-0.78-0.188-1.313-0.995-1.327-2.007c0,0.231,0.297,0.455,0.823,0.576
	c0.778,0.179,1.765,0.066,2.203-0.251c0.142-0.103,0.21-0.213,0.21-0.323C43.771,24.197,42.68,24.791,41.913,24.605"/>
<path fill="#C6C8CA" d="M43.79,23.002c-0.039,0.205-0.041,0.213-0.075,0.329c-0.064,0.189-0.067,0.196-0.117,0.305
	c-0.086,0.168-0.092,0.178-0.156,0.277c-0.102,0.139-0.111,0.153-0.195,0.244c-0.103,0.104-0.124,0.123-0.238,0.211
	c-0.104,0.069-0.114,0.077-0.199,0.121c-0.093,0.045-0.095,0.046-0.149,0.066c-0.04,0.014-0.08,0.027-0.12,0.038
	c-0.033,0.008-0.066,0.017-0.1,0.021c-0.03,0.006-0.061,0.012-0.09,0.015c-0.027,0.003-0.056,0.006-0.083,0.007
	c-0.024,0-0.058,0.001-0.081,0.001c-0.028-0.001-0.057-0.001-0.083-0.004c-0.029-0.003-0.06-0.006-0.089-0.01
	c-0.033-0.006-0.067-0.012-0.101-0.02c-0.134-0.035-0.22-0.063-0.372-0.146c-0.082-0.05-0.158-0.098-0.264-0.189
	c-0.107-0.102-0.126-0.12-0.215-0.228c-0.103-0.138-0.113-0.152-0.177-0.263c-0.086-0.164-0.093-0.177-0.138-0.292
	c-0.064-0.186-0.068-0.196-0.097-0.317c-0.04-0.201-0.042-0.213-0.054-0.338c-0.005-0.07-0.011-0.163-0.012-0.234
	c0,0.231,0.297,0.455,0.823,0.576c0.711,0.164,1.596,0.084,2.079-0.173c0.09,0.035,0.33,0.128,0.334-0.4V22.6
	C43.816,22.77,43.813,22.865,43.79,23.002"/>
<path fill="#BCBEC0" d="M43.715,23.331c-0.023,0.072-0.052,0.164-0.117,0.305c-0.086,0.168-0.092,0.178-0.156,0.277
	c-0.102,0.139-0.111,0.153-0.195,0.244c-0.103,0.104-0.124,0.123-0.238,0.211c-0.104,0.069-0.114,0.077-0.199,0.121
	c-0.093,0.045-0.095,0.046-0.149,0.066c-0.04,0.014-0.08,0.027-0.12,0.038c-0.033,0.008-0.066,0.017-0.1,0.021
	c-0.03,0.006-0.061,0.012-0.09,0.015c-0.027,0.003-0.056,0.006-0.083,0.007c-0.024,0-0.058,0.001-0.081,0.001
	c-0.028-0.001-0.057-0.001-0.083-0.004c-0.029-0.003-0.06-0.006-0.089-0.01c-0.033-0.006-0.067-0.012-0.101-0.02
	c-0.134-0.035-0.22-0.063-0.372-0.146c-0.082-0.05-0.158-0.098-0.264-0.189c-0.107-0.102-0.126-0.12-0.215-0.228
	c-0.103-0.138-0.113-0.152-0.177-0.263c-0.086-0.164-0.093-0.177-0.138-0.292c-0.064-0.186-0.068-0.196-0.097-0.317
	c-0.04-0.201-0.042-0.213-0.054-0.338c-0.005-0.07-0.011-0.163-0.012-0.234c0,0.231,0.297,0.455,0.823,0.576
	c0.524,0.121,1.144,0.108,1.625-0.008c0.28,0.296,0.545,0.574,0.697,0.107C43.726,23.291,43.72,23.314,43.715,23.331"/>
<path fill="#B3B5B8" d="M43.441,23.913c-0.034,0.05-0.085,0.126-0.195,0.244c-0.103,0.104-0.124,0.123-0.238,0.211
	c-0.104,0.069-0.114,0.077-0.199,0.121c-0.093,0.045-0.095,0.046-0.149,0.066c-0.04,0.014-0.08,0.027-0.12,0.038
	c-0.033,0.008-0.066,0.017-0.1,0.021c-0.03,0.006-0.061,0.012-0.09,0.015c-0.027,0.003-0.056,0.006-0.083,0.007
	c-0.024,0-0.058,0.001-0.081,0.001c-0.028-0.001-0.057-0.001-0.083-0.004c-0.029-0.003-0.06-0.006-0.089-0.01
	c-0.033-0.006-0.067-0.012-0.101-0.02c-0.134-0.035-0.22-0.063-0.372-0.146c-0.082-0.05-0.158-0.098-0.264-0.189
	c-0.107-0.102-0.126-0.12-0.215-0.228c-0.103-0.138-0.113-0.152-0.177-0.263c-0.086-0.164-0.093-0.177-0.138-0.292
	c-0.064-0.186-0.068-0.196-0.097-0.317c-0.04-0.201-0.042-0.213-0.054-0.338c-0.005-0.07-0.011-0.163-0.012-0.234
	c0,0.231,0.297,0.455,0.823,0.576c0.38,0.088,0.811,0.105,1.201,0.063c0.271,0.473,0.645,0.957,0.885,0.59
	C43.479,23.853,43.458,23.888,43.441,23.913"/>
<path fill="#B3B5B8" d="M40.586,22.598v-0.589c0,0.23,0.297,0.455,0.823,0.576c0.38,0.087,0.809,0.105,1.201,0.063v0.589
	c-0.393,0.042-0.821,0.024-1.201-0.063C40.883,23.053,40.586,22.829,40.586,22.598"/>
<path fill="#BCBEC0" d="M42.61,23.238v-0.589c0.147-0.016,0.292-0.04,0.424-0.071v0.589C42.902,23.198,42.758,23.222,42.61,23.238"
	/>
<path fill="#C6C8CA" d="M43.034,23.166v-0.589c0.172-0.042,0.327-0.099,0.454-0.166V23C43.361,23.068,43.206,23.124,43.034,23.166"
	/>
<path fill="#D0D2D3" d="M43.488,23v-0.589c0.045-0.024,0.087-0.051,0.124-0.077c0.142-0.103,0.209-0.213,0.21-0.323v0.59
	c-0.001,0.11-0.068,0.22-0.21,0.322C43.575,22.951,43.533,22.976,43.488,23"/>
<polyline fill="#C6C8CA" points="43.822,22.601 43.822,22.01 43.822,22.601 "/>
<path fill="#B9BBBD" d="M42.999,21.435c0.778,0.179,1.052,0.581,0.613,0.899c-0.438,0.317-1.425,0.43-2.203,0.251
	c-0.778-0.18-1.053-0.582-0.614-0.9C41.234,21.368,42.221,21.255,42.999,21.435 M42.211,22.005
	c-0.007-0.002-0.015-0.001-0.019,0.002s-0.002,0.006,0.005,0.008c0.007,0.001,0.015,0,0.019-0.003
	C42.22,22.01,42.217,22.006,42.211,22.005z"/>
<path fill="#606264" d="M40.582,21.578v-0.375c0,0.229,0.296,0.453,0.822,0.575c0.289,0.066,0.607,0.094,0.914,0.083v0.375
	c-0.307,0.01-0.625-0.017-0.914-0.083C40.878,22.031,40.582,21.808,40.582,21.578"/>
<path fill="#696A6C" d="M42.319,22.237l-0.001-0.375c0.1-0.003,0.197-0.01,0.293-0.02v0.375
	C42.515,22.227,42.418,22.234,42.319,22.237"/>
<path fill="#707274" d="M42.611,22.217v-0.375c0.082-0.009,0.162-0.021,0.239-0.034v0.375
	C42.773,22.197,42.693,22.208,42.611,22.217"/>
<path fill="#787A7C" d="M42.85,22.183v-0.375c0.074-0.013,0.146-0.029,0.216-0.047v0.375C42.997,22.154,42.925,22.17,42.85,22.183"
	/>
<path fill="#7F8184" d="M43.066,22.136v-0.375c0.073-0.02,0.142-0.04,0.207-0.063v0.375C43.208,22.096,43.139,22.116,43.066,22.136"
	/>
<path fill="#87898B" d="M43.273,22.073v-0.375c0.081-0.029,0.155-0.063,0.221-0.099v0.375C43.428,22.01,43.354,22.043,43.273,22.073
	"/>
<path fill="#8E9093" d="M43.494,21.974v-0.375c0.041-0.021,0.079-0.046,0.114-0.071c0.141-0.102,0.209-0.213,0.209-0.322v0.375
	c0,0.109-0.068,0.221-0.209,0.322C43.573,21.928,43.535,21.952,43.494,21.974"/>
<polyline fill="#87898B" points="43.817,21.58 43.817,21.204 43.817,21.58 "/>
<polyline fill="#606264" points="42.199,9.042 42.213,21.579 42.206,21.573 42.199,9.042 "/>
<polyline fill="#606264" points="42.199,9.042 42.206,21.573 42.198,21.573 42.199,9.042 "/>
<polyline fill="#696A6C" points="42.199,9.042 42.198,21.573 42.196,21.573 42.199,9.042 "/>
<polyline fill="#707274" points="42.199,9.042 42.196,21.573 42.194,21.573 42.199,9.042 "/>
<polyline fill="#787A7C" points="42.199,9.042 42.194,21.573 42.192,21.573 42.199,9.042 "/>
<polyline fill="#7F8184" points="42.199,9.042 42.192,21.573 42.19,21.573 42.199,9.042 "/>
<polyline fill="#87898B" points="42.199,9.042 42.19,21.573 42.188,21.574 42.199,9.042 "/>
<polyline fill="#8E9093" points="42.199,9.042 42.188,21.574 42.187,21.576 42.185,21.579 42.199,9.042 "/>
<polyline fill="#87898B" points="42.199,9.042 42.185,21.579 42.199,9.042 "/>
<path fill="#606264" d="M40.582,21.203V10.97c0,0.229,0.296,0.454,0.822,0.575c0.289,0.066,0.607,0.093,0.914,0.084v10.232
	c-0.307,0.011-0.625-0.017-0.914-0.083C40.878,21.656,40.582,21.433,40.582,21.203"/>
<path fill="#696A6C" d="M42.319,21.862l-0.001-10.232c0.1-0.003,0.197-0.01,0.293-0.021v10.233
	C42.515,21.852,42.418,21.859,42.319,21.862"/>
<path fill="#707274" d="M42.611,21.842V11.609c0.082-0.009,0.162-0.021,0.239-0.034v10.233
	C42.773,21.822,42.693,21.833,42.611,21.842"/>
<path fill="#787A7C" d="M42.85,21.808V11.574c0.074-0.014,0.146-0.028,0.216-0.047v10.233C42.997,21.779,42.925,21.795,42.85,21.808
	"/>
<path fill="#7F8184" d="M43.066,21.761V11.528c0.073-0.019,0.142-0.04,0.207-0.063v10.233
	C43.208,21.721,43.139,21.741,43.066,21.761"/>
<path fill="#87898B" d="M43.273,21.698V11.464c0.081-0.029,0.155-0.063,0.221-0.099v10.233
	C43.428,21.635,43.354,21.668,43.273,21.698"/>
<path fill="#8E9093" d="M43.494,21.599V11.365c0.041-0.021,0.079-0.046,0.114-0.07c0.141-0.103,0.209-0.213,0.209-0.323v10.233
	c0,0.109-0.068,0.221-0.209,0.322C43.573,21.553,43.535,21.577,43.494,21.599"/>
<polyline fill="#87898B" points="43.817,21.205 43.817,10.972 43.817,10.971 43.817,21.205 "/>
<path fill="#87898B" d="M41.395,9.202c0.344-0.242,0.702-0.32,1.094-0.238c-0.089-0.021-0.187,0.003-0.29,0.078
	c0.104-0.075,0.201-0.099,0.291-0.077c0.777,0.197,1.323,1.022,1.327,2.006c0,0.11-0.067,0.221-0.209,0.324
	c-0.439,0.316-1.426,0.429-2.204,0.25c-0.526-0.121-0.822-0.346-0.822-0.575C40.616,9.904,41.106,9.404,41.395,9.202"/>
<polyline fill="#87898B" points="43.817,10.971 43.817,10.975 43.817,10.962 43.817,10.971 "/>
<path fill="#87898B" d="M42.49,8.965c0.089,0.021,0.155,0.041,0.268,0.092c0.095,0.047,0.114,0.057,0.2,0.113
	c-0.593-0.356-0.494,0.287-0.479,0.36c0.087,0.487,0.624,1.576,1.021,1.832c-0.478,0.266-1.375,0.349-2.095,0.183
	c-0.526-0.121-0.822-0.346-0.822-0.575c0.007-0.217,0.007-0.226,0.023-0.349c0.035-0.207,0.037-0.216,0.068-0.332
	c0.061-0.189,0.063-0.2,0.111-0.31c0.081-0.168,0.087-0.181,0.15-0.282c0.098-0.143,0.107-0.157,0.188-0.251
	c0.072-0.074,0.153-0.158,0.271-0.244c0.104-0.071,0.115-0.078,0.199-0.123c0.091-0.043,0.095-0.045,0.15-0.066
	C41.784,9,41.824,8.986,41.864,8.975c0.034-0.008,0.067-0.016,0.1-0.021c0.031-0.006,0.061-0.011,0.091-0.015
	c0.027-0.002,0.055-0.005,0.083-0.006c0.023-0.001,0.057-0.002,0.08-0.002c0.028,0.001,0.056,0.001,0.083,0.004
	c0.03,0.003,0.061,0.006,0.09,0.01C42.423,8.951,42.457,8.957,42.49,8.965c-0.09-0.021-0.188,0.002-0.291,0.077
	C42.302,8.967,42.4,8.944,42.49,8.965"/>
<path fill="#7F8184" d="M42.49,8.965c0.088,0.021,0.155,0.041,0.265,0.09c-0.582-0.219-0.495,0.483-0.151,1.275
	c0.209,0.479,0.51,0.962,0.67,1.134c-0.502,0.182-1.251,0.224-1.869,0.081c-0.526-0.121-0.822-0.346-0.822-0.575
	c0.007-0.217,0.007-0.226,0.023-0.349c0.035-0.207,0.037-0.216,0.068-0.332c0.061-0.189,0.063-0.2,0.111-0.31
	c0.081-0.168,0.087-0.181,0.15-0.282c0.098-0.143,0.107-0.157,0.188-0.251c0.072-0.074,0.153-0.158,0.271-0.244
	c0.104-0.071,0.114-0.078,0.199-0.123c0.091-0.043,0.095-0.045,0.15-0.066C41.784,9,41.824,8.986,41.864,8.975
	c0.034-0.008,0.067-0.016,0.1-0.021c0.031-0.006,0.061-0.011,0.091-0.015c0.027-0.002,0.055-0.005,0.083-0.006
	c0.023-0.001,0.057-0.002,0.08-0.002c0.028,0.001,0.056,0.001,0.083,0.004c0.03,0.003,0.061,0.006,0.09,0.01
	C42.423,8.951,42.457,8.957,42.49,8.965c-0.09-0.021-0.188,0.002-0.291,0.077C42.302,8.967,42.4,8.944,42.49,8.965"/>
<path fill="#787A7C" d="M42.49,8.965c0.034,0.008,0.078,0.02,0.112,0.031c-0.906-0.231-0.089,1.647,0.282,2.25
	c0.06,0.095,0.123,0.187,0.182,0.281c-0.487,0.126-1.124,0.142-1.662,0.018c-0.526-0.121-0.822-0.346-0.822-0.575
	c0.007-0.217,0.007-0.226,0.023-0.349c0.035-0.207,0.037-0.216,0.068-0.332c0.061-0.189,0.063-0.2,0.111-0.31
	c0.081-0.168,0.087-0.181,0.15-0.282c0.098-0.143,0.107-0.157,0.188-0.251c0.072-0.074,0.153-0.158,0.271-0.244
	c0.104-0.071,0.115-0.078,0.199-0.123c0.091-0.043,0.095-0.045,0.15-0.066C41.784,9,41.824,8.986,41.864,8.975
	c0.034-0.008,0.067-0.016,0.1-0.021c0.031-0.006,0.061-0.011,0.091-0.015c0.027-0.002,0.055-0.005,0.083-0.006
	c0.023-0.001,0.057-0.002,0.08-0.002c0.028,0.001,0.056,0.001,0.083,0.004c0.03,0.003,0.061,0.006,0.09,0.01
	C42.423,8.951,42.457,8.957,42.49,8.965c-0.09-0.021-0.188,0.002-0.291,0.077C42.302,8.967,42.4,8.944,42.49,8.965"/>
<path fill="#707274" d="M41.404,11.545c-0.526-0.121-0.822-0.346-0.822-0.575c0.007-0.217,0.007-0.226,0.023-0.349
	c0.035-0.207,0.037-0.216,0.068-0.332c0.061-0.189,0.063-0.2,0.111-0.31c0.081-0.168,0.087-0.181,0.15-0.282
	c0.098-0.143,0.107-0.157,0.188-0.251c0.072-0.074,0.153-0.158,0.271-0.244c0.104-0.071,0.114-0.078,0.199-0.123
	c0.091-0.043,0.095-0.045,0.15-0.066C41.784,9,41.824,8.986,41.864,8.975c0.034-0.008,0.067-0.016,0.1-0.021
	c0.031-0.006,0.061-0.011,0.091-0.015c0.027-0.002,0.055-0.005,0.083-0.006c0.023-0.001,0.057-0.002,0.08-0.002
	c0.028,0.001,0.056,0.001,0.083,0.004c0.03,0.003,0.061,0.006,0.09,0.01l0.027,0.005c-0.458-0.06-0.627,0.715,0.433,2.625
	C42.4,11.655,41.866,11.652,41.404,11.545"/>
<path fill="#696A6C" d="M41.404,11.545c-0.526-0.121-0.822-0.346-0.822-0.575c0.007-0.217,0.007-0.226,0.023-0.349
	c0.035-0.207,0.037-0.216,0.068-0.332c0.061-0.189,0.063-0.2,0.111-0.31c0.081-0.168,0.087-0.181,0.15-0.282
	c0.098-0.143,0.107-0.157,0.188-0.251c0.072-0.074,0.153-0.158,0.271-0.244c0.104-0.071,0.114-0.078,0.199-0.123
	c0.091-0.043,0.095-0.045,0.15-0.066C41.784,9,41.824,8.986,41.864,8.975c0.034-0.008,0.067-0.016,0.1-0.021
	c0.031-0.006,0.061-0.011,0.091-0.015c0.027-0.002,0.055-0.005,0.083-0.006c0.023-0.001,0.057-0.002,0.08-0.002l0.024,0.001
	c-0.479,0.012-0.509,0.937,0.367,2.677C42.217,11.651,41.786,11.633,41.404,11.545"/>
<path fill="#606264" d="M41.404,11.545c-0.526-0.121-0.822-0.346-0.822-0.575c0.007-0.217,0.007-0.226,0.023-0.349
	c0.035-0.207,0.037-0.216,0.068-0.332c0.061-0.189,0.063-0.2,0.111-0.31c0.081-0.168,0.087-0.181,0.15-0.282
	c0.098-0.143,0.107-0.157,0.188-0.251c0.072-0.074,0.153-0.158,0.271-0.244c0.104-0.071,0.114-0.078,0.199-0.123
	c0.091-0.043,0.095-0.045,0.15-0.066C41.784,9,41.824,8.986,41.864,8.975c0.034-0.008,0.067-0.016,0.1-0.021
	c0.019-0.004,0.042-0.008,0.061-0.011c-0.288,0.057-0.6,0.688,0.289,2.687C42.007,11.638,41.692,11.611,41.404,11.545"/>
<path fill="#8E9093" d="M43.184,9.353c0.026,0.028,0.063,0.065,0.09,0.094c0.104,0.126,0.118,0.143,0.188,0.251
	c0.093,0.156,0.101,0.169,0.151,0.282c0.072,0.182,0.077,0.191,0.111,0.311c0.015,0.062,0.036,0.145,0.048,0.208
	c0.086,0.521-0.057,0.608-0.086,0.621c-0.244,0.102-0.649-0.606-0.782-0.84c-0.229-0.4-0.351-0.904-0.291-1.036
	C42.757,8.933,43.179,9.349,43.184,9.353"/>
<path fill="#96989B" d="M43.475,9.719c0.323,0.537,0.342,1.052,0.183,1.103c-0.212,0.068-0.601-0.581-0.604-0.587
	c-0.122-0.213-0.394-0.73-0.276-0.942C42.89,9.091,43.261,9.363,43.475,9.719"/>
<path fill="#9EA0A2" d="M43.5,9.804c0.024,0.04,0.135,0.3,0.145,0.38c0.007,0.06,0.02,0.143,0.006,0.201
	c-0.008,0.032-0.04,0.079-0.073,0.086c-0.001,0-0.132-0.036-0.166-0.072c-0.164-0.178-0.164-0.178-0.35-0.484
	c-0.065-0.106-0.16-0.365-0.114-0.484c0.006-0.017,0.021-0.038,0.037-0.047C42.986,9.381,43.179,9.274,43.5,9.804"/>
<g enable-background="new    ">
	<path d="M31.672,44.065v5.389h-1.047v-4.478h-1.071v4.478h-1.047v-5.389H31.672z"/>
	<path d="M35.328,47.487c0,1.631-0.903,2.03-1.495,2.03c-0.936,0-1.495-0.735-1.495-2.007c0-1.407,0.735-2.03,1.511-2.03
		C34.769,45.48,35.328,46.255,35.328,47.487z M33.378,47.487c0,0.672,0.104,1.231,0.479,1.231c0.336,0,0.424-0.656,0.424-1.231
		c0-0.536-0.088-1.216-0.44-1.216C33.457,46.271,33.378,46.95,33.378,47.487z"/>
	<path d="M38.688,45.543v3.91h-1.047v-3.07h-0.584v0.848c0,1.047-0.104,1.863-0.799,2.183c-0.168,0.08-0.368,0.128-0.536,0.128
		l-0.168-0.84c0.192-0.048,0.28-0.151,0.352-0.271c0.144-0.256,0.176-0.735,0.176-1.176v-1.711H38.688z"/>
	<path d="M40.457,45.543v1.248c0.152-0.024,0.271-0.032,0.408-0.032c0.855,0,1.599,0.392,1.599,1.335c0,0.464-0.208,0.8-0.496,1.016
		c-0.408,0.296-0.983,0.384-1.519,0.384c-0.344,0-0.728-0.032-1.023-0.072v-3.878H40.457z M40.457,48.718
		c0.08,0.008,0.144,0.008,0.224,0.008c0.376,0,0.728-0.184,0.728-0.6c0-0.424-0.36-0.6-0.735-0.6c-0.08,0-0.144,0.008-0.216,0.016
		V48.718z"/>
	<path d="M43.338,47.087h0.328c0.384,0,0.624-0.168,0.624-0.456c0-0.256-0.192-0.432-0.56-0.432c-0.224,0-0.488,0.088-0.688,0.191
		l-0.16-0.647c0.28-0.16,0.695-0.264,1.175-0.264c0.863,0,1.295,0.439,1.295,0.991c0,0.464-0.328,0.768-0.808,0.88v0.016
		c0.56,0.08,0.951,0.448,0.951,0.96c0,0.799-0.799,1.19-1.679,1.19c-0.408,0-0.776-0.088-1.056-0.224l0.176-0.695
		c0.184,0.08,0.496,0.168,0.76,0.168c0.52,0,0.72-0.24,0.72-0.479c0-0.368-0.36-0.512-0.744-0.512h-0.336V47.087z"/>
	<path d="M48.904,47.487c0,1.631-0.903,2.03-1.495,2.03c-0.936,0-1.495-0.735-1.495-2.007c0-1.407,0.735-2.03,1.511-2.03
		C48.344,45.48,48.904,46.255,48.904,47.487z M46.953,47.487c0,0.672,0.104,1.231,0.479,1.231c0.336,0,0.424-0.656,0.424-1.231
		c0-0.536-0.088-1.216-0.44-1.216C47.033,46.271,46.953,46.95,46.953,47.487z"/>
	<path d="M49.498,45.56c0.319-0.048,0.735-0.08,1.136-0.08c0.688,0,1.727,0.104,1.727,0.983c0,0.495-0.352,0.808-0.752,0.903v0.016
		c0.584,0.097,0.92,0.464,0.92,0.928c0,1.04-1.271,1.191-2.07,1.191c-0.368,0-0.736-0.016-0.96-0.04V45.56z M50.497,48.798
		c0.072,0.016,0.176,0.023,0.264,0.023c0.369,0,0.729-0.128,0.729-0.512c0-0.367-0.336-0.527-0.744-0.527h-0.248V48.798z
		 M50.505,47.103h0.24c0.344,0,0.641-0.168,0.641-0.488c0-0.304-0.24-0.455-0.616-0.455c-0.097,0-0.185,0.008-0.265,0.023V47.103z"
		/>
	<path d="M55.784,48.558c0,0.312,0.016,0.632,0.064,0.896h-0.943l-0.057-0.384h-0.016c-0.216,0.304-0.52,0.447-0.863,0.447
		c-0.592,0-1.031-0.495-1.031-1.19c0-1.023,0.902-1.447,1.791-1.456v-0.088c0-0.304-0.184-0.527-0.553-0.527
		c-0.311,0-0.566,0.08-0.799,0.224l-0.191-0.703c0.215-0.128,0.671-0.296,1.215-0.296c1.191,0,1.383,0.831,1.383,1.623V48.558z
		 M54.76,47.55c-0.352,0.009-0.831,0.12-0.831,0.664c0,0.392,0.216,0.535,0.376,0.535c0.168,0,0.359-0.104,0.432-0.335
		c0.016-0.057,0.023-0.12,0.023-0.185V47.55z"/>
	<path d="M58.96,45.543v0.848h-0.871v3.063h-1.055v-3.063h-0.872v-0.848H58.96z"/>
	<path d="M60.169,47.87c0.017,0.607,0.368,0.831,0.832,0.831c0.296,0,0.56-0.063,0.744-0.128l0.144,0.752
		c-0.272,0.104-0.68,0.176-1.079,0.176c-1.064,0-1.647-0.703-1.647-1.927c0-1.312,0.68-2.095,1.567-2.095
		c0.84,0,1.327,0.663,1.327,1.847c0,0.28-0.009,0.432-0.032,0.544H60.169z M61.104,47.135c0-0.504-0.127-0.896-0.439-0.896
		c-0.344,0-0.479,0.503-0.488,0.896H61.104z"/>
	<path d="M65.417,45.543v3.91h-1.048v-3.07h-0.583v0.848c0,1.047-0.104,1.863-0.801,2.183c-0.168,0.08-0.367,0.128-0.535,0.128
		l-0.168-0.84c0.191-0.048,0.279-0.151,0.352-0.271c0.145-0.256,0.176-0.735,0.176-1.176v-1.711H65.417z"/>
	<path d="M67.185,45.543v1.248c0.151-0.024,0.271-0.032,0.407-0.032c0.855,0,1.6,0.392,1.6,1.335c0,0.464-0.208,0.8-0.496,1.016
		c-0.408,0.296-0.983,0.384-1.52,0.384c-0.344,0-0.727-0.032-1.023-0.072v-3.878H67.185z M67.185,48.718
		c0.079,0.008,0.144,0.008,0.224,0.008c0.376,0,0.728-0.184,0.728-0.6c0-0.424-0.36-0.6-0.735-0.6c-0.08,0-0.145,0.008-0.216,0.016
		V48.718z"/>
</g>
<g enable-background="new    ">
	<path d="M29.86,57.8v5.389h-1.047v-4.478h-1.071v4.478h-1.047V57.8H29.86z"/>
	<path d="M30.686,60.518c0-0.472-0.016-0.871-0.032-1.239h0.912l0.056,0.448h0.016c0.16-0.32,0.456-0.512,0.815-0.512
		c0.863,0,1.215,0.936,1.215,2.015c0,1.392-0.616,2.022-1.271,2.022c-0.32,0-0.536-0.199-0.647-0.383h-0.016v1.854h-1.047V60.518z
		 M31.733,61.757c0,0.137,0.016,0.256,0.056,0.336c0.08,0.24,0.216,0.304,0.335,0.304c0.368,0,0.496-0.543,0.496-1.159
		c0-0.743-0.176-1.144-0.488-1.144c-0.16,0-0.312,0.152-0.352,0.336c-0.04,0.08-0.048,0.185-0.048,0.28V61.757z"/>
	<path d="M35.141,61.606c0.016,0.607,0.368,0.831,0.832,0.831c0.296,0,0.56-0.063,0.744-0.128l0.144,0.752
		c-0.272,0.104-0.68,0.176-1.08,0.176c-1.063,0-1.647-0.703-1.647-1.927c0-1.312,0.68-2.095,1.567-2.095
		c0.84,0,1.328,0.663,1.328,1.847c0,0.28-0.008,0.432-0.032,0.544H35.141z M36.077,60.87c0-0.504-0.128-0.896-0.44-0.896
		c-0.344,0-0.479,0.503-0.488,0.896H36.077z"/>
	<path d="M40.58,59.279v3.143l0.36,0.016l-0.04,1.831h-0.792l-0.048-1.079h-1.895l-0.056,1.079h-0.783l-0.04-1.831l0.32-0.016
		c0.136-0.216,0.232-0.52,0.288-0.8c0.088-0.407,0.128-0.848,0.128-1.279v-1.063H40.58z M38.941,60.414
		c0,0.384-0.032,0.8-0.096,1.191c-0.048,0.279-0.12,0.544-0.24,0.791h0.943v-2.311h-0.608V60.414z"/>
	<path d="M43.557,63.125c-0.104,0.048-0.368,0.111-0.664,0.111c-0.992,0-1.639-0.688-1.639-1.967c0-1.207,0.711-2.047,1.791-2.047
		c0.248,0,0.472,0.056,0.576,0.104l-0.136,0.824c-0.088-0.032-0.216-0.072-0.392-0.072c-0.503,0-0.799,0.479-0.799,1.159
		c0,0.712,0.296,1.144,0.783,1.144c0.152,0,0.28-0.023,0.392-0.08L43.557,63.125z"/>
	<path d="M46.724,59.279v0.848h-0.872v3.063h-1.055v-3.063h-0.872v-0.848H46.724z"/>
	<path d="M49.7,62.293c0,0.312,0.016,0.632,0.064,0.896h-0.944l-0.056-0.384h-0.016c-0.216,0.304-0.52,0.447-0.863,0.447
		c-0.592,0-1.032-0.495-1.032-1.19c0-1.023,0.904-1.447,1.791-1.456v-0.088c0-0.304-0.184-0.527-0.552-0.527
		c-0.312,0-0.567,0.08-0.799,0.224l-0.192-0.703c0.216-0.128,0.671-0.296,1.215-0.296c1.191,0,1.383,0.831,1.383,1.623V62.293z
		 M48.677,61.285c-0.352,0.009-0.832,0.12-0.832,0.664c0,0.392,0.216,0.535,0.375,0.535c0.168,0,0.36-0.104,0.432-0.335
		c0.016-0.057,0.024-0.12,0.024-0.185V61.285z"/>
	<path d="M50.446,59.295c0.319-0.048,0.735-0.08,1.135-0.08c0.688,0,1.728,0.104,1.728,0.983c0,0.495-0.353,0.808-0.752,0.903v0.016
		c0.584,0.097,0.919,0.464,0.919,0.928c0,1.04-1.271,1.191-2.07,1.191c-0.367,0-0.735-0.016-0.959-0.04V59.295z M51.445,62.533
		c0.072,0.016,0.176,0.023,0.264,0.023c0.368,0,0.728-0.128,0.728-0.512c0-0.367-0.336-0.527-0.743-0.527h-0.248V62.533z
		 M51.453,60.838h0.24c0.344,0,0.64-0.168,0.64-0.488c0-0.304-0.24-0.455-0.615-0.455c-0.097,0-0.185,0.008-0.265,0.023V60.838z"/>
	<path d="M56.852,59.279v3.91h-1.047v-3.07h-0.584v0.848c0,1.047-0.104,1.863-0.8,2.183c-0.168,0.08-0.368,0.128-0.536,0.128
		l-0.168-0.84c0.192-0.048,0.28-0.151,0.353-0.271c0.144-0.256,0.176-0.735,0.176-1.176v-1.711H56.852z"/>
	<path d="M58.462,61.606c0.016,0.607,0.367,0.831,0.831,0.831c0.296,0,0.56-0.063,0.743-0.128l0.145,0.752
		c-0.271,0.104-0.68,0.176-1.08,0.176c-1.063,0-1.646-0.703-1.646-1.927c0-1.312,0.68-2.095,1.566-2.095
		c0.84,0,1.328,0.663,1.328,1.847c0,0.28-0.008,0.432-0.032,0.544H58.462z M59.397,60.87c0-0.504-0.129-0.896-0.44-0.896
		c-0.344,0-0.479,0.503-0.487,0.896H59.397z"/>
	<path d="M61.989,59.279v1.479h0.824v-1.479h1.047v3.91h-1.047v-1.543h-0.824v1.543h-1.047v-3.91H61.989z"/>
	<path d="M65.541,59.279v0.84c0,0.72-0.04,1.407-0.079,1.807h0.023c0.128-0.407,0.304-0.847,0.432-1.159l0.592-1.487H67.5v3.91
		h-0.951v-0.855c0-0.792,0.04-1.239,0.063-1.759h-0.023c-0.12,0.407-0.225,0.735-0.376,1.111c-0.104,0.264-0.416,1.031-0.64,1.503
		h-0.976v-3.91H65.541z"/>
	<path d="M69.1,61.606c0.017,0.607,0.368,0.831,0.832,0.831c0.296,0,0.56-0.063,0.744-0.128l0.144,0.752
		c-0.272,0.104-0.68,0.176-1.079,0.176c-1.064,0-1.647-0.703-1.647-1.927c0-1.312,0.68-2.095,1.567-2.095
		c0.84,0,1.327,0.663,1.327,1.847c0,0.28-0.009,0.432-0.032,0.544H69.1z M70.036,60.87c0-0.504-0.127-0.896-0.439-0.896
		c-0.344,0-0.479,0.503-0.487,0.896H70.036z"/>
</g>
<g enable-background="new    ">
	<path d="M15.054,97.133v2.511h0.128l1.319-2.511h0.368l-1.367,2.542c0.736,0.104,0.959,0.712,1.096,1.367
		c0.104,0.496,0.176,1.031,0.352,1.479h-0.36c-0.128-0.336-0.224-0.928-0.32-1.399c-0.136-0.663-0.335-1.207-1.111-1.207h-0.104
		v2.606H14.71v-5.389H15.054z"/>
	<path d="M18.422,102.585c-0.543,0-1.111-0.567-1.111-1.982s0.568-1.982,1.167-1.982c0.543,0,1.104,0.567,1.104,1.982
		s-0.568,1.982-1.151,1.982H18.422z M18.454,102.281c0.647,0,0.768-1.055,0.768-1.679s-0.12-1.679-0.784-1.679
		c-0.647,0-0.768,1.055-0.768,1.679s0.12,1.679,0.775,1.679H18.454z"/>
	<path d="M20.678,98.684v1.735h1.352v-1.735h0.344v3.838H22.03v-1.799h-1.352v1.799h-0.344v-3.838H20.678z"/>
	<path d="M25.013,98.684v0.304h-0.887v3.534h-0.344v-3.534h-0.887v-0.304H25.013z"/>
	<path d="M25.478,99.867c0-0.672-0.024-0.976-0.032-1.184h0.328l0.016,0.512h0.016c0.24-0.472,0.552-0.575,0.815-0.575
		c0.56,0,1.063,0.575,1.063,1.967c0,1.463-0.583,1.998-1.151,1.998c-0.392,0-0.591-0.247-0.695-0.487h-0.016v1.959h-0.344V99.867z
		 M25.822,101.107c0,0.104,0,0.208,0.016,0.312c0.144,0.744,0.503,0.863,0.704,0.863c0.6,0,0.783-0.799,0.783-1.679
		c0-0.84-0.2-1.679-0.799-1.679c-0.352,0-0.664,0.472-0.696,0.927c-0.008,0.104-0.008,0.2-0.008,0.305V101.107z"/>
	<path d="M29.357,102.585c-0.543,0-1.111-0.567-1.111-1.982s0.568-1.982,1.167-1.982c0.543,0,1.104,0.567,1.104,1.982
		s-0.568,1.982-1.151,1.982H29.357z M29.389,102.281c0.647,0,0.768-1.055,0.768-1.679s-0.12-1.679-0.784-1.679
		c-0.647,0-0.768,1.055-0.768,1.679s0.12,1.679,0.775,1.679H29.389z"/>
	<path d="M33.165,98.684v3.838h-0.344V98.98h-1.016v1.463c0,1.128-0.064,1.799-0.56,2.047c-0.096,0.048-0.208,0.072-0.336,0.072
		l-0.072-0.271c0.128-0.017,0.232-0.064,0.312-0.12c0.28-0.216,0.312-0.8,0.312-1.68v-1.807H33.165z"/>
	<path d="M34.453,98.684v1.439c0.152-0.008,0.264-0.024,0.352-0.024c0.751,0,1.399,0.376,1.399,1.191
		c0,0.392-0.144,0.695-0.384,0.903c-0.271,0.24-0.647,0.368-1.063,0.368c-0.216,0-0.432-0.024-0.648-0.056v-3.822H34.453z
		 M34.453,102.234c0.112,0.017,0.2,0.024,0.312,0.024c0.592,0,1.071-0.304,1.071-0.943c0-0.656-0.504-0.92-1.104-0.92
		c-0.112,0-0.192,0.008-0.28,0.024V102.234z"/>
	<path d="M38.485,98.684v1.735h1.352v-1.735h0.344v3.838h-0.344v-1.799h-1.352v1.799h-0.344v-3.838H38.485z"/>
	<path d="M42.805,101.658c0,0.279,0,0.623,0.032,0.863h-0.32l-0.032-0.424h-0.024c-0.144,0.296-0.392,0.487-0.72,0.487
		c-0.472,0-0.848-0.399-0.848-1.055c0-0.928,0.696-1.359,1.567-1.367v-0.145c0-0.655-0.104-1.095-0.664-1.095
		c-0.192,0-0.392,0.071-0.544,0.184l-0.096-0.264c0.128-0.112,0.424-0.224,0.711-0.224c0.52,0,0.936,0.304,0.936,1.223V101.658z
		 M42.461,100.459c-0.296,0-1.208,0.023-1.208,1.047c0,0.576,0.28,0.775,0.536,0.775c0.328,0,0.584-0.264,0.656-0.728
		c0.016-0.088,0.016-0.176,0.016-0.248V100.459z"/>
	<path d="M45.748,98.684v3.534h0.304l-0.032,1.303h-0.272l-0.032-0.999h-2.063l-0.032,0.999h-0.272l-0.032-1.303h0.216
		c0.176-0.271,0.312-0.552,0.408-0.84c0.144-0.455,0.208-0.943,0.208-1.527v-1.167H45.748z M44.461,99.699
		c0,0.632-0.04,1.224-0.208,1.743c-0.088,0.279-0.2,0.535-0.352,0.775h1.503v-3.23h-0.944V99.699z"/>
	<path d="M49.421,96.989v1.64c0.695,0.063,1.271,0.64,1.271,1.975c0,1.312-0.552,1.895-1.271,1.967v1.487h-0.328v-1.487
		c-0.704-0.056-1.271-0.64-1.271-1.967c0-1.304,0.552-1.887,1.271-1.967v-1.647H49.421z M49.093,98.924
		c-0.704,0.111-0.912,0.959-0.912,1.679c0,0.68,0.192,1.56,0.912,1.679V98.924z M49.421,102.281c0.72-0.119,0.912-0.976,0.912-1.679
		c0-0.72-0.192-1.56-0.912-1.679V102.281z"/>
	<path d="M51.374,98.684l0.592,2.335c0.088,0.344,0.127,0.623,0.191,0.888h0.016c0.049-0.232,0.137-0.568,0.208-0.888l0.544-2.335
		h0.352l-0.527,2.15c-0.271,1.12-0.544,2.167-1.016,2.807c-0.232,0.32-0.455,0.496-0.576,0.568l-0.176-0.288
		c0.185-0.12,0.385-0.32,0.568-0.584c0.168-0.248,0.304-0.567,0.359-0.768c0.032-0.111,0.04-0.151,0.04-0.208
		c0-0.048,0-0.096-0.016-0.144l-0.911-3.534H51.374z"/>
	<path d="M54.237,98.684v1.735h1.352v-1.735h0.344v3.838h-0.344v-1.799h-1.352v1.799h-0.344v-3.838H54.237z"/>
	<path d="M57.221,98.684v1.751h0.072l1.223-1.751h0.432l-1.335,1.775c0.624,0.063,0.927,0.535,1.095,1.087
		c0.104,0.336,0.176,0.664,0.305,0.976h-0.368c-0.096-0.256-0.185-0.567-0.28-0.871c-0.184-0.616-0.432-0.944-1.087-0.944h-0.056
		v1.815h-0.344v-3.838H57.221z"/>
	<path d="M59.917,98.684v3.534h1.295v-3.534h0.344v3.534h0.305l-0.032,1.303h-0.272l-0.031-0.999h-1.951v-3.838H59.917z"/>
	<path d="M62.909,98.684v1.623c0,0.64,0.008,1.151-0.04,1.887h0.016c0.2-0.575,0.456-1.199,0.655-1.727l0.68-1.783h0.432v3.838
		h-0.327v-1.527c0-0.863,0.008-1.327,0.056-1.967h-0.016c-0.152,0.527-0.344,1.023-0.52,1.479c-0.137,0.352-0.52,1.295-0.84,2.015
		h-0.424v-3.838H62.909z"/>
	<path d="M66.516,102.585c-0.543,0-1.111-0.567-1.111-1.982s0.568-1.982,1.168-1.982c0.543,0,1.104,0.567,1.104,1.982
		s-0.568,1.982-1.152,1.982H66.516z M66.549,102.281c0.647,0,0.768-1.055,0.768-1.679s-0.12-1.679-0.784-1.679
		c-0.646,0-0.768,1.055-0.768,1.679s0.121,1.679,0.775,1.679H66.549z"/>
	<path d="M68.772,98.684v1.735h1.352v-1.735h0.344v3.838h-0.344v-1.799h-1.352v1.799h-0.344v-3.838H68.772z"/>
	<path d="M73.093,101.658c0,0.279,0,0.623,0.031,0.863h-0.32l-0.031-0.424h-0.023c-0.145,0.296-0.393,0.487-0.721,0.487
		c-0.471,0-0.848-0.399-0.848-1.055c0-0.928,0.696-1.359,1.568-1.367v-0.145c0-0.655-0.104-1.095-0.664-1.095
		c-0.191,0-0.393,0.071-0.544,0.184l-0.096-0.264c0.128-0.112,0.424-0.224,0.712-0.224c0.52,0,0.936,0.304,0.936,1.223V101.658z
		 M72.749,100.459c-0.297,0-1.208,0.023-1.208,1.047c0,0.576,0.28,0.775,0.536,0.775c0.328,0,0.584-0.264,0.655-0.728
		c0.017-0.088,0.017-0.176,0.017-0.248V100.459z"/>
	<path d="M75.891,98.684v3.838h-0.344V98.98h-1.016v1.463c0,1.128-0.063,1.799-0.559,2.047c-0.096,0.048-0.209,0.072-0.336,0.072
		l-0.072-0.271c0.128-0.017,0.232-0.064,0.313-0.12c0.279-0.216,0.311-0.8,0.311-1.68v-1.807H75.891z"/>
	<path d="M77.757,102.585c-0.544,0-1.111-0.567-1.111-1.982s0.567-1.982,1.167-1.982c0.544,0,1.104,0.567,1.104,1.982
		s-0.567,1.982-1.151,1.982H77.757z M77.788,102.281c0.648,0,0.768-1.055,0.768-1.679s-0.119-1.679-0.783-1.679
		c-0.647,0-0.768,1.055-0.768,1.679s0.12,1.679,0.775,1.679H77.788z"/>
	<path d="M79.789,98.684h0.376l0.639,1.975c0.168,0.521,0.272,0.84,0.4,1.288h0.016c0.137-0.496,0.217-0.752,0.385-1.288
		l0.623-1.975h0.392l0.272,3.838h-0.336l-0.096-1.847c-0.032-0.592-0.049-0.92-0.064-1.607h-0.023
		c-0.112,0.439-0.24,0.863-0.416,1.407l-0.656,2.047h-0.207l-0.624-1.935c-0.192-0.6-0.319-1.016-0.44-1.52h-0.023
		c0,0.496-0.023,1.008-0.057,1.655l-0.088,1.799h-0.327L79.789,98.684z"/>
</g>
<g enable-background="new    ">
	<path d="M24.049,66.466v5.389h-0.344V66.77h-1.719v5.085h-0.344v-5.389H24.049z"/>
	<path d="M25.01,69.2c0-0.672-0.024-0.976-0.032-1.184h0.328l0.016,0.512h0.016c0.24-0.472,0.552-0.575,0.815-0.575
		c0.56,0,1.063,0.575,1.063,1.967c0,1.463-0.583,1.998-1.151,1.998c-0.392,0-0.592-0.247-0.695-0.487h-0.016v1.959H25.01V69.2z
		 M25.354,70.44c0,0.104,0,0.208,0.016,0.312c0.144,0.744,0.503,0.863,0.704,0.863c0.6,0,0.783-0.799,0.783-1.679
		c0-0.84-0.2-1.679-0.799-1.679c-0.352,0-0.664,0.472-0.696,0.927c-0.008,0.104-0.008,0.2-0.008,0.305V70.44z"/>
	<path d="M28.13,69.792c0,1.543,0.536,1.807,0.967,1.807c0.248,0,0.448-0.063,0.576-0.152l0.08,0.265
		c-0.184,0.128-0.464,0.191-0.72,0.191c-0.839,0-1.255-0.791-1.255-1.951c0-1.215,0.44-1.998,1.144-1.998
		c0.759,0,0.967,0.935,0.967,1.614c0,0.072,0,0.145,0,0.225H28.13z M29.521,69.512c0.016-0.943-0.376-1.255-0.656-1.255
		c-0.448,0-0.688,0.64-0.728,1.255H29.521z"/>
	<path d="M32.593,68.017v3.534h0.304l-0.032,1.303h-0.272l-0.032-0.999h-2.063l-0.032,0.999h-0.272l-0.032-1.303h0.216
		c0.176-0.271,0.312-0.552,0.408-0.84c0.144-0.455,0.208-0.943,0.208-1.527v-1.167H32.593z M31.305,69.032
		c0,0.632-0.04,1.224-0.208,1.743c-0.088,0.279-0.2,0.535-0.352,0.775h1.503v-3.23h-0.943V69.032z"/>
	<path d="M35.289,71.742c-0.152,0.097-0.368,0.16-0.624,0.16c-0.751,0-1.279-0.68-1.279-1.959c0-1.047,0.472-1.99,1.367-1.99
		c0.184,0,0.408,0.056,0.528,0.136l-0.112,0.304c-0.08-0.048-0.248-0.128-0.472-0.128c-0.688,0-0.952,0.896-0.952,1.703
		c0,1.023,0.376,1.631,0.983,1.631c0.176,0,0.328-0.04,0.48-0.12L35.289,71.742z"/>
	<path d="M37.777,68.017v0.304h-0.887v3.534h-0.344v-3.534h-0.887v-0.304H37.777z"/>
	<path d="M39.881,70.991c0,0.279,0,0.623,0.032,0.863h-0.32l-0.032-0.424h-0.024c-0.144,0.296-0.392,0.487-0.72,0.487
		c-0.472,0-0.848-0.399-0.848-1.055c0-0.928,0.696-1.359,1.567-1.367v-0.145c0-0.655-0.104-1.095-0.664-1.095
		c-0.192,0-0.392,0.071-0.544,0.184l-0.096-0.264c0.128-0.112,0.423-0.224,0.711-0.224c0.52,0,0.936,0.304,0.936,1.223V70.991z
		 M39.537,69.792c-0.296,0-1.208,0.023-1.208,1.047c0,0.576,0.28,0.775,0.536,0.775c0.328,0,0.584-0.264,0.656-0.728
		c0.016-0.088,0.016-0.176,0.016-0.248V69.792z"/>
	<path d="M40.825,68.025c0.208-0.04,0.456-0.071,0.704-0.071c0.608,0,1.263,0.224,1.263,0.943c0,0.432-0.304,0.799-0.775,0.927
		v0.009c0.552,0.096,0.936,0.432,0.936,0.999c0,0.815-0.728,1.087-1.439,1.087c-0.352,0-0.583-0.023-0.688-0.039V68.025z
		 M41.169,71.599c0.072,0.008,0.2,0.024,0.344,0.024c0.544,0,1.08-0.185,1.08-0.8c0-0.616-0.616-0.832-1.151-0.832h-0.272V71.599z
		 M41.177,69.696h0.304c0.384,0,0.959-0.287,0.959-0.759c0-0.536-0.448-0.68-0.919-0.68c-0.112,0-0.232,0.016-0.344,0.031V69.696z"
		/>
	<path d="M45.552,68.017v3.838h-0.344v-3.542h-1.016v1.463c0,1.128-0.064,1.799-0.56,2.047c-0.096,0.048-0.208,0.072-0.336,0.072
		l-0.072-0.271c0.128-0.017,0.232-0.064,0.312-0.12c0.28-0.216,0.312-0.8,0.312-1.68v-1.807H45.552z"/>
	<path d="M46.657,69.792c0,1.543,0.536,1.807,0.967,1.807c0.248,0,0.448-0.063,0.576-0.152l0.08,0.265
		c-0.184,0.128-0.464,0.191-0.72,0.191c-0.839,0-1.255-0.791-1.255-1.951c0-1.215,0.44-1.998,1.144-1.998
		c0.759,0,0.967,0.935,0.967,1.614c0,0.072,0,0.145,0,0.225H46.657z M48.049,69.512c0.016-0.943-0.376-1.255-0.656-1.255
		c-0.448,0-0.688,0.64-0.728,1.255H48.049z"/>
	<path d="M49.465,68.017v1.735h1.352v-1.735h0.344v3.838h-0.344v-1.799h-1.352v1.799h-0.344v-3.838H49.465z"/>
	<path d="M52.433,68.017v1.623c0,0.64,0.008,1.151-0.04,1.887h0.016c0.2-0.575,0.456-1.199,0.656-1.727l0.68-1.783h0.432v3.838
		h-0.328v-1.527c0-0.863,0.008-1.327,0.056-1.967h-0.016c-0.151,0.527-0.344,1.023-0.521,1.479c-0.135,0.352-0.52,1.295-0.839,2.015
		h-0.424v-3.838H52.433z"/>
	<path d="M55.281,69.792c0,1.543,0.536,1.807,0.968,1.807c0.248,0,0.447-0.063,0.575-0.152l0.08,0.265
		c-0.185,0.128-0.464,0.191-0.72,0.191c-0.84,0-1.256-0.791-1.256-1.951c0-1.215,0.44-1.998,1.145-1.998
		c0.759,0,0.967,0.935,0.967,1.614c0,0.072,0,0.145,0,0.225H55.281z M56.673,69.512c0.016-0.943-0.377-1.255-0.656-1.255
		c-0.447,0-0.688,0.64-0.728,1.255H56.673z"/>
	<path d="M60.984,68.017v3.534h0.304l-0.031,1.303h-0.272l-0.032-0.999h-2.063l-0.032,0.999h-0.272l-0.031-1.303h0.216
		c0.176-0.271,0.312-0.552,0.407-0.84c0.145-0.455,0.209-0.943,0.209-1.527v-1.167H60.984z M59.697,69.032
		c0,0.632-0.04,1.224-0.208,1.743c-0.088,0.279-0.2,0.535-0.352,0.775h1.503v-3.23h-0.943V69.032z"/>
	<path d="M63.688,70.991c0,0.279,0,0.623,0.031,0.863h-0.32l-0.031-0.424h-0.023c-0.145,0.296-0.393,0.487-0.721,0.487
		c-0.471,0-0.848-0.399-0.848-1.055c0-0.928,0.696-1.359,1.568-1.367v-0.145c0-0.655-0.104-1.095-0.664-1.095
		c-0.191,0-0.393,0.071-0.544,0.184l-0.096-0.264c0.128-0.112,0.424-0.224,0.712-0.224c0.52,0,0.936,0.304,0.936,1.223V70.991z
		 M63.344,69.792c-0.297,0-1.208,0.023-1.208,1.047c0,0.576,0.28,0.775,0.536,0.775c0.328,0,0.584-0.264,0.655-0.728
		c0.017-0.088,0.017-0.176,0.017-0.248V69.792z"/>
	<path d="M64.976,68.017v1.735h1.352v-1.735h0.344v3.838h-0.344v-1.799h-1.352v1.799h-0.344v-3.838H64.976z"/>
	<path d="M67.96,68.017v1.735h1.352v-1.735h0.344v3.838h-0.344v-1.799H67.96v1.799h-0.344v-3.838H67.96z"/>
	<path d="M70.944,68.017v1.439c0.032-0.008,0.184-0.024,0.352-0.024c0.729,0,1.32,0.424,1.32,1.191c0,0.392-0.145,0.695-0.385,0.903
		c-0.271,0.24-0.647,0.368-0.983,0.368c-0.216,0-0.432-0.024-0.647-0.056v-3.822H70.944z M70.944,71.559
		c0.112,0.024,0.2,0.032,0.313,0.032c0.559,0,0.99-0.368,0.99-0.943c0-0.6-0.447-0.92-1.023-0.92c-0.111,0-0.191,0.008-0.279,0.024
		V71.559z M73.384,68.017v3.838h-0.313v-3.838H73.384z"/>
	<path d="M74.376,68.017l0.433,0.911c0.104,0.216,0.192,0.432,0.296,0.688h0.016c0.104-0.271,0.216-0.487,0.304-0.688l0.416-0.911
		h0.376l-0.943,1.895l0.919,1.943h-0.376l-0.432-0.96c-0.096-0.207-0.176-0.407-0.295-0.703h-0.017
		c-0.096,0.256-0.2,0.472-0.304,0.703l-0.432,0.96h-0.368l0.952-1.943l-0.912-1.895H74.376z"/>
</g>
<g enable-background="new    ">
	<path d="M5.086,132.265c-0.04-0.831-0.08-1.679-0.056-2.311H4.99c-0.128,0.615-0.271,1.247-0.479,2.007l-0.784,2.895H3.551
		l-0.744-2.751c-0.224-0.839-0.392-1.503-0.512-2.15H2.263c0.016,0.664-0.016,1.463-0.056,2.375l-0.104,2.526H1.76l0.28-5.389h0.4
		l0.751,2.782c0.2,0.728,0.336,1.215,0.464,1.831h0.024c0.12-0.624,0.24-1.079,0.432-1.831l0.728-2.782h0.432l0.296,5.389H5.214
		L5.086,132.265z"/>
	<path d="M7.327,134.919c-0.543,0-1.111-0.567-1.111-1.982s0.568-1.982,1.167-1.982c0.543,0,1.104,0.567,1.104,1.982
		s-0.568,1.982-1.151,1.982H7.327z M7.359,134.615c0.647,0,0.768-1.055,0.768-1.679s-0.12-1.679-0.784-1.679
		c-0.647,0-0.768,1.055-0.768,1.679s0.12,1.679,0.775,1.679H7.359z"/>
	<path d="M11.174,131.018v3.534h0.304l-0.032,1.303h-0.272l-0.032-0.999H9.079l-0.032,0.999H8.775l-0.032-1.303h0.216
		c0.176-0.271,0.312-0.552,0.408-0.84c0.144-0.455,0.208-0.943,0.208-1.527v-1.167H11.174z M9.887,132.033
		c0,0.632-0.04,1.224-0.208,1.743c-0.088,0.279-0.2,0.535-0.352,0.775h1.503v-3.23H9.887V132.033z"/>
	<path d="M12.32,132.793c0,1.543,0.536,1.807,0.967,1.807c0.248,0,0.448-0.063,0.576-0.152l0.08,0.265
		c-0.184,0.128-0.464,0.191-0.72,0.191c-0.839,0-1.255-0.791-1.255-1.951c0-1.215,0.44-1.998,1.144-1.998
		c0.759,0,0.967,0.935,0.967,1.614c0,0.072,0,0.145,0,0.225H12.32z M13.711,132.513c0.016-0.943-0.376-1.255-0.656-1.255
		c-0.448,0-0.688,0.64-0.728,1.255H13.711z"/>
	<path d="M16.686,131.018v3.838h-0.344v-3.542h-1.016v1.463c0,1.128-0.064,1.799-0.56,2.047c-0.096,0.048-0.208,0.072-0.336,0.072
		l-0.072-0.271c0.128-0.017,0.232-0.064,0.312-0.12c0.28-0.216,0.312-0.8,0.312-1.68v-1.807H16.686z"/>
	<path d="M17.975,131.018v1.439c0.152-0.008,0.264-0.024,0.352-0.024c0.751,0,1.399,0.376,1.399,1.191
		c0,0.392-0.144,0.695-0.384,0.903c-0.271,0.24-0.647,0.368-1.063,0.368c-0.216,0-0.432-0.024-0.647-0.056v-3.822H17.975z
		 M17.975,134.568c0.112,0.017,0.2,0.024,0.312,0.024c0.592,0,1.071-0.304,1.071-0.943c0-0.656-0.503-0.92-1.104-0.92
		c-0.112,0-0.192,0.008-0.28,0.024V134.568z"/>
	<path d="M21.99,131.018v1.623c0,0.64,0.008,1.151-0.04,1.887h0.016c0.2-0.575,0.456-1.199,0.656-1.727l0.68-1.783h0.432v3.838
		h-0.328v-1.527c0-0.863,0.008-1.327,0.056-1.967h-0.016c-0.152,0.527-0.344,1.023-0.52,1.479c-0.136,0.352-0.52,1.295-0.839,2.015
		h-0.424v-3.838H21.99z"/>
	<path d="M27.774,131.018v3.838H27.43v-3.542h-1.016v1.463c0,1.128-0.064,1.799-0.56,2.047c-0.096,0.048-0.208,0.072-0.336,0.072
		l-0.072-0.271c0.128-0.017,0.232-0.064,0.312-0.12c0.28-0.216,0.312-0.8,0.312-1.68v-1.807H27.774z"/>
	<path d="M29.638,134.919c-0.543,0-1.111-0.567-1.111-1.982s0.568-1.982,1.167-1.982c0.543,0,1.104,0.567,1.104,1.982
		s-0.568,1.982-1.151,1.982H29.638z M29.671,134.615c0.647,0,0.768-1.055,0.768-1.679s-0.12-1.679-0.784-1.679
		c-0.647,0-0.768,1.055-0.768,1.679s0.12,1.679,0.775,1.679H29.671z"/>
	<path d="M33.126,131.018v0.312h-1.231v3.526h-0.344v-3.838H33.126z"/>
	<path d="M33.958,131.018v1.623c0,0.64,0.008,1.151-0.04,1.887h0.016c0.2-0.575,0.456-1.199,0.656-1.727l0.68-1.783h0.432v3.838
		h-0.328v-1.527c0-0.863,0.008-1.327,0.056-1.967h-0.016c-0.152,0.527-0.344,1.023-0.52,1.479c-0.136,0.352-0.52,1.295-0.839,2.015
		h-0.424v-3.838H33.958z"/>
	<path d="M36.99,131.018v1.751h0.072l1.223-1.751h0.432l-1.335,1.775c0.624,0.063,0.927,0.535,1.095,1.087
		c0.104,0.336,0.176,0.664,0.304,0.976h-0.368c-0.096-0.256-0.184-0.567-0.28-0.871c-0.184-0.616-0.432-0.944-1.087-0.944H36.99
		v1.815h-0.344v-3.838H36.99z"/>
	<path d="M41.086,133.992c0,0.279,0,0.623,0.032,0.863h-0.32l-0.032-0.424h-0.024c-0.144,0.296-0.392,0.487-0.72,0.487
		c-0.472,0-0.848-0.399-0.848-1.055c0-0.928,0.696-1.359,1.567-1.367v-0.145c0-0.655-0.104-1.095-0.664-1.095
		c-0.192,0-0.392,0.071-0.544,0.184l-0.096-0.264c0.128-0.112,0.424-0.224,0.711-0.224c0.52,0,0.936,0.304,0.936,1.223V133.992z
		 M40.742,132.793c-0.296,0-1.208,0.023-1.208,1.047c0,0.576,0.28,0.775,0.536,0.775c0.328,0,0.584-0.264,0.656-0.728
		c0.016-0.088,0.016-0.176,0.016-0.248V132.793z"/>
	<path d="M45.254,131.018v3.838H44.91v-3.534h-1.295v3.534h-0.344v-3.838H45.254z"/>
	<path d="M46.191,132.201c0-0.672-0.024-0.976-0.032-1.184h0.328l0.016,0.512h0.016c0.24-0.472,0.552-0.575,0.815-0.575
		c0.56,0,1.063,0.575,1.063,1.967c0,1.463-0.583,1.998-1.151,1.998c-0.392,0-0.591-0.247-0.695-0.487h-0.016v1.959h-0.344V132.201z
		 M46.534,133.441c0,0.104,0,0.208,0.016,0.312c0.144,0.744,0.503,0.863,0.704,0.863c0.6,0,0.783-0.799,0.783-1.679
		c0-0.84-0.2-1.679-0.799-1.679c-0.352,0-0.664,0.472-0.696,0.927c-0.008,0.104-0.008,0.2-0.008,0.305V133.441z"/>
	<path d="M49.311,132.793c0,1.543,0.535,1.807,0.967,1.807c0.248,0,0.447-0.063,0.576-0.152l0.08,0.265
		c-0.185,0.128-0.465,0.191-0.721,0.191c-0.839,0-1.255-0.791-1.255-1.951c0-1.215,0.44-1.998,1.144-1.998
		c0.76,0,0.967,0.935,0.967,1.614c0,0.072,0,0.145,0,0.225H49.311z M50.702,132.513c0.016-0.943-0.376-1.255-0.656-1.255
		c-0.447,0-0.688,0.64-0.727,1.255H50.702z"/>
	<path d="M53.773,131.018v3.534h0.304l-0.031,1.303h-0.272l-0.032-0.999h-2.063l-0.032,0.999h-0.272l-0.031-1.303h0.216
		c0.176-0.271,0.312-0.552,0.407-0.84c0.145-0.455,0.209-0.943,0.209-1.527v-1.167H53.773z M52.485,132.033
		c0,0.632-0.039,1.224-0.207,1.743c-0.088,0.279-0.2,0.535-0.352,0.775h1.503v-3.23h-0.944V132.033z"/>
	<path d="M54.919,131.018h0.375l0.64,1.975c0.168,0.521,0.272,0.84,0.399,1.288h0.017c0.136-0.496,0.216-0.752,0.384-1.288
		l0.623-1.975h0.393l0.271,3.838h-0.336l-0.096-1.847c-0.031-0.592-0.048-0.92-0.064-1.607h-0.023
		c-0.111,0.439-0.24,0.863-0.416,1.407l-0.655,2.047h-0.208l-0.623-1.935c-0.192-0.6-0.32-1.016-0.44-1.52h-0.024
		c0,0.496-0.023,1.008-0.056,1.655l-0.088,1.799h-0.327L54.919,131.018z"/>
	<path d="M58.958,132.793c0,1.543,0.536,1.807,0.968,1.807c0.248,0,0.448-0.063,0.575-0.152l0.08,0.265
		c-0.184,0.128-0.463,0.191-0.719,0.191c-0.84,0-1.256-0.791-1.256-1.951c0-1.215,0.439-1.998,1.144-1.998
		c0.759,0,0.968,0.935,0.968,1.614c0,0.072,0,0.145,0,0.225H58.958z M60.349,132.513c0.017-0.943-0.376-1.255-0.655-1.255
		c-0.448,0-0.688,0.64-0.729,1.255H60.349z"/>
	<path d="M63.109,131.018v0.304h-0.888v3.534h-0.344v-3.534h-0.887v-0.304H63.109z"/>
	<path d="M63.927,131.018v1.735h1.352v-1.735h0.344v3.838h-0.344v-1.799h-1.352v1.799h-0.344v-3.838H63.927z"/>
	<path d="M67.485,134.919c-0.543,0-1.111-0.567-1.111-1.982s0.568-1.982,1.168-1.982c0.543,0,1.104,0.567,1.104,1.982
		s-0.568,1.982-1.151,1.982H67.485z M67.518,134.615c0.646,0,0.768-1.055,0.768-1.679s-0.121-1.679-0.784-1.679
		c-0.647,0-0.768,1.055-0.768,1.679s0.12,1.679,0.775,1.679H67.518z"/>
	<path d="M69.725,131.018v1.623c0,0.64,0.008,1.151-0.039,1.887h0.016c0.199-0.575,0.455-1.199,0.655-1.727l0.68-1.783h0.432v3.838
		h-0.327v-1.527c0-0.863,0.008-1.327,0.055-1.967H71.18c-0.151,0.527-0.344,1.023-0.52,1.479c-0.136,0.352-0.52,1.295-0.84,2.015
		h-0.424v-3.838H69.725z M69.901,129.571c0.049,0.36,0.209,0.576,0.544,0.576c0.336,0,0.487-0.216,0.536-0.576h0.304
		c-0.097,0.647-0.407,0.823-0.84,0.823c-0.432,0-0.751-0.176-0.847-0.823H69.901z"/>
	<path d="M74.573,134.919c-0.543,0-1.111-0.567-1.111-1.982s0.568-1.982,1.168-1.982c0.543,0,1.104,0.567,1.104,1.982
		s-0.568,1.982-1.151,1.982H74.573z M74.606,134.615c0.646,0,0.768-1.055,0.768-1.679s-0.121-1.679-0.784-1.679
		c-0.647,0-0.768,1.055-0.768,1.679s0.12,1.679,0.775,1.679H74.606z"/>
	<path d="M78.293,129.578c-0.16,0.064-0.479,0.12-0.76,0.216c-0.296,0.097-0.495,0.313-0.64,0.672
		c-0.16,0.384-0.224,0.823-0.264,1.199h0.016c0.112-0.352,0.439-0.647,0.832-0.647c0.56,0,1.039,0.472,1.039,1.887
		c0,1.495-0.472,2.015-1.071,2.015c-0.936,0-1.111-1.358-1.111-2.311c0-0.943,0.088-1.743,0.319-2.271
		c0.2-0.487,0.48-0.743,0.863-0.863c0.272-0.088,0.584-0.128,0.784-0.216L78.293,129.578z M78.157,132.961
		c0-0.616-0.112-1.64-0.729-1.64c-0.311,0-0.503,0.2-0.607,0.456c-0.119,0.288-0.144,0.647-0.144,0.903
		c0,0.439,0.071,1.935,0.768,1.935c0.6,0,0.712-1.031,0.712-1.646V132.961z"/>
	<path d="M81.165,131.018v3.838h-0.344v-3.542h-1.016v1.463c0,1.128-0.064,1.799-0.56,2.047c-0.096,0.048-0.208,0.072-0.336,0.072
		l-0.071-0.271c0.127-0.017,0.231-0.064,0.312-0.12c0.28-0.216,0.312-0.8,0.312-1.68v-1.807H81.165z"/>
	<path d="M83.789,133.992c0,0.279,0,0.623,0.032,0.863h-0.32l-0.031-0.424h-0.024c-0.144,0.296-0.392,0.487-0.72,0.487
		c-0.472,0-0.848-0.399-0.848-1.055c0-0.928,0.695-1.359,1.567-1.367v-0.145c0-0.655-0.104-1.095-0.663-1.095
		c-0.192,0-0.393,0.071-0.545,0.184l-0.096-0.264c0.129-0.112,0.424-0.224,0.712-0.224c0.52,0,0.936,0.304,0.936,1.223V133.992z
		 M83.445,132.793c-0.296,0-1.208,0.023-1.208,1.047c0,0.576,0.28,0.775,0.536,0.775c0.328,0,0.584-0.264,0.655-0.728
		c0.017-0.088,0.017-0.176,0.017-0.248V132.793z"/>
	<path d="M86.444,134.743c-0.151,0.097-0.367,0.16-0.623,0.16c-0.752,0-1.279-0.68-1.279-1.959c0-1.047,0.472-1.99,1.367-1.99
		c0.184,0,0.408,0.056,0.527,0.136l-0.111,0.304c-0.08-0.048-0.248-0.128-0.472-0.128c-0.688,0-0.952,0.896-0.952,1.703
		c0,1.023,0.377,1.631,0.984,1.631c0.176,0,0.328-0.04,0.479-0.12L86.444,134.743z"/>
	<path d="M88.932,131.018v0.304h-0.887v3.534h-0.345v-3.534h-0.888v-0.304H88.932z"/>
	<path d="M89.733,131.018v1.623c0,0.64,0.008,1.151-0.039,1.887h0.016c0.199-0.575,0.455-1.199,0.655-1.727l0.68-1.783h0.432v3.838
		h-0.327v-1.527c0-0.863,0.008-1.327,0.055-1.967h-0.016c-0.151,0.527-0.344,1.023-0.52,1.479c-0.136,0.352-0.52,1.295-0.84,2.015
		h-0.424v-3.838H89.733z"/>
</g>
<g enable-background="new    ">
	<path d="M37.02,88.134v4.493l0.424,0.016l-0.048,2.056h-0.792l-0.04-1.176h-2.343l-0.04,1.176h-0.799l-0.04-2.056l0.384-0.016
		c0.168-0.408,0.28-0.815,0.368-1.255c0.104-0.616,0.152-1.248,0.152-1.88v-1.358H37.02z M35.205,89.669
		c0,0.615-0.04,1.239-0.128,1.814c-0.064,0.384-0.16,0.8-0.272,1.119h1.176v-3.558h-0.776V89.669z"/>
	<path d="M38.878,89.613v0.84c0,0.72-0.04,1.407-0.08,1.807h0.024c0.128-0.407,0.304-0.847,0.432-1.159l0.592-1.487h0.991v3.91
		h-0.951v-0.855c0-0.792,0.04-1.239,0.064-1.759h-0.024c-0.12,0.407-0.224,0.735-0.376,1.111c-0.104,0.264-0.416,1.031-0.64,1.503
		h-0.976v-3.91H38.878z"/>
	<path d="M43.733,93.459c-0.104,0.048-0.368,0.111-0.664,0.111c-0.992,0-1.639-0.688-1.639-1.967c0-1.207,0.711-2.047,1.791-2.047
		c0.248,0,0.472,0.056,0.576,0.104l-0.136,0.824c-0.088-0.032-0.216-0.072-0.392-0.072c-0.504,0-0.799,0.479-0.799,1.159
		c0,0.712,0.295,1.144,0.783,1.144c0.152,0,0.28-0.023,0.392-0.08L43.733,93.459z"/>
	<path d="M47.061,89.613v3.91h-1.047V90.46h-0.816v3.063H44.15v-3.91H47.061z"/>
	<path d="M48.67,91.94c0.016,0.607,0.368,0.831,0.831,0.831c0.297,0,0.561-0.063,0.744-0.128l0.145,0.752
		c-0.272,0.104-0.68,0.176-1.08,0.176c-1.063,0-1.647-0.703-1.647-1.927c0-1.312,0.68-2.095,1.567-2.095
		c0.84,0,1.328,0.663,1.328,1.847c0,0.28-0.009,0.432-0.033,0.544H48.67z M49.605,91.204c0-0.504-0.128-0.896-0.44-0.896
		c-0.344,0-0.479,0.503-0.488,0.896H49.605z"/>
	<path d="M53.621,89.613v0.848h-0.872v3.063h-1.055V90.46h-0.871v-0.848H53.621z"/>
	<path d="M55.046,89.613v1.415c0,0.328,0.111,0.544,0.424,0.544c0.151,0,0.279-0.048,0.367-0.111v-1.848h1.056v3.95h-1.048v-1.407
		h-0.023c-0.16,0.104-0.456,0.176-0.72,0.176c-0.775,0-1.104-0.487-1.104-1.239v-1.479H55.046z"/>
	<path d="M58.493,91.94c0.017,0.607,0.368,0.831,0.832,0.831c0.296,0,0.56-0.063,0.744-0.128l0.144,0.752
		c-0.272,0.104-0.68,0.176-1.079,0.176c-1.064,0-1.647-0.703-1.647-1.927c0-1.312,0.68-2.095,1.567-2.095
		c0.84,0,1.327,0.663,1.327,1.847c0,0.28-0.009,0.432-0.032,0.544H58.493z M59.428,91.204c0-0.504-0.127-0.896-0.439-0.896
		c-0.344,0-0.479,0.503-0.487,0.896H59.428z"/>
	<path d="M60.966,90.852c0-0.472-0.016-0.871-0.031-1.239h0.911l0.056,0.448h0.017c0.159-0.32,0.456-0.512,0.815-0.512
		c0.863,0,1.215,0.936,1.215,2.015c0,1.392-0.615,2.022-1.271,2.022c-0.319,0-0.535-0.199-0.646-0.383h-0.017v1.854h-1.048V90.852z
		 M62.013,92.091c0,0.137,0.017,0.256,0.056,0.336c0.08,0.24,0.217,0.304,0.336,0.304c0.368,0,0.496-0.543,0.496-1.159
		c0-0.743-0.176-1.144-0.488-1.144c-0.16,0-0.312,0.152-0.352,0.336c-0.04,0.08-0.048,0.185-0.048,0.28V92.091z"/>
</g>
<g enable-background="new    ">
	<path d="M41.132,123.635c-0.024-0.512-0.064-1.199-0.048-1.783H41.06c-0.096,0.575-0.24,1.239-0.344,1.655l-0.464,1.927h-0.744
		l-0.448-1.896c-0.104-0.432-0.248-1.103-0.328-1.687h-0.024c-0.016,0.584-0.048,1.264-0.08,1.799l-0.088,1.871h-0.904l0.392-5.389
		h1.103l0.432,1.95c0.152,0.68,0.288,1.279,0.384,1.888h0.016c0.08-0.6,0.2-1.208,0.344-1.888l0.424-1.95h1.103l0.328,5.389h-0.936
		L41.132,123.635z"/>
	<path d="M45.668,123.555c0,1.631-0.903,2.03-1.495,2.03c-0.936,0-1.495-0.735-1.495-2.007c0-1.407,0.735-2.03,1.511-2.03
		C45.109,121.548,45.668,122.323,45.668,123.555z M43.718,123.555c0,0.672,0.104,1.231,0.479,1.231c0.336,0,0.424-0.656,0.424-1.231
		c0-0.536-0.088-1.216-0.44-1.216C43.797,122.339,43.718,123.019,43.718,123.555z"/>
	<path d="M49.156,121.612v3.143l0.36,0.016l-0.041,1.831h-0.791l-0.048-1.079h-1.895l-0.056,1.079h-0.783l-0.04-1.831l0.32-0.016
		c0.136-0.216,0.232-0.52,0.288-0.8c0.088-0.407,0.128-0.848,0.128-1.279v-1.063H49.156z M47.517,122.747
		c0,0.384-0.032,0.8-0.096,1.191c-0.048,0.279-0.12,0.544-0.24,0.791h0.943v-2.311h-0.608V122.747z"/>
	<path d="M50.837,123.939c0.017,0.607,0.368,0.831,0.832,0.831c0.296,0,0.56-0.063,0.744-0.128l0.144,0.752
		c-0.272,0.104-0.68,0.176-1.079,0.176c-1.064,0-1.647-0.703-1.647-1.927c0-1.312,0.68-2.095,1.567-2.095
		c0.84,0,1.327,0.663,1.327,1.847c0,0.28-0.009,0.432-0.032,0.544H50.837z M51.772,123.203c0-0.504-0.127-0.896-0.439-0.896
		c-0.344,0-0.479,0.503-0.487,0.896H51.772z"/>
	<path d="M56.085,121.612v3.91h-1.048v-3.07h-0.584v0.848c0,1.047-0.104,1.863-0.8,2.183c-0.168,0.08-0.367,0.128-0.535,0.128
		l-0.168-0.84c0.191-0.048,0.279-0.151,0.352-0.271c0.145-0.256,0.176-0.735,0.176-1.176v-1.711H56.085z"/>
	<path d="M57.853,121.612v1.248c0.151-0.024,0.271-0.032,0.407-0.032c0.855,0,1.6,0.392,1.6,1.335c0,0.464-0.208,0.8-0.496,1.016
		c-0.408,0.296-0.983,0.384-1.52,0.384c-0.344,0-0.727-0.032-1.023-0.072v-3.878H57.853z M57.853,124.786
		c0.079,0.008,0.144,0.008,0.224,0.008c0.376,0,0.728-0.184,0.728-0.6c0-0.424-0.36-0.6-0.735-0.6c-0.08,0-0.145,0.008-0.216,0.016
		V124.786z"/>
</g>
</svg>
