<?xml version="1.0" encoding="utf-8"?>
<!-- Generator: Adobe Illustrator 13.0.1, SVG Export Plug-In . SVG Version: 6.00 Build 14948)  -->
<!DOCTYPE svg PUBLIC "-//W3C//DTD SVG 1.1//EN" "http://www.w3.org/Graphics/SVG/1.1/DTD/svg11.dtd">
<svg version="1.1" id="Слой_1" xmlns="http://www.w3.org/2000/svg" xmlns:xlink="http://www.w3.org/1999/xlink" x="0px" y="0px"
	 width="241.948px" height="45.984px" viewBox="0 0 241.948 45.984" enable-background="new 0 0 241.948 45.984"
	 xml:space="preserve">
<rect x="0.028" fill="#FFFFFF" width="241.92" height="43.681"/>
<rect x="1.04" y="1.104" fill="#FFFFFF" width="66.479" height="26.436"/>
<rect x="1.174" y="1.237" fill="#F7F7F8" width="66.21" height="26.167"/>
<rect x="1.309" y="1.371" fill="#F2F2F3" width="65.941" height="25.898"/>
<rect x="1.443" y="1.507" fill="#EDEDEE" width="65.672" height="25.628"/>
<rect x="1.578" y="1.642" fill="#E8E8E9" width="65.403" height="25.359"/>
<rect x="1.712" y="1.776" fill="#E3E4E5" width="65.133" height="25.09"/>
<rect x="1.847" y="1.91" fill="#DEE0E1" width="64.864" height="24.821"/>
<rect x="1.982" y="2.044" fill="#D9DBDC" width="64.595" height="24.553"/>
<rect x="2.116" y="2.181" fill="#D4D6D7" width="64.326" height="24.282"/>
<rect x="2.251" y="2.314" fill="#CFD1D3" width="64.057" height="24.014"/>
<rect x="2.385" y="2.448" fill="#CACCCE" width="63.788" height="23.745"/>
<rect x="2.52" y="2.582" fill="#C5C7C9" width="63.519" height="23.477"/>
<rect x="2.655" y="2.718" fill="#C0C2C4" width="63.249" height="23.206"/>
<rect x="2.789" y="2.853" fill="#BBBDC0" width="62.98" height="22.938"/>
<rect x="2.924" y="2.987" fill="#B7B9BC" width="62.711" height="22.668"/>
<rect x="3.058" y="3.121" fill="#B2B4B7" width="62.442" height="22.399"/>
<rect x="3.193" y="3.255" fill="#ADB0B2" width="62.173" height="22.13"/>
<rect x="3.327" y="3.392" fill="#A9ABAD" width="61.904" height="21.859"/>
<rect x="3.462" y="3.525" fill="#A4A6A9" width="61.634" height="21.592"/>
<rect x="3.597" y="3.66" fill="#9FA1A4" width="61.365" height="21.322"/>
<rect x="3.731" y="3.794" fill="#9A9D9F" width="61.096" height="21.054"/>
<rect x="3.866" y="3.928" fill="#96989B" width="60.827" height="20.784"/>
<rect x="4" y="4.064" fill="#929497" width="60.558" height="20.515"/>
<rect x="4.135" y="4.198" fill="#8E9092" width="60.289" height="20.246"/>
<rect x="4.269" y="4.332" fill="#898B8E" width="60.02" height="19.978"/>
<rect x="4.404" y="4.467" fill="#858789" width="59.751" height="19.707"/>
<rect x="4.539" y="4.602" fill="#808285" width="59.482" height="19.438"/>
<rect x="0.068" y="0.131" fill="#D1D3D4" width="62.981" height="22.938"/>
<rect x="71.018" y="1.104" fill="#FFFFFF" width="100.497" height="26.436"/>
<rect x="71.152" y="1.237" fill="#F7F7F8" width="100.227" height="26.167"/>
<rect x="71.287" y="1.371" fill="#F2F2F3" width="99.958" height="25.898"/>
<rect x="71.422" y="1.507" fill="#EDEDEE" width="99.689" height="25.628"/>
<rect x="71.556" y="1.642" fill="#E8E8E9" width="99.419" height="25.359"/>
<rect x="71.691" y="1.776" fill="#E3E4E5" width="99.15" height="25.09"/>
<rect x="71.825" y="1.91" fill="#DEE0E1" width="98.881" height="24.821"/>
<rect x="71.96" y="2.044" fill="#D9DBDC" width="98.613" height="24.553"/>
<rect x="72.094" y="2.181" fill="#D4D6D7" width="98.343" height="24.282"/>
<rect x="72.229" y="2.314" fill="#CFD1D3" width="98.074" height="24.014"/>
<rect x="72.364" y="2.448" fill="#CACCCE" width="97.805" height="23.745"/>
<rect x="72.498" y="2.582" fill="#C5C7C9" width="97.536" height="23.477"/>
<rect x="72.633" y="2.718" fill="#C0C2C4" width="97.268" height="23.206"/>
<rect x="72.767" y="2.853" fill="#BBBDC0" width="96.997" height="22.938"/>
<rect x="72.902" y="2.987" fill="#B7B9BC" width="96.728" height="22.668"/>
<rect x="73.036" y="3.121" fill="#B2B4B7" width="96.459" height="22.399"/>
<rect x="73.171" y="3.255" fill="#ADB0B2" width="96.191" height="22.13"/>
<rect x="73.306" y="3.392" fill="#A9ABAD" width="95.92" height="21.859"/>
<rect x="73.44" y="3.525" fill="#A4A6A9" width="95.652" height="21.592"/>
<rect x="73.575" y="3.66" fill="#9FA1A4" width="95.382" height="21.322"/>
<rect x="73.709" y="3.794" fill="#9A9D9F" width="95.112" height="21.054"/>
<rect x="73.844" y="3.928" fill="#96989B" width="94.845" height="20.784"/>
<rect x="73.978" y="4.064" fill="#929497" width="94.575" height="20.515"/>
<rect x="74.113" y="4.198" fill="#8E9092" width="94.306" height="20.246"/>
<rect x="74.248" y="4.332" fill="#898B8E" width="94.036" height="19.978"/>
<rect x="74.382" y="4.467" fill="#858789" width="93.768" height="19.707"/>
<rect x="74.517" y="4.602" fill="#808285" width="93.499" height="19.438"/>
<rect x="70.046" y="0.131" fill="#D1D3D4" width="96.998" height="22.938"/>
<rect x="175.013" y="1.104" fill="#FFFFFF" width="66.479" height="26.436"/>
<rect x="175.146" y="1.237" fill="#F7F7F8" width="66.21" height="26.167"/>
<rect x="175.282" y="1.371" fill="#F2F2F3" width="65.94" height="25.898"/>
<rect x="175.416" y="1.507" fill="#EDEDEE" width="65.672" height="25.628"/>
<rect x="175.551" y="1.642" fill="#E8E8E9" width="65.402" height="25.359"/>
<rect x="175.686" y="1.776" fill="#E3E4E5" width="65.134" height="25.09"/>
<rect x="175.82" y="1.91" fill="#DEE0E1" width="64.864" height="24.821"/>
<rect x="175.955" y="2.044" fill="#D9DBDC" width="64.596" height="24.553"/>
<rect x="176.09" y="2.181" fill="#D4D6D7" width="64.325" height="24.282"/>
<rect x="176.224" y="2.314" fill="#CFD1D3" width="64.058" height="24.014"/>
<rect x="176.358" y="2.448" fill="#CACCCE" width="63.787" height="23.745"/>
<rect x="176.493" y="2.582" fill="#C5C7C9" width="63.519" height="23.477"/>
<rect x="176.627" y="2.718" fill="#C0C2C4" width="63.25" height="23.206"/>
<rect x="176.762" y="2.853" fill="#BBBDC0" width="62.98" height="22.938"/>
<rect x="176.897" y="2.987" fill="#B7B9BC" width="62.711" height="22.668"/>
<rect x="177.031" y="3.121" fill="#B2B4B7" width="62.442" height="22.399"/>
<rect x="177.166" y="3.255" fill="#ADB0B2" width="62.174" height="22.13"/>
<rect x="177.301" y="3.392" fill="#A9ABAD" width="61.903" height="21.859"/>
<rect x="177.436" y="3.525" fill="#A4A6A9" width="61.635" height="21.592"/>
<rect x="177.57" y="3.66" fill="#9FA1A4" width="61.364" height="21.322"/>
<rect x="177.704" y="3.794" fill="#9A9D9F" width="61.096" height="21.054"/>
<rect x="177.839" y="3.928" fill="#96989B" width="60.828" height="20.784"/>
<rect x="177.973" y="4.064" fill="#929497" width="60.559" height="20.515"/>
<rect x="178.109" y="4.198" fill="#8E9092" width="60.287" height="20.246"/>
<rect x="178.243" y="4.332" fill="#898B8E" width="60.019" height="19.978"/>
<rect x="178.377" y="4.467" fill="#858789" width="59.751" height="19.707"/>
<rect x="178.512" y="4.602" fill="#808285" width="59.481" height="19.438"/>
<rect x="174.041" y="0.131" fill="#D1D3D4" width="62.979" height="22.938"/>
<line fill="none" stroke="#231F20" stroke-width="0.486" stroke-miterlimit="3.864" x1="0" y1="35.459" x2="234.779" y2="35.459"/>
<polyline fill-rule="evenodd" clip-rule="evenodd" fill="#231F20" points="234.496,35.459 234.496,33.759 238.749,35.459 
	234.496,37.16 234.496,35.459 "/>
<g>
	<path d="M23.252,8.933v0.439c0.735,0.048,1.351,0.735,1.351,2.358c0,1.927-0.768,2.351-1.367,2.391v0.456h-0.344v-0.456
		c-0.608-0.063-1.352-0.432-1.352-2.366c0-1.783,0.712-2.335,1.368-2.383V8.933H23.252z M22.9,9.636c-0.52,0.048-1,0.592-1,2.143
		c0,1.399,0.448,1.968,1,2.079V9.636z M23.244,13.857c0.632-0.096,1-0.68,1-2.143c0-1.503-0.536-2.039-1-2.079V13.857z"/>
	<path d="M25.389,10.611l0.592,2.335c0.088,0.344,0.128,0.623,0.192,0.888h0.016c0.048-0.232,0.136-0.568,0.208-0.888l0.544-2.335
		h0.352l-0.527,2.15c-0.272,1.12-0.544,2.167-1.016,2.807c-0.232,0.32-0.456,0.496-0.576,0.568l-0.176-0.288
		c0.184-0.12,0.384-0.32,0.568-0.584c0.167-0.248,0.304-0.567,0.359-0.768c0.032-0.112,0.04-0.151,0.04-0.208
		c0-0.048,0-0.096-0.016-0.144l-0.912-3.534H25.389z"/>
	<path d="M28.253,10.611v1.735h1.352v-1.735h0.344v3.838h-0.344V12.65h-1.352v1.799h-0.344v-3.838H28.253z"/>
	<path d="M31.236,10.611v1.751h0.072l1.223-1.751h0.432l-1.335,1.775c0.624,0.063,0.927,0.535,1.095,1.087
		c0.104,0.336,0.176,0.664,0.304,0.976H32.66c-0.096-0.256-0.184-0.567-0.28-0.871c-0.184-0.616-0.432-0.944-1.087-0.944h-0.056
		v1.815h-0.344v-3.838H31.236z"/>
	<path d="M33.933,10.611v3.534h1.295v-3.534h0.344v3.534h0.304l-0.032,1.303h-0.272l-0.032-0.999h-1.951v-3.838H33.933z"/>
	<path d="M36.925,10.611v1.623c0,0.64,0.008,1.151-0.04,1.887H36.9c0.2-0.575,0.456-1.199,0.656-1.727l0.68-1.783h0.432v3.838H38.34
		v-1.527c0-0.863,0.008-1.327,0.056-1.967H38.38c-0.152,0.527-0.344,1.023-0.52,1.479c-0.136,0.352-0.52,1.295-0.839,2.015h-0.424
		v-3.838H36.925z"/>
	<path d="M41.42,14.449h-0.344v-1.735h-0.24c-0.368,0-0.591,0.104-0.728,0.256c-0.24,0.265-0.256,0.712-0.392,1.191
		c-0.032,0.112-0.064,0.208-0.104,0.288h-0.375c0.063-0.12,0.112-0.216,0.16-0.384c0.112-0.392,0.152-0.928,0.432-1.239
		c0.104-0.112,0.28-0.224,0.48-0.248v-0.016c-0.432-0.08-0.824-0.384-0.824-0.943c0-0.344,0.128-0.592,0.36-0.784
		c0.208-0.176,0.568-0.288,0.912-0.288c0.24,0,0.472,0.024,0.664,0.072V14.449z M41.076,10.859
		c-0.096-0.024-0.192-0.032-0.296-0.032c-0.464,0-0.943,0.208-0.943,0.783c0,0.552,0.503,0.824,0.936,0.824c0.096,0,0.271,0,0.304,0
		V10.859z"/>
	<path d="M44.684,9.652h-0.016l-0.855,0.527l-0.088-0.271l1.039-0.656h0.256v5.197h-0.335V9.652z"/>
</g>
<g>
	<path d="M110.252,9.266v0.439c0.735,0.048,1.351,0.735,1.351,2.358c0,1.927-0.768,2.351-1.367,2.391v0.456h-0.344v-0.456
		c-0.608-0.063-1.352-0.432-1.352-2.366c0-1.783,0.712-2.335,1.368-2.383V9.266H110.252z M109.9,9.969c-0.52,0.048-1,0.592-1,2.143
		c0,1.399,0.448,1.968,1,2.079V9.969z M110.244,14.19c0.632-0.096,1-0.68,1-2.143c0-1.503-0.536-2.039-1-2.079V14.19z"/>
	<path d="M112.389,10.944l0.592,2.335c0.088,0.344,0.128,0.623,0.192,0.888h0.016c0.048-0.232,0.136-0.568,0.208-0.888l0.544-2.335
		h0.352l-0.527,2.15c-0.272,1.12-0.544,2.167-1.016,2.807c-0.232,0.32-0.456,0.496-0.576,0.568l-0.176-0.288
		c0.184-0.12,0.384-0.32,0.568-0.584c0.167-0.248,0.304-0.567,0.359-0.768c0.032-0.112,0.04-0.151,0.04-0.208
		c0-0.048,0-0.096-0.016-0.144l-0.912-3.534H112.389z"/>
	<path d="M115.253,10.944v1.735h1.352v-1.735h0.344v3.838h-0.344v-1.799h-1.352v1.799h-0.344v-3.838H115.253z"/>
	<path d="M118.236,10.944v1.751h0.072l1.223-1.751h0.432l-1.335,1.775c0.624,0.063,0.927,0.535,1.095,1.087
		c0.104,0.336,0.176,0.664,0.304,0.976h-0.368c-0.096-0.256-0.184-0.567-0.28-0.871c-0.184-0.616-0.432-0.944-1.087-0.944h-0.056
		v1.815h-0.344v-3.838H118.236z"/>
	<path d="M120.933,10.944v3.534h1.295v-3.534h0.344v3.534h0.304l-0.032,1.303h-0.272l-0.032-0.999h-1.951v-3.838H120.933z"/>
	<path d="M123.925,10.944v1.623c0,0.64,0.008,1.151-0.04,1.887h0.016c0.2-0.575,0.456-1.199,0.655-1.727l0.68-1.783h0.432v3.838
		h-0.327v-1.527c0-0.863,0.008-1.327,0.056-1.967h-0.016c-0.152,0.527-0.344,1.023-0.52,1.479c-0.137,0.352-0.52,1.295-0.84,2.015
		h-0.424v-3.838H123.925z"/>
	<path d="M128.42,14.782h-0.344v-1.735h-0.24c-0.368,0-0.591,0.104-0.728,0.256c-0.24,0.265-0.256,0.712-0.392,1.191
		c-0.032,0.112-0.063,0.208-0.104,0.288h-0.375c0.063-0.12,0.111-0.216,0.16-0.384c0.111-0.392,0.151-0.928,0.432-1.239
		c0.104-0.112,0.279-0.224,0.479-0.248v-0.016c-0.432-0.08-0.823-0.384-0.823-0.943c0-0.344,0.127-0.592,0.359-0.784
		c0.208-0.176,0.568-0.288,0.912-0.288c0.239,0,0.471,0.024,0.663,0.072V14.782z M128.076,11.192
		c-0.097-0.024-0.192-0.032-0.296-0.032c-0.464,0-0.943,0.208-0.943,0.783c0,0.552,0.504,0.824,0.936,0.824c0.096,0,0.271,0,0.304,0
		V11.192z"/>
	<path d="M130.429,14.782v-0.208l0.384-0.56c0.592-0.863,1.431-1.999,1.431-3.118c0-0.672-0.264-1.063-0.783-1.063
		c-0.408,0-0.64,0.231-0.735,0.304l-0.128-0.248c0.144-0.144,0.455-0.367,0.928-0.367c0.695,0,1.071,0.56,1.071,1.367
		c0,0.976-0.655,2.03-1.327,3.022l-0.368,0.543v0.017h1.815v0.312H130.429z"/>
</g>
<g>
	<path d="M191.691,4.022h-1.007V3.727h2.357v0.296h-1.007v5.093h-0.344V4.022z"/>
	<path d="M193.052,7.053c0,1.543,0.535,1.807,0.967,1.807c0.248,0,0.448-0.064,0.576-0.152l0.08,0.265
		c-0.184,0.128-0.464,0.191-0.72,0.191c-0.839,0-1.255-0.791-1.255-1.951c0-1.215,0.439-1.999,1.143-1.999
		c0.76,0,0.968,0.936,0.968,1.615c0,0.072,0,0.145,0,0.225H193.052z M194.442,6.772c0.017-0.943-0.375-1.255-0.655-1.255
		c-0.448,0-0.688,0.64-0.728,1.255H194.442z"/>
	<path d="M197.227,9.003c-0.151,0.097-0.368,0.16-0.624,0.16c-0.751,0-1.279-0.68-1.279-1.959c0-1.047,0.473-1.991,1.367-1.991
		c0.185,0,0.408,0.057,0.528,0.137l-0.112,0.304c-0.08-0.048-0.248-0.128-0.471-0.128c-0.688,0-0.952,0.896-0.952,1.703
		c0,1.023,0.376,1.631,0.983,1.631c0.176,0,0.328-0.04,0.48-0.12L197.227,9.003z"/>
	<path d="M199.714,5.277v0.304h-0.887v3.534h-0.344V5.581h-0.888V5.277H199.714z"/>
	<path d="M200.516,5.277V6.9c0,0.64,0.008,1.151-0.04,1.887h0.016c0.2-0.575,0.456-1.199,0.656-1.727l0.68-1.783h0.432v3.838h-0.328
		V7.588c0-0.863,0.008-1.327,0.056-1.967h-0.016c-0.151,0.527-0.344,1.023-0.521,1.479c-0.135,0.352-0.52,1.295-0.839,2.015h-0.424
		V5.277H200.516z"/>
	<path d="M203.195,6.461c0-0.672-0.024-0.976-0.032-1.184h0.328l0.016,0.512h0.016c0.24-0.472,0.553-0.576,0.816-0.576
		c0.56,0,1.063,0.576,1.063,1.968c0,1.463-0.583,1.999-1.15,1.999c-0.393,0-0.592-0.248-0.695-0.488h-0.017v1.959h-0.344V6.461z
		 M203.539,7.7c0,0.104,0,0.208,0.017,0.312c0.143,0.744,0.503,0.863,0.703,0.863c0.6,0,0.783-0.799,0.783-1.679
		c0-0.84-0.199-1.679-0.799-1.679c-0.353,0-0.664,0.472-0.696,0.927c-0.008,0.104-0.008,0.2-0.008,0.304V7.7z"/>
	<path d="M207.075,9.18c-0.544,0-1.111-0.568-1.111-1.983s0.567-1.983,1.167-1.983c0.544,0,1.104,0.568,1.104,1.983
		s-0.567,1.983-1.151,1.983H207.075z M207.106,8.875c0.648,0,0.768-1.055,0.768-1.679s-0.119-1.679-0.783-1.679
		c-0.647,0-0.768,1.055-0.768,1.679s0.12,1.679,0.775,1.679H207.106z"/>
	<path d="M208.987,5.285c0.208-0.04,0.456-0.072,0.703-0.072c0.608,0,1.264,0.225,1.264,0.944c0,0.432-0.304,0.799-0.775,0.927
		v0.009c0.552,0.096,0.936,0.432,0.936,0.999c0,0.815-0.728,1.088-1.439,1.088c-0.352,0-0.584-0.024-0.688-0.04V5.285z
		 M209.331,8.859c0.072,0.008,0.2,0.024,0.344,0.024c0.544,0,1.08-0.185,1.08-0.8c0-0.616-0.616-0.832-1.152-0.832h-0.271V8.859z
		 M209.339,6.956h0.305c0.383,0,0.959-0.287,0.959-0.759c0-0.536-0.447-0.68-0.92-0.68c-0.111,0-0.231,0.016-0.344,0.031V6.956z"/>
	<path d="M213.538,8.252c0,0.279,0,0.623,0.032,0.863h-0.319l-0.032-0.424h-0.024c-0.144,0.296-0.392,0.488-0.719,0.488
		c-0.473,0-0.848-0.4-0.848-1.056c0-0.928,0.695-1.359,1.566-1.367V6.612c0-0.655-0.104-1.095-0.663-1.095
		c-0.192,0-0.392,0.071-0.544,0.184l-0.096-0.264c0.128-0.112,0.424-0.225,0.711-0.225c0.52,0,0.936,0.305,0.936,1.224V8.252z
		 M213.194,7.053c-0.295,0-1.207,0.023-1.207,1.047c0,0.576,0.279,0.775,0.535,0.775c0.328,0,0.584-0.264,0.656-0.728
		c0.016-0.088,0.016-0.176,0.016-0.247V7.053z"/>
	<path d="M214.827,5.277v1.735h1.352V5.277h0.344v3.838h-0.344V7.316h-1.352v1.799h-0.344V5.277H214.827z"/>
	<path d="M217.795,5.277V6.9c0,0.64,0.008,1.151-0.04,1.887h0.016c0.2-0.575,0.456-1.199,0.656-1.727l0.68-1.783h0.432v3.838h-0.328
		V7.588c0-0.863,0.008-1.327,0.056-1.967h-0.016c-0.151,0.527-0.344,1.023-0.521,1.479c-0.135,0.352-0.52,1.295-0.839,2.015h-0.424
		V5.277H217.795z"/>
	<path d="M220.644,7.053c0,1.543,0.535,1.807,0.967,1.807c0.248,0,0.447-0.064,0.576-0.152l0.08,0.265
		c-0.185,0.128-0.465,0.191-0.721,0.191c-0.839,0-1.255-0.791-1.255-1.951c0-1.215,0.44-1.999,1.144-1.999
		c0.76,0,0.967,0.936,0.967,1.615c0,0.072,0,0.145,0,0.225H220.644z M222.034,6.772c0.016-0.943-0.376-1.255-0.656-1.255
		c-0.447,0-0.688,0.64-0.727,1.255H222.034z"/>
	<path d="M191.919,13.182v1.64c0.695,0.063,1.271,0.64,1.271,1.975c0,1.312-0.553,1.895-1.271,1.967v1.487h-0.328v-1.487
		c-0.703-0.056-1.271-0.64-1.271-1.967c0-1.304,0.552-1.887,1.271-1.967v-1.647H191.919z M191.591,15.117
		c-0.703,0.111-0.912,0.959-0.912,1.679c0,0.68,0.192,1.56,0.912,1.679V15.117z M191.919,18.475
		c0.719-0.119,0.911-0.975,0.911-1.679c0-0.72-0.192-1.56-0.911-1.679V18.475z"/>
	<path d="M193.871,14.877l0.592,2.335c0.088,0.344,0.128,0.623,0.192,0.888h0.016c0.048-0.232,0.136-0.568,0.208-0.888l0.544-2.335
		h0.352l-0.527,2.15c-0.272,1.12-0.545,2.167-1.016,2.807c-0.232,0.32-0.456,0.496-0.576,0.568l-0.176-0.288
		c0.184-0.12,0.384-0.32,0.567-0.584c0.168-0.248,0.304-0.567,0.36-0.768c0.031-0.112,0.039-0.151,0.039-0.208
		c0-0.048,0-0.096-0.016-0.144l-0.911-3.534H193.871z"/>
	<path d="M196.735,14.877v1.735h1.352v-1.735h0.344v3.838h-0.344v-1.799h-1.352v1.799h-0.344v-3.838H196.735z"/>
	<path d="M199.719,14.877v1.751h0.072l1.224-1.751h0.432l-1.336,1.775c0.624,0.063,0.928,0.535,1.096,1.087
		c0.104,0.336,0.176,0.664,0.304,0.976h-0.368c-0.096-0.256-0.184-0.567-0.279-0.871c-0.184-0.616-0.432-0.944-1.088-0.944h-0.056
		v1.815h-0.344v-3.838H199.719z"/>
	<path d="M202.415,14.877v3.534h1.295v-3.534h0.344v3.534h0.304l-0.032,1.303h-0.271l-0.031-0.999h-1.951v-3.838H202.415z"/>
	<path d="M205.407,14.877V16.5c0,0.64,0.008,1.151-0.04,1.887h0.016c0.2-0.575,0.456-1.199,0.655-1.727l0.68-1.783h0.432v3.838
		h-0.327v-1.527c0-0.863,0.008-1.327,0.056-1.967h-0.016c-0.152,0.527-0.344,1.023-0.52,1.479c-0.137,0.352-0.52,1.295-0.84,2.015
		h-0.424v-3.838H205.407z"/>
	<path d="M208.423,14.877V16.5c0,0.64,0.008,1.151-0.04,1.887h0.016c0.2-0.575,0.456-1.199,0.655-1.727l0.68-1.783h0.432v3.838
		h-0.327v-1.527c0-0.863,0.008-1.327,0.056-1.967h-0.016c-0.152,0.527-0.344,1.023-0.52,1.479c-0.137,0.352-0.52,1.295-0.84,2.015
		h-0.424v-3.838H208.423z M208.599,13.43c0.048,0.359,0.208,0.576,0.543,0.576c0.336,0,0.488-0.217,0.536-0.576h0.304
		c-0.096,0.647-0.407,0.823-0.84,0.823c-0.432,0-0.751-0.176-0.847-0.823H208.599z"/>
	<path d="M213.431,13.918h-0.017l-0.855,0.527l-0.088-0.271l1.039-0.656h0.256v5.197h-0.335V13.918z"/>
	<path d="M216.799,14.877V16.5c0,0.64,0.008,1.151-0.04,1.887h0.016c0.2-0.575,0.456-1.199,0.656-1.727l0.68-1.783h0.432v3.838
		h-0.328v-1.527c0-0.863,0.008-1.327,0.056-1.967h-0.016c-0.151,0.527-0.344,1.023-0.521,1.479c-0.135,0.352-0.52,1.295-0.839,2.015
		h-0.424v-3.838H216.799z"/>
	<path d="M220.551,18.715v-0.208l0.384-0.56c0.592-0.863,1.432-1.999,1.432-3.118c0-0.672-0.264-1.063-0.784-1.063
		c-0.407,0-0.64,0.231-0.735,0.304l-0.128-0.248c0.144-0.144,0.456-0.367,0.927-0.367c0.696,0,1.072,0.56,1.072,1.367
		c0,0.976-0.656,2.03-1.328,3.022l-0.367,0.543v0.017h1.814v0.312H220.551z"/>
</g>
<g>
	<path d="M108.741,39.141c0.216-0.064,0.448-0.104,0.72-0.104c0.479,0,0.848,0.128,1.08,0.368c0.2,0.199,0.32,0.504,0.32,0.887
		c0,0.592-0.336,1.016-0.855,1.208v0.016c0.624,0.16,1.023,0.656,1.023,1.432c0,0.439-0.144,0.808-0.376,1.071
		c-0.296,0.344-0.768,0.456-1.215,0.456c-0.392,0-0.576-0.024-0.696-0.049V39.141z M109.084,41.395h0.32
		c0.576,0,1.096-0.432,1.096-1.071c0-0.56-0.256-0.991-1.056-0.991c-0.16,0-0.28,0.016-0.36,0.04V41.395z M109.084,44.146
		c0.08,0.016,0.2,0.032,0.36,0.032c0.768,0,1.224-0.44,1.224-1.231c0-0.864-0.608-1.264-1.288-1.271h-0.296V44.146z"/>
	<path d="M111.701,41.795c0-0.672-0.024-0.976-0.032-1.184h0.328l0.016,0.512h0.016c0.24-0.472,0.552-0.576,0.815-0.576
		c0.56,0,1.063,0.576,1.063,1.968c0,1.463-0.583,1.999-1.151,1.999c-0.392,0-0.591-0.248-0.695-0.488h-0.016v1.959h-0.344V41.795z
		 M112.044,43.034c0,0.104,0,0.208,0.016,0.312c0.144,0.744,0.503,0.863,0.704,0.863c0.6,0,0.783-0.799,0.783-1.679
		c0-0.84-0.2-1.679-0.799-1.679c-0.352,0-0.664,0.472-0.696,0.927c-0.008,0.104-0.008,0.2-0.008,0.304V43.034z"/>
	<path d="M114.821,42.387c0,1.543,0.536,1.807,0.967,1.807c0.248,0,0.448-0.064,0.576-0.152l0.08,0.265
		c-0.184,0.128-0.464,0.191-0.72,0.191c-0.839,0-1.255-0.791-1.255-1.951c0-1.215,0.44-1.999,1.144-1.999
		c0.759,0,0.967,0.936,0.967,1.615c0,0.072,0,0.145,0,0.225H114.821z M116.212,42.106c0.016-0.943-0.376-1.255-0.656-1.255
		c-0.448,0-0.688,0.64-0.728,1.255H116.212z"/>
	<path d="M117.405,40.611h0.375l0.64,1.975c0.168,0.52,0.272,0.84,0.4,1.287h0.016c0.136-0.495,0.216-0.751,0.384-1.287l0.624-1.975
		h0.392l0.272,3.838h-0.335l-0.096-1.847c-0.032-0.592-0.048-0.92-0.064-1.607h-0.024c-0.112,0.439-0.24,0.863-0.416,1.407
		l-0.655,2.047h-0.208l-0.624-1.935c-0.192-0.6-0.32-1.016-0.44-1.52h-0.024c0,0.496-0.024,1.008-0.056,1.655l-0.088,1.799h-0.328
		L117.405,40.611z"/>
	<path d="M123.124,44.449h-0.344v-1.735h-0.24c-0.368,0-0.591,0.104-0.728,0.256c-0.24,0.265-0.256,0.712-0.392,1.191
		c-0.032,0.112-0.064,0.208-0.104,0.288h-0.375c0.063-0.12,0.112-0.216,0.16-0.384c0.112-0.392,0.152-0.928,0.432-1.239
		c0.104-0.112,0.28-0.224,0.48-0.248v-0.016c-0.432-0.08-0.824-0.384-0.824-0.943c0-0.344,0.128-0.592,0.36-0.784
		c0.208-0.176,0.568-0.288,0.912-0.288c0.24,0,0.472,0.024,0.664,0.072V44.449z M122.78,40.859
		c-0.096-0.024-0.192-0.032-0.296-0.032c-0.464,0-0.943,0.208-0.943,0.783c0,0.552,0.503,0.824,0.936,0.824c0.096,0,0.271,0,0.304,0
		V40.859z"/>
</g>
</svg>
