<?xml version="1.0" encoding="utf-8"?>
<!-- Generator: Adobe Illustrator 13.0.1, SVG Export Plug-In . SVG Version: 6.00 Build 14948)  -->
<!DOCTYPE svg PUBLIC "-//W3C//DTD SVG 1.1//EN" "http://www.w3.org/Graphics/SVG/1.1/DTD/svg11.dtd">
<svg version="1.1" id="Слой_1" xmlns="http://www.w3.org/2000/svg" xmlns:xlink="http://www.w3.org/1999/xlink" x="0px" y="0px"
	 width="105.933px" height="68.741px" viewBox="0 0 105.933 68.741" enable-background="new 0 0 105.933 68.741"
	 xml:space="preserve">
<rect x="19.62" y="1" fill="#FFFFFF" width="72.403" height="27.201"/>
<rect x="19.758" y="1.138" fill="#F7F7F8" width="72.127" height="26.924"/>
<rect x="19.897" y="1.277" fill="#F2F2F3" width="71.849" height="26.647"/>
<rect x="20.036" y="1.415" fill="#EDEDEE" width="71.572" height="26.37"/>
<rect x="20.174" y="1.554" fill="#E8E8E9" width="71.296" height="26.093"/>
<rect x="20.313" y="1.692" fill="#E3E4E5" width="71.019" height="25.817"/>
<rect x="20.451" y="1.83" fill="#DEE0E1" width="70.742" height="25.54"/>
<rect x="20.59" y="1.969" fill="#D9DBDC" width="70.464" height="25.263"/>
<rect x="20.728" y="2.107" fill="#D4D6D7" width="70.187" height="24.986"/>
<rect x="20.866" y="2.246" fill="#CFD1D3" width="69.91" height="24.709"/>
<rect x="21.005" y="2.384" fill="#CACCCE" width="69.634" height="24.432"/>
<rect x="21.143" y="2.523" fill="#C5C7C9" width="69.357" height="24.155"/>
<rect x="21.282" y="2.661" fill="#C0C2C4" width="69.08" height="23.878"/>
<rect x="21.42" y="2.8" fill="#BBBDC0" width="68.803" height="23.601"/>
<rect x="21.559" y="2.938" fill="#B7B9BC" width="68.526" height="23.324"/>
<rect x="21.698" y="3.077" fill="#B2B4B7" width="68.25" height="23.047"/>
<rect x="21.836" y="3.215" fill="#ADB0B2" width="67.972" height="22.771"/>
<rect x="21.974" y="3.354" fill="#A9ABAD" width="67.695" height="22.493"/>
<rect x="22.113" y="3.492" fill="#A4A6A9" width="67.418" height="22.216"/>
<rect x="22.251" y="3.631" fill="#9FA1A4" width="67.141" height="21.939"/>
<rect x="22.39" y="3.768" fill="#9A9D9F" width="66.864" height="21.663"/>
<rect x="22.528" y="3.907" fill="#96989B" width="66.587" height="21.386"/>
<rect x="22.667" y="4.046" fill="#929497" width="66.31" height="21.108"/>
<rect x="22.805" y="4.185" fill="#8E9092" width="66.033" height="20.831"/>
<rect x="22.944" y="4.323" fill="#898B8E" width="65.757" height="20.555"/>
<rect x="23.082" y="4.461" fill="#858789" width="65.479" height="20.278"/>
<rect x="23.221" y="4.6" fill="#808285" width="65.202" height="20.001"/>
<rect x="18.62" fill="#D1D3D4" width="68.803" height="23.601"/>
<rect x="19.62" y="41.54" fill="#FFFFFF" width="72.403" height="27.201"/>
<rect x="19.758" y="41.678" fill="#F7F7F8" width="72.127" height="26.924"/>
<rect x="19.897" y="41.816" fill="#F2F2F3" width="71.849" height="26.647"/>
<rect x="20.036" y="41.955" fill="#EDEDEE" width="71.572" height="26.37"/>
<rect x="20.174" y="42.093" fill="#E8E8E9" width="71.296" height="26.094"/>
<rect x="20.313" y="42.231" fill="#E3E4E5" width="71.019" height="25.817"/>
<rect x="20.451" y="42.371" fill="#DEE0E1" width="70.742" height="25.539"/>
<rect x="20.59" y="42.509" fill="#D9DBDC" width="70.464" height="25.262"/>
<rect x="20.728" y="42.647" fill="#D4D6D7" width="70.187" height="24.986"/>
<rect x="20.866" y="42.786" fill="#CFD1D3" width="69.91" height="24.709"/>
<rect x="21.005" y="42.924" fill="#CACCCE" width="69.634" height="24.432"/>
<rect x="21.143" y="43.063" fill="#C5C7C9" width="69.357" height="24.154"/>
<rect x="21.282" y="43.202" fill="#C0C2C4" width="69.08" height="23.877"/>
<rect x="21.42" y="43.339" fill="#BBBDC0" width="68.803" height="23.602"/>
<rect x="21.559" y="43.478" fill="#B7B9BC" width="68.526" height="23.324"/>
<rect x="21.698" y="43.617" fill="#B2B4B7" width="68.25" height="23.047"/>
<rect x="21.836" y="43.755" fill="#ADB0B2" width="67.972" height="22.77"/>
<rect x="21.974" y="43.893" fill="#A9ABAD" width="67.695" height="22.494"/>
<rect x="22.113" y="44.032" fill="#A4A6A9" width="67.418" height="22.217"/>
<rect x="22.251" y="44.171" fill="#9FA1A4" width="67.141" height="21.939"/>
<rect x="22.39" y="44.309" fill="#9A9D9F" width="66.864" height="21.662"/>
<rect x="22.528" y="44.448" fill="#96989B" width="66.587" height="21.385"/>
<rect x="22.667" y="44.586" fill="#929497" width="66.31" height="21.109"/>
<rect x="22.805" y="44.724" fill="#8E9092" width="66.033" height="20.832"/>
<rect x="22.944" y="44.862" fill="#898B8E" width="65.757" height="20.555"/>
<rect x="23.082" y="45.002" fill="#858789" width="65.479" height="20.277"/>
<rect x="23.221" y="45.14" fill="#808285" width="65.202" height="20"/>
<rect x="18.62" y="40.539" fill="#D1D3D4" width="68.803" height="23.602"/>
<polyline fill="none" stroke="#231F20" stroke-width="0.5" stroke-miterlimit="3.864" points="87.313,11.165 105.683,11.165 
	105.683,53.299 91.34,53.299 "/>
<polyline fill-rule="evenodd" clip-rule="evenodd" fill="#231F20" points="91.631,53.299 91.631,55.049 87.256,53.299 
	91.631,51.549 91.631,53.299 "/>
<polyline fill="none" stroke="#231F20" stroke-width="0.5" stroke-miterlimit="3.864" points="18.62,53.299 0.25,53.299 
	0.25,11.165 14.593,11.165 "/>
<polyline fill-rule="evenodd" clip-rule="evenodd" fill="#231F20" points="14.301,11.165 14.301,9.415 18.676,11.165 14.301,12.915 
	14.301,11.165 "/>
<g>
	<path d="M34.559,7.863v5.389h-0.344V8.167h-1.719v5.085h-0.344V7.863H34.559z"/>
	<path d="M35.521,10.598c0-0.671-0.024-0.975-0.032-1.183h0.328l0.016,0.512h0.016c0.24-0.472,0.552-0.576,0.815-0.576
		c0.56,0,1.063,0.576,1.063,1.967c0,1.463-0.583,1.999-1.151,1.999c-0.392,0-0.591-0.248-0.695-0.488h-0.016v1.959h-0.344V10.598z
		 M35.864,11.837c0,0.104,0,0.208,0.016,0.312c0.144,0.744,0.503,0.864,0.704,0.864c0.6,0,0.783-0.8,0.783-1.679
		c0-0.839-0.2-1.679-0.799-1.679c-0.352,0-0.664,0.472-0.696,0.928c-0.008,0.104-0.008,0.2-0.008,0.304V11.837z"/>
	<path d="M39.4,13.316c-0.543,0-1.111-0.568-1.111-1.983s0.568-1.983,1.167-1.983c0.543,0,1.104,0.568,1.104,1.983
		s-0.568,1.983-1.151,1.983H39.4z M39.432,13.013c0.647,0,0.768-1.056,0.768-1.679s-0.12-1.679-0.784-1.679
		c-0.647,0-0.768,1.056-0.768,1.679s0.12,1.679,0.775,1.679H39.432z"/>
	<path d="M41.312,9.422c0.208-0.04,0.456-0.072,0.704-0.072c0.608,0,1.263,0.224,1.263,0.943c0,0.432-0.304,0.8-0.775,0.928v0.008
		c0.552,0.096,0.936,0.432,0.936,1c0,0.815-0.728,1.087-1.439,1.087c-0.352,0-0.583-0.024-0.688-0.04V9.422z M41.656,12.997
		c0.072,0.008,0.2,0.024,0.344,0.024c0.544,0,1.08-0.184,1.08-0.799s-0.616-0.832-1.151-0.832h-0.272V12.997z M41.664,11.094h0.304
		c0.384,0,0.959-0.288,0.959-0.76c0-0.536-0.448-0.68-0.919-0.68c-0.112,0-0.232,0.016-0.344,0.032V11.094z"/>
	<path d="M44.344,11.189c0,1.543,0.536,1.807,0.967,1.807c0.248,0,0.448-0.064,0.576-0.152l0.08,0.264
		c-0.184,0.128-0.464,0.192-0.72,0.192c-0.839,0-1.255-0.792-1.255-1.951c0-1.215,0.44-1.999,1.144-1.999
		c0.759,0,0.967,0.936,0.967,1.615c0,0.072,0,0.144,0,0.224H44.344z M45.735,10.91c0.016-0.943-0.376-1.255-0.656-1.255
		c-0.448,0-0.688,0.64-0.728,1.255H45.735z"/>
	<path d="M48.807,9.415v3.534h0.304l-0.032,1.303h-0.272l-0.032-1h-2.063l-0.032,1h-0.272l-0.032-1.303h0.216
		c0.176-0.272,0.312-0.552,0.408-0.84c0.144-0.456,0.208-0.943,0.208-1.527V9.415H48.807z M47.52,10.43
		c0,0.631-0.04,1.223-0.208,1.743c-0.088,0.28-0.2,0.536-0.352,0.776h1.503v-3.23H47.52V10.43z"/>
	<path d="M49.952,11.189c0,1.543,0.536,1.807,0.967,1.807c0.248,0,0.448-0.064,0.576-0.152l0.08,0.264
		c-0.184,0.128-0.464,0.192-0.72,0.192c-0.839,0-1.255-0.792-1.255-1.951c0-1.215,0.44-1.999,1.144-1.999
		c0.759,0,0.967,0.936,0.967,1.615c0,0.072,0,0.144,0,0.224H49.952z M51.343,10.91c0.016-0.943-0.376-1.255-0.656-1.255
		c-0.448,0-0.688,0.64-0.728,1.255H51.343z"/>
	<path d="M52.76,9.415v1.735h1.352V9.415h0.344v3.838h-0.344v-1.799H52.76v1.799h-0.344V9.415H52.76z"/>
	<path d="M55.728,9.415v1.623c0,0.64,0.008,1.151-0.04,1.887h0.016c0.2-0.576,0.456-1.2,0.656-1.727l0.68-1.783h0.432v3.838h-0.328
		v-1.527c0-0.863,0.008-1.327,0.057-1.967h-0.016c-0.152,0.528-0.344,1.023-0.521,1.479c-0.136,0.352-0.52,1.295-0.839,2.015H55.4
		V9.415H55.728z"/>
	<path d="M58.576,11.189c0,1.543,0.535,1.807,0.967,1.807c0.248,0,0.448-0.064,0.576-0.152l0.08,0.264
		c-0.184,0.128-0.464,0.192-0.72,0.192c-0.839,0-1.255-0.792-1.255-1.951c0-1.215,0.439-1.999,1.143-1.999
		c0.76,0,0.968,0.936,0.968,1.615c0,0.072,0,0.144,0,0.224H58.576z M59.967,10.91c0.017-0.943-0.375-1.255-0.655-1.255
		c-0.448,0-0.688,0.64-0.728,1.255H59.967z"/>
	<path d="M64.007,9.415v0.304h-0.888v3.534h-0.344V9.718h-0.887V9.415H64.007z"/>
	<path d="M64.56,11.189c0,1.543,0.536,1.807,0.968,1.807c0.248,0,0.447-0.064,0.575-0.152l0.08,0.264
		c-0.185,0.128-0.464,0.192-0.72,0.192c-0.84,0-1.256-0.792-1.256-1.951c0-1.215,0.44-1.999,1.145-1.999
		c0.759,0,0.967,0.936,0.967,1.615c0,0.072,0,0.144,0,0.224H64.56z M65.951,10.91c0.016-0.943-0.377-1.255-0.656-1.255
		c-0.447,0-0.688,0.64-0.728,1.255H65.951z"/>
	<path d="M68.734,13.141c-0.152,0.096-0.367,0.16-0.623,0.16c-0.752,0-1.279-0.68-1.279-1.959c0-1.047,0.471-1.991,1.367-1.991
		c0.184,0,0.407,0.056,0.527,0.136l-0.111,0.304c-0.08-0.048-0.248-0.128-0.473-0.128c-0.688,0-0.951,0.896-0.951,1.703
		c0,1.023,0.376,1.631,0.983,1.631c0.176,0,0.328-0.04,0.479-0.12L68.734,13.141z"/>
	<path d="M71.223,9.415v0.304h-0.888v3.534H69.99V9.718h-0.887V9.415H71.223z"/>
	<path d="M72.535,13.316c-0.544,0-1.111-0.568-1.111-1.983s0.567-1.983,1.167-1.983c0.544,0,1.104,0.568,1.104,1.983
		s-0.567,1.983-1.151,1.983H72.535z M72.566,13.013c0.648,0,0.768-1.056,0.768-1.679s-0.119-1.679-0.783-1.679
		c-0.647,0-0.768,1.056-0.768,1.679s0.12,1.679,0.775,1.679H72.566z"/>
	<path d="M74.447,9.422c0.208-0.04,0.456-0.072,0.703-0.072c0.608,0,1.264,0.224,1.264,0.943c0,0.432-0.304,0.8-0.775,0.928v0.008
		c0.552,0.096,0.936,0.432,0.936,1c0,0.815-0.728,1.087-1.439,1.087c-0.352,0-0.584-0.024-0.688-0.04V9.422z M74.791,12.997
		c0.072,0.008,0.2,0.024,0.344,0.024c0.544,0,1.08-0.184,1.08-0.799s-0.616-0.832-1.152-0.832h-0.271V12.997z M74.799,11.094h0.305
		c0.383,0,0.959-0.288,0.959-0.76c0-0.536-0.447-0.68-0.92-0.68c-0.111,0-0.231,0.016-0.344,0.032V11.094z"/>
</g>
<g>
	<path d="M22.737,44.943c0.216-0.064,0.44-0.104,0.768-0.104c0.416,0,0.792,0.136,1.023,0.384c0.224,0.24,0.36,0.6,0.36,1.08
		c0,0.439-0.088,0.72-0.248,0.976c-0.272,0.432-0.744,0.655-1.248,0.655c-0.128,0-0.216,0-0.312-0.016v2.334h-0.344V44.943z
		 M23.081,47.614c0.08,0.016,0.16,0.024,0.288,0.024c0.647,0,1.159-0.408,1.159-1.327c0-0.607-0.248-1.175-1.055-1.175
		c-0.168,0-0.296,0.016-0.392,0.04V47.614z"/>
	<path d="M27.041,49.389c0,0.28,0,0.624,0.032,0.864h-0.32l-0.032-0.424h-0.024c-0.144,0.296-0.392,0.488-0.72,0.488
		c-0.472,0-0.848-0.4-0.848-1.056c0-0.927,0.696-1.359,1.567-1.367V47.75c0-0.656-0.104-1.096-0.664-1.096
		c-0.192,0-0.392,0.072-0.544,0.184l-0.096-0.264c0.128-0.112,0.424-0.224,0.711-0.224c0.52,0,0.936,0.304,0.936,1.223V49.389z
		 M26.697,48.189c-0.296,0-1.208,0.024-1.208,1.047c0,0.576,0.28,0.776,0.536,0.776c0.328,0,0.584-0.264,0.656-0.728
		c0.016-0.088,0.016-0.176,0.016-0.248V48.189z"/>
	<path d="M28.209,48.109h0.136c0.384,0,0.896-0.288,0.896-0.799c0-0.464-0.304-0.664-0.656-0.664c-0.248,0-0.488,0.096-0.68,0.208
		l-0.104-0.232c0.248-0.184,0.567-0.272,0.831-0.272c0.488,0,0.952,0.304,0.952,0.943c0,0.48-0.352,0.815-0.775,0.936v0.008
		c0.52,0.072,0.927,0.4,0.927,0.984c0,0.759-0.664,1.095-1.271,1.095c-0.272,0-0.584-0.072-0.824-0.216l0.12-0.28
		c0.184,0.112,0.439,0.208,0.704,0.208c0.512,0,0.927-0.359,0.927-0.792c0-0.624-0.552-0.832-1.023-0.832h-0.16V48.109z"/>
	<path d="M30.481,47.598c0-0.671-0.024-0.975-0.032-1.183h0.328l0.016,0.512h0.016c0.24-0.472,0.552-0.576,0.815-0.576
		c0.56,0,1.063,0.576,1.063,1.967c0,1.463-0.583,1.999-1.151,1.999c-0.392,0-0.591-0.248-0.695-0.488h-0.016v1.959h-0.344V47.598z
		 M30.825,48.837c0,0.104,0,0.208,0.016,0.312c0.144,0.744,0.503,0.864,0.704,0.864c0.6,0,0.783-0.8,0.783-1.679
		c0-0.839-0.2-1.679-0.799-1.679c-0.352,0-0.664,0.472-0.696,0.928c-0.008,0.104-0.008,0.2-0.008,0.304V48.837z"/>
	<path d="M35.12,49.389c0,0.28,0,0.624,0.032,0.864h-0.32L34.8,49.829h-0.024c-0.144,0.296-0.392,0.488-0.72,0.488
		c-0.472,0-0.848-0.4-0.848-1.056c0-0.927,0.696-1.359,1.567-1.367V47.75c0-0.656-0.104-1.096-0.664-1.096
		c-0.192,0-0.392,0.072-0.544,0.184l-0.096-0.264c0.128-0.112,0.423-0.224,0.711-0.224c0.52,0,0.936,0.304,0.936,1.223V49.389z
		 M34.776,48.189c-0.296,0-1.208,0.024-1.208,1.047c0,0.576,0.28,0.776,0.536,0.776c0.328,0,0.584-0.264,0.656-0.728
		c0.016-0.088,0.016-0.176,0.016-0.248V48.189z"/>
	<path d="M37.872,44.976c-0.16,0.063-0.48,0.12-0.76,0.216c-0.296,0.096-0.496,0.312-0.64,0.671
		c-0.16,0.384-0.224,0.824-0.264,1.199h0.016c0.112-0.352,0.439-0.647,0.832-0.647c0.56,0,1.039,0.472,1.039,1.887
		c0,1.495-0.472,2.015-1.071,2.015c-0.936,0-1.111-1.359-1.111-2.311c0-0.944,0.088-1.743,0.32-2.271
		c0.2-0.488,0.48-0.744,0.864-0.863c0.271-0.088,0.583-0.128,0.783-0.216L37.872,44.976z M37.736,48.357
		c0-0.616-0.112-1.639-0.728-1.639c-0.312,0-0.503,0.2-0.607,0.456c-0.12,0.288-0.144,0.647-0.144,0.903
		c0,0.44,0.072,1.935,0.768,1.935c0.6,0,0.712-1.032,0.712-1.647V48.357z"/>
	<path d="M39.768,50.316c-0.543,0-1.111-0.568-1.111-1.983s0.568-1.983,1.167-1.983c0.543,0,1.104,0.568,1.104,1.983
		s-0.568,1.983-1.151,1.983H39.768z M39.8,50.013c0.647,0,0.768-1.056,0.768-1.679s-0.12-1.679-0.784-1.679
		c-0.647,0-0.768,1.056-0.768,1.679s0.12,1.679,0.775,1.679H39.8z"/>
	<path d="M43.312,46.415v0.304h-0.887v3.534h-0.344v-3.534h-0.887v-0.304H43.312z"/>
	<path d="M44.128,46.415v1.751h0.072l1.223-1.751h0.432l-1.335,1.775c0.624,0.064,0.927,0.536,1.095,1.087
		c0.104,0.336,0.176,0.664,0.304,0.976h-0.368c-0.096-0.256-0.184-0.568-0.28-0.872c-0.184-0.616-0.432-0.943-1.087-0.943h-0.056
		v1.815h-0.344v-3.838H44.128z"/>
	<path d="M48.224,49.389c0,0.28,0,0.624,0.032,0.864h-0.32l-0.032-0.424H47.88c-0.144,0.296-0.392,0.488-0.72,0.488
		c-0.472,0-0.848-0.4-0.848-1.056c0-0.927,0.696-1.359,1.567-1.367V47.75c0-0.656-0.104-1.096-0.664-1.096
		c-0.192,0-0.392,0.072-0.544,0.184l-0.096-0.264c0.128-0.112,0.424-0.224,0.711-0.224c0.52,0,0.936,0.304,0.936,1.223V49.389z
		 M47.88,48.189c-0.296,0-1.208,0.024-1.208,1.047c0,0.576,0.28,0.776,0.536,0.776c0.328,0,0.584-0.264,0.656-0.728
		c0.016-0.088,0.016-0.176,0.016-0.248V48.189z"/>
	<path d="M48.873,51.26c0.128-0.336,0.344-1.199,0.416-1.695l0.472-0.08c-0.144,0.6-0.488,1.511-0.616,1.735L48.873,51.26z"/>
	<path d="M53.768,46.415v3.534h0.304l-0.032,1.303h-0.272l-0.032-1h-2.063l-0.032,1h-0.272l-0.032-1.303h0.216
		c0.176-0.272,0.312-0.552,0.408-0.84c0.144-0.456,0.208-0.943,0.208-1.527v-1.167H53.768z M52.48,47.43
		c0,0.631-0.04,1.223-0.208,1.743c-0.088,0.28-0.2,0.536-0.352,0.776h1.503v-3.23H52.48V47.43z"/>
	<path d="M55.672,50.316c-0.543,0-1.111-0.568-1.111-1.983s0.568-1.983,1.167-1.983c0.543,0,1.104,0.568,1.104,1.983
		s-0.568,1.983-1.152,1.983H55.672z M55.704,50.013c0.647,0,0.768-1.056,0.768-1.679s-0.12-1.679-0.784-1.679
		c-0.647,0-0.768,1.056-0.768,1.679s0.12,1.679,0.775,1.679H55.704z"/>
	<path d="M58.848,46.415l0.592,2.334c0.088,0.344,0.129,0.624,0.192,0.888h0.017c0.047-0.232,0.135-0.567,0.207-0.888l0.544-2.334
		h0.352l-0.527,2.151c-0.272,1.119-0.544,2.167-1.016,2.807c-0.231,0.319-0.456,0.496-0.575,0.567l-0.176-0.288
		c0.184-0.12,0.383-0.32,0.567-0.584c0.167-0.248,0.304-0.567,0.359-0.768c0.032-0.112,0.04-0.152,0.04-0.208
		c0-0.048,0-0.096-0.016-0.144l-0.912-3.534H58.848z"/>
	<path d="M63,50.141c-0.152,0.096-0.368,0.16-0.624,0.16c-0.751,0-1.279-0.68-1.279-1.959c0-1.047,0.472-1.991,1.367-1.991
		c0.185,0,0.407,0.056,0.528,0.136l-0.112,0.304c-0.08-0.048-0.248-0.128-0.472-0.128c-0.688,0-0.951,0.896-0.951,1.703
		c0,1.023,0.375,1.631,0.982,1.631c0.176,0,0.328-0.04,0.48-0.12L63,50.141z"/>
	<path d="M65.584,46.415v3.838H65.24v-3.534h-1.296v3.534h-0.344v-3.838H65.584z"/>
	<path d="M66.688,48.189c0,1.543,0.536,1.807,0.968,1.807c0.248,0,0.447-0.064,0.575-0.152l0.08,0.264
		c-0.185,0.128-0.464,0.192-0.72,0.192c-0.84,0-1.256-0.792-1.256-1.951c0-1.215,0.44-1.999,1.145-1.999
		c0.759,0,0.967,0.936,0.967,1.615c0,0.072,0,0.144,0,0.224H66.688z M68.08,47.91c0.016-0.943-0.377-1.255-0.656-1.255
		c-0.447,0-0.688,0.64-0.728,1.255H68.08z"/>
	<path d="M69.496,46.415v3.534h1.191v-3.534h0.344v3.534h1.191v-3.534h0.344v3.838h-3.414v-3.838H69.496z"/>
	<path d="M73.855,46.415v1.735h1.352v-1.735h0.344v3.838h-0.344v-1.799h-1.352v1.799h-0.344v-3.838H73.855z"/>
	<path d="M77.416,50.316c-0.544,0-1.111-0.568-1.111-1.983s0.567-1.983,1.167-1.983c0.544,0,1.104,0.568,1.104,1.983
		s-0.567,1.983-1.151,1.983H77.416z M77.447,50.013c0.648,0,0.768-1.056,0.768-1.679s-0.119-1.679-0.783-1.679
		c-0.647,0-0.768,1.056-0.768,1.679s0.12,1.679,0.775,1.679H77.447z"/>
	<path d="M80.903,46.415v0.312h-1.231v3.526h-0.344v-3.838H80.903z"/>
	<path d="M82.248,50.316c-0.544,0-1.111-0.568-1.111-1.983s0.567-1.983,1.167-1.983c0.544,0,1.104,0.568,1.104,1.983
		s-0.567,1.983-1.151,1.983H82.248z M82.279,50.013c0.648,0,0.768-1.056,0.768-1.679s-0.119-1.679-0.783-1.679
		c-0.647,0-0.768,1.056-0.768,1.679s0.12,1.679,0.775,1.679H82.279z"/>
	<path d="M31.752,56.015v3.838h-0.344v-3.534h-1.295v3.534h-0.344v-3.838H31.752z"/>
	<path d="M32.689,57.198c0-0.672-0.024-0.976-0.032-1.184h0.328l0.016,0.512h0.016c0.24-0.472,0.552-0.576,0.815-0.576
		c0.56,0,1.063,0.576,1.063,1.967c0,1.463-0.583,1.999-1.151,1.999c-0.392,0-0.591-0.248-0.695-0.488h-0.016v1.959h-0.344V57.198z
		 M33.033,58.438c0,0.104,0,0.208,0.016,0.312c0.144,0.744,0.503,0.864,0.704,0.864c0.6,0,0.783-0.8,0.783-1.679
		c0-0.839-0.2-1.679-0.799-1.679c-0.352,0-0.664,0.472-0.696,0.928c-0.008,0.104-0.008,0.2-0.008,0.304V58.438z"/>
	<path d="M36.568,59.917c-0.543,0-1.111-0.568-1.111-1.983s0.568-1.983,1.167-1.983c0.543,0,1.104,0.568,1.104,1.983
		s-0.568,1.983-1.151,1.983H36.568z M36.601,59.613c0.647,0,0.768-1.056,0.768-1.679s-0.12-1.679-0.784-1.679
		c-0.647,0-0.768,1.056-0.768,1.679s0.12,1.679,0.775,1.679H36.601z"/>
	<path d="M38.449,56.015l0.432,0.912c0.104,0.216,0.192,0.432,0.296,0.688h0.016c0.104-0.272,0.216-0.488,0.304-0.688l0.416-0.912
		h0.376l-0.944,1.895l0.919,1.943h-0.375l-0.432-0.959c-0.096-0.208-0.176-0.408-0.296-0.704h-0.016
		c-0.096,0.256-0.2,0.472-0.304,0.704l-0.432,0.959h-0.368l0.952-1.943l-0.912-1.895H38.449z"/>
	<path d="M41.696,59.917c-0.543,0-1.111-0.568-1.111-1.983s0.568-1.983,1.167-1.983c0.543,0,1.104,0.568,1.104,1.983
		s-0.568,1.983-1.151,1.983H41.696z M41.729,59.613c0.647,0,0.768-1.056,0.768-1.679s-0.12-1.679-0.784-1.679
		c-0.647,0-0.768,1.056-0.768,1.679s0.12,1.679,0.775,1.679H41.729z"/>
	<path d="M43.697,56.015l1.151,1.759h0.112v-1.759h0.328v1.759h0.12l1.143-1.759h0.416l-1.255,1.783
		c0.56,0.072,0.872,0.527,1.007,1.063c0.104,0.416,0.192,0.759,0.304,0.991h-0.344c-0.096-0.176-0.192-0.488-0.272-0.8
		c-0.216-0.823-0.567-1.015-1.063-1.015h-0.056v1.815H44.96v-1.815h-0.056c-0.712,0-0.848,0.28-1.087,1.071
		c-0.088,0.296-0.144,0.528-0.256,0.744h-0.336c0.128-0.272,0.2-0.6,0.304-0.943c0.168-0.56,0.448-1.032,1.016-1.111l-1.263-1.783
		H43.697z"/>
	<path d="M49.704,56.015v3.534h0.304l-0.032,1.303h-0.272l-0.032-1h-2.063l-0.032,1h-0.272l-0.032-1.303h0.216
		c0.176-0.272,0.312-0.552,0.408-0.84c0.144-0.456,0.208-0.943,0.208-1.527v-1.167H49.704z M48.416,57.03
		c0,0.631-0.04,1.223-0.208,1.743c-0.088,0.28-0.2,0.536-0.352,0.776h1.503v-3.23h-0.944V57.03z"/>
	<path d="M50.849,57.79c0,1.543,0.536,1.807,0.967,1.807c0.248,0,0.448-0.064,0.576-0.152l0.08,0.264
		c-0.184,0.128-0.464,0.192-0.72,0.192c-0.839,0-1.255-0.792-1.255-1.951c0-1.215,0.44-1.999,1.144-1.999
		c0.759,0,0.967,0.936,0.967,1.615c0,0.072,0,0.144,0,0.224H50.849z M52.24,57.51c0.016-0.943-0.376-1.255-0.656-1.255
		c-0.448,0-0.688,0.64-0.728,1.255H52.24z"/>
	<path d="M53.656,56.015v1.735h1.352v-1.735h0.344v3.838h-0.344v-1.799h-1.352v1.799h-0.344v-3.838H53.656z"/>
	<path d="M56.624,56.015v1.623c0,0.64,0.009,1.151-0.04,1.887H56.6c0.201-0.576,0.457-1.2,0.656-1.727l0.68-1.783h0.432v3.838
		h-0.328v-1.527c0-0.863,0.008-1.327,0.057-1.967H58.08c-0.152,0.528-0.344,1.023-0.521,1.479c-0.136,0.352-0.52,1.295-0.839,2.015
		h-0.424v-3.838H56.624z"/>
	<path d="M61.119,59.853h-0.344v-1.735h-0.239c-0.368,0-0.592,0.104-0.728,0.256c-0.24,0.264-0.256,0.711-0.393,1.191
		c-0.031,0.112-0.063,0.208-0.104,0.288h-0.376c0.064-0.12,0.112-0.216,0.16-0.384c0.112-0.392,0.151-0.928,0.432-1.239
		c0.104-0.112,0.28-0.224,0.479-0.248v-0.016c-0.432-0.08-0.823-0.384-0.823-0.944c0-0.344,0.128-0.591,0.36-0.784
		c0.207-0.176,0.567-0.288,0.911-0.288c0.239,0,0.472,0.024,0.663,0.072V59.853z M60.775,56.263
		c-0.096-0.024-0.191-0.032-0.295-0.032c-0.465,0-0.943,0.208-0.943,0.784c0,0.552,0.503,0.824,0.935,0.824c0.097,0,0.272,0,0.304,0
		V56.263z"/>
	<path d="M65.031,56.015v0.304h-0.887v3.534h-0.344v-3.534h-0.888v-0.304H65.031z"/>
	<path d="M65.584,57.79c0,1.543,0.536,1.807,0.968,1.807c0.248,0,0.448-0.064,0.575-0.152l0.08,0.264
		c-0.184,0.128-0.463,0.192-0.719,0.192c-0.84,0-1.256-0.792-1.256-1.951c0-1.215,0.439-1.999,1.144-1.999
		c0.759,0,0.968,0.936,0.968,1.615c0,0.072,0,0.144,0,0.224H65.584z M66.976,57.51c0.017-0.943-0.376-1.255-0.655-1.255
		c-0.448,0-0.688,0.64-0.729,1.255H66.976z"/>
	<path d="M69.76,59.741c-0.152,0.096-0.368,0.16-0.624,0.16c-0.751,0-1.279-0.68-1.279-1.959c0-1.047,0.472-1.991,1.367-1.991
		c0.185,0,0.407,0.056,0.528,0.136l-0.112,0.304c-0.08-0.048-0.248-0.128-0.472-0.128c-0.688,0-0.951,0.896-0.951,1.703
		c0,1.023,0.375,1.631,0.982,1.631c0.176,0,0.328-0.04,0.48-0.12L69.76,59.741z"/>
	<path d="M72.247,56.015v0.304h-0.888v3.534h-0.344v-3.534h-0.887v-0.304H72.247z"/>
	<path d="M73.56,59.917c-0.544,0-1.111-0.568-1.111-1.983s0.567-1.983,1.167-1.983c0.544,0,1.104,0.568,1.104,1.983
		s-0.567,1.983-1.15,1.983H73.56z M73.592,59.613c0.647,0,0.768-1.056,0.768-1.679s-0.12-1.679-0.783-1.679
		c-0.648,0-0.768,1.056-0.768,1.679s0.119,1.679,0.775,1.679H73.592z"/>
	<path d="M75.473,56.022c0.207-0.04,0.455-0.072,0.703-0.072c0.607,0,1.264,0.224,1.264,0.943c0,0.432-0.305,0.8-0.775,0.928v0.008
		c0.551,0.096,0.936,0.432,0.936,1c0,0.815-0.729,1.087-1.439,1.087c-0.352,0-0.584-0.024-0.688-0.04V56.022z M75.816,59.597
		c0.072,0.008,0.199,0.024,0.344,0.024c0.543,0,1.079-0.184,1.079-0.799c0-0.616-0.616-0.832-1.151-0.832h-0.271V59.597z
		 M75.824,57.694h0.304c0.384,0,0.96-0.288,0.96-0.76c0-0.536-0.448-0.68-0.92-0.68c-0.112,0-0.232,0.016-0.344,0.032V57.694z"/>
</g>
</svg>
